M48
; DRILL file {KiCad 9.0.2} date 2025-12-06T18:07:06+0900
; FORMAT={-:-/ absolute / inch / decimal}
; #@! TF.CreationDate,2025-12-06T18:07:06+09:00
; #@! TF.GenerationSoftware,Kicad,Pcbnew,9.0.2
; #@! TF.FileFunction,Plated,1,4,PTH
FMAT,2
INCH
; #@! TA.AperFunction,Plated,PTH,ViaDrill
T1C0.0118
; #@! TA.AperFunction,Plated,PTH,ComponentDrill
T2C0.0118
; #@! TA.AperFunction,Plated,PTH,ViaDrill
T3C0.0157
; #@! TA.AperFunction,Plated,PTH,ViaDrill
T4C0.0236
; #@! TA.AperFunction,Plated,PTH,ComponentDrill
T5C0.0236
; #@! TA.AperFunction,Plated,PTH,ComponentDrill
T6C0.0276
; #@! TA.AperFunction,Plated,PTH,ComponentDrill
T7C0.0295
; #@! TA.AperFunction,Plated,PTH,ComponentDrill
T8C0.0303
; #@! TA.AperFunction,Plated,PTH,ComponentDrill
T9C0.0394
; #@! TA.AperFunction,Plated,PTH,ComponentDrill
T10C0.0531
%
G90
G05
T1
X7.071Y-3.1702
X7.0768Y-2.9134
T2
X7.3071Y-3.215
X7.3071Y-3.2583
X7.3287Y-3.1933
X7.3287Y-3.2366
X7.3287Y-3.2799
X7.3504Y-3.215
X7.3504Y-3.2583
X7.372Y-3.1933
X7.372Y-3.2366
X7.372Y-3.2799
X7.3937Y-3.215
X7.3937Y-3.2583
T3
X5.3445Y-4.4587
X5.3445Y-4.7047
X5.4331Y-4.1043
X5.4528Y-4.2028
X5.5246Y-4.2618
X5.5746Y-2.612
X5.5807Y-4.1831
X5.5906Y-4.2421
X5.6063Y-2.7743
X5.6201Y-4.1929
X5.6496Y-2.8622
X5.6496Y-3.0876
X5.6496Y-3.1585
X5.6496Y-3.2352
X5.6496Y-3.2972
X5.6496Y-3.3829
X5.6496Y-3.4537
X5.6496Y-3.5318
X5.6496Y-3.6004
X5.6496Y-3.6772
X5.6496Y-3.748
X5.6496Y-3.8258
X5.6496Y-3.8957
X5.6496Y-3.9734
X5.6496Y-2.94
X5.6504Y-3.0098
X5.6693Y-4.1437
X5.7244Y-2.7743
X5.7366Y-3.4048
X5.7421Y-3.8536
X5.7471Y-3.2637
X5.748Y-2.8445
X5.748Y-2.9429
X5.748Y-2.9921
X5.748Y-3.0906
X5.748Y-3.1398
X5.748Y-3.5433
X5.748Y-3.5827
X5.748Y-3.6811
X5.748Y-3.7303
X5.748Y-3.9764
X5.7509Y-3.3563
X5.7874Y-3.435
X5.7874Y-3.5138
X5.7972Y-3.6516
X5.8022Y-3.3563
X5.813Y-3.813
X5.8169Y-3.9075
X5.8268Y-3.7894
X5.8268Y-3.8366
X5.8366Y-3.2382
X5.8406Y-3.813
X5.8425Y-2.7743
X5.8543Y-3.7894
X5.8543Y-3.8366
X5.8563Y-3.2972
X5.8681Y-3.813
X5.8819Y-3.7894
X5.8819Y-3.8366
X5.8858Y-3.1102
X5.8875Y-3.7222
X5.8957Y-3.813
X5.9094Y-3.8366
X5.9154Y-3.3071
X5.9154Y-3.6417
X5.9154Y-3.9665
X5.9232Y-3.813
X5.9606Y-2.7743
X5.9646Y-3.3957
X5.9646Y-3.5531
X5.9843Y-3.2382
X6.0236Y-3.3957
X6.0335Y-3.7598
X6.0433Y-3.2382
X6.0472Y-3.7362
X6.0472Y-3.7835
X6.0531Y-3.3465
X6.0531Y-3.5925
X6.0531Y-3.6417
X6.061Y-3.7598
X6.063Y-3.6811
X6.0748Y-3.7362
X6.0748Y-3.7835
X6.0787Y-2.7743
X6.0886Y-3.7598
X6.122Y-3.8681
X6.122Y-3.937
X6.1319Y-3.2776
X6.1614Y-3.75
X6.1614Y-3.7894
X6.1811Y-4.061
X6.185Y-3.6614
X6.1949Y-4.0374
X6.1969Y-2.7743
X6.1988Y-3.6378
X6.2087Y-4.061
X6.2126Y-3.6614
X6.2224Y-4.0374
X6.2264Y-3.6378
X6.2362Y-4.061
X6.2402Y-3.6614
X6.25Y-4.0374
X6.2539Y-3.6378
X6.2638Y-4.061
X6.2677Y-3.6614
X6.2697Y-3.2776
X6.2697Y-3.5925
X6.2776Y-4.0374
X6.2815Y-3.6378
X6.2835Y-3.8753
X6.2913Y-4.061
X6.2953Y-3.6614
X6.3051Y-4.0374
X6.315Y-2.7743
X6.315Y-3.8386
X6.3189Y-4.061
X6.3287Y-3.815
X6.3287Y-3.8622
X6.3307Y-2.8701
X6.3327Y-4.0374
X6.3366Y-3.5827
X6.3425Y-3.8386
X6.3465Y-4.061
X6.3563Y-3.7441
X6.3563Y-3.815
X6.3563Y-3.8622
X6.3661Y-3.5827
X6.3701Y-3.8386
X6.3839Y-3.815
X6.3839Y-3.8622
X6.3976Y-3.8386
X6.4032Y-3.539
X6.4075Y-2.9528
X6.4075Y-3.0669
X6.4114Y-3.815
X6.4114Y-3.8622
X6.4252Y-3.8386
X6.4272Y-3.248
X6.4291Y-3.5827
X6.4449Y-2.9488
X6.4469Y-3.1299
X6.4587Y-3.5827
X6.4657Y-3.2569
X6.4862Y-2.8839
X6.4921Y-3.7047
X6.4921Y-3.7323
X6.4961Y-3.5925
X6.498Y-3.4469
X6.5256Y-3.1299
X6.5354Y-3.9961
X6.5728Y-3.685
X6.5728Y-3.6575
X6.5748Y-3.189
X6.5862Y-3.5772
X6.6004Y-3.6575
X6.6004Y-3.685
X6.624Y-2.9331
X6.6437Y-3.4449
X6.6535Y-2.9528
X6.6634Y-3.1988
X6.6657Y-2.772
X6.6791Y-3.7008
X6.6791Y-3.7283
X6.7126Y-3.5827
X6.7323Y-3.5039
X6.7421Y-3.5827
X6.752Y-3.189
X6.7618Y-4.7047
X6.7717Y-3.6417
X6.7717Y-3.5827
X6.7717Y-3.6122
X6.7913Y-2.8839
X6.7913Y-3.1988
X6.7913Y-3.5039
X6.8307Y-4.0256
X6.8602Y-3.9075
X6.8602Y-3.5531
X6.8602Y-3.8484
X6.8602Y-3.878
X6.8799Y-3.4055
X6.8799Y-3.4449
X6.8996Y-3.6262
X6.8996Y-3.75
X6.9344Y-3.6535
X6.9353Y-3.1261
X6.9368Y-3.7763
X6.9574Y-3.8588
X6.9685Y-3.5492
X6.9705Y-3.6969
X6.9764Y-2.9331
X6.9783Y-2.8839
X6.9921Y-2.6181
X6.998Y-3.6969
X6.9999Y-3.0866
X7.0078Y-3.7742
X7.0177Y-3.2972
X7.0276Y-3.3366
X7.0639Y-3.6654
X7.0669Y-3.2185
X7.1161Y-4.7047
X7.1181Y-2.8071
X7.126Y-3.0906
X7.1358Y-4.2028
X7.1752Y-3.7992
X7.2146Y-3.3268
X7.2311Y-4.2764
X7.2569Y-3.7589
X7.2638Y-3.376
X7.2756Y-2.7992
X7.2813Y-4.311
X7.3327Y-3.6516
X7.36Y-4.4606
X7.3622Y-3.1299
X7.3917Y-3.7106
X7.3917Y-3.75
X7.435Y-4.363
X7.4409Y-3.3071
X7.4805Y-4.3124
X7.4961Y-2.7992
X7.5295Y-3.6811
X7.5311Y-4.2772
X7.553Y-4.4646
X7.5689Y-2.9134
X7.5689Y-3.6122
X7.5787Y-4.2028
X7.5984Y-2.6693
X7.5984Y-4.3583
X7.626Y-2.9134
X7.626Y-3.4941
X7.7008Y-2.6102
X7.8346Y-4.2126
T4
X6.3976Y-4.0945
X6.4764Y-4.0945
X6.8504Y-3.6024
X6.8504Y-3.6417
X6.8504Y-3.6811
X6.8504Y-3.7205
X7.5197Y-2.7215
T6
X7.1348Y-3.7297
X7.1348Y-4.4297
X7.1348Y-4.5297
X7.7348Y-3.6297
X7.7348Y-3.8297
X7.7348Y-4.4297
X7.7348Y-4.5297
T7
X6.9291Y-3.2185
X6.9291Y-3.2972
T8
X6.8209Y-3.2913
X6.8209Y-3.3622
T9
X6.8602Y-2.7362
X6.9602Y-2.7362
X7.0602Y-2.7362
X7.1602Y-2.7362
X7.2602Y-2.7362
X7.3602Y-2.7362
T10
X5.2628Y-2.9006
X5.2628Y-3.0482
X5.2628Y-3.1959
X5.2628Y-3.3435
X5.2628Y-3.4911
X5.2628Y-3.6388
X5.2628Y-3.7864
X5.2628Y-3.9341
X5.2628Y-4.0817
X5.2628Y-4.2293
X5.2628Y-4.3868
T5
G00X7.2807Y-4.5205
M15
G01X7.2807Y-4.5638
M16
G05
G00X7.2807Y-4.6949
M15
G01X7.2807Y-4.7185
M16
G05
G00X7.6209Y-4.5205
M15
G01X7.6209Y-4.5638
M16
G05
G00X7.6209Y-4.6949
M15
G01X7.6209Y-4.7185
M16
G05
M30
