%TF.GenerationSoftware,KiCad,Pcbnew,9.0.2*%
%TF.CreationDate,2025-12-06T18:07:06+09:00*%
%TF.ProjectId,ECG,4543472e-6b69-4636-9164-5f7063625858,rev?*%
%TF.SameCoordinates,Original*%
%TF.FileFunction,Copper,L4,Bot*%
%TF.FilePolarity,Positive*%
%FSLAX46Y46*%
G04 Gerber Fmt 4.6, Leading zero omitted, Abs format (unit mm)*
G04 Created by KiCad (PCBNEW 9.0.2) date 2025-12-06 18:07:06*
%MOMM*%
%LPD*%
G01*
G04 APERTURE LIST*
G04 Aperture macros list*
%AMRoundRect*
0 Rectangle with rounded corners*
0 $1 Rounding radius*
0 $2 $3 $4 $5 $6 $7 $8 $9 X,Y pos of 4 corners*
0 Add a 4 corners polygon primitive as box body*
4,1,4,$2,$3,$4,$5,$6,$7,$8,$9,$2,$3,0*
0 Add four circle primitives for the rounded corners*
1,1,$1+$1,$2,$3*
1,1,$1+$1,$4,$5*
1,1,$1+$1,$6,$7*
1,1,$1+$1,$8,$9*
0 Add four rect primitives between the rounded corners*
20,1,$1+$1,$2,$3,$4,$5,0*
20,1,$1+$1,$4,$5,$6,$7,0*
20,1,$1+$1,$6,$7,$8,$9,0*
20,1,$1+$1,$8,$9,$2,$3,0*%
G04 Aperture macros list end*
%TA.AperFunction,ComponentPad*%
%ADD10RoundRect,0.262500X-0.612500X-0.612500X0.612500X-0.612500X0.612500X0.612500X-0.612500X0.612500X0*%
%TD*%
%TA.AperFunction,HeatsinkPad*%
%ADD11C,0.600000*%
%TD*%
%TA.AperFunction,ComponentPad*%
%ADD12O,1.000000X2.100000*%
%TD*%
%TA.AperFunction,ComponentPad*%
%ADD13O,1.000000X1.600000*%
%TD*%
%TA.AperFunction,ComponentPad*%
%ADD14R,1.700000X1.700000*%
%TD*%
%TA.AperFunction,ComponentPad*%
%ADD15O,1.700000X1.700000*%
%TD*%
%TA.AperFunction,ComponentPad*%
%ADD16C,1.320000*%
%TD*%
%TA.AperFunction,ComponentPad*%
%ADD17C,1.200000*%
%TD*%
%TA.AperFunction,ComponentPad*%
%ADD18RoundRect,0.250000X-0.625000X0.350000X-0.625000X-0.350000X0.625000X-0.350000X0.625000X0.350000X0*%
%TD*%
%TA.AperFunction,ComponentPad*%
%ADD19O,1.750000X1.200000*%
%TD*%
%TA.AperFunction,ViaPad*%
%ADD20C,0.600000*%
%TD*%
%TA.AperFunction,ViaPad*%
%ADD21C,0.800000*%
%TD*%
%TA.AperFunction,Conductor*%
%ADD22C,0.300000*%
%TD*%
%TA.AperFunction,Conductor*%
%ADD23C,0.500000*%
%TD*%
%TA.AperFunction,Conductor*%
%ADD24C,1.500000*%
%TD*%
%TA.AperFunction,Conductor*%
%ADD25C,1.000000*%
%TD*%
G04 APERTURE END LIST*
D10*
%TO.P,TP3,1,1*%
%TO.N,Net-(IC3-+IN)*%
X133675000Y-81175000D03*
%TD*%
%TO.P,TP7,1,1*%
%TO.N,L-ARM*%
X133675000Y-96175000D03*
%TD*%
%TO.P,TP5,1,1*%
%TO.N,Net-(IC5-+IN)*%
X133675000Y-88675000D03*
%TD*%
%TO.P,TP10,1,1*%
%TO.N,R-LEG*%
X133675000Y-107425000D03*
%TD*%
%TO.P,TP2,1,1*%
%TO.N,Net-(IC2-+IN)*%
X133675000Y-77425000D03*
%TD*%
%TO.P,TP11,1,1*%
%TO.N,GNDREF-in*%
X133675000Y-111425000D03*
%TD*%
%TO.P,TP4,1,1*%
%TO.N,Net-(IC4-+IN)*%
X133675000Y-84925000D03*
%TD*%
D11*
%TO.P,U2,19,GND*%
%TO.N,GNDPWR*%
X187250000Y-81110000D03*
X186150000Y-81110000D03*
X187800000Y-81660000D03*
X186700000Y-81660000D03*
X185600000Y-81660000D03*
X187250000Y-82210000D03*
X186150000Y-82210000D03*
X187800000Y-82760000D03*
X186700000Y-82760000D03*
X185600000Y-82760000D03*
X187250000Y-83310000D03*
X186150000Y-83310000D03*
%TD*%
D10*
%TO.P,TP6,1,1*%
%TO.N,Net-(IC6-+IN)*%
X133675000Y-92425000D03*
%TD*%
%TO.P,TP9,1,1*%
%TO.N,L-LEG*%
X133675000Y-103675000D03*
%TD*%
%TO.P,TP1,1,1*%
%TO.N,Net-(IC1-+IN)*%
X133675000Y-73675000D03*
%TD*%
%TO.P,TP8,1,1*%
%TO.N,R-ARM*%
X133675000Y-99925000D03*
%TD*%
D12*
%TO.P,J2,S1,SHIELD*%
%TO.N,GND2*%
X184930000Y-115370000D03*
D13*
X184930000Y-119550000D03*
D12*
X193570000Y-115370000D03*
D13*
X193570000Y-119550000D03*
%TD*%
D14*
%TO.P,J1,1,Pin_1*%
%TO.N,GNDPWR*%
X174250000Y-69500000D03*
D15*
%TO.P,J1,2,Pin_2*%
%TO.N,VDD*%
X176790000Y-69500000D03*
%TO.P,J1,3,Pin_3*%
%TO.N,+5V*%
X179329999Y-69500000D03*
%TO.P,J1,4,Pin_4*%
%TO.N,SCL*%
X181870000Y-69500000D03*
%TO.P,J1,5,Pin_5*%
%TO.N,SDA*%
X184410000Y-69500000D03*
%TO.P,J1,6,Pin_6*%
%TO.N,GNDPWR*%
X186950000Y-69500000D03*
%TD*%
D16*
%TO.P,TH1,1*%
%TO.N,Net-(IC11-TS{slash}MR)*%
X173250000Y-85400000D03*
%TO.P,TH1,2*%
%TO.N,GNDPWR*%
X173250000Y-83600000D03*
%TD*%
D17*
%TO.P,PS2,2,-VIN_1*%
%TO.N,GND2*%
X181225000Y-115055000D03*
%TO.P,PS2,3,-VIN_2*%
X181225000Y-112515000D03*
%TO.P,PS2,10,TRIM*%
%TO.N,Net-(PS2-TRIM)*%
X181225000Y-94735000D03*
%TO.P,PS2,14,+VOUT*%
%TO.N,Net-(IC11-IN)*%
X196465000Y-92195000D03*
%TO.P,PS2,16,-VOUT*%
%TO.N,GNDPWR*%
X196465000Y-97275000D03*
%TO.P,PS2,22,+VIN_1*%
%TO.N,Net-(PS2-+VIN_1)*%
X196465000Y-112515000D03*
%TO.P,PS2,23,+VIN_2*%
X196465000Y-115055000D03*
%TD*%
D18*
%TO.P,BT1,1,+*%
%TO.N,Net-(BT1-+)*%
X176000000Y-81749999D03*
D19*
%TO.P,BT1,2,-*%
%TO.N,GNDPWR*%
X176000000Y-83750000D03*
%TD*%
D20*
%TO.N,+BATT*%
X165000000Y-91249998D03*
X172500000Y-81250000D03*
X176194835Y-95917473D03*
X172500000Y-73250000D03*
X167289359Y-90860705D03*
X177997499Y-95864382D03*
%TO.N,GNDPWR*%
X163700000Y-74900000D03*
X156500000Y-96250000D03*
X167650000Y-93600000D03*
X153750000Y-85000000D03*
X153750000Y-92500000D03*
X169308500Y-70408500D03*
D21*
X162500000Y-104000000D03*
D20*
X178500000Y-84750000D03*
X163750000Y-79500000D03*
X145400000Y-70466000D03*
X170500000Y-90999999D03*
X177000000Y-90150000D03*
X183250000Y-84500000D03*
X148250000Y-82250000D03*
X171750000Y-119500000D03*
X171999999Y-92499999D03*
X166000000Y-101500000D03*
X167650000Y-92900000D03*
X166950000Y-93600001D03*
X135750000Y-113250000D03*
X174249999Y-99250000D03*
X177050000Y-93900000D03*
X160750000Y-96900000D03*
X154300000Y-94900000D03*
X172000000Y-90999999D03*
X184500000Y-85750000D03*
X168750000Y-87500000D03*
X156500000Y-95250000D03*
X171500000Y-81000000D03*
X164050000Y-90999999D03*
X195600000Y-66300000D03*
X146000000Y-90000000D03*
X164228480Y-82726032D03*
X161700000Y-91000000D03*
X163300000Y-90999999D03*
X192250000Y-74000000D03*
X160950000Y-91000000D03*
X153750000Y-91250000D03*
X177200000Y-74500000D03*
X145849000Y-97881000D03*
X144000000Y-105250000D03*
X173500000Y-102250000D03*
X153500000Y-82250000D03*
X145977380Y-82897620D03*
X175249999Y-92105520D03*
X146000000Y-79750000D03*
X177600000Y-66500000D03*
X162150000Y-96900000D03*
X141750000Y-106250000D03*
X148400000Y-70466000D03*
X174250000Y-90250000D03*
X146000000Y-74750000D03*
X181000000Y-78500000D03*
X160400000Y-70466000D03*
X150250000Y-100750000D03*
X162150000Y-98100000D03*
X163250000Y-82500000D03*
X153000000Y-86250000D03*
D21*
X164500000Y-104000000D03*
D20*
X187750000Y-94250000D03*
X151500000Y-86250000D03*
X166950001Y-92900000D03*
X169000000Y-75000000D03*
X161100000Y-97500000D03*
X142000000Y-107750000D03*
X172000000Y-91749999D03*
X159250000Y-91250000D03*
X160750000Y-98100000D03*
X153250000Y-95500000D03*
X186250000Y-92750000D03*
X189000000Y-84000000D03*
X146000000Y-94750000D03*
X160800000Y-72900000D03*
X165750000Y-79500000D03*
X184800000Y-71100000D03*
X146000000Y-76000000D03*
X165049999Y-87549999D03*
X171000000Y-89000000D03*
X151400000Y-70466000D03*
X174250000Y-98500000D03*
X149500000Y-79000000D03*
X135750000Y-119500000D03*
X175250000Y-95250000D03*
X190400000Y-71100000D03*
X161800000Y-97500000D03*
X155500000Y-98250000D03*
X161450000Y-96900000D03*
X145709894Y-86481836D03*
X142400000Y-70466000D03*
X172500000Y-89000000D03*
X160400000Y-97500000D03*
X193000000Y-67800000D03*
X141595495Y-66345045D03*
X177750000Y-93900000D03*
X151500000Y-90250000D03*
X146000000Y-72250000D03*
X171250000Y-90999999D03*
X146000000Y-101000000D03*
X161450000Y-98100000D03*
X138500000Y-106750000D03*
X146000000Y-93500000D03*
X193700000Y-74000000D03*
X153950000Y-95500000D03*
X162850000Y-96900000D03*
X184325000Y-95475000D03*
X193700000Y-88750000D03*
X155750000Y-83250000D03*
X154300000Y-96100000D03*
X153600000Y-96100000D03*
X147750000Y-99250000D03*
X164750000Y-73250000D03*
X157400000Y-70466000D03*
X154400000Y-70466000D03*
X146000000Y-91000000D03*
X162500000Y-97500000D03*
X140325000Y-108250000D03*
X146000000Y-78500000D03*
X174250000Y-97750000D03*
X163200000Y-97500000D03*
X153600000Y-94900000D03*
X174750000Y-87500000D03*
X155500000Y-100000000D03*
X162850000Y-98100000D03*
X154650000Y-95500000D03*
X167000000Y-81000000D03*
X187000000Y-79500000D03*
X178250000Y-83750000D03*
X180800000Y-71300000D03*
D21*
%TO.N,VDD*%
X174000000Y-92500000D03*
D20*
X152000000Y-82250000D03*
X192250000Y-91750000D03*
D21*
X174000000Y-91500000D03*
X174000000Y-94500000D03*
X174000000Y-93500000D03*
D20*
X159250000Y-83250000D03*
D21*
X191000000Y-69125000D03*
D20*
%TO.N,VCC*%
X143500000Y-83750000D03*
X157100000Y-93000000D03*
X157450000Y-92400000D03*
X143500000Y-80225000D03*
X157800000Y-93000000D03*
X143500000Y-72700000D03*
X138000000Y-104250000D03*
X159200000Y-93000000D03*
X143500000Y-87725000D03*
X154000000Y-93500000D03*
X159900000Y-93000000D03*
X158500000Y-93000000D03*
X158150000Y-92400000D03*
X143500000Y-98950000D03*
X143519309Y-76450000D03*
X159550000Y-92400000D03*
X158850000Y-92400000D03*
X143500000Y-91450000D03*
X143500000Y-95200000D03*
%TO.N,VSS*%
X143500000Y-82175000D03*
X143500906Y-74675000D03*
X143500000Y-89708323D03*
X157000000Y-103150000D03*
X142750000Y-106500000D03*
X143500000Y-78425000D03*
X143500000Y-85925000D03*
X158400000Y-103150000D03*
X158050000Y-102550000D03*
X143500000Y-93400000D03*
X158750000Y-102550000D03*
X157700000Y-103150000D03*
X157350000Y-102550000D03*
X143500000Y-97175000D03*
X160850000Y-102550000D03*
X159100000Y-103150000D03*
X160150000Y-102550000D03*
X160500000Y-103150000D03*
X159450000Y-102550000D03*
X159800000Y-103150000D03*
X143500000Y-100925000D03*
X161200000Y-103150000D03*
%TO.N,+5V*%
X164900000Y-94800000D03*
X159601011Y-98431771D03*
X169650000Y-94699999D03*
X162640409Y-89890409D03*
X161450000Y-95099998D03*
X169650000Y-94000000D03*
X164900000Y-94099999D03*
%TO.N,GND*%
X150250000Y-84000000D03*
X148000000Y-97450000D03*
X146074000Y-85250000D03*
X147000000Y-87250000D03*
X148750000Y-83750000D03*
X150250000Y-92500000D03*
X149050000Y-96850000D03*
X149543141Y-94543141D03*
X150100000Y-97450000D03*
X148000000Y-96250000D03*
X147375000Y-85250000D03*
X148700000Y-96250000D03*
X147000000Y-89250000D03*
X149400000Y-96250000D03*
X149400000Y-97450000D03*
X150450000Y-96850000D03*
X147250000Y-92750000D03*
X149750000Y-96850000D03*
X148700000Y-97450000D03*
X148350000Y-96850000D03*
X147650000Y-96850000D03*
%TO.N,Net-(D5-A)*%
X177250000Y-73250000D03*
X179500000Y-81750000D03*
%TO.N,Net-(IC11-IN)*%
X182250000Y-96500000D03*
X176133736Y-92800002D03*
X191250000Y-93500000D03*
X174750000Y-86500000D03*
X187750000Y-95250000D03*
%TO.N,Net-(BT1-+)*%
X179424000Y-93100000D03*
X176719030Y-98014294D03*
%TO.N,Net-(PS2-+VIN_1)*%
X184945000Y-109500000D03*
X186945000Y-113300000D03*
X191845000Y-113400000D03*
%TO.N,GND2*%
X192500000Y-106750000D03*
X199000000Y-107000000D03*
X193000000Y-110700000D03*
X181250000Y-106750000D03*
X183670000Y-108620000D03*
X191290000Y-108640000D03*
X180750000Y-119500000D03*
%TO.N,Net-(U3-UD+)*%
X188849999Y-110819238D03*
X190004620Y-109535380D03*
%TO.N,SCL*%
X169250000Y-81250000D03*
X168250000Y-74500000D03*
%TO.N,PWR-OFF*%
X177798498Y-78400000D03*
X176156463Y-79402000D03*
%TO.N,Net-(LED10-DI)*%
X179604071Y-80523311D03*
X179750000Y-74000000D03*
%TO.N,Net-(U2-EN)*%
X162750000Y-75000000D03*
X162750000Y-77900000D03*
%TD*%
D22*
%TO.N,+BATT*%
X173050000Y-95550000D02*
X173417473Y-95917473D01*
X165000000Y-91249998D02*
X166900066Y-91249998D01*
X173050000Y-90500000D02*
X173050000Y-95550000D01*
X167289359Y-90860705D02*
X168400064Y-89750000D01*
D23*
X172500000Y-73250000D02*
X172500000Y-81250000D01*
X177961879Y-95900001D02*
X176212307Y-95900001D01*
D22*
X172300000Y-89750000D02*
X173050000Y-90500000D01*
D23*
X177997499Y-95864382D02*
X177961879Y-95900001D01*
D22*
X168400064Y-89750000D02*
X171670655Y-89750000D01*
X173417473Y-95917473D02*
X176194835Y-95917473D01*
X166900066Y-91249998D02*
X167289359Y-90860705D01*
X172500000Y-81250000D02*
X171670655Y-82079345D01*
X171670655Y-89750000D02*
X172300000Y-89750000D01*
X171670655Y-82079345D02*
X171670655Y-89750000D01*
%TO.N,GNDPWR*%
X138500000Y-106750000D02*
X139500000Y-107750000D01*
X139500000Y-107750000D02*
X142000000Y-107750000D01*
%TO.N,+5V*%
X162640409Y-89890409D02*
X162640409Y-90109591D01*
D23*
X162640409Y-90109591D02*
X162500000Y-90250000D01*
X159601011Y-96948987D02*
X161450000Y-95099998D01*
D24*
X163600000Y-71900000D02*
X161000000Y-74500000D01*
D23*
X162500000Y-95099998D02*
X164600002Y-95099998D01*
D24*
X179329999Y-69500000D02*
X179329999Y-70670001D01*
X162640409Y-84390409D02*
X162640409Y-89890409D01*
D23*
X161450000Y-95099998D02*
X162500000Y-95099998D01*
X162500000Y-90250000D02*
X162500000Y-95099998D01*
D24*
X178100000Y-71900000D02*
X163600000Y-71900000D01*
X179329999Y-70670001D02*
X178100000Y-71900000D01*
X161000000Y-74500000D02*
X161000000Y-82750000D01*
D23*
X159601011Y-98431771D02*
X159601011Y-96948987D01*
D24*
X161000000Y-82750000D02*
X162640409Y-84390409D01*
D23*
X164600002Y-95099998D02*
X164900000Y-94800000D01*
D22*
%TO.N,GND*%
X146074000Y-85250000D02*
X147375000Y-85250000D01*
D23*
%TO.N,Net-(D5-A)*%
X178549498Y-74549498D02*
X178549498Y-80799498D01*
X178549498Y-80799498D02*
X179500000Y-81750000D01*
X177250000Y-73250000D02*
X178549498Y-74549498D01*
%TO.N,Net-(IC11-IN)*%
X186125000Y-95875000D02*
X185500000Y-96500000D01*
X187750000Y-95250000D02*
X189000000Y-95250000D01*
X186750000Y-95250000D02*
X186125000Y-95875000D01*
D25*
X177183738Y-91750000D02*
X176133736Y-92800002D01*
D22*
X177700000Y-91233738D02*
X177183738Y-91750000D01*
D25*
X189500000Y-91750000D02*
X177183738Y-91750000D01*
D22*
X174750000Y-86500000D02*
X176500000Y-86500000D01*
X177700000Y-87700000D02*
X177700000Y-91233738D01*
D23*
X185500000Y-96500000D02*
X182250000Y-96500000D01*
X187750000Y-95250000D02*
X186750000Y-95250000D01*
X189000000Y-95250000D02*
X189500000Y-95250000D01*
D22*
X176500000Y-86500000D02*
X177700000Y-87700000D01*
D23*
X189000000Y-95250000D02*
X187750000Y-95250000D01*
D25*
X191250000Y-93500000D02*
X189500000Y-91750000D01*
D23*
X189500000Y-95250000D02*
X191250000Y-93500000D01*
%TO.N,Net-(BT1-+)*%
X179424000Y-93100000D02*
X179424000Y-96576000D01*
X177985706Y-98014294D02*
X176719030Y-98014294D01*
X179424000Y-96576000D02*
X177985706Y-98014294D01*
D25*
%TO.N,Net-(PS2-+VIN_1)*%
X191845000Y-113400000D02*
X196315000Y-113400000D01*
X196315000Y-113400000D02*
X196465000Y-113250000D01*
X196465000Y-112515000D02*
X196465000Y-115055000D01*
X184945000Y-111300000D02*
X186945000Y-113300000D01*
X195000000Y-113400000D02*
X195580000Y-113400000D01*
X196465000Y-113250000D02*
X196465000Y-112515000D01*
X187045000Y-113400000D02*
X191845000Y-113400000D01*
X184945000Y-109500000D02*
X184945000Y-111300000D01*
X186945000Y-113300000D02*
X187045000Y-113400000D01*
D22*
%TO.N,Net-(U3-UD+)*%
X188849999Y-110690001D02*
X190004620Y-109535380D01*
X188849999Y-110819238D02*
X188849999Y-110690001D01*
D23*
%TO.N,SCL*%
X168250000Y-80250000D02*
X169250000Y-81250000D01*
X168250000Y-74500000D02*
X168250000Y-80250000D01*
D22*
%TO.N,PWR-OFF*%
X176796498Y-79402000D02*
X177798498Y-78400000D01*
X176156463Y-79402000D02*
X176796498Y-79402000D01*
D23*
%TO.N,Net-(LED10-DI)*%
X179604071Y-74145929D02*
X179604071Y-80523311D01*
X179750000Y-74000000D02*
X179604071Y-74145929D01*
D22*
%TO.N,Net-(U2-EN)*%
X162750000Y-75000000D02*
X162750000Y-77900000D01*
%TD*%
%TA.AperFunction,Conductor*%
%TO.N,GND2*%
G36*
X192265677Y-106019685D02*
G01*
X192286319Y-106036319D01*
X192750000Y-106500000D01*
X199375500Y-106500000D01*
X199442539Y-106519685D01*
X199488294Y-106572489D01*
X199499500Y-106624000D01*
X199499500Y-119496249D01*
X199499274Y-119503736D01*
X199481728Y-119793794D01*
X199479923Y-119808659D01*
X199428219Y-120090798D01*
X199424635Y-120105336D01*
X199339306Y-120379167D01*
X199333997Y-120393168D01*
X199216275Y-120654736D01*
X199209316Y-120667995D01*
X199060928Y-120913459D01*
X199052422Y-120925782D01*
X198875526Y-121151573D01*
X198865596Y-121162781D01*
X198662781Y-121365596D01*
X198651573Y-121375526D01*
X198425782Y-121552422D01*
X198413459Y-121560928D01*
X198167995Y-121709316D01*
X198154736Y-121716275D01*
X197893168Y-121833997D01*
X197879167Y-121839306D01*
X197605336Y-121924635D01*
X197590798Y-121928219D01*
X197308659Y-121979923D01*
X197293794Y-121981728D01*
X197003736Y-121999274D01*
X196996249Y-121999500D01*
X183194817Y-121999500D01*
X183187212Y-121999499D01*
X183187209Y-121999499D01*
X183157020Y-121999499D01*
X183125063Y-121999499D01*
X183125062Y-121999498D01*
X183117579Y-121999273D01*
X182827519Y-121981730D01*
X182812654Y-121979925D01*
X182530522Y-121928224D01*
X182515989Y-121924642D01*
X182379060Y-121881975D01*
X182242138Y-121839309D01*
X182228137Y-121833999D01*
X181966573Y-121716280D01*
X181953314Y-121709321D01*
X181707849Y-121560933D01*
X181695526Y-121552427D01*
X181469737Y-121375535D01*
X181458529Y-121365606D01*
X181255704Y-121162783D01*
X181245774Y-121151574D01*
X181245773Y-121151573D01*
X181068876Y-120925781D01*
X181060378Y-120913470D01*
X180911978Y-120667988D01*
X180905029Y-120654746D01*
X180787302Y-120393168D01*
X180782003Y-120379198D01*
X180696660Y-120105322D01*
X180693081Y-120090800D01*
X180641376Y-119808661D01*
X180639571Y-119793797D01*
X180639571Y-119793794D01*
X180622046Y-119504066D01*
X180621820Y-119496579D01*
X180621820Y-119381902D01*
X180587436Y-119164815D01*
X180585328Y-119151504D01*
X183930000Y-119151504D01*
X183930000Y-119300000D01*
X184630000Y-119300000D01*
X184630000Y-119800000D01*
X183930000Y-119800000D01*
X183930000Y-119948495D01*
X183968427Y-120141681D01*
X183968430Y-120141693D01*
X184043807Y-120323671D01*
X184043814Y-120323684D01*
X184153248Y-120487462D01*
X184153251Y-120487466D01*
X184292533Y-120626748D01*
X184292537Y-120626751D01*
X184456315Y-120736185D01*
X184456328Y-120736192D01*
X184638308Y-120811569D01*
X184680000Y-120819862D01*
X184680000Y-120016988D01*
X184689940Y-120034205D01*
X184745795Y-120090060D01*
X184814204Y-120129556D01*
X184890504Y-120150000D01*
X184969496Y-120150000D01*
X185045796Y-120129556D01*
X185114205Y-120090060D01*
X185170060Y-120034205D01*
X185180000Y-120016988D01*
X185180000Y-120819862D01*
X185221690Y-120811569D01*
X185221692Y-120811569D01*
X185403671Y-120736192D01*
X185403684Y-120736185D01*
X185567462Y-120626751D01*
X185567466Y-120626748D01*
X185706748Y-120487466D01*
X185706751Y-120487462D01*
X185816185Y-120323684D01*
X185816192Y-120323671D01*
X185891569Y-120141693D01*
X185891572Y-120141681D01*
X185929999Y-119948495D01*
X185930000Y-119948492D01*
X185930000Y-119800000D01*
X185230000Y-119800000D01*
X185230000Y-119300000D01*
X185930000Y-119300000D01*
X185930000Y-119151508D01*
X185929999Y-119151504D01*
X192570000Y-119151504D01*
X192570000Y-119300000D01*
X193270000Y-119300000D01*
X193270000Y-119800000D01*
X192570000Y-119800000D01*
X192570000Y-119948495D01*
X192608427Y-120141681D01*
X192608430Y-120141693D01*
X192683807Y-120323671D01*
X192683814Y-120323684D01*
X192793248Y-120487462D01*
X192793251Y-120487466D01*
X192932533Y-120626748D01*
X192932537Y-120626751D01*
X193096315Y-120736185D01*
X193096328Y-120736192D01*
X193278308Y-120811569D01*
X193320000Y-120819862D01*
X193320000Y-120016988D01*
X193329940Y-120034205D01*
X193385795Y-120090060D01*
X193454204Y-120129556D01*
X193530504Y-120150000D01*
X193609496Y-120150000D01*
X193685796Y-120129556D01*
X193754205Y-120090060D01*
X193810060Y-120034205D01*
X193820000Y-120016988D01*
X193820000Y-120819862D01*
X193861690Y-120811569D01*
X193861692Y-120811569D01*
X194043671Y-120736192D01*
X194043684Y-120736185D01*
X194207462Y-120626751D01*
X194207466Y-120626748D01*
X194346748Y-120487466D01*
X194346751Y-120487462D01*
X194456185Y-120323684D01*
X194456192Y-120323671D01*
X194531569Y-120141693D01*
X194531572Y-120141681D01*
X194569999Y-119948495D01*
X194570000Y-119948492D01*
X194570000Y-119800000D01*
X193870000Y-119800000D01*
X193870000Y-119300000D01*
X194570000Y-119300000D01*
X194570000Y-119151508D01*
X194569999Y-119151504D01*
X194531572Y-118958318D01*
X194531569Y-118958306D01*
X194456192Y-118776328D01*
X194456185Y-118776315D01*
X194346751Y-118612537D01*
X194346748Y-118612533D01*
X194207466Y-118473251D01*
X194207462Y-118473248D01*
X194043684Y-118363814D01*
X194043671Y-118363807D01*
X193861691Y-118288429D01*
X193861683Y-118288427D01*
X193820000Y-118280135D01*
X193820000Y-119083011D01*
X193810060Y-119065795D01*
X193754205Y-119009940D01*
X193685796Y-118970444D01*
X193609496Y-118950000D01*
X193530504Y-118950000D01*
X193454204Y-118970444D01*
X193385795Y-119009940D01*
X193329940Y-119065795D01*
X193320000Y-119083011D01*
X193320000Y-118280136D01*
X193319999Y-118280135D01*
X193278316Y-118288427D01*
X193278308Y-118288429D01*
X193096328Y-118363807D01*
X193096315Y-118363814D01*
X192932537Y-118473248D01*
X192932533Y-118473251D01*
X192793251Y-118612533D01*
X192793248Y-118612537D01*
X192683814Y-118776315D01*
X192683807Y-118776328D01*
X192608430Y-118958306D01*
X192608427Y-118958318D01*
X192570000Y-119151504D01*
X185929999Y-119151504D01*
X185891572Y-118958318D01*
X185891569Y-118958306D01*
X185816192Y-118776328D01*
X185816185Y-118776315D01*
X185706751Y-118612537D01*
X185706748Y-118612533D01*
X185567466Y-118473251D01*
X185567462Y-118473248D01*
X185403684Y-118363814D01*
X185403671Y-118363807D01*
X185221691Y-118288429D01*
X185221683Y-118288427D01*
X185180000Y-118280135D01*
X185180000Y-119083011D01*
X185170060Y-119065795D01*
X185114205Y-119009940D01*
X185045796Y-118970444D01*
X184969496Y-118950000D01*
X184890504Y-118950000D01*
X184814204Y-118970444D01*
X184745795Y-119009940D01*
X184689940Y-119065795D01*
X184680000Y-119083011D01*
X184680000Y-118280136D01*
X184679999Y-118280135D01*
X184638316Y-118288427D01*
X184638308Y-118288429D01*
X184456328Y-118363807D01*
X184456315Y-118363814D01*
X184292537Y-118473248D01*
X184292533Y-118473251D01*
X184153251Y-118612533D01*
X184153248Y-118612537D01*
X184043814Y-118776315D01*
X184043807Y-118776328D01*
X183968430Y-118958306D01*
X183968427Y-118958318D01*
X183930000Y-119151504D01*
X180585328Y-119151504D01*
X180584873Y-119148632D01*
X180511888Y-118924008D01*
X180511886Y-118924005D01*
X180511886Y-118924003D01*
X180404662Y-118713566D01*
X180273682Y-118533288D01*
X180250202Y-118467481D01*
X180250000Y-118460402D01*
X180250000Y-115991289D01*
X180642261Y-115991289D01*
X180642262Y-115991290D01*
X180648471Y-115995801D01*
X180802742Y-116074408D01*
X180967415Y-116127914D01*
X181138429Y-116155000D01*
X181311571Y-116155000D01*
X181482584Y-116127914D01*
X181647257Y-116074408D01*
X181801525Y-115995803D01*
X181807736Y-115991289D01*
X181807737Y-115991289D01*
X181225001Y-115408553D01*
X181225000Y-115408553D01*
X180642261Y-115991289D01*
X180250000Y-115991289D01*
X180250000Y-115727809D01*
X180269685Y-115660770D01*
X180286319Y-115640128D01*
X180871446Y-115055001D01*
X180871446Y-115054999D01*
X180825369Y-115008922D01*
X180875000Y-115008922D01*
X180875000Y-115101078D01*
X180898852Y-115190095D01*
X180944930Y-115269905D01*
X181010095Y-115335070D01*
X181089905Y-115381148D01*
X181178922Y-115405000D01*
X181271078Y-115405000D01*
X181360095Y-115381148D01*
X181439905Y-115335070D01*
X181505070Y-115269905D01*
X181551148Y-115190095D01*
X181575000Y-115101078D01*
X181575000Y-115054999D01*
X181578553Y-115054999D01*
X181578553Y-115055001D01*
X182161289Y-115637737D01*
X182161289Y-115637736D01*
X182165803Y-115631525D01*
X182165809Y-115631516D01*
X182226529Y-115512348D01*
X182226531Y-115512343D01*
X182244407Y-115477257D01*
X182297914Y-115312584D01*
X182325000Y-115141571D01*
X182325000Y-114968428D01*
X182297913Y-114797414D01*
X182297913Y-114797411D01*
X182283722Y-114753735D01*
X182273249Y-114721504D01*
X183930000Y-114721504D01*
X183930000Y-115120000D01*
X184630000Y-115120000D01*
X184630000Y-115620000D01*
X183930000Y-115620000D01*
X183930000Y-116018495D01*
X183968427Y-116211681D01*
X183968430Y-116211693D01*
X184043807Y-116393671D01*
X184043814Y-116393684D01*
X184153248Y-116557462D01*
X184153251Y-116557466D01*
X184292533Y-116696748D01*
X184292537Y-116696751D01*
X184456315Y-116806185D01*
X184456328Y-116806192D01*
X184638308Y-116881569D01*
X184680000Y-116889862D01*
X184680000Y-116086988D01*
X184689940Y-116104205D01*
X184745795Y-116160060D01*
X184814204Y-116199556D01*
X184890504Y-116220000D01*
X184969496Y-116220000D01*
X185045796Y-116199556D01*
X185114205Y-116160060D01*
X185170060Y-116104205D01*
X185180000Y-116086988D01*
X185180000Y-116889862D01*
X185221690Y-116881569D01*
X185221692Y-116881569D01*
X185403671Y-116806192D01*
X185403684Y-116806185D01*
X185567462Y-116696751D01*
X185567466Y-116696748D01*
X185706748Y-116557466D01*
X185706751Y-116557462D01*
X185819574Y-116388613D01*
X185821007Y-116389570D01*
X185864198Y-116345580D01*
X185932332Y-116330103D01*
X185998018Y-116353919D01*
X186000089Y-116355697D01*
X186000189Y-116355568D01*
X186006630Y-116360510D01*
X186006635Y-116360515D01*
X186137865Y-116436281D01*
X186284234Y-116475500D01*
X186284236Y-116475500D01*
X186435764Y-116475500D01*
X186435766Y-116475500D01*
X186582135Y-116436281D01*
X186713365Y-116360515D01*
X186820515Y-116253365D01*
X186896281Y-116122135D01*
X186935500Y-115975766D01*
X186935500Y-115824234D01*
X186896281Y-115677865D01*
X186820515Y-115546635D01*
X186713365Y-115439485D01*
X186612323Y-115381148D01*
X186582136Y-115363719D01*
X186475214Y-115335070D01*
X186435766Y-115324500D01*
X186284234Y-115324500D01*
X186137863Y-115363719D01*
X186006635Y-115439485D01*
X186006632Y-115439487D01*
X185899486Y-115546633D01*
X185899482Y-115546638D01*
X185892923Y-115558000D01*
X185842356Y-115606216D01*
X185785536Y-115620000D01*
X185230000Y-115620000D01*
X185230000Y-115120000D01*
X185930000Y-115120000D01*
X185930000Y-114721508D01*
X185929999Y-114721504D01*
X185891572Y-114528318D01*
X185891569Y-114528306D01*
X185816192Y-114346328D01*
X185816185Y-114346315D01*
X185706751Y-114182537D01*
X185706748Y-114182533D01*
X185567466Y-114043251D01*
X185567462Y-114043248D01*
X185403684Y-113933814D01*
X185403671Y-113933807D01*
X185221691Y-113858429D01*
X185221683Y-113858427D01*
X185180000Y-113850135D01*
X185180000Y-114653011D01*
X185170060Y-114635795D01*
X185114205Y-114579940D01*
X185045796Y-114540444D01*
X184969496Y-114520000D01*
X184890504Y-114520000D01*
X184814204Y-114540444D01*
X184745795Y-114579940D01*
X184689940Y-114635795D01*
X184680000Y-114653011D01*
X184680000Y-113850136D01*
X184679999Y-113850135D01*
X184638316Y-113858427D01*
X184638308Y-113858429D01*
X184456328Y-113933807D01*
X184456315Y-113933814D01*
X184292537Y-114043248D01*
X184292533Y-114043251D01*
X184153251Y-114182533D01*
X184153248Y-114182537D01*
X184043814Y-114346315D01*
X184043807Y-114346328D01*
X183968430Y-114528306D01*
X183968427Y-114528318D01*
X183930000Y-114721504D01*
X182273249Y-114721504D01*
X182244408Y-114632742D01*
X182165801Y-114478471D01*
X182161290Y-114472262D01*
X182161289Y-114472261D01*
X181578553Y-115054999D01*
X181575000Y-115054999D01*
X181575000Y-115008922D01*
X181551148Y-114919905D01*
X181505070Y-114840095D01*
X181439905Y-114774930D01*
X181360095Y-114728852D01*
X181271078Y-114705000D01*
X181178922Y-114705000D01*
X181089905Y-114728852D01*
X181010095Y-114774930D01*
X180944930Y-114840095D01*
X180898852Y-114919905D01*
X180875000Y-115008922D01*
X180825369Y-115008922D01*
X180286319Y-114469871D01*
X180271615Y-114442943D01*
X180255023Y-114417125D01*
X180254131Y-114410924D01*
X180252834Y-114408548D01*
X180250000Y-114382190D01*
X180250000Y-114118708D01*
X180642261Y-114118708D01*
X180642261Y-114118709D01*
X181225000Y-114701446D01*
X181225001Y-114701446D01*
X181807737Y-114118709D01*
X181801525Y-114114196D01*
X181647259Y-114035592D01*
X181482584Y-113982085D01*
X181311571Y-113955000D01*
X181138429Y-113955000D01*
X180967415Y-113982085D01*
X180802740Y-114035592D01*
X180648480Y-114114193D01*
X180648463Y-114114203D01*
X180642261Y-114118708D01*
X180250000Y-114118708D01*
X180250000Y-113451289D01*
X180642261Y-113451289D01*
X180642262Y-113451290D01*
X180648471Y-113455801D01*
X180802742Y-113534408D01*
X180967415Y-113587914D01*
X181138429Y-113615000D01*
X181311571Y-113615000D01*
X181482584Y-113587914D01*
X181647257Y-113534408D01*
X181801525Y-113455803D01*
X181807736Y-113451289D01*
X181807737Y-113451289D01*
X181225001Y-112868553D01*
X181225000Y-112868553D01*
X180642261Y-113451289D01*
X180250000Y-113451289D01*
X180250000Y-113187809D01*
X180269685Y-113120770D01*
X180286319Y-113100128D01*
X180871446Y-112515001D01*
X180871446Y-112514999D01*
X180825369Y-112468922D01*
X180875000Y-112468922D01*
X180875000Y-112561078D01*
X180898852Y-112650095D01*
X180944930Y-112729905D01*
X181010095Y-112795070D01*
X181089905Y-112841148D01*
X181178922Y-112865000D01*
X181271078Y-112865000D01*
X181360095Y-112841148D01*
X181439905Y-112795070D01*
X181505070Y-112729905D01*
X181551148Y-112650095D01*
X181575000Y-112561078D01*
X181575000Y-112514999D01*
X181578553Y-112514999D01*
X181578553Y-112515001D01*
X182161289Y-113097737D01*
X182161289Y-113097736D01*
X182165803Y-113091525D01*
X182244408Y-112937257D01*
X182297914Y-112772584D01*
X182325000Y-112601571D01*
X182325000Y-112428428D01*
X182297914Y-112257415D01*
X182244408Y-112092742D01*
X182165801Y-111938471D01*
X182161290Y-111932262D01*
X182161289Y-111932261D01*
X181578553Y-112514999D01*
X181575000Y-112514999D01*
X181575000Y-112468922D01*
X181551148Y-112379905D01*
X181505070Y-112300095D01*
X181439905Y-112234930D01*
X181360095Y-112188852D01*
X181271078Y-112165000D01*
X181178922Y-112165000D01*
X181089905Y-112188852D01*
X181010095Y-112234930D01*
X180944930Y-112300095D01*
X180898852Y-112379905D01*
X180875000Y-112468922D01*
X180825369Y-112468922D01*
X180286319Y-111929871D01*
X180271615Y-111902943D01*
X180255023Y-111877125D01*
X180254131Y-111870924D01*
X180252834Y-111868548D01*
X180250000Y-111842190D01*
X180250000Y-111578708D01*
X180642261Y-111578708D01*
X180642261Y-111578709D01*
X181225000Y-112161446D01*
X181225001Y-112161446D01*
X181807737Y-111578709D01*
X181801525Y-111574196D01*
X181647259Y-111495592D01*
X181482584Y-111442085D01*
X181311571Y-111415000D01*
X181138429Y-111415000D01*
X180967415Y-111442085D01*
X180802740Y-111495592D01*
X180648480Y-111574193D01*
X180648463Y-111574203D01*
X180642261Y-111578708D01*
X180250000Y-111578708D01*
X180250000Y-110768920D01*
X181694499Y-110768920D01*
X181723340Y-110913907D01*
X181723343Y-110913917D01*
X181779912Y-111050488D01*
X181779919Y-111050501D01*
X181862048Y-111173415D01*
X181862051Y-111173419D01*
X181966580Y-111277948D01*
X181966584Y-111277951D01*
X182089498Y-111360080D01*
X182089511Y-111360087D01*
X182222084Y-111415000D01*
X182226087Y-111416658D01*
X182226091Y-111416658D01*
X182226092Y-111416659D01*
X182371079Y-111445500D01*
X182371082Y-111445500D01*
X184833733Y-111445500D01*
X184857924Y-111447882D01*
X184871082Y-111450500D01*
X184871083Y-111450500D01*
X185018917Y-111450500D01*
X186070500Y-111450500D01*
X186137539Y-111470185D01*
X186183294Y-111522989D01*
X186194500Y-111574500D01*
X186194500Y-113373918D01*
X186194500Y-113373920D01*
X186194499Y-113373920D01*
X186223340Y-113518907D01*
X186223343Y-113518917D01*
X186279913Y-113655490D01*
X186279918Y-113655499D01*
X186283248Y-113660482D01*
X186283250Y-113660489D01*
X186283252Y-113660489D01*
X186362046Y-113778414D01*
X186362052Y-113778421D01*
X186566580Y-113982948D01*
X186566584Y-113982951D01*
X186689498Y-114065080D01*
X186689511Y-114065087D01*
X186808065Y-114114193D01*
X186826087Y-114121658D01*
X186826091Y-114121658D01*
X186826092Y-114121659D01*
X186971079Y-114150500D01*
X186971082Y-114150500D01*
X187118917Y-114150500D01*
X191771082Y-114150500D01*
X192582667Y-114150500D01*
X192649706Y-114170185D01*
X192695461Y-114222989D01*
X192705405Y-114292147D01*
X192685768Y-114343393D01*
X192683812Y-114346319D01*
X192683807Y-114346328D01*
X192608430Y-114528306D01*
X192608427Y-114528318D01*
X192570000Y-114721504D01*
X192570000Y-115120000D01*
X193270000Y-115120000D01*
X193270000Y-115620000D01*
X192714464Y-115620000D01*
X192647425Y-115600315D01*
X192607077Y-115558000D01*
X192600517Y-115546638D01*
X192600513Y-115546633D01*
X192493367Y-115439487D01*
X192493365Y-115439485D01*
X192392323Y-115381148D01*
X192362136Y-115363719D01*
X192255214Y-115335070D01*
X192215766Y-115324500D01*
X192064234Y-115324500D01*
X191917863Y-115363719D01*
X191786635Y-115439485D01*
X191786632Y-115439487D01*
X191679487Y-115546632D01*
X191679485Y-115546635D01*
X191603719Y-115677863D01*
X191568661Y-115808703D01*
X191564500Y-115824234D01*
X191564500Y-115975766D01*
X191568660Y-115991290D01*
X191603719Y-116122136D01*
X191625615Y-116160060D01*
X191679485Y-116253365D01*
X191786635Y-116360515D01*
X191917865Y-116436281D01*
X192064234Y-116475500D01*
X192064236Y-116475500D01*
X192215764Y-116475500D01*
X192215766Y-116475500D01*
X192362135Y-116436281D01*
X192493365Y-116360515D01*
X192493372Y-116360507D01*
X192499811Y-116355568D01*
X192502044Y-116358478D01*
X192548258Y-116332865D01*
X192617980Y-116337411D01*
X192674176Y-116378930D01*
X192680394Y-116388634D01*
X192680426Y-116388613D01*
X192793248Y-116557462D01*
X192793251Y-116557466D01*
X192932533Y-116696748D01*
X192932537Y-116696751D01*
X193096315Y-116806185D01*
X193096328Y-116806192D01*
X193278308Y-116881569D01*
X193320000Y-116889862D01*
X193320000Y-116086988D01*
X193329940Y-116104205D01*
X193385795Y-116160060D01*
X193454204Y-116199556D01*
X193530504Y-116220000D01*
X193609496Y-116220000D01*
X193685796Y-116199556D01*
X193754205Y-116160060D01*
X193810060Y-116104205D01*
X193820000Y-116086988D01*
X193820000Y-116889862D01*
X193861690Y-116881569D01*
X193861692Y-116881569D01*
X194043671Y-116806192D01*
X194043684Y-116806185D01*
X194207462Y-116696751D01*
X194207466Y-116696748D01*
X194346748Y-116557466D01*
X194346751Y-116557462D01*
X194456185Y-116393684D01*
X194456192Y-116393671D01*
X194531569Y-116211693D01*
X194531572Y-116211681D01*
X194569999Y-116018495D01*
X194570000Y-116018492D01*
X194570000Y-115620000D01*
X193870000Y-115620000D01*
X193870000Y-115120000D01*
X194570000Y-115120000D01*
X194570000Y-114721508D01*
X194569999Y-114721504D01*
X194531572Y-114528318D01*
X194531569Y-114528306D01*
X194456192Y-114346328D01*
X194456187Y-114346319D01*
X194454232Y-114343393D01*
X194453678Y-114341624D01*
X194453316Y-114340947D01*
X194453444Y-114340878D01*
X194433353Y-114276716D01*
X194451836Y-114209335D01*
X194503814Y-114162644D01*
X194557333Y-114150500D01*
X194926082Y-114150500D01*
X195590500Y-114150500D01*
X195657539Y-114170185D01*
X195703294Y-114222989D01*
X195714500Y-114274500D01*
X195714500Y-114619739D01*
X195705061Y-114667192D01*
X195647184Y-114806917D01*
X195647182Y-114806925D01*
X195614500Y-114971228D01*
X195614500Y-115138771D01*
X195647182Y-115303074D01*
X195647184Y-115303082D01*
X195711295Y-115457860D01*
X195804373Y-115597162D01*
X195922837Y-115715626D01*
X196015494Y-115777537D01*
X196062137Y-115808703D01*
X196216918Y-115872816D01*
X196381228Y-115905499D01*
X196381232Y-115905500D01*
X196381233Y-115905500D01*
X196548768Y-115905500D01*
X196548769Y-115905499D01*
X196713082Y-115872816D01*
X196867863Y-115808703D01*
X197007162Y-115715626D01*
X197125626Y-115597162D01*
X197218703Y-115457863D01*
X197282816Y-115303082D01*
X197315500Y-115138767D01*
X197315500Y-114971233D01*
X197282816Y-114806918D01*
X197224938Y-114667191D01*
X197215500Y-114619739D01*
X197215500Y-112950261D01*
X197224939Y-112902808D01*
X197239128Y-112868553D01*
X197282816Y-112763082D01*
X197315500Y-112598767D01*
X197315500Y-112431233D01*
X197282816Y-112266918D01*
X197218703Y-112112137D01*
X197187537Y-112065494D01*
X197125626Y-111972837D01*
X197007162Y-111854373D01*
X196867860Y-111761295D01*
X196713082Y-111697184D01*
X196713074Y-111697182D01*
X196548771Y-111664500D01*
X196548767Y-111664500D01*
X196381233Y-111664500D01*
X196381228Y-111664500D01*
X196216925Y-111697182D01*
X196216917Y-111697184D01*
X196062139Y-111761295D01*
X195922837Y-111854373D01*
X195804373Y-111972837D01*
X195711295Y-112112139D01*
X195647184Y-112266917D01*
X195647182Y-112266925D01*
X195614500Y-112431228D01*
X195614500Y-112525500D01*
X195594815Y-112592539D01*
X195542011Y-112638294D01*
X195490500Y-112649500D01*
X187819500Y-112649500D01*
X187752461Y-112629815D01*
X187706706Y-112577011D01*
X187695500Y-112525500D01*
X187695500Y-111126079D01*
X187666659Y-110981092D01*
X187666658Y-110981091D01*
X187666658Y-110981087D01*
X187666656Y-110981082D01*
X187610086Y-110844509D01*
X187610082Y-110844502D01*
X187585377Y-110807528D01*
X187585376Y-110807527D01*
X187577186Y-110795270D01*
X187577185Y-110795268D01*
X187544776Y-110746763D01*
X188299499Y-110746763D01*
X188299499Y-110891713D01*
X188337015Y-111031723D01*
X188337016Y-111031726D01*
X188409487Y-111157249D01*
X188409489Y-111157251D01*
X188409490Y-111157253D01*
X188511984Y-111259747D01*
X188511985Y-111259748D01*
X188511987Y-111259749D01*
X188637510Y-111332220D01*
X188637511Y-111332220D01*
X188637514Y-111332222D01*
X188777524Y-111369738D01*
X188777527Y-111369738D01*
X188922471Y-111369738D01*
X188922474Y-111369738D01*
X189062484Y-111332222D01*
X189188014Y-111259747D01*
X189290508Y-111157253D01*
X189362983Y-111031723D01*
X189400499Y-110891713D01*
X189400499Y-110757255D01*
X189420184Y-110690216D01*
X189436818Y-110669574D01*
X189984193Y-110122199D01*
X190045516Y-110088714D01*
X190071874Y-110085880D01*
X190077092Y-110085880D01*
X190077095Y-110085880D01*
X190217105Y-110048364D01*
X190342635Y-109975889D01*
X190445129Y-109873395D01*
X190517604Y-109747865D01*
X190555120Y-109607855D01*
X190555120Y-109462905D01*
X190517604Y-109322895D01*
X190445129Y-109197365D01*
X190342635Y-109094871D01*
X190342633Y-109094870D01*
X190342631Y-109094868D01*
X190217108Y-109022397D01*
X190217109Y-109022397D01*
X190205626Y-109019320D01*
X190077095Y-108984880D01*
X189932145Y-108984880D01*
X189803613Y-109019320D01*
X189792131Y-109022397D01*
X189666608Y-109094868D01*
X189666602Y-109094873D01*
X189564113Y-109197362D01*
X189564108Y-109197368D01*
X189491637Y-109322891D01*
X189491636Y-109322895D01*
X189454120Y-109462905D01*
X189454120Y-109462907D01*
X189454120Y-109468124D01*
X189434435Y-109535163D01*
X189417801Y-109555805D01*
X188701767Y-110271838D01*
X188646186Y-110303930D01*
X188637519Y-110306252D01*
X188637510Y-110306256D01*
X188511987Y-110378727D01*
X188511981Y-110378731D01*
X188409492Y-110481220D01*
X188409487Y-110481226D01*
X188337016Y-110606749D01*
X188337015Y-110606753D01*
X188299499Y-110746763D01*
X187544776Y-110746763D01*
X187527956Y-110721589D01*
X187527952Y-110721584D01*
X186923421Y-110117052D01*
X186923420Y-110117051D01*
X186915934Y-110112049D01*
X186820621Y-110048364D01*
X186800495Y-110034916D01*
X186800491Y-110034914D01*
X186800489Y-110034913D01*
X186663917Y-109978343D01*
X186663907Y-109978340D01*
X186518920Y-109949500D01*
X186518918Y-109949500D01*
X185051267Y-109949500D01*
X185027075Y-109947117D01*
X185013918Y-109944500D01*
X182371082Y-109944500D01*
X182371080Y-109944500D01*
X182226092Y-109973340D01*
X182226082Y-109973343D01*
X182089511Y-110029912D01*
X182089498Y-110029919D01*
X181966584Y-110112048D01*
X181966580Y-110112051D01*
X181862051Y-110216580D01*
X181862048Y-110216584D01*
X181779919Y-110339498D01*
X181779912Y-110339511D01*
X181723343Y-110476082D01*
X181723340Y-110476092D01*
X181694500Y-110621079D01*
X181694500Y-110621082D01*
X181694500Y-110768918D01*
X181694500Y-110768920D01*
X181694499Y-110768920D01*
X180250000Y-110768920D01*
X180250000Y-107751208D01*
X180250024Y-107748776D01*
X180252530Y-107621008D01*
X180254032Y-107604060D01*
X180294195Y-107350476D01*
X180298737Y-107331559D01*
X180377697Y-107088543D01*
X180385136Y-107070583D01*
X180501145Y-106842904D01*
X180511311Y-106826316D01*
X180517821Y-106817356D01*
X180661501Y-106619596D01*
X180674126Y-106604814D01*
X180854814Y-106424126D01*
X180869596Y-106411501D01*
X181076317Y-106261309D01*
X181092906Y-106251144D01*
X181320583Y-106135136D01*
X181338543Y-106127697D01*
X181581561Y-106048736D01*
X181600476Y-106044195D01*
X181854060Y-106004032D01*
X181871008Y-106002530D01*
X181998777Y-106000024D01*
X182001209Y-106000000D01*
X192198638Y-106000000D01*
X192265677Y-106019685D01*
G37*
%TD.AperFunction*%
%TD*%
%TA.AperFunction,Conductor*%
%TO.N,GNDPWR*%
G36*
X195943039Y-66020185D02*
G01*
X195988794Y-66072989D01*
X196000000Y-66124500D01*
X196000000Y-66407104D01*
X195980315Y-66474143D01*
X195938000Y-66514491D01*
X195747013Y-66624757D01*
X195746997Y-66624768D01*
X195512959Y-66804352D01*
X195512952Y-66804358D01*
X195304358Y-67012952D01*
X195159690Y-67201487D01*
X195103262Y-67242689D01*
X195061314Y-67250000D01*
X194000000Y-67250000D01*
X194000000Y-95250000D01*
X199375500Y-95250000D01*
X199442539Y-95269685D01*
X199488294Y-95322489D01*
X199499500Y-95374000D01*
X199499500Y-98376000D01*
X199479815Y-98443039D01*
X199427011Y-98488794D01*
X199375500Y-98500000D01*
X197000257Y-98500000D01*
X196933218Y-98480315D01*
X196887463Y-98427511D01*
X196877519Y-98358353D01*
X196906544Y-98294797D01*
X196943962Y-98265515D01*
X197041525Y-98215803D01*
X197047736Y-98211289D01*
X197047737Y-98211289D01*
X196465001Y-97628553D01*
X196465000Y-97628553D01*
X195882261Y-98211289D01*
X195882262Y-98211290D01*
X195888471Y-98215801D01*
X195986038Y-98265515D01*
X196036834Y-98313490D01*
X196053629Y-98381311D01*
X196031091Y-98447446D01*
X195976376Y-98490897D01*
X195929743Y-98500000D01*
X192749999Y-98500000D01*
X192286319Y-98963681D01*
X192224996Y-98997166D01*
X192198638Y-99000000D01*
X182049665Y-99000000D01*
X181982626Y-98980315D01*
X181964067Y-98965716D01*
X181005218Y-98050880D01*
X180695778Y-98085095D01*
X180081749Y-98188008D01*
X179475531Y-98329892D01*
X179475525Y-98329893D01*
X178879584Y-98510173D01*
X178296358Y-98728114D01*
X177728235Y-98982822D01*
X177177534Y-99273255D01*
X177177530Y-99273257D01*
X176646471Y-99598244D01*
X176137239Y-99956451D01*
X176137208Y-99956474D01*
X175651895Y-100346424D01*
X175651888Y-100346430D01*
X175651881Y-100346436D01*
X175388822Y-100586982D01*
X175251541Y-100712515D01*
X175192409Y-100766586D01*
X174760681Y-101215198D01*
X174760676Y-101215203D01*
X174760673Y-101215207D01*
X174358464Y-101690436D01*
X174172920Y-101940415D01*
X173987381Y-102190386D01*
X173987376Y-102190394D01*
X173648965Y-102712977D01*
X173648951Y-102713001D01*
X173344579Y-103256108D01*
X173344576Y-103256115D01*
X173075462Y-103817571D01*
X173075462Y-103817572D01*
X172842730Y-104395036D01*
X172842725Y-104395051D01*
X172647312Y-104986195D01*
X172490027Y-105588568D01*
X172490022Y-105588590D01*
X172371484Y-106199816D01*
X172292193Y-106817338D01*
X172292188Y-106817385D01*
X172252465Y-107438667D01*
X172252464Y-107438701D01*
X172250000Y-107749985D01*
X172250000Y-119875500D01*
X172230315Y-119942539D01*
X172177511Y-119988294D01*
X172126000Y-119999500D01*
X135374000Y-119999500D01*
X135306961Y-119979815D01*
X135261206Y-119927011D01*
X135250000Y-119875500D01*
X135250000Y-117659195D01*
X135250265Y-117651086D01*
X135250500Y-117647500D01*
X135250500Y-117352500D01*
X135250265Y-117348915D01*
X135250000Y-117340806D01*
X135250000Y-112874000D01*
X135269685Y-112806961D01*
X135322489Y-112761206D01*
X135374000Y-112750000D01*
X140250000Y-112750000D01*
X141250000Y-111750000D01*
X141250000Y-110000000D01*
X137874000Y-110000000D01*
X137806961Y-109980315D01*
X137761206Y-109927511D01*
X137750000Y-109876000D01*
X137750000Y-106427525D01*
X142199500Y-106427525D01*
X142199500Y-106572475D01*
X142237016Y-106712485D01*
X142237017Y-106712488D01*
X142309488Y-106838011D01*
X142309490Y-106838013D01*
X142309491Y-106838015D01*
X142411985Y-106940509D01*
X142411986Y-106940510D01*
X142411988Y-106940511D01*
X142537511Y-107012982D01*
X142537512Y-107012982D01*
X142537515Y-107012984D01*
X142677525Y-107050500D01*
X142677528Y-107050500D01*
X142822472Y-107050500D01*
X142822475Y-107050500D01*
X142962485Y-107012984D01*
X143088015Y-106940509D01*
X143190509Y-106838015D01*
X143262984Y-106712485D01*
X143300500Y-106572475D01*
X143300500Y-106427525D01*
X143262984Y-106287515D01*
X143212351Y-106199817D01*
X143190511Y-106161988D01*
X143190506Y-106161982D01*
X143088017Y-106059493D01*
X143088011Y-106059488D01*
X142962488Y-105987017D01*
X142962489Y-105987017D01*
X142951006Y-105983940D01*
X142822475Y-105949500D01*
X142677525Y-105949500D01*
X142548993Y-105983940D01*
X142537511Y-105987017D01*
X142411988Y-106059488D01*
X142411982Y-106059493D01*
X142309493Y-106161982D01*
X142309488Y-106161988D01*
X142237017Y-106287511D01*
X142237016Y-106287515D01*
X142199500Y-106427525D01*
X137750000Y-106427525D01*
X137750000Y-105201361D01*
X137769685Y-105134322D01*
X137786314Y-105113685D01*
X138085900Y-104814099D01*
X138141481Y-104782009D01*
X138212485Y-104762984D01*
X138338015Y-104690509D01*
X138440509Y-104588015D01*
X138512984Y-104462485D01*
X138532009Y-104391481D01*
X138564099Y-104335900D01*
X139113681Y-103786319D01*
X139175004Y-103752834D01*
X139201362Y-103750000D01*
X140500000Y-103750000D01*
X141172475Y-103077525D01*
X156449500Y-103077525D01*
X156449500Y-103222475D01*
X156487016Y-103362485D01*
X156487017Y-103362488D01*
X156559488Y-103488011D01*
X156559490Y-103488013D01*
X156559491Y-103488015D01*
X156661985Y-103590509D01*
X156661986Y-103590510D01*
X156661988Y-103590511D01*
X156787511Y-103662982D01*
X156787512Y-103662982D01*
X156787515Y-103662984D01*
X156927525Y-103700500D01*
X156927528Y-103700500D01*
X157072472Y-103700500D01*
X157072475Y-103700500D01*
X157212485Y-103662984D01*
X157288001Y-103619384D01*
X157355899Y-103602912D01*
X157411998Y-103619384D01*
X157487515Y-103662984D01*
X157627525Y-103700500D01*
X157627528Y-103700500D01*
X157772472Y-103700500D01*
X157772475Y-103700500D01*
X157912485Y-103662984D01*
X157988001Y-103619384D01*
X158055899Y-103602912D01*
X158111998Y-103619384D01*
X158187515Y-103662984D01*
X158327525Y-103700500D01*
X158327528Y-103700500D01*
X158472472Y-103700500D01*
X158472475Y-103700500D01*
X158612485Y-103662984D01*
X158688001Y-103619384D01*
X158755899Y-103602912D01*
X158811998Y-103619384D01*
X158887515Y-103662984D01*
X159027525Y-103700500D01*
X159027528Y-103700500D01*
X159172472Y-103700500D01*
X159172475Y-103700500D01*
X159312485Y-103662984D01*
X159388001Y-103619384D01*
X159455899Y-103602912D01*
X159511998Y-103619384D01*
X159587515Y-103662984D01*
X159727525Y-103700500D01*
X159727528Y-103700500D01*
X159872472Y-103700500D01*
X159872475Y-103700500D01*
X160012485Y-103662984D01*
X160088001Y-103619384D01*
X160155899Y-103602912D01*
X160211998Y-103619384D01*
X160287515Y-103662984D01*
X160427525Y-103700500D01*
X160427528Y-103700500D01*
X160572472Y-103700500D01*
X160572475Y-103700500D01*
X160712485Y-103662984D01*
X160788001Y-103619384D01*
X160855899Y-103602912D01*
X160911998Y-103619384D01*
X160987515Y-103662984D01*
X161127525Y-103700500D01*
X161127528Y-103700500D01*
X161272472Y-103700500D01*
X161272475Y-103700500D01*
X161412485Y-103662984D01*
X161538015Y-103590509D01*
X161640509Y-103488015D01*
X161712984Y-103362485D01*
X161750500Y-103222475D01*
X161750500Y-103077525D01*
X161712984Y-102937515D01*
X161640509Y-102811985D01*
X161538015Y-102709491D01*
X161462500Y-102665892D01*
X161414284Y-102615325D01*
X161400500Y-102558505D01*
X161400500Y-102477527D01*
X161400500Y-102477525D01*
X161362984Y-102337515D01*
X161290509Y-102211985D01*
X161188015Y-102109491D01*
X161188013Y-102109490D01*
X161188011Y-102109488D01*
X161062488Y-102037017D01*
X161062489Y-102037017D01*
X161051006Y-102033940D01*
X160922475Y-101999500D01*
X160777525Y-101999500D01*
X160648993Y-102033940D01*
X160637511Y-102037017D01*
X160562000Y-102080614D01*
X160494100Y-102097087D01*
X160438000Y-102080614D01*
X160362488Y-102037017D01*
X160362489Y-102037017D01*
X160351006Y-102033940D01*
X160222475Y-101999500D01*
X160077525Y-101999500D01*
X159948993Y-102033940D01*
X159937511Y-102037017D01*
X159862000Y-102080614D01*
X159794100Y-102097087D01*
X159738000Y-102080614D01*
X159662488Y-102037017D01*
X159662489Y-102037017D01*
X159651006Y-102033940D01*
X159522475Y-101999500D01*
X159377525Y-101999500D01*
X159248993Y-102033940D01*
X159237511Y-102037017D01*
X159162000Y-102080614D01*
X159094100Y-102097087D01*
X159038000Y-102080614D01*
X158962488Y-102037017D01*
X158962489Y-102037017D01*
X158951006Y-102033940D01*
X158822475Y-101999500D01*
X158677525Y-101999500D01*
X158548993Y-102033940D01*
X158537511Y-102037017D01*
X158462000Y-102080614D01*
X158394100Y-102097087D01*
X158338000Y-102080614D01*
X158262488Y-102037017D01*
X158262489Y-102037017D01*
X158251006Y-102033940D01*
X158122475Y-101999500D01*
X157977525Y-101999500D01*
X157848993Y-102033940D01*
X157837511Y-102037017D01*
X157762000Y-102080614D01*
X157694100Y-102097087D01*
X157638000Y-102080614D01*
X157562488Y-102037017D01*
X157562489Y-102037017D01*
X157551006Y-102033940D01*
X157422475Y-101999500D01*
X157277525Y-101999500D01*
X157148993Y-102033940D01*
X157137511Y-102037017D01*
X157011988Y-102109488D01*
X157011982Y-102109493D01*
X156909493Y-102211982D01*
X156909488Y-102211988D01*
X156837017Y-102337511D01*
X156837016Y-102337515D01*
X156799500Y-102477525D01*
X156799500Y-102477527D01*
X156799500Y-102558505D01*
X156779815Y-102625544D01*
X156737500Y-102665892D01*
X156661988Y-102709489D01*
X156661982Y-102709493D01*
X156559493Y-102811982D01*
X156559488Y-102811988D01*
X156487017Y-102937511D01*
X156487016Y-102937515D01*
X156449500Y-103077525D01*
X141172475Y-103077525D01*
X141250000Y-103000000D01*
X141250000Y-100852525D01*
X142949500Y-100852525D01*
X142949500Y-100997475D01*
X142987016Y-101137485D01*
X142987017Y-101137488D01*
X143059488Y-101263011D01*
X143059490Y-101263013D01*
X143059491Y-101263015D01*
X143161985Y-101365509D01*
X143161986Y-101365510D01*
X143161988Y-101365511D01*
X143287511Y-101437982D01*
X143287512Y-101437982D01*
X143287515Y-101437984D01*
X143427525Y-101475500D01*
X143427528Y-101475500D01*
X143572472Y-101475500D01*
X143572475Y-101475500D01*
X143712485Y-101437984D01*
X143838015Y-101365509D01*
X143940509Y-101263015D01*
X144012984Y-101137485D01*
X144050500Y-100997475D01*
X144050500Y-100852525D01*
X144012984Y-100712515D01*
X143940509Y-100586985D01*
X143838015Y-100484491D01*
X143838013Y-100484490D01*
X143838011Y-100484488D01*
X143712488Y-100412017D01*
X143712489Y-100412017D01*
X143701006Y-100408940D01*
X143572475Y-100374500D01*
X143427525Y-100374500D01*
X143298993Y-100408940D01*
X143287511Y-100412017D01*
X143161988Y-100484488D01*
X143161982Y-100484493D01*
X143059493Y-100586982D01*
X143059488Y-100586988D01*
X142987017Y-100712511D01*
X142987016Y-100712515D01*
X142949500Y-100852525D01*
X141250000Y-100852525D01*
X141250000Y-98877525D01*
X142949500Y-98877525D01*
X142949500Y-99022475D01*
X142987016Y-99162485D01*
X142987017Y-99162488D01*
X143059488Y-99288011D01*
X143059490Y-99288013D01*
X143059491Y-99288015D01*
X143161985Y-99390509D01*
X143161986Y-99390510D01*
X143161988Y-99390511D01*
X143287511Y-99462982D01*
X143287512Y-99462982D01*
X143287515Y-99462984D01*
X143427525Y-99500500D01*
X143427528Y-99500500D01*
X143572472Y-99500500D01*
X143572475Y-99500500D01*
X143712485Y-99462984D01*
X143838015Y-99390509D01*
X143940509Y-99288015D01*
X144012984Y-99162485D01*
X144050500Y-99022475D01*
X144050500Y-98877525D01*
X144012984Y-98737515D01*
X144007556Y-98728114D01*
X143940511Y-98611988D01*
X143940506Y-98611982D01*
X143838017Y-98509493D01*
X143838011Y-98509488D01*
X143712488Y-98437017D01*
X143712489Y-98437017D01*
X143677012Y-98427511D01*
X143572475Y-98399500D01*
X143427525Y-98399500D01*
X143322988Y-98427511D01*
X143287511Y-98437017D01*
X143161988Y-98509488D01*
X143161982Y-98509493D01*
X143059493Y-98611982D01*
X143059488Y-98611988D01*
X142987017Y-98737511D01*
X142987016Y-98737515D01*
X142949500Y-98877525D01*
X141250000Y-98877525D01*
X141250000Y-97102525D01*
X142949500Y-97102525D01*
X142949500Y-97247475D01*
X142987016Y-97387485D01*
X142987017Y-97387488D01*
X143059488Y-97513011D01*
X143059490Y-97513013D01*
X143059491Y-97513015D01*
X143161985Y-97615509D01*
X143161986Y-97615510D01*
X143161988Y-97615511D01*
X143287511Y-97687982D01*
X143287512Y-97687982D01*
X143287515Y-97687984D01*
X143427525Y-97725500D01*
X143427528Y-97725500D01*
X143572472Y-97725500D01*
X143572475Y-97725500D01*
X143712485Y-97687984D01*
X143838015Y-97615509D01*
X143940509Y-97513015D01*
X144012984Y-97387485D01*
X144050500Y-97247475D01*
X144050500Y-97102525D01*
X144012984Y-96962515D01*
X143967258Y-96883316D01*
X143940511Y-96836988D01*
X143940506Y-96836982D01*
X143838017Y-96734493D01*
X143838011Y-96734488D01*
X143712488Y-96662017D01*
X143712489Y-96662017D01*
X143701006Y-96658940D01*
X143572475Y-96624500D01*
X143427525Y-96624500D01*
X143298993Y-96658940D01*
X143287511Y-96662017D01*
X143161988Y-96734488D01*
X143161982Y-96734493D01*
X143059493Y-96836982D01*
X143059488Y-96836988D01*
X142987017Y-96962511D01*
X142987016Y-96962515D01*
X142949500Y-97102525D01*
X141250000Y-97102525D01*
X141250000Y-95127525D01*
X142949500Y-95127525D01*
X142949500Y-95272475D01*
X142984874Y-95404490D01*
X142987017Y-95412488D01*
X143059488Y-95538011D01*
X143059490Y-95538013D01*
X143059491Y-95538015D01*
X143161985Y-95640509D01*
X143161986Y-95640510D01*
X143161988Y-95640511D01*
X143287511Y-95712982D01*
X143287512Y-95712982D01*
X143287515Y-95712984D01*
X143427525Y-95750500D01*
X143427528Y-95750500D01*
X143572472Y-95750500D01*
X143572475Y-95750500D01*
X143712485Y-95712984D01*
X143838015Y-95640509D01*
X143940509Y-95538015D01*
X144012984Y-95412485D01*
X144050500Y-95272475D01*
X144050500Y-95127525D01*
X144012984Y-94987515D01*
X143984425Y-94938050D01*
X143940511Y-94861988D01*
X143940506Y-94861982D01*
X143838017Y-94759493D01*
X143838011Y-94759488D01*
X143712488Y-94687017D01*
X143712489Y-94687017D01*
X143701006Y-94683940D01*
X143572475Y-94649500D01*
X143427525Y-94649500D01*
X143298993Y-94683940D01*
X143287511Y-94687017D01*
X143161988Y-94759488D01*
X143161982Y-94759493D01*
X143059493Y-94861982D01*
X143059488Y-94861988D01*
X142987017Y-94987511D01*
X142987016Y-94987515D01*
X142949500Y-95127525D01*
X141250000Y-95127525D01*
X141250000Y-93327525D01*
X142949500Y-93327525D01*
X142949500Y-93472475D01*
X142982814Y-93596802D01*
X142987017Y-93612488D01*
X143059488Y-93738011D01*
X143059490Y-93738013D01*
X143059491Y-93738015D01*
X143161985Y-93840509D01*
X143161986Y-93840510D01*
X143161988Y-93840511D01*
X143287511Y-93912982D01*
X143287512Y-93912982D01*
X143287515Y-93912984D01*
X143427525Y-93950500D01*
X143427528Y-93950500D01*
X143572472Y-93950500D01*
X143572475Y-93950500D01*
X143712485Y-93912984D01*
X143838015Y-93840509D01*
X143940509Y-93738015D01*
X144012984Y-93612485D01*
X144050500Y-93472475D01*
X144050500Y-93327525D01*
X144012984Y-93187515D01*
X143998244Y-93161985D01*
X143940511Y-93061988D01*
X143940506Y-93061982D01*
X143838017Y-92959493D01*
X143838011Y-92959488D01*
X143712488Y-92887017D01*
X143712489Y-92887017D01*
X143701006Y-92883940D01*
X143572475Y-92849500D01*
X143427525Y-92849500D01*
X143298993Y-92883940D01*
X143287511Y-92887017D01*
X143161988Y-92959488D01*
X143161982Y-92959493D01*
X143059493Y-93061982D01*
X143059488Y-93061988D01*
X142987017Y-93187511D01*
X142987016Y-93187515D01*
X142949500Y-93327525D01*
X141250000Y-93327525D01*
X141250000Y-91377525D01*
X142949500Y-91377525D01*
X142949500Y-91522475D01*
X142987016Y-91662485D01*
X142987017Y-91662488D01*
X143059488Y-91788011D01*
X143059490Y-91788013D01*
X143059491Y-91788015D01*
X143161985Y-91890509D01*
X143161986Y-91890510D01*
X143161988Y-91890511D01*
X143287511Y-91962982D01*
X143287512Y-91962982D01*
X143287515Y-91962984D01*
X143427525Y-92000500D01*
X143427528Y-92000500D01*
X143572472Y-92000500D01*
X143572475Y-92000500D01*
X143712485Y-91962984D01*
X143838015Y-91890509D01*
X143940509Y-91788015D01*
X144012984Y-91662485D01*
X144050500Y-91522475D01*
X144050500Y-91377525D01*
X144012984Y-91237515D01*
X144012696Y-91237017D01*
X143940511Y-91111988D01*
X143940506Y-91111982D01*
X143838017Y-91009493D01*
X143838011Y-91009488D01*
X143712488Y-90937017D01*
X143712489Y-90937017D01*
X143698158Y-90933177D01*
X143572475Y-90899500D01*
X143427525Y-90899500D01*
X143301842Y-90933177D01*
X143287511Y-90937017D01*
X143161988Y-91009488D01*
X143161982Y-91009493D01*
X143059493Y-91111982D01*
X143059488Y-91111988D01*
X142987017Y-91237511D01*
X142987016Y-91237515D01*
X142949500Y-91377525D01*
X141250000Y-91377525D01*
X141250000Y-89635848D01*
X142949500Y-89635848D01*
X142949500Y-89780798D01*
X142970793Y-89860263D01*
X142987017Y-89920811D01*
X143059488Y-90046334D01*
X143059490Y-90046336D01*
X143059491Y-90046338D01*
X143161985Y-90148832D01*
X143161986Y-90148833D01*
X143161988Y-90148834D01*
X143287511Y-90221305D01*
X143287512Y-90221305D01*
X143287515Y-90221307D01*
X143427525Y-90258823D01*
X143427528Y-90258823D01*
X143572472Y-90258823D01*
X143572475Y-90258823D01*
X143712485Y-90221307D01*
X143838015Y-90148832D01*
X143940509Y-90046338D01*
X144012984Y-89920808D01*
X144050500Y-89780798D01*
X144050500Y-89635848D01*
X144012984Y-89495838D01*
X143992345Y-89460091D01*
X143940511Y-89370311D01*
X143940506Y-89370305D01*
X143838017Y-89267816D01*
X143838011Y-89267811D01*
X143712488Y-89195340D01*
X143712489Y-89195340D01*
X143701006Y-89192263D01*
X143572475Y-89157823D01*
X143427525Y-89157823D01*
X143298993Y-89192263D01*
X143287511Y-89195340D01*
X143161988Y-89267811D01*
X143161982Y-89267816D01*
X143059493Y-89370305D01*
X143059488Y-89370311D01*
X142987017Y-89495834D01*
X142987016Y-89495838D01*
X142949500Y-89635848D01*
X141250000Y-89635848D01*
X141250000Y-87652525D01*
X142949500Y-87652525D01*
X142949500Y-87797475D01*
X142987016Y-87937485D01*
X142987017Y-87937488D01*
X143059488Y-88063011D01*
X143059490Y-88063013D01*
X143059491Y-88063015D01*
X143161985Y-88165509D01*
X143161986Y-88165510D01*
X143161988Y-88165511D01*
X143287511Y-88237982D01*
X143287512Y-88237982D01*
X143287515Y-88237984D01*
X143427525Y-88275500D01*
X143427528Y-88275500D01*
X143572472Y-88275500D01*
X143572475Y-88275500D01*
X143712485Y-88237984D01*
X143838015Y-88165509D01*
X143940509Y-88063015D01*
X144012984Y-87937485D01*
X144050500Y-87797475D01*
X144050500Y-87652525D01*
X144012984Y-87512515D01*
X143979250Y-87454087D01*
X143940511Y-87386988D01*
X143940506Y-87386982D01*
X143838017Y-87284493D01*
X143838011Y-87284488D01*
X143712488Y-87212017D01*
X143712489Y-87212017D01*
X143701006Y-87208940D01*
X143572475Y-87174500D01*
X143427525Y-87174500D01*
X143298993Y-87208940D01*
X143287511Y-87212017D01*
X143161988Y-87284488D01*
X143161982Y-87284493D01*
X143059493Y-87386982D01*
X143059488Y-87386988D01*
X142987017Y-87512511D01*
X142987016Y-87512515D01*
X142949500Y-87652525D01*
X141250000Y-87652525D01*
X141250000Y-85852525D01*
X142949500Y-85852525D01*
X142949500Y-85997475D01*
X142979389Y-86109020D01*
X142987017Y-86137488D01*
X143059488Y-86263011D01*
X143059490Y-86263013D01*
X143059491Y-86263015D01*
X143161985Y-86365509D01*
X143161986Y-86365510D01*
X143161988Y-86365511D01*
X143287511Y-86437982D01*
X143287512Y-86437982D01*
X143287515Y-86437984D01*
X143427525Y-86475500D01*
X143427528Y-86475500D01*
X143572472Y-86475500D01*
X143572475Y-86475500D01*
X143712485Y-86437984D01*
X143838015Y-86365509D01*
X143940509Y-86263015D01*
X144012984Y-86137485D01*
X144050500Y-85997475D01*
X144050500Y-85852525D01*
X144012984Y-85712515D01*
X143985888Y-85665584D01*
X143940511Y-85586988D01*
X143940506Y-85586982D01*
X143838017Y-85484493D01*
X143838011Y-85484488D01*
X143712488Y-85412017D01*
X143712489Y-85412017D01*
X143701006Y-85408940D01*
X143572475Y-85374500D01*
X143427525Y-85374500D01*
X143298993Y-85408940D01*
X143287511Y-85412017D01*
X143161988Y-85484488D01*
X143161982Y-85484493D01*
X143059493Y-85586982D01*
X143059488Y-85586988D01*
X142987017Y-85712511D01*
X142987016Y-85712515D01*
X142949500Y-85852525D01*
X141250000Y-85852525D01*
X141250000Y-84801363D01*
X145244500Y-84801363D01*
X145244500Y-85571878D01*
X145247896Y-85630356D01*
X145247900Y-85630406D01*
X145251222Y-85658901D01*
X145252397Y-85665583D01*
X145261371Y-85716631D01*
X145306481Y-85831284D01*
X145314052Y-85850525D01*
X145346963Y-85908320D01*
X145347952Y-85910172D01*
X145348626Y-85911242D01*
X145407491Y-85987017D01*
X145436892Y-86024864D01*
X145436893Y-86024864D01*
X145436895Y-86024867D01*
X145490029Y-86063181D01*
X145553595Y-86109018D01*
X145615506Y-86141403D01*
X145615515Y-86141406D01*
X145615517Y-86141407D01*
X145723556Y-86179522D01*
X145751188Y-86189270D01*
X145783965Y-86195789D01*
X145807228Y-86202846D01*
X145816945Y-86206871D01*
X145838346Y-86215736D01*
X145859782Y-86227194D01*
X145887791Y-86245909D01*
X145906579Y-86261328D01*
X145930396Y-86285144D01*
X145945819Y-86303936D01*
X145964532Y-86331942D01*
X145975992Y-86353382D01*
X145988884Y-86384507D01*
X145995939Y-86407763D01*
X146002511Y-86440797D01*
X146004894Y-86464992D01*
X146004894Y-86504659D01*
X146003552Y-86522852D01*
X145999318Y-86551397D01*
X145999316Y-86551410D01*
X145996935Y-86575581D01*
X145996935Y-86575590D01*
X145996935Y-86575591D01*
X145994500Y-86625143D01*
X145994500Y-86625155D01*
X145994500Y-89316561D01*
X145997397Y-89370609D01*
X145997397Y-89370610D01*
X146000229Y-89396943D01*
X146000232Y-89396970D01*
X146008885Y-89450366D01*
X146008885Y-89450368D01*
X146025845Y-89495838D01*
X146059168Y-89585178D01*
X146092653Y-89646501D01*
X146178877Y-89761682D01*
X146178886Y-89761691D01*
X146220498Y-89803303D01*
X146235920Y-89822094D01*
X146254639Y-89850109D01*
X146266098Y-89871548D01*
X146278989Y-89902670D01*
X146286045Y-89925927D01*
X146292617Y-89958961D01*
X146295000Y-89983156D01*
X146295000Y-90016839D01*
X146292616Y-90041035D01*
X146286043Y-90074073D01*
X146278988Y-90097329D01*
X146266097Y-90128451D01*
X146254692Y-90149809D01*
X146254384Y-90150269D01*
X146249377Y-90157912D01*
X146246971Y-90161656D01*
X146242233Y-90169178D01*
X146242233Y-90169179D01*
X146184812Y-90301098D01*
X146184810Y-90301101D01*
X146184810Y-90301104D01*
X146179603Y-90320083D01*
X146166324Y-90368488D01*
X146165420Y-90375201D01*
X146165360Y-90376176D01*
X146148396Y-90511245D01*
X146171412Y-90653263D01*
X146171413Y-90653266D01*
X146171414Y-90653272D01*
X146186033Y-90699957D01*
X146192292Y-90719947D01*
X146254385Y-90849728D01*
X146254643Y-90850114D01*
X146255224Y-90851202D01*
X146256571Y-90853566D01*
X146256507Y-90853602D01*
X146266096Y-90871543D01*
X146278990Y-90902672D01*
X146286046Y-90925930D01*
X146292617Y-90958964D01*
X146295000Y-90983154D01*
X146295000Y-91016839D01*
X146292616Y-91041035D01*
X146286043Y-91074073D01*
X146278989Y-91097327D01*
X146266098Y-91128451D01*
X146254637Y-91149894D01*
X146235925Y-91177897D01*
X146220507Y-91196683D01*
X146178881Y-91238310D01*
X146142687Y-91278606D01*
X146126067Y-91299234D01*
X146126053Y-91299251D01*
X146094433Y-91343103D01*
X146094430Y-91343107D01*
X146034664Y-91473974D01*
X146014976Y-91541022D01*
X146010741Y-91570477D01*
X145995351Y-91677525D01*
X145994500Y-91683441D01*
X145994500Y-92816561D01*
X145997397Y-92870609D01*
X145997397Y-92870610D01*
X146000229Y-92896943D01*
X146000232Y-92896970D01*
X146008885Y-92950366D01*
X146008885Y-92950368D01*
X146034450Y-93018908D01*
X146059168Y-93085178D01*
X146059252Y-93085331D01*
X146091563Y-93144506D01*
X146092653Y-93146501D01*
X146178877Y-93261682D01*
X146178886Y-93261691D01*
X146220498Y-93303303D01*
X146235920Y-93322094D01*
X146254639Y-93350109D01*
X146266098Y-93371548D01*
X146278989Y-93402670D01*
X146286045Y-93425927D01*
X146286562Y-93428524D01*
X146291413Y-93452912D01*
X146292617Y-93458961D01*
X146295000Y-93483156D01*
X146295000Y-93516839D01*
X146292616Y-93541035D01*
X146286043Y-93574073D01*
X146278989Y-93597328D01*
X146266098Y-93628451D01*
X146254638Y-93649890D01*
X146224512Y-93694977D01*
X146217965Y-93703887D01*
X146205858Y-93718913D01*
X146169510Y-93764018D01*
X146141012Y-93808360D01*
X146141007Y-93808369D01*
X146092631Y-93905012D01*
X146092627Y-93905023D01*
X146062048Y-94045595D01*
X146062047Y-94045607D01*
X146057729Y-94105992D01*
X146057063Y-94115299D01*
X146067327Y-94258810D01*
X146117609Y-94393619D01*
X146151094Y-94454942D01*
X146205043Y-94527009D01*
X146210063Y-94533714D01*
X146213885Y-94539115D01*
X146250876Y-94594475D01*
X146254639Y-94600107D01*
X146266098Y-94621546D01*
X146278990Y-94652671D01*
X146286045Y-94675927D01*
X146292617Y-94708961D01*
X146295000Y-94733156D01*
X146295000Y-94766839D01*
X146292616Y-94791035D01*
X146286043Y-94824073D01*
X146278989Y-94847327D01*
X146266098Y-94878451D01*
X146254637Y-94899894D01*
X146235925Y-94927897D01*
X146220507Y-94946683D01*
X146178881Y-94988310D01*
X146142687Y-95028606D01*
X146126067Y-95049234D01*
X146126053Y-95049251D01*
X146094433Y-95093103D01*
X146094430Y-95093107D01*
X146034664Y-95223974D01*
X146014976Y-95291022D01*
X146005188Y-95359103D01*
X145996455Y-95419846D01*
X145994500Y-95433441D01*
X145994500Y-96448640D01*
X145997397Y-96502688D01*
X145997397Y-96502689D01*
X146000229Y-96529022D01*
X146000232Y-96529049D01*
X146008885Y-96582445D01*
X146008885Y-96582447D01*
X146038564Y-96662017D01*
X146059168Y-96717257D01*
X146092653Y-96778580D01*
X146178877Y-96893761D01*
X146178881Y-96893765D01*
X146178886Y-96893771D01*
X146775021Y-97489905D01*
X147356239Y-98071123D01*
X147356255Y-98071137D01*
X147356262Y-98071144D01*
X147396480Y-98107271D01*
X147396492Y-98107281D01*
X147396500Y-98107288D01*
X147411778Y-98119600D01*
X147413292Y-98120820D01*
X147417142Y-98123922D01*
X147461026Y-98155567D01*
X147591903Y-98215338D01*
X147658942Y-98235023D01*
X147658946Y-98235024D01*
X147801362Y-98255500D01*
X147801365Y-98255500D01*
X150625990Y-98255500D01*
X150626000Y-98255500D01*
X150733456Y-98243947D01*
X150784967Y-98232741D01*
X150819197Y-98221347D01*
X150887497Y-98198616D01*
X150887501Y-98198613D01*
X150887504Y-98198613D01*
X151008543Y-98120825D01*
X151061347Y-98075070D01*
X151155567Y-97966336D01*
X151215338Y-97835459D01*
X151235023Y-97768420D01*
X151235024Y-97768416D01*
X151255500Y-97626000D01*
X151255500Y-93427525D01*
X153449500Y-93427525D01*
X153449500Y-93572475D01*
X153481423Y-93691612D01*
X153487017Y-93712488D01*
X153559488Y-93838011D01*
X153559490Y-93838013D01*
X153559491Y-93838015D01*
X153661985Y-93940509D01*
X153661986Y-93940510D01*
X153661988Y-93940511D01*
X153787511Y-94012982D01*
X153787512Y-94012982D01*
X153787515Y-94012984D01*
X153927525Y-94050500D01*
X153927528Y-94050500D01*
X154072472Y-94050500D01*
X154072475Y-94050500D01*
X154212485Y-94012984D01*
X154338015Y-93940509D01*
X154440509Y-93838015D01*
X154512984Y-93712485D01*
X154550500Y-93572475D01*
X154550500Y-93427525D01*
X154512984Y-93287515D01*
X154509277Y-93281095D01*
X154440511Y-93161988D01*
X154440506Y-93161982D01*
X154338017Y-93059493D01*
X154338015Y-93059491D01*
X154282652Y-93027527D01*
X154281367Y-93026785D01*
X154212485Y-92987016D01*
X154072475Y-92949500D01*
X153927525Y-92949500D01*
X153798993Y-92983940D01*
X153787511Y-92987017D01*
X153661988Y-93059488D01*
X153661982Y-93059493D01*
X153559493Y-93161982D01*
X153559488Y-93161988D01*
X153487017Y-93287511D01*
X153487016Y-93287515D01*
X153449500Y-93427525D01*
X151255500Y-93427525D01*
X151255500Y-92927525D01*
X156549500Y-92927525D01*
X156549500Y-93072475D01*
X156581491Y-93191866D01*
X156587017Y-93212488D01*
X156659488Y-93338011D01*
X156659490Y-93338013D01*
X156659491Y-93338015D01*
X156761985Y-93440509D01*
X156761986Y-93440510D01*
X156761988Y-93440511D01*
X156887511Y-93512982D01*
X156887512Y-93512982D01*
X156887515Y-93512984D01*
X157027525Y-93550500D01*
X157027528Y-93550500D01*
X157172472Y-93550500D01*
X157172475Y-93550500D01*
X157312485Y-93512984D01*
X157388001Y-93469384D01*
X157455899Y-93452912D01*
X157511998Y-93469384D01*
X157587515Y-93512984D01*
X157727525Y-93550500D01*
X157727528Y-93550500D01*
X157872472Y-93550500D01*
X157872475Y-93550500D01*
X158012485Y-93512984D01*
X158088001Y-93469384D01*
X158155899Y-93452912D01*
X158211998Y-93469384D01*
X158287515Y-93512984D01*
X158427525Y-93550500D01*
X158427528Y-93550500D01*
X158572472Y-93550500D01*
X158572475Y-93550500D01*
X158712485Y-93512984D01*
X158788001Y-93469384D01*
X158855899Y-93452912D01*
X158911998Y-93469384D01*
X158987515Y-93512984D01*
X159127525Y-93550500D01*
X159127528Y-93550500D01*
X159272472Y-93550500D01*
X159272475Y-93550500D01*
X159412485Y-93512984D01*
X159488001Y-93469384D01*
X159555899Y-93452912D01*
X159611998Y-93469384D01*
X159687515Y-93512984D01*
X159827525Y-93550500D01*
X159827528Y-93550500D01*
X159972472Y-93550500D01*
X159972475Y-93550500D01*
X160112485Y-93512984D01*
X160238015Y-93440509D01*
X160340509Y-93338015D01*
X160412984Y-93212485D01*
X160450500Y-93072475D01*
X160450500Y-92927525D01*
X160412984Y-92787515D01*
X160398244Y-92761985D01*
X160340511Y-92661988D01*
X160340506Y-92661982D01*
X160238017Y-92559493D01*
X160238015Y-92559491D01*
X160178679Y-92525233D01*
X160162500Y-92515892D01*
X160114284Y-92465325D01*
X160100500Y-92408505D01*
X160100500Y-92327527D01*
X160100500Y-92327525D01*
X160062984Y-92187515D01*
X160004373Y-92085998D01*
X159987901Y-92018101D01*
X160010753Y-91952074D01*
X160065674Y-91908883D01*
X160111761Y-91900000D01*
X160450000Y-91900000D01*
X160450000Y-91051365D01*
X160469685Y-90984326D01*
X160486321Y-90963681D01*
X160507464Y-90942539D01*
X160713702Y-90736312D01*
X160775024Y-90702831D01*
X160801373Y-90699998D01*
X161875497Y-90699957D01*
X161942535Y-90719639D01*
X161988292Y-90772441D01*
X161999500Y-90823957D01*
X161999500Y-94475498D01*
X161996949Y-94484183D01*
X161998238Y-94493145D01*
X161987259Y-94517185D01*
X161979815Y-94542537D01*
X161972974Y-94548464D01*
X161969213Y-94556701D01*
X161946978Y-94570990D01*
X161927011Y-94588292D01*
X161916496Y-94590579D01*
X161910435Y-94594475D01*
X161875500Y-94599498D01*
X161717289Y-94599498D01*
X161669838Y-94590060D01*
X161662486Y-94587014D01*
X161602683Y-94570990D01*
X161522475Y-94549498D01*
X161377525Y-94549498D01*
X161248993Y-94583938D01*
X161237511Y-94587015D01*
X161111988Y-94659486D01*
X161111982Y-94659491D01*
X161009493Y-94761980D01*
X161009489Y-94761986D01*
X160937015Y-94887514D01*
X160933964Y-94894879D01*
X160907089Y-94935094D01*
X159276255Y-96565927D01*
X159276256Y-96565928D01*
X159200511Y-96641673D01*
X159134619Y-96755799D01*
X159100511Y-96883095D01*
X159100511Y-98164481D01*
X159091074Y-98211930D01*
X159088027Y-98219284D01*
X159078323Y-98255500D01*
X159050511Y-98359296D01*
X159050511Y-98504246D01*
X159079379Y-98611982D01*
X159088028Y-98644259D01*
X159160499Y-98769782D01*
X159160501Y-98769784D01*
X159160502Y-98769786D01*
X159262996Y-98872280D01*
X159262997Y-98872281D01*
X159262999Y-98872282D01*
X159388522Y-98944753D01*
X159388523Y-98944753D01*
X159388526Y-98944755D01*
X159528536Y-98982271D01*
X159528539Y-98982271D01*
X159673483Y-98982271D01*
X159673486Y-98982271D01*
X159813496Y-98944755D01*
X159939026Y-98872280D01*
X160041520Y-98769786D01*
X160113995Y-98644256D01*
X160151511Y-98504246D01*
X160151511Y-98359296D01*
X160113995Y-98219286D01*
X160113994Y-98219284D01*
X160110948Y-98211930D01*
X160101511Y-98164481D01*
X160101511Y-97207661D01*
X160121196Y-97140622D01*
X160137825Y-97119985D01*
X161614904Y-95642905D01*
X161621836Y-95638273D01*
X161624781Y-95634034D01*
X161655135Y-95616026D01*
X161669842Y-95609935D01*
X161717289Y-95600498D01*
X164665892Y-95600498D01*
X164665894Y-95600498D01*
X164793188Y-95566390D01*
X164877852Y-95517508D01*
X164945748Y-95501036D01*
X164957494Y-95502158D01*
X164962639Y-95502898D01*
X164999000Y-95505499D01*
X169501000Y-95505499D01*
X169519227Y-95504848D01*
X169590242Y-95499769D01*
X169643998Y-95490070D01*
X169780275Y-95450055D01*
X169846425Y-95419846D01*
X169965909Y-95343059D01*
X170020870Y-95295435D01*
X170113880Y-95188096D01*
X170153197Y-95126917D01*
X170212198Y-94997722D01*
X170232686Y-94927945D01*
X170252899Y-94787360D01*
X170255500Y-94750999D01*
X170255500Y-94248998D01*
X170254849Y-94230771D01*
X170249770Y-94159756D01*
X170240071Y-94106000D01*
X170233303Y-94082952D01*
X170205523Y-93988341D01*
X170200500Y-93953406D01*
X170200500Y-93927527D01*
X170200500Y-93927525D01*
X170162984Y-93787515D01*
X170134406Y-93738017D01*
X170090511Y-93661988D01*
X170090506Y-93661982D01*
X169988017Y-93559493D01*
X169988011Y-93559488D01*
X169862488Y-93487017D01*
X169862489Y-93487017D01*
X169848079Y-93483156D01*
X169722475Y-93449500D01*
X169577525Y-93449500D01*
X169437515Y-93487016D01*
X169437513Y-93487017D01*
X169429665Y-93489120D01*
X169429268Y-93487640D01*
X169394787Y-93494498D01*
X168414500Y-93494498D01*
X168387204Y-93495961D01*
X168387197Y-93495961D01*
X168387187Y-93495962D01*
X168387183Y-93495962D01*
X168387145Y-93495965D01*
X168281131Y-93507364D01*
X168281119Y-93507366D01*
X168219146Y-93522011D01*
X168219134Y-93522015D01*
X168086078Y-93571644D01*
X168086066Y-93571649D01*
X168022250Y-93606495D01*
X168022249Y-93606496D01*
X167908547Y-93691612D01*
X167881008Y-93715473D01*
X167880988Y-93715492D01*
X167811976Y-93784504D01*
X167786298Y-93804209D01*
X167758708Y-93820139D01*
X167728800Y-93832527D01*
X167698023Y-93840774D01*
X167665928Y-93845000D01*
X167634070Y-93845000D01*
X167601977Y-93840775D01*
X167555430Y-93828303D01*
X167528071Y-93820972D01*
X167528010Y-93820953D01*
X167495257Y-93812178D01*
X167465536Y-93806083D01*
X167465505Y-93806078D01*
X167348241Y-93789218D01*
X167348228Y-93789217D01*
X167281546Y-93788423D01*
X167281541Y-93788423D01*
X167140514Y-93805286D01*
X167140506Y-93805288D01*
X167108093Y-93811535D01*
X167104732Y-93812183D01*
X167104716Y-93812186D01*
X167074456Y-93820294D01*
X167074441Y-93820298D01*
X166998024Y-93840775D01*
X166965929Y-93845001D01*
X166934072Y-93845001D01*
X166901977Y-93840775D01*
X166871197Y-93832527D01*
X166841291Y-93820140D01*
X166841289Y-93820139D01*
X166813704Y-93804212D01*
X166788026Y-93784508D01*
X166719017Y-93715501D01*
X166719008Y-93715492D01*
X166719001Y-93715485D01*
X166715665Y-93712488D01*
X166698686Y-93697236D01*
X166698656Y-93697210D01*
X166654941Y-93661982D01*
X166615590Y-93630270D01*
X166615589Y-93630269D01*
X166615585Y-93630266D01*
X166561411Y-93596802D01*
X166432213Y-93537800D01*
X166362438Y-93517312D01*
X166362432Y-93517310D01*
X166236038Y-93499138D01*
X166221854Y-93497099D01*
X166221857Y-93497099D01*
X166185492Y-93494498D01*
X164998998Y-93494498D01*
X164980768Y-93495149D01*
X164909766Y-93500227D01*
X164909761Y-93500227D01*
X164909758Y-93500228D01*
X164856002Y-93509927D01*
X164856001Y-93509927D01*
X164855997Y-93509928D01*
X164719728Y-93549941D01*
X164719720Y-93549944D01*
X164653580Y-93580148D01*
X164653574Y-93580151D01*
X164534087Y-93656940D01*
X164534084Y-93656943D01*
X164479132Y-93704558D01*
X164386121Y-93811899D01*
X164346803Y-93873079D01*
X164346800Y-93873086D01*
X164287801Y-94002277D01*
X164267313Y-94072056D01*
X164267312Y-94072057D01*
X164247101Y-94212635D01*
X164244500Y-94248998D01*
X164244500Y-94475498D01*
X164224815Y-94542537D01*
X164172011Y-94588292D01*
X164120500Y-94599498D01*
X163124500Y-94599498D01*
X163057461Y-94579813D01*
X163011706Y-94527009D01*
X163000500Y-94475498D01*
X163000500Y-90907041D01*
X163020185Y-90840002D01*
X163072989Y-90794247D01*
X163077019Y-90792492D01*
X163114323Y-90777041D01*
X163278191Y-90667548D01*
X163417548Y-90528191D01*
X163527041Y-90364323D01*
X163602460Y-90182244D01*
X163623977Y-90074073D01*
X163640909Y-89988952D01*
X163640909Y-84291867D01*
X163640908Y-84291866D01*
X163622735Y-84200500D01*
X163602461Y-84098574D01*
X163527041Y-83916495D01*
X163527040Y-83916494D01*
X163527037Y-83916488D01*
X163417549Y-83752628D01*
X163417546Y-83752624D01*
X162036819Y-82371897D01*
X162003334Y-82310574D01*
X162000500Y-82284216D01*
X162000500Y-78164875D01*
X162020185Y-78097836D01*
X162072989Y-78052081D01*
X162142147Y-78042137D01*
X162205703Y-78071162D01*
X162231166Y-78106478D01*
X162232952Y-78105447D01*
X162309488Y-78238011D01*
X162309490Y-78238013D01*
X162309491Y-78238015D01*
X162411985Y-78340509D01*
X162411986Y-78340510D01*
X162411988Y-78340511D01*
X162537511Y-78412982D01*
X162537512Y-78412982D01*
X162537515Y-78412984D01*
X162677525Y-78450500D01*
X162677528Y-78450500D01*
X162822472Y-78450500D01*
X162822475Y-78450500D01*
X162962485Y-78412984D01*
X163088015Y-78340509D01*
X163190509Y-78238015D01*
X163262984Y-78112485D01*
X163300500Y-77972475D01*
X163300500Y-77827525D01*
X163262984Y-77687515D01*
X163190509Y-77561985D01*
X163186819Y-77558295D01*
X163153334Y-77496972D01*
X163150500Y-77470614D01*
X163150500Y-75429386D01*
X163170185Y-75362347D01*
X163186819Y-75341705D01*
X163190509Y-75338015D01*
X163262984Y-75212485D01*
X163300500Y-75072475D01*
X163300500Y-74927525D01*
X163262984Y-74787515D01*
X163219665Y-74712485D01*
X163190511Y-74661988D01*
X163190506Y-74661982D01*
X163088017Y-74559493D01*
X163088015Y-74559491D01*
X162962485Y-74487016D01*
X162822475Y-74449500D01*
X162764782Y-74449500D01*
X162697743Y-74429815D01*
X162695759Y-74427525D01*
X167699500Y-74427525D01*
X167699500Y-74572475D01*
X167737016Y-74712485D01*
X167737017Y-74712488D01*
X167740059Y-74719831D01*
X167749500Y-74767288D01*
X167749500Y-80315891D01*
X167783608Y-80443187D01*
X167816554Y-80500250D01*
X167849500Y-80557314D01*
X167849502Y-80557316D01*
X168707089Y-81414903D01*
X168733965Y-81455121D01*
X168737015Y-81462482D01*
X168737016Y-81462485D01*
X168809491Y-81588015D01*
X168911985Y-81690509D01*
X168911986Y-81690510D01*
X168911988Y-81690511D01*
X169037511Y-81762982D01*
X169037512Y-81762982D01*
X169037515Y-81762984D01*
X169177525Y-81800500D01*
X169177528Y-81800500D01*
X169322472Y-81800500D01*
X169322475Y-81800500D01*
X169462485Y-81762984D01*
X169588015Y-81690509D01*
X169690509Y-81588015D01*
X169762984Y-81462485D01*
X169800500Y-81322475D01*
X169800500Y-81177525D01*
X169762984Y-81037515D01*
X169762278Y-81036293D01*
X169690511Y-80911988D01*
X169690506Y-80911982D01*
X169588017Y-80809493D01*
X169588015Y-80809491D01*
X169462485Y-80737016D01*
X169462482Y-80737015D01*
X169455121Y-80733965D01*
X169414903Y-80707089D01*
X168786819Y-80079005D01*
X168753334Y-80017682D01*
X168750500Y-79991324D01*
X168750500Y-74767288D01*
X168759941Y-74719831D01*
X168762982Y-74712488D01*
X168762981Y-74712488D01*
X168762984Y-74712485D01*
X168800500Y-74572475D01*
X168800500Y-74427525D01*
X168762984Y-74287515D01*
X168732370Y-74234491D01*
X168690511Y-74161988D01*
X168690506Y-74161982D01*
X168588017Y-74059493D01*
X168588011Y-74059488D01*
X168462488Y-73987017D01*
X168462489Y-73987017D01*
X168451006Y-73983940D01*
X168322475Y-73949500D01*
X168177525Y-73949500D01*
X168048993Y-73983940D01*
X168037511Y-73987017D01*
X167911988Y-74059488D01*
X167911982Y-74059493D01*
X167809493Y-74161982D01*
X167809488Y-74161988D01*
X167737017Y-74287511D01*
X167737016Y-74287515D01*
X167699500Y-74427525D01*
X162695759Y-74427525D01*
X162651988Y-74377011D01*
X162642044Y-74307853D01*
X162671069Y-74244297D01*
X162677101Y-74237819D01*
X163052702Y-73862219D01*
X163978102Y-72936819D01*
X164039425Y-72903334D01*
X164065783Y-72900500D01*
X171862129Y-72900500D01*
X171929168Y-72920185D01*
X171974923Y-72972989D01*
X171984867Y-73042147D01*
X171981904Y-73056589D01*
X171949500Y-73177525D01*
X171949500Y-73322475D01*
X171983537Y-73449500D01*
X171987017Y-73462488D01*
X171990059Y-73469831D01*
X171999500Y-73517288D01*
X171999500Y-80982710D01*
X171995799Y-81012779D01*
X171991601Y-81029573D01*
X171987016Y-81037515D01*
X171949500Y-81177525D01*
X171949500Y-81198007D01*
X171945799Y-81212814D01*
X171935531Y-81230316D01*
X171929815Y-81249784D01*
X171913181Y-81270426D01*
X171350177Y-81833429D01*
X171350175Y-81833432D01*
X171297447Y-81924757D01*
X171297447Y-81924758D01*
X171292509Y-81943184D01*
X171292510Y-81943185D01*
X171270155Y-82026616D01*
X171270155Y-89225500D01*
X171250470Y-89292539D01*
X171197666Y-89338294D01*
X171146155Y-89349500D01*
X168347337Y-89349500D01*
X168245474Y-89376793D01*
X168154151Y-89429520D01*
X168154148Y-89429522D01*
X167309785Y-90273886D01*
X167248462Y-90307371D01*
X167222104Y-90310205D01*
X167216884Y-90310205D01*
X167088352Y-90344645D01*
X167076870Y-90347722D01*
X166951347Y-90420193D01*
X166951341Y-90420198D01*
X166848852Y-90522687D01*
X166848847Y-90522693D01*
X166776376Y-90648216D01*
X166776375Y-90648220D01*
X166752583Y-90737015D01*
X166747069Y-90757592D01*
X166710704Y-90817252D01*
X166647856Y-90847781D01*
X166627294Y-90849498D01*
X165429386Y-90849498D01*
X165362347Y-90829813D01*
X165341705Y-90813179D01*
X165338017Y-90809491D01*
X165338011Y-90809486D01*
X165212488Y-90737015D01*
X165212489Y-90737015D01*
X165201006Y-90733938D01*
X165072475Y-90699498D01*
X164927525Y-90699498D01*
X164798993Y-90733938D01*
X164787511Y-90737015D01*
X164661988Y-90809486D01*
X164661982Y-90809491D01*
X164559493Y-90911980D01*
X164559488Y-90911986D01*
X164487017Y-91037509D01*
X164487016Y-91037513D01*
X164449500Y-91177523D01*
X164449500Y-91322473D01*
X164483008Y-91447524D01*
X164487017Y-91462486D01*
X164559488Y-91588009D01*
X164559490Y-91588011D01*
X164559491Y-91588013D01*
X164661985Y-91690507D01*
X164661986Y-91690508D01*
X164661988Y-91690509D01*
X164787511Y-91762980D01*
X164787512Y-91762980D01*
X164787515Y-91762982D01*
X164927525Y-91800498D01*
X164927528Y-91800498D01*
X165072472Y-91800498D01*
X165072475Y-91800498D01*
X165212485Y-91762982D01*
X165338015Y-91690507D01*
X165341705Y-91686817D01*
X165403028Y-91653332D01*
X165429386Y-91650498D01*
X166952791Y-91650498D01*
X166952793Y-91650498D01*
X167054654Y-91623205D01*
X167145979Y-91570478D01*
X167268933Y-91447524D01*
X167330256Y-91414039D01*
X167356614Y-91411205D01*
X167361831Y-91411205D01*
X167361834Y-91411205D01*
X167501844Y-91373689D01*
X167627374Y-91301214D01*
X167729868Y-91198720D01*
X167802343Y-91073190D01*
X167839859Y-90933180D01*
X167839859Y-90927960D01*
X167859544Y-90860921D01*
X167876178Y-90840279D01*
X168529638Y-90186819D01*
X168590961Y-90153334D01*
X168617319Y-90150500D01*
X171617928Y-90150500D01*
X171723382Y-90150500D01*
X172082745Y-90150500D01*
X172149784Y-90170185D01*
X172170426Y-90186819D01*
X172613181Y-90629574D01*
X172646666Y-90690897D01*
X172649500Y-90717255D01*
X172649500Y-95497273D01*
X172649500Y-95602727D01*
X172659624Y-95640511D01*
X172676793Y-95704589D01*
X172683608Y-95716392D01*
X172729520Y-95795913D01*
X173171560Y-96237953D01*
X173262885Y-96290680D01*
X173364746Y-96317973D01*
X175765449Y-96317973D01*
X175832488Y-96337658D01*
X175853130Y-96354292D01*
X175856820Y-96357982D01*
X175856821Y-96357983D01*
X175856823Y-96357984D01*
X175982346Y-96430455D01*
X175982347Y-96430455D01*
X175982350Y-96430457D01*
X176122360Y-96467973D01*
X176122363Y-96467973D01*
X176267307Y-96467973D01*
X176267310Y-96467973D01*
X176407320Y-96430457D01*
X176407322Y-96430455D01*
X176407324Y-96430455D01*
X176407325Y-96430454D01*
X176430430Y-96417115D01*
X176492431Y-96400501D01*
X177855028Y-96400501D01*
X177887120Y-96404726D01*
X177906069Y-96409803D01*
X177925024Y-96414882D01*
X177925026Y-96414882D01*
X178069971Y-96414882D01*
X178069974Y-96414882D01*
X178209984Y-96377366D01*
X178335514Y-96304891D01*
X178438008Y-96202397D01*
X178510483Y-96076867D01*
X178547999Y-95936857D01*
X178547999Y-95791907D01*
X178510483Y-95651897D01*
X178509676Y-95650500D01*
X178438010Y-95526370D01*
X178438005Y-95526364D01*
X178335516Y-95423875D01*
X178335510Y-95423870D01*
X178209987Y-95351399D01*
X178209988Y-95351399D01*
X178198505Y-95348322D01*
X178069974Y-95313882D01*
X177925024Y-95313882D01*
X177841018Y-95336391D01*
X177785012Y-95351398D01*
X177785011Y-95351399D01*
X177730472Y-95382888D01*
X177668472Y-95399501D01*
X176405031Y-95399501D01*
X176372938Y-95395276D01*
X176326705Y-95382888D01*
X176267310Y-95366973D01*
X176122360Y-95366973D01*
X176015427Y-95395626D01*
X175982346Y-95404490D01*
X175856823Y-95476961D01*
X175856817Y-95476966D01*
X175853130Y-95480654D01*
X175791807Y-95514139D01*
X175765449Y-95516973D01*
X173634728Y-95516973D01*
X173605287Y-95508328D01*
X173575301Y-95501805D01*
X173570285Y-95498050D01*
X173567689Y-95497288D01*
X173547047Y-95480654D01*
X173486819Y-95420426D01*
X173453334Y-95359103D01*
X173450500Y-95332745D01*
X173450500Y-95147172D01*
X173470185Y-95080133D01*
X173522989Y-95034378D01*
X173592147Y-95024434D01*
X173643392Y-95044071D01*
X173691864Y-95076460D01*
X173691872Y-95076464D01*
X173691873Y-95076465D01*
X173810256Y-95125501D01*
X173810260Y-95125501D01*
X173810261Y-95125502D01*
X173935928Y-95150500D01*
X173935931Y-95150500D01*
X174064071Y-95150500D01*
X174148615Y-95133682D01*
X174189744Y-95125501D01*
X174308127Y-95076465D01*
X174414669Y-95005276D01*
X174505276Y-94914669D01*
X174576465Y-94808127D01*
X174625501Y-94689744D01*
X174641311Y-94610263D01*
X174650500Y-94564071D01*
X174650500Y-94435928D01*
X174625502Y-94310261D01*
X174625501Y-94310260D01*
X174625501Y-94310256D01*
X174576465Y-94191873D01*
X174576464Y-94191872D01*
X174576461Y-94191866D01*
X174505276Y-94085331D01*
X174501411Y-94080621D01*
X174503045Y-94079279D01*
X174474148Y-94026389D01*
X174479114Y-93956696D01*
X174502514Y-93920284D01*
X174501411Y-93919379D01*
X174505271Y-93914673D01*
X174505276Y-93914669D01*
X174576465Y-93808127D01*
X174625501Y-93689744D01*
X174637331Y-93630271D01*
X174650500Y-93564071D01*
X174650500Y-93435928D01*
X174625502Y-93310261D01*
X174625501Y-93310260D01*
X174625501Y-93310256D01*
X174576465Y-93191873D01*
X174576464Y-93191872D01*
X174576461Y-93191866D01*
X174505276Y-93085331D01*
X174501411Y-93080621D01*
X174503045Y-93079279D01*
X174474148Y-93026389D01*
X174479114Y-92956696D01*
X174502514Y-92920284D01*
X174501411Y-92919379D01*
X174505271Y-92914673D01*
X174505276Y-92914669D01*
X174576465Y-92808127D01*
X174625501Y-92689744D01*
X174634969Y-92642147D01*
X174650500Y-92564071D01*
X174650500Y-92435928D01*
X174625502Y-92310261D01*
X174625501Y-92310260D01*
X174625501Y-92310256D01*
X174576465Y-92191873D01*
X174576464Y-92191872D01*
X174576461Y-92191866D01*
X174505276Y-92085331D01*
X174501411Y-92080621D01*
X174503045Y-92079279D01*
X174474148Y-92026389D01*
X174479114Y-91956696D01*
X174502514Y-91920284D01*
X174501411Y-91919379D01*
X174505271Y-91914673D01*
X174505276Y-91914669D01*
X174576465Y-91808127D01*
X174625501Y-91689744D01*
X174645738Y-91588009D01*
X174650500Y-91564071D01*
X174650500Y-91435928D01*
X174625502Y-91310261D01*
X174625501Y-91310260D01*
X174625501Y-91310256D01*
X174579301Y-91198720D01*
X174576466Y-91191875D01*
X174576461Y-91191866D01*
X174505276Y-91085331D01*
X174505273Y-91085327D01*
X174414672Y-90994726D01*
X174414668Y-90994723D01*
X174308133Y-90923538D01*
X174308124Y-90923533D01*
X174189744Y-90874499D01*
X174189738Y-90874497D01*
X174064071Y-90849500D01*
X174064069Y-90849500D01*
X173935931Y-90849500D01*
X173935929Y-90849500D01*
X173810261Y-90874497D01*
X173810255Y-90874499D01*
X173691875Y-90923533D01*
X173691866Y-90923538D01*
X173643391Y-90955929D01*
X173576713Y-90976807D01*
X173509333Y-90958322D01*
X173462643Y-90906344D01*
X173450500Y-90852827D01*
X173450500Y-90447273D01*
X173450499Y-90447269D01*
X173440445Y-90409745D01*
X173438743Y-90403393D01*
X173423207Y-90345412D01*
X173370480Y-90254087D01*
X172545913Y-89429520D01*
X172500250Y-89403156D01*
X172454589Y-89376793D01*
X172403657Y-89363146D01*
X172352727Y-89349500D01*
X172352726Y-89349500D01*
X172195155Y-89349500D01*
X172128116Y-89329815D01*
X172082361Y-89277011D01*
X172071155Y-89225500D01*
X172071155Y-86427525D01*
X174199500Y-86427525D01*
X174199500Y-86572475D01*
X174213613Y-86625143D01*
X174237017Y-86712488D01*
X174309488Y-86838011D01*
X174309490Y-86838013D01*
X174309491Y-86838015D01*
X174411985Y-86940509D01*
X174411986Y-86940510D01*
X174411988Y-86940511D01*
X174537511Y-87012982D01*
X174537512Y-87012982D01*
X174537515Y-87012984D01*
X174677525Y-87050500D01*
X174677528Y-87050500D01*
X174822472Y-87050500D01*
X174822475Y-87050500D01*
X174962485Y-87012984D01*
X175088015Y-86940509D01*
X175091705Y-86936819D01*
X175153028Y-86903334D01*
X175179386Y-86900500D01*
X176282745Y-86900500D01*
X176349784Y-86920185D01*
X176370426Y-86936819D01*
X177263181Y-87829574D01*
X177296666Y-87890897D01*
X177299500Y-87917255D01*
X177299500Y-90875500D01*
X177279815Y-90942539D01*
X177227011Y-90988294D01*
X177175500Y-90999500D01*
X177109818Y-90999500D01*
X176964830Y-91028340D01*
X176964820Y-91028343D01*
X176828247Y-91084913D01*
X176795764Y-91106618D01*
X176705317Y-91167051D01*
X175550788Y-92321580D01*
X175550788Y-92321581D01*
X175550785Y-92321584D01*
X175550784Y-92321586D01*
X175510136Y-92382420D01*
X175468654Y-92444504D01*
X175468650Y-92444511D01*
X175412078Y-92581089D01*
X175412076Y-92581095D01*
X175383236Y-92726082D01*
X175383236Y-92726085D01*
X175383236Y-92873919D01*
X175383236Y-92873921D01*
X175383235Y-92873921D01*
X175412076Y-93018908D01*
X175412078Y-93018914D01*
X175464099Y-93144506D01*
X175468652Y-93155496D01*
X175550784Y-93278418D01*
X175550788Y-93278422D01*
X175550788Y-93278423D01*
X175655314Y-93382949D01*
X175655317Y-93382951D01*
X175655320Y-93382954D01*
X175778242Y-93465086D01*
X175914824Y-93521660D01*
X175914828Y-93521660D01*
X175914829Y-93521661D01*
X176059816Y-93550502D01*
X176059819Y-93550502D01*
X176207655Y-93550502D01*
X176315482Y-93529053D01*
X176352648Y-93521660D01*
X176489230Y-93465086D01*
X176612152Y-93382954D01*
X177458287Y-92536819D01*
X177519610Y-92503334D01*
X177545968Y-92500500D01*
X178945614Y-92500500D01*
X179012653Y-92520185D01*
X179058408Y-92572989D01*
X179068352Y-92642147D01*
X179039327Y-92705703D01*
X179033295Y-92712181D01*
X178983493Y-92761982D01*
X178983488Y-92761988D01*
X178911017Y-92887511D01*
X178906583Y-92904055D01*
X178873500Y-93027525D01*
X178873500Y-93172475D01*
X178910419Y-93310256D01*
X178911017Y-93312488D01*
X178914059Y-93319831D01*
X178923500Y-93367288D01*
X178923500Y-96317324D01*
X178903815Y-96384363D01*
X178887181Y-96405005D01*
X177814711Y-97477475D01*
X177753388Y-97510960D01*
X177727030Y-97513794D01*
X176986319Y-97513794D01*
X176938868Y-97504356D01*
X176931516Y-97501310D01*
X176888951Y-97489905D01*
X176791505Y-97463794D01*
X176646555Y-97463794D01*
X176549109Y-97489905D01*
X176506541Y-97501311D01*
X176381018Y-97573782D01*
X176381012Y-97573787D01*
X176278523Y-97676276D01*
X176278518Y-97676282D01*
X176206047Y-97801805D01*
X176206046Y-97801809D01*
X176168530Y-97941819D01*
X176168530Y-98086769D01*
X176203105Y-98215803D01*
X176206047Y-98226782D01*
X176278518Y-98352305D01*
X176278520Y-98352307D01*
X176278521Y-98352309D01*
X176381015Y-98454803D01*
X176381016Y-98454804D01*
X176381018Y-98454805D01*
X176506541Y-98527276D01*
X176506542Y-98527276D01*
X176506545Y-98527278D01*
X176646555Y-98564794D01*
X176646558Y-98564794D01*
X176791502Y-98564794D01*
X176791505Y-98564794D01*
X176931515Y-98527278D01*
X176931518Y-98527275D01*
X176938868Y-98524232D01*
X176986319Y-98514794D01*
X178051596Y-98514794D01*
X178051598Y-98514794D01*
X178178892Y-98480686D01*
X178293020Y-98414794D01*
X179519386Y-97188428D01*
X195365000Y-97188428D01*
X195365000Y-97361571D01*
X195392085Y-97532584D01*
X195445592Y-97697259D01*
X195524196Y-97851525D01*
X195528709Y-97857736D01*
X195528709Y-97857737D01*
X196111446Y-97275001D01*
X196111446Y-97274999D01*
X196065369Y-97228922D01*
X196115000Y-97228922D01*
X196115000Y-97321078D01*
X196138852Y-97410095D01*
X196184930Y-97489905D01*
X196250095Y-97555070D01*
X196329905Y-97601148D01*
X196418922Y-97625000D01*
X196511078Y-97625000D01*
X196600095Y-97601148D01*
X196679905Y-97555070D01*
X196745070Y-97489905D01*
X196791148Y-97410095D01*
X196815000Y-97321078D01*
X196815000Y-97274999D01*
X196818553Y-97274999D01*
X196818553Y-97275000D01*
X197401289Y-97857736D01*
X197405803Y-97851525D01*
X197484408Y-97697257D01*
X197537914Y-97532584D01*
X197565000Y-97361571D01*
X197565000Y-97188428D01*
X197537914Y-97017415D01*
X197484408Y-96852742D01*
X197405801Y-96698471D01*
X197401290Y-96692262D01*
X197401289Y-96692261D01*
X196818553Y-97274999D01*
X196815000Y-97274999D01*
X196815000Y-97228922D01*
X196791148Y-97139905D01*
X196745070Y-97060095D01*
X196679905Y-96994930D01*
X196600095Y-96948852D01*
X196511078Y-96925000D01*
X196418922Y-96925000D01*
X196329905Y-96948852D01*
X196250095Y-96994930D01*
X196184930Y-97060095D01*
X196138852Y-97139905D01*
X196115000Y-97228922D01*
X196065369Y-97228922D01*
X195528709Y-96692261D01*
X195528708Y-96692261D01*
X195524203Y-96698463D01*
X195524193Y-96698480D01*
X195445592Y-96852740D01*
X195392085Y-97017415D01*
X195365000Y-97188428D01*
X179519386Y-97188428D01*
X179824500Y-96883314D01*
X179890392Y-96769186D01*
X179924500Y-96641892D01*
X179924500Y-96510107D01*
X179924500Y-94651228D01*
X180374500Y-94651228D01*
X180374500Y-94818771D01*
X180407182Y-94983074D01*
X180407184Y-94983082D01*
X180471295Y-95137860D01*
X180564373Y-95277162D01*
X180682837Y-95395626D01*
X180725112Y-95423873D01*
X180822137Y-95488703D01*
X180822138Y-95488703D01*
X180822139Y-95488704D01*
X180842863Y-95497288D01*
X180976918Y-95552816D01*
X181141228Y-95585499D01*
X181141232Y-95585500D01*
X181141233Y-95585500D01*
X181308768Y-95585500D01*
X181308769Y-95585499D01*
X181473082Y-95552816D01*
X181627863Y-95488703D01*
X181767162Y-95395626D01*
X181885626Y-95277162D01*
X181978703Y-95137863D01*
X182042816Y-94983082D01*
X182075500Y-94818767D01*
X182075500Y-94651233D01*
X182042816Y-94486918D01*
X181978703Y-94332137D01*
X181929707Y-94258810D01*
X181885626Y-94192837D01*
X181767162Y-94074373D01*
X181627860Y-93981295D01*
X181473082Y-93917184D01*
X181473074Y-93917182D01*
X181308771Y-93884500D01*
X181308767Y-93884500D01*
X181141233Y-93884500D01*
X181141228Y-93884500D01*
X180976925Y-93917182D01*
X180976917Y-93917184D01*
X180822139Y-93981295D01*
X180682837Y-94074373D01*
X180564373Y-94192837D01*
X180471295Y-94332139D01*
X180407184Y-94486917D01*
X180407182Y-94486925D01*
X180374500Y-94651228D01*
X179924500Y-94651228D01*
X179924500Y-93367288D01*
X179933941Y-93319831D01*
X179936982Y-93312488D01*
X179936981Y-93312488D01*
X179936984Y-93312485D01*
X179974500Y-93172475D01*
X179974500Y-93027525D01*
X179936984Y-92887515D01*
X179936696Y-92887017D01*
X179864511Y-92761988D01*
X179864506Y-92761982D01*
X179814705Y-92712181D01*
X179781220Y-92650858D01*
X179786204Y-92581166D01*
X179828076Y-92525233D01*
X179893540Y-92500816D01*
X179902386Y-92500500D01*
X189137770Y-92500500D01*
X189204809Y-92520185D01*
X189225451Y-92536819D01*
X190277728Y-93589096D01*
X190311213Y-93650419D01*
X190306229Y-93720111D01*
X190277728Y-93764458D01*
X189329005Y-94713181D01*
X189267682Y-94746666D01*
X189241324Y-94749500D01*
X188017289Y-94749500D01*
X187969838Y-94740062D01*
X187962486Y-94737016D01*
X187927482Y-94727637D01*
X187822475Y-94699500D01*
X187677525Y-94699500D01*
X187597507Y-94720941D01*
X187537513Y-94737016D01*
X187530162Y-94740062D01*
X187482711Y-94749500D01*
X186684107Y-94749500D01*
X186598366Y-94772474D01*
X186598365Y-94772473D01*
X186556814Y-94783607D01*
X186442686Y-94849500D01*
X186442683Y-94849502D01*
X185329005Y-95963181D01*
X185267682Y-95996666D01*
X185241324Y-95999500D01*
X182517289Y-95999500D01*
X182469838Y-95990062D01*
X182462486Y-95987016D01*
X182427482Y-95977637D01*
X182322475Y-95949500D01*
X182177525Y-95949500D01*
X182048993Y-95983940D01*
X182037511Y-95987017D01*
X181911988Y-96059488D01*
X181911982Y-96059493D01*
X181809493Y-96161982D01*
X181809488Y-96161988D01*
X181737017Y-96287511D01*
X181737016Y-96287515D01*
X181699500Y-96427525D01*
X181699500Y-96572475D01*
X181737016Y-96712485D01*
X181737017Y-96712488D01*
X181809488Y-96838011D01*
X181809490Y-96838013D01*
X181809491Y-96838015D01*
X181911985Y-96940509D01*
X181911986Y-96940510D01*
X181911988Y-96940511D01*
X182037511Y-97012982D01*
X182037512Y-97012982D01*
X182037515Y-97012984D01*
X182177525Y-97050500D01*
X182177528Y-97050500D01*
X182322472Y-97050500D01*
X182322475Y-97050500D01*
X182462485Y-97012984D01*
X182462488Y-97012981D01*
X182469838Y-97009938D01*
X182517289Y-97000500D01*
X185565890Y-97000500D01*
X185565892Y-97000500D01*
X185693186Y-96966392D01*
X185807314Y-96900500D01*
X186369106Y-96338708D01*
X195882261Y-96338708D01*
X195882261Y-96338709D01*
X196465000Y-96921446D01*
X196465001Y-96921446D01*
X197047737Y-96338709D01*
X197041525Y-96334196D01*
X196887259Y-96255592D01*
X196722584Y-96202085D01*
X196551571Y-96175000D01*
X196378429Y-96175000D01*
X196207415Y-96202085D01*
X196042740Y-96255592D01*
X195888480Y-96334193D01*
X195888463Y-96334203D01*
X195882261Y-96338708D01*
X186369106Y-96338708D01*
X186525499Y-96182315D01*
X186525500Y-96182314D01*
X186920995Y-95786819D01*
X186982318Y-95753334D01*
X187008676Y-95750500D01*
X187482711Y-95750500D01*
X187530162Y-95759938D01*
X187537513Y-95762983D01*
X187537515Y-95762984D01*
X187677525Y-95800500D01*
X187677528Y-95800500D01*
X187822472Y-95800500D01*
X187822475Y-95800500D01*
X187962485Y-95762984D01*
X187962488Y-95762981D01*
X187969838Y-95759938D01*
X188017289Y-95750500D01*
X189565890Y-95750500D01*
X189565892Y-95750500D01*
X189693186Y-95716392D01*
X189807314Y-95650500D01*
X191170995Y-94286819D01*
X191232318Y-94253334D01*
X191258676Y-94250500D01*
X191323919Y-94250500D01*
X191323920Y-94250499D01*
X191468913Y-94221659D01*
X191605495Y-94165084D01*
X191728416Y-94082952D01*
X191832952Y-93978416D01*
X191915084Y-93855495D01*
X191971659Y-93718913D01*
X192000500Y-93573918D01*
X192000500Y-93426083D01*
X191971659Y-93281088D01*
X191915084Y-93144506D01*
X191832952Y-93021584D01*
X191832947Y-93021579D01*
X191832947Y-93021578D01*
X190488894Y-91677525D01*
X191699500Y-91677525D01*
X191699500Y-91822475D01*
X191735465Y-91956696D01*
X191737017Y-91962488D01*
X191809488Y-92088011D01*
X191809490Y-92088013D01*
X191809491Y-92088015D01*
X191911985Y-92190509D01*
X191911986Y-92190510D01*
X191911988Y-92190511D01*
X192037511Y-92262982D01*
X192037512Y-92262982D01*
X192037515Y-92262984D01*
X192177525Y-92300500D01*
X192177528Y-92300500D01*
X192322472Y-92300500D01*
X192322475Y-92300500D01*
X192462485Y-92262984D01*
X192588015Y-92190509D01*
X192690509Y-92088015D01*
X192762984Y-91962485D01*
X192800500Y-91822475D01*
X192800500Y-91677525D01*
X192762984Y-91537515D01*
X192726298Y-91473974D01*
X192690511Y-91411988D01*
X192690506Y-91411982D01*
X192588017Y-91309493D01*
X192588011Y-91309488D01*
X192462488Y-91237017D01*
X192462489Y-91237017D01*
X192451006Y-91233940D01*
X192322475Y-91199500D01*
X192177525Y-91199500D01*
X192048993Y-91233940D01*
X192037511Y-91237017D01*
X191911988Y-91309488D01*
X191911982Y-91309493D01*
X191809493Y-91411982D01*
X191809488Y-91411988D01*
X191737017Y-91537511D01*
X191737016Y-91537515D01*
X191699500Y-91677525D01*
X190488894Y-91677525D01*
X189978420Y-91167051D01*
X189952742Y-91149894D01*
X189887974Y-91106618D01*
X189855495Y-91084916D01*
X189855493Y-91084915D01*
X189855490Y-91084913D01*
X189718917Y-91028343D01*
X189718907Y-91028340D01*
X189573920Y-90999500D01*
X189573918Y-90999500D01*
X178224500Y-90999500D01*
X178157461Y-90979815D01*
X178111706Y-90927011D01*
X178100500Y-90875500D01*
X178100500Y-87647275D01*
X178100500Y-87647273D01*
X178073207Y-87545413D01*
X178073207Y-87545412D01*
X178020480Y-87454087D01*
X176745913Y-86179520D01*
X176679890Y-86141401D01*
X176654589Y-86126793D01*
X176588227Y-86109012D01*
X176552727Y-86099500D01*
X176552726Y-86099500D01*
X175179386Y-86099500D01*
X175112347Y-86079815D01*
X175091705Y-86063181D01*
X175088017Y-86059493D01*
X175088011Y-86059488D01*
X174962488Y-85987017D01*
X174962489Y-85987017D01*
X174951006Y-85983940D01*
X174822475Y-85949500D01*
X174677525Y-85949500D01*
X174548993Y-85983940D01*
X174537511Y-85987017D01*
X174411988Y-86059488D01*
X174411982Y-86059493D01*
X174309493Y-86161982D01*
X174309488Y-86161988D01*
X174237017Y-86287511D01*
X174237016Y-86287515D01*
X174199500Y-86427525D01*
X172071155Y-86427525D01*
X172071155Y-84332603D01*
X172090840Y-84265564D01*
X172143644Y-84219809D01*
X172212802Y-84209865D01*
X172242608Y-84223477D01*
X172270753Y-84225692D01*
X172865000Y-83631445D01*
X172865000Y-83650686D01*
X172891237Y-83748604D01*
X172941923Y-83836395D01*
X173013605Y-83908077D01*
X173101396Y-83958763D01*
X173199314Y-83985000D01*
X173218553Y-83985000D01*
X172624305Y-84579245D01*
X172625579Y-84595427D01*
X172641492Y-84616063D01*
X172647473Y-84685676D01*
X172614868Y-84747472D01*
X172613623Y-84748734D01*
X172542770Y-84819586D01*
X172542767Y-84819590D01*
X172443128Y-84968709D01*
X172443121Y-84968722D01*
X172374490Y-85134415D01*
X172374487Y-85134424D01*
X172339500Y-85310319D01*
X172339500Y-85489680D01*
X172374487Y-85665575D01*
X172374490Y-85665584D01*
X172443121Y-85831277D01*
X172443128Y-85831290D01*
X172542767Y-85980409D01*
X172542770Y-85980413D01*
X172669586Y-86107229D01*
X172669590Y-86107232D01*
X172818709Y-86206871D01*
X172818722Y-86206878D01*
X172912953Y-86245909D01*
X172984417Y-86275510D01*
X172984419Y-86275510D01*
X172984424Y-86275512D01*
X173160319Y-86310499D01*
X173160323Y-86310500D01*
X173160324Y-86310500D01*
X173339677Y-86310500D01*
X173339677Y-86310499D01*
X173372676Y-86303936D01*
X173403621Y-86297781D01*
X173515575Y-86275512D01*
X173515578Y-86275510D01*
X173515583Y-86275510D01*
X173659891Y-86215736D01*
X173681277Y-86206878D01*
X173681277Y-86206877D01*
X173681284Y-86206875D01*
X173830410Y-86107232D01*
X173957232Y-85980410D01*
X174056875Y-85831284D01*
X174125510Y-85665583D01*
X174126840Y-85658901D01*
X174160499Y-85489680D01*
X174160500Y-85489677D01*
X174160500Y-85310323D01*
X174160499Y-85310319D01*
X174125512Y-85134424D01*
X174125509Y-85134415D01*
X174056878Y-84968722D01*
X174056871Y-84968709D01*
X173957232Y-84819590D01*
X173957229Y-84819586D01*
X173886375Y-84748732D01*
X173852890Y-84687409D01*
X173857874Y-84617717D01*
X173874403Y-84595636D01*
X173875693Y-84579245D01*
X173281448Y-83985000D01*
X173300686Y-83985000D01*
X173398604Y-83958763D01*
X173486395Y-83908077D01*
X173558077Y-83836395D01*
X173608763Y-83748604D01*
X173635000Y-83650686D01*
X173635000Y-83631447D01*
X174229246Y-84225693D01*
X174229246Y-84225692D01*
X174242117Y-84207979D01*
X174242119Y-84207975D01*
X174325012Y-84045287D01*
X174381436Y-83871635D01*
X174383521Y-83858471D01*
X174413450Y-83795336D01*
X174472761Y-83758404D01*
X174542623Y-83759400D01*
X174600857Y-83798009D01*
X174628468Y-83858469D01*
X174652085Y-84007584D01*
X174705591Y-84172257D01*
X174784195Y-84326524D01*
X174885967Y-84466602D01*
X175008397Y-84589032D01*
X175148475Y-84690804D01*
X175302742Y-84769408D01*
X175467415Y-84822914D01*
X175638429Y-84850000D01*
X175750000Y-84850000D01*
X175750000Y-84030330D01*
X175769745Y-84050075D01*
X175855255Y-84099444D01*
X175950630Y-84125000D01*
X176049370Y-84125000D01*
X176144745Y-84099444D01*
X176230255Y-84050075D01*
X176250000Y-84030330D01*
X176250000Y-84850000D01*
X176361571Y-84850000D01*
X176532584Y-84822914D01*
X176697257Y-84769408D01*
X176851524Y-84690804D01*
X176991602Y-84589032D01*
X177114032Y-84466602D01*
X177215804Y-84326524D01*
X177294408Y-84172255D01*
X177347914Y-84007584D01*
X177349115Y-84000000D01*
X176280330Y-84000000D01*
X176300075Y-83980255D01*
X176349444Y-83894745D01*
X176375000Y-83799370D01*
X176375000Y-83700630D01*
X176349444Y-83605255D01*
X176300075Y-83519745D01*
X176280330Y-83500000D01*
X177349115Y-83500000D01*
X177349115Y-83499999D01*
X177347914Y-83492415D01*
X177294408Y-83327744D01*
X177215804Y-83173475D01*
X177114032Y-83033397D01*
X176991602Y-82910967D01*
X176851524Y-82809195D01*
X176808834Y-82787443D01*
X176758039Y-82739468D01*
X176741245Y-82671646D01*
X176763784Y-82605512D01*
X176818499Y-82562061D01*
X176821741Y-82560798D01*
X176867331Y-82543795D01*
X176982546Y-82457545D01*
X177068796Y-82342330D01*
X177119091Y-82207482D01*
X177125500Y-82147872D01*
X177125499Y-81352127D01*
X177119091Y-81292516D01*
X177095980Y-81230553D01*
X177068797Y-81157670D01*
X177068793Y-81157663D01*
X176982547Y-81042454D01*
X176982544Y-81042451D01*
X176867335Y-80956205D01*
X176867328Y-80956201D01*
X176732482Y-80905907D01*
X176732483Y-80905907D01*
X176672883Y-80899500D01*
X176672881Y-80899499D01*
X176672873Y-80899499D01*
X176672864Y-80899499D01*
X175327129Y-80899499D01*
X175327123Y-80899500D01*
X175267516Y-80905907D01*
X175132671Y-80956201D01*
X175132664Y-80956205D01*
X175017455Y-81042451D01*
X175017452Y-81042454D01*
X174931206Y-81157663D01*
X174931202Y-81157670D01*
X174880908Y-81292516D01*
X174874501Y-81352115D01*
X174874501Y-81352122D01*
X174874500Y-81352134D01*
X174874500Y-82147869D01*
X174874501Y-82147875D01*
X174880908Y-82207482D01*
X174931202Y-82342327D01*
X174931206Y-82342334D01*
X175017452Y-82457543D01*
X175017455Y-82457546D01*
X175132664Y-82543792D01*
X175132673Y-82543797D01*
X175178200Y-82560777D01*
X175234134Y-82602647D01*
X175258552Y-82668111D01*
X175243701Y-82736384D01*
X175194297Y-82785790D01*
X175191166Y-82787442D01*
X175148478Y-82809193D01*
X175008397Y-82910967D01*
X174885967Y-83033397D01*
X174784195Y-83173475D01*
X174705591Y-83327742D01*
X174652085Y-83492415D01*
X174650951Y-83497144D01*
X174649708Y-83496845D01*
X174622290Y-83554671D01*
X174562975Y-83591598D01*
X174493113Y-83590594D01*
X174434883Y-83551979D01*
X174407280Y-83491529D01*
X174381437Y-83328369D01*
X174325012Y-83154712D01*
X174242119Y-82992025D01*
X174242113Y-82992016D01*
X174229246Y-82974306D01*
X174229245Y-82974305D01*
X173635000Y-83568551D01*
X173635000Y-83549314D01*
X173608763Y-83451396D01*
X173558077Y-83363605D01*
X173486395Y-83291923D01*
X173398604Y-83241237D01*
X173300686Y-83215000D01*
X173281447Y-83215000D01*
X173875692Y-82620753D01*
X173875692Y-82620752D01*
X173857975Y-82607880D01*
X173695287Y-82524987D01*
X173521630Y-82468562D01*
X173341299Y-82440000D01*
X173158701Y-82440000D01*
X172978369Y-82468562D01*
X172804712Y-82524987D01*
X172642022Y-82607881D01*
X172624306Y-82620751D01*
X172624306Y-82620754D01*
X173218554Y-83215000D01*
X173199314Y-83215000D01*
X173101396Y-83241237D01*
X173013605Y-83291923D01*
X172941923Y-83363605D01*
X172891237Y-83451396D01*
X172865000Y-83549314D01*
X172865000Y-83568552D01*
X172270754Y-82974306D01*
X172251723Y-82975804D01*
X172246666Y-82980187D01*
X172243042Y-82980707D01*
X172240143Y-82982944D01*
X172208724Y-82985642D01*
X172177508Y-82990131D01*
X172174176Y-82988609D01*
X172170529Y-82988923D01*
X172142638Y-82974206D01*
X172113952Y-82961106D01*
X172111972Y-82958025D01*
X172108734Y-82956317D01*
X172093225Y-82928854D01*
X172076178Y-82902328D01*
X172075471Y-82897416D01*
X172074377Y-82895478D01*
X172071155Y-82867393D01*
X172071155Y-82296600D01*
X172090840Y-82229561D01*
X172107474Y-82208919D01*
X172479574Y-81836819D01*
X172540897Y-81803334D01*
X172567255Y-81800500D01*
X172572472Y-81800500D01*
X172572475Y-81800500D01*
X172712485Y-81762984D01*
X172838015Y-81690509D01*
X172940509Y-81588015D01*
X173012984Y-81462485D01*
X173050500Y-81322475D01*
X173050500Y-81177525D01*
X173012984Y-81037515D01*
X173012982Y-81037511D01*
X173009937Y-81030159D01*
X173000500Y-80982710D01*
X173000500Y-73517288D01*
X173009941Y-73469831D01*
X173012982Y-73462488D01*
X173012981Y-73462488D01*
X173012984Y-73462485D01*
X173050500Y-73322475D01*
X173050500Y-73177525D01*
X173018096Y-73056593D01*
X173019759Y-72986744D01*
X173058921Y-72928881D01*
X173123150Y-72901377D01*
X173137871Y-72900500D01*
X176612129Y-72900500D01*
X176679168Y-72920185D01*
X176724923Y-72972989D01*
X176734867Y-73042147D01*
X176731904Y-73056589D01*
X176699500Y-73177525D01*
X176699500Y-73322475D01*
X176733537Y-73449500D01*
X176737017Y-73462488D01*
X176809488Y-73588011D01*
X176809490Y-73588013D01*
X176809491Y-73588015D01*
X176911985Y-73690509D01*
X177037515Y-73762984D01*
X177037519Y-73762985D01*
X177044860Y-73766026D01*
X177085094Y-73792908D01*
X178012679Y-74720493D01*
X178046164Y-74781816D01*
X178048998Y-74808174D01*
X178048998Y-77735602D01*
X178029313Y-77802641D01*
X177976509Y-77848396D01*
X177907351Y-77858340D01*
X177892909Y-77855377D01*
X177870973Y-77849500D01*
X177726023Y-77849500D01*
X177597491Y-77883940D01*
X177586009Y-77887017D01*
X177460486Y-77959488D01*
X177460480Y-77959493D01*
X177357991Y-78061982D01*
X177357986Y-78061988D01*
X177285515Y-78187511D01*
X177285514Y-78187515D01*
X177247998Y-78327525D01*
X177247998Y-78327527D01*
X177247998Y-78332745D01*
X177228313Y-78399784D01*
X177211679Y-78420426D01*
X176670227Y-78961878D01*
X176608904Y-78995363D01*
X176539212Y-78990379D01*
X176501266Y-78965991D01*
X176500924Y-78966438D01*
X176495581Y-78962338D01*
X176494865Y-78961878D01*
X176494480Y-78961493D01*
X176494474Y-78961488D01*
X176368951Y-78889017D01*
X176368952Y-78889017D01*
X176357469Y-78885940D01*
X176228938Y-78851500D01*
X176083988Y-78851500D01*
X175955456Y-78885940D01*
X175943974Y-78889017D01*
X175818451Y-78961488D01*
X175818445Y-78961493D01*
X175715956Y-79063982D01*
X175715951Y-79063988D01*
X175643480Y-79189511D01*
X175643479Y-79189515D01*
X175605963Y-79329525D01*
X175605963Y-79474475D01*
X175643479Y-79614485D01*
X175643480Y-79614488D01*
X175715951Y-79740011D01*
X175715953Y-79740013D01*
X175715954Y-79740015D01*
X175818448Y-79842509D01*
X175818449Y-79842510D01*
X175818451Y-79842511D01*
X175943974Y-79914982D01*
X175943975Y-79914982D01*
X175943978Y-79914984D01*
X176083988Y-79952500D01*
X176083991Y-79952500D01*
X176228935Y-79952500D01*
X176228938Y-79952500D01*
X176368948Y-79914984D01*
X176494478Y-79842509D01*
X176498168Y-79838819D01*
X176559491Y-79805334D01*
X176585849Y-79802500D01*
X176849223Y-79802500D01*
X176849225Y-79802500D01*
X176951086Y-79775207D01*
X177042411Y-79722480D01*
X177778072Y-78986819D01*
X177839395Y-78953334D01*
X177844908Y-78952265D01*
X177855258Y-78950500D01*
X177870973Y-78950500D01*
X177898480Y-78943129D01*
X177904153Y-78942162D01*
X177933351Y-78945584D01*
X177962751Y-78946284D01*
X177967660Y-78949606D01*
X177973548Y-78950297D01*
X177996261Y-78968963D01*
X178020615Y-78985445D01*
X178022949Y-78990894D01*
X178027528Y-78994658D01*
X178036544Y-79022640D01*
X178048121Y-79049672D01*
X178048771Y-79060585D01*
X178048956Y-79061160D01*
X178048832Y-79061623D01*
X178048998Y-79064397D01*
X178048998Y-80733606D01*
X178048998Y-80865390D01*
X178058138Y-80899500D01*
X178083106Y-80992685D01*
X178094708Y-81012779D01*
X178148998Y-81106812D01*
X178149000Y-81106814D01*
X178957089Y-81914903D01*
X178983965Y-81955121D01*
X178987015Y-81962482D01*
X178987016Y-81962485D01*
X179059491Y-82088015D01*
X179161985Y-82190509D01*
X179161986Y-82190510D01*
X179161988Y-82190511D01*
X179287511Y-82262982D01*
X179287512Y-82262982D01*
X179287515Y-82262984D01*
X179427525Y-82300500D01*
X179427528Y-82300500D01*
X179572472Y-82300500D01*
X179572475Y-82300500D01*
X179712485Y-82262984D01*
X179838015Y-82190509D01*
X179940509Y-82088015D01*
X180012984Y-81962485D01*
X180050500Y-81822475D01*
X180050500Y-81677525D01*
X180012984Y-81537515D01*
X179969665Y-81462485D01*
X179940511Y-81411988D01*
X179940506Y-81411982D01*
X179838017Y-81309493D01*
X179838015Y-81309491D01*
X179767272Y-81268647D01*
X179719057Y-81218081D01*
X179705834Y-81149474D01*
X179731803Y-81084609D01*
X179788717Y-81044081D01*
X179797166Y-81041490D01*
X179816556Y-81036295D01*
X179942086Y-80963820D01*
X180044580Y-80861326D01*
X180117055Y-80735796D01*
X180154571Y-80595786D01*
X180154571Y-80450836D01*
X180117055Y-80310826D01*
X180117054Y-80310824D01*
X180114008Y-80303470D01*
X180104571Y-80256021D01*
X180104571Y-74475315D01*
X180124256Y-74408276D01*
X180140890Y-74387634D01*
X180151513Y-74377011D01*
X180190509Y-74338015D01*
X180262984Y-74212485D01*
X180300500Y-74072475D01*
X180300500Y-73927525D01*
X180262984Y-73787515D01*
X180250577Y-73766026D01*
X180190511Y-73661988D01*
X180190506Y-73661982D01*
X180088017Y-73559493D01*
X180088011Y-73559488D01*
X179962488Y-73487017D01*
X179962489Y-73487017D01*
X179951006Y-73483940D01*
X179822475Y-73449500D01*
X179677525Y-73449500D01*
X179548993Y-73483940D01*
X179537511Y-73487017D01*
X179411988Y-73559488D01*
X179411982Y-73559493D01*
X179309493Y-73661982D01*
X179309489Y-73661988D01*
X179237016Y-73787515D01*
X179233969Y-73794871D01*
X179207096Y-73835090D01*
X179203571Y-73838614D01*
X179203568Y-73838619D01*
X179137680Y-73952739D01*
X179137680Y-73952740D01*
X179137679Y-73952742D01*
X179137679Y-73952743D01*
X179118029Y-74026080D01*
X179103571Y-74080037D01*
X179103571Y-74096395D01*
X179083886Y-74163434D01*
X179031082Y-74209189D01*
X178961924Y-74219133D01*
X178898368Y-74190108D01*
X178891890Y-74184076D01*
X177819995Y-73112181D01*
X177786510Y-73050858D01*
X177791494Y-72981166D01*
X177833366Y-72925233D01*
X177898830Y-72900816D01*
X177907676Y-72900500D01*
X178198543Y-72900500D01*
X178277905Y-72884713D01*
X178332337Y-72873886D01*
X178391836Y-72862051D01*
X178468728Y-72830201D01*
X178573914Y-72786632D01*
X178737782Y-72677139D01*
X178877139Y-72537782D01*
X178877139Y-72537780D01*
X178887347Y-72527573D01*
X178887348Y-72527570D01*
X180107138Y-71307783D01*
X180117425Y-71292386D01*
X180137583Y-71262220D01*
X180137583Y-71262219D01*
X180216631Y-71143915D01*
X180269960Y-71015166D01*
X180292050Y-70961837D01*
X180330499Y-70768541D01*
X180330499Y-70571461D01*
X180330499Y-69990235D01*
X180344015Y-69933939D01*
X180349872Y-69922445D01*
X180403401Y-69757701D01*
X180430499Y-69586611D01*
X180430499Y-69413389D01*
X180769500Y-69413389D01*
X180769500Y-69586610D01*
X180795457Y-69750502D01*
X180796598Y-69757701D01*
X180850127Y-69922445D01*
X180928768Y-70076788D01*
X181030586Y-70216928D01*
X181153072Y-70339414D01*
X181293212Y-70441232D01*
X181447555Y-70519873D01*
X181612299Y-70573402D01*
X181783389Y-70600500D01*
X181783390Y-70600500D01*
X181956610Y-70600500D01*
X181956611Y-70600500D01*
X182127701Y-70573402D01*
X182292445Y-70519873D01*
X182446788Y-70441232D01*
X182586928Y-70339414D01*
X182709414Y-70216928D01*
X182811232Y-70076788D01*
X182889873Y-69922445D01*
X182943402Y-69757701D01*
X182970500Y-69586611D01*
X182970500Y-69413389D01*
X183309500Y-69413389D01*
X183309500Y-69586610D01*
X183335457Y-69750502D01*
X183336598Y-69757701D01*
X183390127Y-69922445D01*
X183468768Y-70076788D01*
X183570586Y-70216928D01*
X183693072Y-70339414D01*
X183833212Y-70441232D01*
X183987555Y-70519873D01*
X184152299Y-70573402D01*
X184323389Y-70600500D01*
X184323390Y-70600500D01*
X184496610Y-70600500D01*
X184496611Y-70600500D01*
X184667701Y-70573402D01*
X184832445Y-70519873D01*
X184986788Y-70441232D01*
X185126928Y-70339414D01*
X185249414Y-70216928D01*
X185351232Y-70076788D01*
X185429873Y-69922445D01*
X185430896Y-69919294D01*
X185431610Y-69918250D01*
X185431734Y-69917952D01*
X185431796Y-69917977D01*
X185470327Y-69861618D01*
X185534683Y-69834415D01*
X185603530Y-69846323D01*
X185655011Y-69893562D01*
X185666760Y-69919287D01*
X185698904Y-70018217D01*
X185795379Y-70207557D01*
X185920272Y-70379459D01*
X185920276Y-70379464D01*
X186070535Y-70529723D01*
X186070540Y-70529727D01*
X186242442Y-70654620D01*
X186431782Y-70751095D01*
X186633871Y-70816757D01*
X186700000Y-70827231D01*
X186700000Y-69933012D01*
X186757007Y-69965925D01*
X186884174Y-70000000D01*
X187015826Y-70000000D01*
X187142993Y-69965925D01*
X187200000Y-69933012D01*
X187200000Y-70827230D01*
X187266126Y-70816757D01*
X187266129Y-70816757D01*
X187468217Y-70751095D01*
X187657557Y-70654620D01*
X187829459Y-70529727D01*
X187829464Y-70529723D01*
X187979723Y-70379464D01*
X187979727Y-70379459D01*
X188104620Y-70207557D01*
X188201095Y-70018217D01*
X188266757Y-69816129D01*
X188266757Y-69816126D01*
X188277231Y-69750000D01*
X187383012Y-69750000D01*
X187415925Y-69692993D01*
X187450000Y-69565826D01*
X187450000Y-69434174D01*
X187415925Y-69307007D01*
X187383012Y-69250000D01*
X188277231Y-69250000D01*
X188267580Y-69189071D01*
X190349499Y-69189071D01*
X190374497Y-69314738D01*
X190374499Y-69314744D01*
X190423533Y-69433124D01*
X190423538Y-69433133D01*
X190494723Y-69539668D01*
X190494726Y-69539672D01*
X190585327Y-69630273D01*
X190585331Y-69630276D01*
X190691866Y-69701461D01*
X190691872Y-69701464D01*
X190691873Y-69701465D01*
X190810256Y-69750501D01*
X190810260Y-69750501D01*
X190810261Y-69750502D01*
X190935928Y-69775500D01*
X190935931Y-69775500D01*
X191064071Y-69775500D01*
X191177211Y-69752994D01*
X191189744Y-69750501D01*
X191308127Y-69701465D01*
X191414669Y-69630276D01*
X191505276Y-69539669D01*
X191576465Y-69433127D01*
X191625501Y-69314744D01*
X191643362Y-69224952D01*
X191650500Y-69189071D01*
X191650500Y-69060928D01*
X191625502Y-68935261D01*
X191625501Y-68935260D01*
X191625501Y-68935256D01*
X191576465Y-68816873D01*
X191576464Y-68816872D01*
X191576461Y-68816866D01*
X191505276Y-68710331D01*
X191505273Y-68710327D01*
X191414672Y-68619726D01*
X191414668Y-68619723D01*
X191308133Y-68548538D01*
X191308124Y-68548533D01*
X191189744Y-68499499D01*
X191189738Y-68499497D01*
X191064071Y-68474500D01*
X191064069Y-68474500D01*
X190935931Y-68474500D01*
X190935929Y-68474500D01*
X190810261Y-68499497D01*
X190810255Y-68499499D01*
X190691875Y-68548533D01*
X190691866Y-68548538D01*
X190585331Y-68619723D01*
X190585327Y-68619726D01*
X190494726Y-68710327D01*
X190494723Y-68710331D01*
X190423538Y-68816866D01*
X190423533Y-68816875D01*
X190374499Y-68935255D01*
X190374497Y-68935261D01*
X190349500Y-69060928D01*
X190349500Y-69060931D01*
X190349500Y-69189069D01*
X190349500Y-69189071D01*
X190349499Y-69189071D01*
X188267580Y-69189071D01*
X188266757Y-69183873D01*
X188266757Y-69183870D01*
X188237283Y-69093157D01*
X188201095Y-68981782D01*
X188104620Y-68792442D01*
X187979727Y-68620540D01*
X187979723Y-68620535D01*
X187829464Y-68470276D01*
X187829459Y-68470272D01*
X187657557Y-68345379D01*
X187468215Y-68248903D01*
X187266124Y-68183241D01*
X187200000Y-68172768D01*
X187200000Y-69066988D01*
X187142993Y-69034075D01*
X187015826Y-69000000D01*
X186884174Y-69000000D01*
X186757007Y-69034075D01*
X186700000Y-69066988D01*
X186700000Y-68172768D01*
X186699999Y-68172768D01*
X186633875Y-68183241D01*
X186431784Y-68248903D01*
X186242442Y-68345379D01*
X186070540Y-68470272D01*
X186070535Y-68470276D01*
X185920276Y-68620535D01*
X185920272Y-68620540D01*
X185795379Y-68792442D01*
X185698904Y-68981783D01*
X185666760Y-69080712D01*
X185627322Y-69138388D01*
X185562964Y-69165586D01*
X185494117Y-69153671D01*
X185442642Y-69106427D01*
X185430898Y-69080712D01*
X185429873Y-69077555D01*
X185351232Y-68923212D01*
X185249414Y-68783072D01*
X185126928Y-68660586D01*
X184986788Y-68558768D01*
X184832445Y-68480127D01*
X184667701Y-68426598D01*
X184667699Y-68426597D01*
X184667698Y-68426597D01*
X184512174Y-68401965D01*
X184496611Y-68399500D01*
X184323389Y-68399500D01*
X184307826Y-68401965D01*
X184152302Y-68426597D01*
X183987552Y-68480128D01*
X183833211Y-68558768D01*
X183753256Y-68616859D01*
X183693072Y-68660586D01*
X183693070Y-68660588D01*
X183693069Y-68660588D01*
X183570588Y-68783069D01*
X183570588Y-68783070D01*
X183570586Y-68783072D01*
X183546033Y-68816866D01*
X183468768Y-68923211D01*
X183390128Y-69077552D01*
X183336597Y-69242302D01*
X183309500Y-69413389D01*
X182970500Y-69413389D01*
X182943402Y-69242299D01*
X182889873Y-69077555D01*
X182811232Y-68923212D01*
X182709414Y-68783072D01*
X182586928Y-68660586D01*
X182446788Y-68558768D01*
X182292445Y-68480127D01*
X182127701Y-68426598D01*
X182127699Y-68426597D01*
X182127698Y-68426597D01*
X181972174Y-68401965D01*
X181956611Y-68399500D01*
X181783389Y-68399500D01*
X181767826Y-68401965D01*
X181612302Y-68426597D01*
X181447552Y-68480128D01*
X181293211Y-68558768D01*
X181213256Y-68616859D01*
X181153072Y-68660586D01*
X181153070Y-68660588D01*
X181153069Y-68660588D01*
X181030588Y-68783069D01*
X181030588Y-68783070D01*
X181030586Y-68783072D01*
X181006033Y-68816866D01*
X180928768Y-68923211D01*
X180850128Y-69077552D01*
X180796597Y-69242302D01*
X180769500Y-69413389D01*
X180430499Y-69413389D01*
X180403401Y-69242299D01*
X180349872Y-69077555D01*
X180271231Y-68923212D01*
X180169413Y-68783072D01*
X180046927Y-68660586D01*
X179906787Y-68558768D01*
X179752444Y-68480127D01*
X179587700Y-68426598D01*
X179587698Y-68426597D01*
X179587697Y-68426597D01*
X179432173Y-68401965D01*
X179416610Y-68399500D01*
X179243388Y-68399500D01*
X179227825Y-68401965D01*
X179072301Y-68426597D01*
X178907551Y-68480128D01*
X178753210Y-68558768D01*
X178673255Y-68616859D01*
X178613071Y-68660586D01*
X178613069Y-68660588D01*
X178613068Y-68660588D01*
X178490587Y-68783069D01*
X178490587Y-68783070D01*
X178490585Y-68783072D01*
X178466032Y-68816866D01*
X178388767Y-68923211D01*
X178310127Y-69077552D01*
X178256596Y-69242302D01*
X178229499Y-69413389D01*
X178229499Y-69586610D01*
X178255456Y-69750502D01*
X178256597Y-69757701D01*
X178310126Y-69922445D01*
X178315982Y-69933939D01*
X178319104Y-69946941D01*
X178324476Y-69955300D01*
X178329499Y-69990235D01*
X178329499Y-70204218D01*
X178309814Y-70271257D01*
X178293180Y-70291899D01*
X177721899Y-70863181D01*
X177660576Y-70896666D01*
X177634218Y-70899500D01*
X175560947Y-70899500D01*
X175493908Y-70879815D01*
X175448153Y-70827011D01*
X175438209Y-70757853D01*
X175461681Y-70701189D01*
X175543350Y-70592093D01*
X175543354Y-70592086D01*
X175593596Y-70457379D01*
X175593598Y-70457372D01*
X175599999Y-70397844D01*
X175600000Y-70397827D01*
X175600000Y-70105050D01*
X175619685Y-70038011D01*
X175672489Y-69992256D01*
X175741647Y-69982312D01*
X175805203Y-70011337D01*
X175834485Y-70048756D01*
X175848766Y-70076786D01*
X175879357Y-70118890D01*
X175950586Y-70216928D01*
X176073072Y-70339414D01*
X176213212Y-70441232D01*
X176367555Y-70519873D01*
X176532299Y-70573402D01*
X176703389Y-70600500D01*
X176703390Y-70600500D01*
X176876610Y-70600500D01*
X176876611Y-70600500D01*
X177047701Y-70573402D01*
X177212445Y-70519873D01*
X177366788Y-70441232D01*
X177506928Y-70339414D01*
X177629414Y-70216928D01*
X177731232Y-70076788D01*
X177809873Y-69922445D01*
X177863402Y-69757701D01*
X177890500Y-69586611D01*
X177890500Y-69413389D01*
X177863402Y-69242299D01*
X177809873Y-69077555D01*
X177731232Y-68923212D01*
X177629414Y-68783072D01*
X177506928Y-68660586D01*
X177366788Y-68558768D01*
X177212445Y-68480127D01*
X177047701Y-68426598D01*
X177047699Y-68426597D01*
X177047698Y-68426597D01*
X176892174Y-68401965D01*
X176876611Y-68399500D01*
X176703389Y-68399500D01*
X176687826Y-68401965D01*
X176532302Y-68426597D01*
X176367552Y-68480128D01*
X176213211Y-68558768D01*
X176133256Y-68616859D01*
X176073072Y-68660586D01*
X176073070Y-68660588D01*
X176073069Y-68660588D01*
X175950588Y-68783069D01*
X175950588Y-68783070D01*
X175950586Y-68783072D01*
X175926033Y-68816866D01*
X175848768Y-68923211D01*
X175834485Y-68951244D01*
X175786510Y-69002040D01*
X175718689Y-69018835D01*
X175652554Y-68996297D01*
X175609103Y-68941582D01*
X175600000Y-68894949D01*
X175600000Y-68602172D01*
X175599999Y-68602155D01*
X175593598Y-68542627D01*
X175593596Y-68542620D01*
X175543354Y-68407913D01*
X175543350Y-68407906D01*
X175457190Y-68292812D01*
X175457187Y-68292809D01*
X175342093Y-68206649D01*
X175342086Y-68206645D01*
X175207379Y-68156403D01*
X175207372Y-68156401D01*
X175147844Y-68150000D01*
X174500000Y-68150000D01*
X174500000Y-69066988D01*
X174442993Y-69034075D01*
X174315826Y-69000000D01*
X174184174Y-69000000D01*
X174057007Y-69034075D01*
X174000000Y-69066988D01*
X174000000Y-68150000D01*
X173352155Y-68150000D01*
X173292627Y-68156401D01*
X173292620Y-68156403D01*
X173157913Y-68206645D01*
X173157906Y-68206649D01*
X173042812Y-68292809D01*
X173042809Y-68292812D01*
X172956649Y-68407906D01*
X172956645Y-68407913D01*
X172906403Y-68542620D01*
X172906401Y-68542627D01*
X172900000Y-68602155D01*
X172900000Y-69250000D01*
X173816988Y-69250000D01*
X173784075Y-69307007D01*
X173750000Y-69434174D01*
X173750000Y-69565826D01*
X173784075Y-69692993D01*
X173816988Y-69750000D01*
X172900000Y-69750000D01*
X172900000Y-70397844D01*
X172906401Y-70457372D01*
X172906403Y-70457379D01*
X172956645Y-70592086D01*
X172956649Y-70592093D01*
X173038319Y-70701189D01*
X173062737Y-70766653D01*
X173047886Y-70834926D01*
X172998481Y-70884332D01*
X172939053Y-70899500D01*
X163501455Y-70899500D01*
X163404812Y-70918724D01*
X163308167Y-70937947D01*
X163308161Y-70937949D01*
X163254834Y-70960037D01*
X163254834Y-70960038D01*
X163209315Y-70978892D01*
X163126089Y-71013366D01*
X163126079Y-71013371D01*
X162962218Y-71122860D01*
X162962214Y-71122863D01*
X160972898Y-73112181D01*
X160362220Y-73722859D01*
X160362218Y-73722861D01*
X160322096Y-73762983D01*
X160222859Y-73862219D01*
X160113371Y-74026080D01*
X160113366Y-74026089D01*
X160073591Y-74122114D01*
X160073581Y-74122141D01*
X160072604Y-74124500D01*
X160037949Y-74208164D01*
X160034921Y-74223387D01*
X160033045Y-74232815D01*
X160033045Y-74232817D01*
X159999500Y-74401456D01*
X159999500Y-82848544D01*
X160037085Y-83037498D01*
X160037947Y-83041826D01*
X160037950Y-83041839D01*
X160113364Y-83223907D01*
X160113371Y-83223920D01*
X160222859Y-83387780D01*
X160222860Y-83387781D01*
X160222861Y-83387782D01*
X160362218Y-83527139D01*
X160362219Y-83527139D01*
X160369286Y-83534206D01*
X160369285Y-83534206D01*
X160369289Y-83534209D01*
X161603590Y-84768510D01*
X161637075Y-84829833D01*
X161639909Y-84856191D01*
X161639909Y-89408728D01*
X161620224Y-89475767D01*
X161603590Y-89496409D01*
X159225177Y-91874821D01*
X159163854Y-91908306D01*
X159094162Y-91903322D01*
X159075497Y-91894528D01*
X159062487Y-91887017D01*
X159062486Y-91887016D01*
X159062485Y-91887016D01*
X158922475Y-91849500D01*
X158777525Y-91849500D01*
X158648993Y-91883940D01*
X158637511Y-91887017D01*
X158562000Y-91930614D01*
X158494100Y-91947087D01*
X158438000Y-91930614D01*
X158362488Y-91887017D01*
X158362489Y-91887017D01*
X158351006Y-91883940D01*
X158222475Y-91849500D01*
X158077525Y-91849500D01*
X157948993Y-91883940D01*
X157937511Y-91887017D01*
X157862000Y-91930614D01*
X157794100Y-91947087D01*
X157738000Y-91930614D01*
X157662488Y-91887017D01*
X157662489Y-91887017D01*
X157651006Y-91883940D01*
X157522475Y-91849500D01*
X157377525Y-91849500D01*
X157248993Y-91883940D01*
X157237511Y-91887017D01*
X157111988Y-91959488D01*
X157111982Y-91959493D01*
X157009493Y-92061982D01*
X157009488Y-92061988D01*
X156937017Y-92187511D01*
X156936214Y-92190509D01*
X156899500Y-92327525D01*
X156899500Y-92327527D01*
X156899500Y-92408505D01*
X156879815Y-92475544D01*
X156837500Y-92515892D01*
X156761988Y-92559489D01*
X156761982Y-92559493D01*
X156659493Y-92661982D01*
X156659488Y-92661988D01*
X156587017Y-92787511D01*
X156587016Y-92787515D01*
X156549500Y-92927525D01*
X151255500Y-92927525D01*
X151255500Y-90555811D01*
X151245787Y-90457193D01*
X151236348Y-90409740D01*
X151222562Y-90364294D01*
X151219613Y-90352522D01*
X151207381Y-90291028D01*
X151205000Y-90266847D01*
X151205000Y-90233150D01*
X151207381Y-90208969D01*
X151219608Y-90147497D01*
X151222559Y-90135720D01*
X151226757Y-90121877D01*
X151236349Y-90090256D01*
X151245787Y-90042809D01*
X151255500Y-89944189D01*
X151255500Y-86555811D01*
X151245787Y-86457193D01*
X151236348Y-86409740D01*
X151222562Y-86364294D01*
X151219613Y-86352522D01*
X151207381Y-86291028D01*
X151205000Y-86266847D01*
X151205000Y-86233150D01*
X151207381Y-86208969D01*
X151219608Y-86147497D01*
X151222559Y-86135720D01*
X151226757Y-86121877D01*
X151236349Y-86090256D01*
X151245787Y-86042809D01*
X151255500Y-85944189D01*
X151255500Y-83374000D01*
X151243947Y-83266544D01*
X151232741Y-83215033D01*
X151220257Y-83177525D01*
X158699500Y-83177525D01*
X158699500Y-83322475D01*
X158733651Y-83449925D01*
X158737017Y-83462488D01*
X158809488Y-83588011D01*
X158809490Y-83588013D01*
X158809491Y-83588015D01*
X158911985Y-83690509D01*
X158911986Y-83690510D01*
X158911988Y-83690511D01*
X159037511Y-83762982D01*
X159037512Y-83762982D01*
X159037515Y-83762984D01*
X159177525Y-83800500D01*
X159177528Y-83800500D01*
X159322472Y-83800500D01*
X159322475Y-83800500D01*
X159462485Y-83762984D01*
X159588015Y-83690509D01*
X159690509Y-83588015D01*
X159762984Y-83462485D01*
X159800500Y-83322475D01*
X159800500Y-83177525D01*
X159762984Y-83037515D01*
X159760606Y-83033397D01*
X159690511Y-82911988D01*
X159690506Y-82911982D01*
X159588017Y-82809493D01*
X159588011Y-82809488D01*
X159462488Y-82737017D01*
X159462489Y-82737017D01*
X159451006Y-82733940D01*
X159322475Y-82699500D01*
X159177525Y-82699500D01*
X159048993Y-82733940D01*
X159037511Y-82737017D01*
X158911988Y-82809488D01*
X158911982Y-82809493D01*
X158809493Y-82911982D01*
X158809488Y-82911988D01*
X158737017Y-83037511D01*
X158737016Y-83037515D01*
X158699500Y-83177525D01*
X151220257Y-83177525D01*
X151198613Y-83112496D01*
X151120825Y-82991457D01*
X151119676Y-82990131D01*
X151075076Y-82938659D01*
X151075072Y-82938656D01*
X151075070Y-82938653D01*
X150966336Y-82844433D01*
X150966333Y-82844431D01*
X150966331Y-82844430D01*
X150835465Y-82784664D01*
X150835460Y-82784662D01*
X150835459Y-82784662D01*
X150768420Y-82764977D01*
X150768422Y-82764977D01*
X150768417Y-82764976D01*
X150720944Y-82758150D01*
X150626000Y-82744500D01*
X147301362Y-82744500D01*
X147301360Y-82744500D01*
X147247311Y-82747397D01*
X147247310Y-82747397D01*
X147220977Y-82750229D01*
X147220950Y-82750232D01*
X147167554Y-82758885D01*
X147167552Y-82758885D01*
X147032747Y-82809166D01*
X147032744Y-82809167D01*
X147032743Y-82809168D01*
X147032148Y-82809493D01*
X146971422Y-82842651D01*
X146856240Y-82928876D01*
X146856228Y-82928886D01*
X145428892Y-84356223D01*
X145428855Y-84356262D01*
X145392728Y-84396480D01*
X145392718Y-84396492D01*
X145376076Y-84417143D01*
X145344433Y-84461025D01*
X145284663Y-84591899D01*
X145264976Y-84658944D01*
X145244500Y-84801363D01*
X141250000Y-84801363D01*
X141250000Y-83677525D01*
X142949500Y-83677525D01*
X142949500Y-83822475D01*
X142984623Y-83953553D01*
X142987017Y-83962488D01*
X143059488Y-84088011D01*
X143059490Y-84088013D01*
X143059491Y-84088015D01*
X143161985Y-84190509D01*
X143161986Y-84190510D01*
X143161988Y-84190511D01*
X143287511Y-84262982D01*
X143287512Y-84262982D01*
X143287515Y-84262984D01*
X143427525Y-84300500D01*
X143427528Y-84300500D01*
X143572472Y-84300500D01*
X143572475Y-84300500D01*
X143712485Y-84262984D01*
X143838015Y-84190509D01*
X143940509Y-84088015D01*
X144012984Y-83962485D01*
X144050500Y-83822475D01*
X144050500Y-83677525D01*
X144012984Y-83537515D01*
X144011075Y-83534209D01*
X143940511Y-83411988D01*
X143940506Y-83411982D01*
X143838017Y-83309493D01*
X143838011Y-83309488D01*
X143712488Y-83237017D01*
X143712489Y-83237017D01*
X143701006Y-83233940D01*
X143572475Y-83199500D01*
X143427525Y-83199500D01*
X143298993Y-83233940D01*
X143287511Y-83237017D01*
X143161988Y-83309488D01*
X143161982Y-83309493D01*
X143059493Y-83411982D01*
X143059488Y-83411988D01*
X142987017Y-83537511D01*
X142987016Y-83537515D01*
X142949500Y-83677525D01*
X141250000Y-83677525D01*
X141250000Y-82102525D01*
X142949500Y-82102525D01*
X142949500Y-82247475D01*
X142973108Y-82335579D01*
X142987017Y-82387488D01*
X143059488Y-82513011D01*
X143059490Y-82513013D01*
X143059491Y-82513015D01*
X143161985Y-82615509D01*
X143161986Y-82615510D01*
X143161988Y-82615511D01*
X143287511Y-82687982D01*
X143287512Y-82687982D01*
X143287515Y-82687984D01*
X143427525Y-82725500D01*
X143427528Y-82725500D01*
X143572472Y-82725500D01*
X143572475Y-82725500D01*
X143712485Y-82687984D01*
X143838015Y-82615509D01*
X143940509Y-82513015D01*
X144012984Y-82387485D01*
X144050500Y-82247475D01*
X144050500Y-82177525D01*
X151449500Y-82177525D01*
X151449500Y-82322475D01*
X151485693Y-82457546D01*
X151487017Y-82462488D01*
X151559488Y-82588011D01*
X151559490Y-82588013D01*
X151559491Y-82588015D01*
X151661985Y-82690509D01*
X151661986Y-82690510D01*
X151661988Y-82690511D01*
X151787511Y-82762982D01*
X151787512Y-82762982D01*
X151787515Y-82762984D01*
X151927525Y-82800500D01*
X151927528Y-82800500D01*
X152072472Y-82800500D01*
X152072475Y-82800500D01*
X152212485Y-82762984D01*
X152338015Y-82690509D01*
X152440509Y-82588015D01*
X152512984Y-82462485D01*
X152550500Y-82322475D01*
X152550500Y-82177525D01*
X152512984Y-82037515D01*
X152506691Y-82026616D01*
X152440511Y-81911988D01*
X152440506Y-81911982D01*
X152338017Y-81809493D01*
X152338011Y-81809488D01*
X152212488Y-81737017D01*
X152212489Y-81737017D01*
X152201006Y-81733940D01*
X152072475Y-81699500D01*
X151927525Y-81699500D01*
X151798993Y-81733940D01*
X151787511Y-81737017D01*
X151661988Y-81809488D01*
X151661982Y-81809493D01*
X151559493Y-81911982D01*
X151559488Y-81911988D01*
X151487017Y-82037511D01*
X151487016Y-82037515D01*
X151449500Y-82177525D01*
X144050500Y-82177525D01*
X144050500Y-82102525D01*
X144012984Y-81962515D01*
X144012968Y-81962488D01*
X143940511Y-81836988D01*
X143940506Y-81836982D01*
X143838017Y-81734493D01*
X143838011Y-81734488D01*
X143712488Y-81662017D01*
X143712489Y-81662017D01*
X143701006Y-81658940D01*
X143572475Y-81624500D01*
X143427525Y-81624500D01*
X143298993Y-81658940D01*
X143287511Y-81662017D01*
X143161988Y-81734488D01*
X143161982Y-81734493D01*
X143059493Y-81836982D01*
X143059488Y-81836988D01*
X142987017Y-81962511D01*
X142987016Y-81962515D01*
X142949500Y-82102525D01*
X141250000Y-82102525D01*
X141250000Y-80152525D01*
X142949500Y-80152525D01*
X142949500Y-80297475D01*
X142987016Y-80437485D01*
X142987017Y-80437488D01*
X143059488Y-80563011D01*
X143059490Y-80563013D01*
X143059491Y-80563015D01*
X143161985Y-80665509D01*
X143161986Y-80665510D01*
X143161988Y-80665511D01*
X143287511Y-80737982D01*
X143287512Y-80737982D01*
X143287515Y-80737984D01*
X143427525Y-80775500D01*
X143427528Y-80775500D01*
X143572472Y-80775500D01*
X143572475Y-80775500D01*
X143712485Y-80737984D01*
X143838015Y-80665509D01*
X143940509Y-80563015D01*
X144012984Y-80437485D01*
X144050500Y-80297475D01*
X144050500Y-80152525D01*
X144012984Y-80012515D01*
X144000749Y-79991324D01*
X143940511Y-79886988D01*
X143940506Y-79886982D01*
X143838017Y-79784493D01*
X143838011Y-79784488D01*
X143712488Y-79712017D01*
X143712489Y-79712017D01*
X143701006Y-79708940D01*
X143572475Y-79674500D01*
X143427525Y-79674500D01*
X143298993Y-79708940D01*
X143287511Y-79712017D01*
X143161988Y-79784488D01*
X143161982Y-79784493D01*
X143059493Y-79886982D01*
X143059488Y-79886988D01*
X142987017Y-80012511D01*
X142987016Y-80012515D01*
X142949500Y-80152525D01*
X141250000Y-80152525D01*
X141250000Y-78352525D01*
X142949500Y-78352525D01*
X142949500Y-78497475D01*
X142987016Y-78637485D01*
X142987017Y-78637488D01*
X143059488Y-78763011D01*
X143059490Y-78763013D01*
X143059491Y-78763015D01*
X143161985Y-78865509D01*
X143161986Y-78865510D01*
X143161988Y-78865511D01*
X143287511Y-78937982D01*
X143287512Y-78937982D01*
X143287515Y-78937984D01*
X143427525Y-78975500D01*
X143427528Y-78975500D01*
X143572472Y-78975500D01*
X143572475Y-78975500D01*
X143712485Y-78937984D01*
X143838015Y-78865509D01*
X143940509Y-78763015D01*
X144012984Y-78637485D01*
X144050500Y-78497475D01*
X144050500Y-78352525D01*
X144012984Y-78212515D01*
X143998550Y-78187515D01*
X143940511Y-78086988D01*
X143940506Y-78086982D01*
X143838017Y-77984493D01*
X143838011Y-77984488D01*
X143712488Y-77912017D01*
X143712489Y-77912017D01*
X143701006Y-77908940D01*
X143572475Y-77874500D01*
X143427525Y-77874500D01*
X143298993Y-77908940D01*
X143287511Y-77912017D01*
X143161988Y-77984488D01*
X143161982Y-77984493D01*
X143059493Y-78086982D01*
X143059488Y-78086988D01*
X142987017Y-78212511D01*
X142987016Y-78212515D01*
X142949500Y-78352525D01*
X141250000Y-78352525D01*
X141250000Y-76377525D01*
X142968809Y-76377525D01*
X142968809Y-76522475D01*
X143006325Y-76662485D01*
X143006326Y-76662488D01*
X143078797Y-76788011D01*
X143078799Y-76788013D01*
X143078800Y-76788015D01*
X143181294Y-76890509D01*
X143181295Y-76890510D01*
X143181297Y-76890511D01*
X143306820Y-76962982D01*
X143306821Y-76962982D01*
X143306824Y-76962984D01*
X143446834Y-77000500D01*
X143446837Y-77000500D01*
X143591781Y-77000500D01*
X143591784Y-77000500D01*
X143731794Y-76962984D01*
X143857324Y-76890509D01*
X143959818Y-76788015D01*
X144032293Y-76662485D01*
X144069809Y-76522475D01*
X144069809Y-76377525D01*
X144032293Y-76237515D01*
X143959818Y-76111985D01*
X143857324Y-76009491D01*
X143857322Y-76009490D01*
X143857320Y-76009488D01*
X143731797Y-75937017D01*
X143731798Y-75937017D01*
X143720315Y-75933940D01*
X143591784Y-75899500D01*
X143446834Y-75899500D01*
X143318302Y-75933940D01*
X143306820Y-75937017D01*
X143181297Y-76009488D01*
X143181291Y-76009493D01*
X143078802Y-76111982D01*
X143078797Y-76111988D01*
X143006326Y-76237511D01*
X143006325Y-76237515D01*
X142968809Y-76377525D01*
X141250000Y-76377525D01*
X141250000Y-74602525D01*
X142950406Y-74602525D01*
X142950406Y-74747475D01*
X142987922Y-74887485D01*
X142987923Y-74887488D01*
X143060394Y-75013011D01*
X143060396Y-75013013D01*
X143060397Y-75013015D01*
X143162891Y-75115509D01*
X143162892Y-75115510D01*
X143162894Y-75115511D01*
X143288417Y-75187982D01*
X143288418Y-75187982D01*
X143288421Y-75187984D01*
X143428431Y-75225500D01*
X143428434Y-75225500D01*
X143573378Y-75225500D01*
X143573381Y-75225500D01*
X143713391Y-75187984D01*
X143838921Y-75115509D01*
X143941415Y-75013015D01*
X144013890Y-74887485D01*
X144051406Y-74747475D01*
X144051406Y-74602525D01*
X144013890Y-74462515D01*
X143993688Y-74427525D01*
X143941417Y-74336988D01*
X143941412Y-74336982D01*
X143838923Y-74234493D01*
X143838917Y-74234488D01*
X143713394Y-74162017D01*
X143713395Y-74162017D01*
X143701912Y-74158940D01*
X143573381Y-74124500D01*
X143428431Y-74124500D01*
X143299899Y-74158940D01*
X143288417Y-74162017D01*
X143162894Y-74234488D01*
X143162888Y-74234493D01*
X143060399Y-74336982D01*
X143060394Y-74336988D01*
X142987923Y-74462511D01*
X142987922Y-74462515D01*
X142950406Y-74602525D01*
X141250000Y-74602525D01*
X141250000Y-72627525D01*
X142949500Y-72627525D01*
X142949500Y-72772475D01*
X142984040Y-72901377D01*
X142987017Y-72912488D01*
X143059488Y-73038011D01*
X143059490Y-73038013D01*
X143059491Y-73038015D01*
X143161985Y-73140509D01*
X143161986Y-73140510D01*
X143161988Y-73140511D01*
X143287511Y-73212982D01*
X143287512Y-73212982D01*
X143287515Y-73212984D01*
X143427525Y-73250500D01*
X143427528Y-73250500D01*
X143572472Y-73250500D01*
X143572475Y-73250500D01*
X143712485Y-73212984D01*
X143838015Y-73140509D01*
X143940509Y-73038015D01*
X144012984Y-72912485D01*
X144050500Y-72772475D01*
X144050500Y-72627525D01*
X144012984Y-72487515D01*
X143940509Y-72361985D01*
X143838015Y-72259491D01*
X143838013Y-72259490D01*
X143838011Y-72259488D01*
X143712488Y-72187017D01*
X143712489Y-72187017D01*
X143701006Y-72183940D01*
X143572475Y-72149500D01*
X143427525Y-72149500D01*
X143298993Y-72183940D01*
X143287511Y-72187017D01*
X143161988Y-72259488D01*
X143161982Y-72259493D01*
X143059493Y-72361982D01*
X143059488Y-72361988D01*
X142987017Y-72487511D01*
X142987016Y-72487515D01*
X142949500Y-72627525D01*
X141250000Y-72627525D01*
X141250000Y-66124500D01*
X141269685Y-66057461D01*
X141322489Y-66011706D01*
X141374000Y-66000500D01*
X195876000Y-66000500D01*
X195943039Y-66020185D01*
G37*
%TD.AperFunction*%
%TD*%
%TA.AperFunction,Conductor*%
%TO.N,+5V*%
G36*
X166326075Y-93770211D02*
G01*
X166455270Y-93829212D01*
X166538336Y-93896152D01*
X166642681Y-94000497D01*
X166642683Y-94000498D01*
X166642686Y-94000501D01*
X166756814Y-94066393D01*
X166884108Y-94100501D01*
X166884109Y-94100501D01*
X167015891Y-94100501D01*
X167015892Y-94100501D01*
X167143186Y-94066393D01*
X167143189Y-94066391D01*
X167170848Y-94058980D01*
X167311874Y-94042117D01*
X167429153Y-94058979D01*
X167456810Y-94066389D01*
X167456814Y-94066392D01*
X167584108Y-94100500D01*
X167584110Y-94100500D01*
X167715891Y-94100500D01*
X167715892Y-94100500D01*
X167843186Y-94066392D01*
X167957314Y-94000500D01*
X168050500Y-93907314D01*
X168050501Y-93907311D01*
X168061660Y-93896153D01*
X168175361Y-93811037D01*
X168308436Y-93761402D01*
X168414501Y-93749998D01*
X169501006Y-93749998D01*
X169641585Y-93770211D01*
X169770780Y-93829212D01*
X169878119Y-93922222D01*
X169954906Y-94041706D01*
X169994921Y-94177983D01*
X170000000Y-94248998D01*
X170000000Y-94750999D01*
X169979787Y-94891584D01*
X169920786Y-95020779D01*
X169827776Y-95128118D01*
X169708292Y-95204905D01*
X169572015Y-95244920D01*
X169501000Y-95249999D01*
X164999000Y-95249999D01*
X164858415Y-95229786D01*
X164729220Y-95170785D01*
X164621881Y-95077775D01*
X164545094Y-94958291D01*
X164505079Y-94822014D01*
X164500000Y-94750999D01*
X164500000Y-94248998D01*
X164520213Y-94108413D01*
X164579214Y-93979218D01*
X164672224Y-93871879D01*
X164791708Y-93795092D01*
X164927985Y-93755077D01*
X164998998Y-93749998D01*
X166185492Y-93749998D01*
X166326075Y-93770211D01*
G37*
%TD.AperFunction*%
%TD*%
%TA.AperFunction,Conductor*%
%TO.N,GND*%
G36*
X150693039Y-83269685D02*
G01*
X150738794Y-83322489D01*
X150750000Y-83374000D01*
X150750000Y-85944189D01*
X150740562Y-85991636D01*
X150730263Y-86016503D01*
X150730262Y-86016507D01*
X150730261Y-86016510D01*
X150730260Y-86016511D01*
X150699500Y-86171153D01*
X150699500Y-86328846D01*
X150730261Y-86483489D01*
X150730263Y-86483497D01*
X150740561Y-86508358D01*
X150750000Y-86555811D01*
X150750000Y-89944189D01*
X150740562Y-89991636D01*
X150730263Y-90016503D01*
X150730262Y-90016507D01*
X150730261Y-90016510D01*
X150730260Y-90016511D01*
X150699500Y-90171153D01*
X150699500Y-90328846D01*
X150730261Y-90483489D01*
X150730263Y-90483497D01*
X150740561Y-90508358D01*
X150750000Y-90555811D01*
X150750000Y-97626000D01*
X150730315Y-97693039D01*
X150677511Y-97738794D01*
X150626000Y-97750000D01*
X147801362Y-97750000D01*
X147734323Y-97730315D01*
X147713681Y-97713681D01*
X146536319Y-96536319D01*
X146502834Y-96474996D01*
X146500000Y-96448638D01*
X146500000Y-95433440D01*
X146519685Y-95366401D01*
X146536314Y-95345763D01*
X146621789Y-95260289D01*
X146709394Y-95129179D01*
X146769737Y-94983497D01*
X146800500Y-94828842D01*
X146800500Y-94671158D01*
X146800500Y-94671155D01*
X146800499Y-94671153D01*
X146769738Y-94516510D01*
X146769737Y-94516503D01*
X146769735Y-94516498D01*
X146709397Y-94370827D01*
X146709390Y-94370814D01*
X146621789Y-94239711D01*
X146621786Y-94239707D01*
X146594760Y-94212681D01*
X146561275Y-94151358D01*
X146566259Y-94081666D01*
X146594760Y-94037319D01*
X146621786Y-94010292D01*
X146621789Y-94010289D01*
X146709394Y-93879179D01*
X146769737Y-93733497D01*
X146800500Y-93578842D01*
X146800500Y-93421158D01*
X146800500Y-93421155D01*
X146800499Y-93421153D01*
X146769738Y-93266510D01*
X146769737Y-93266503D01*
X146769735Y-93266498D01*
X146709397Y-93120827D01*
X146709390Y-93120814D01*
X146621789Y-92989711D01*
X146621786Y-92989707D01*
X146536319Y-92904240D01*
X146502834Y-92842917D01*
X146500000Y-92816559D01*
X146500000Y-91683440D01*
X146519685Y-91616401D01*
X146536314Y-91595763D01*
X146621789Y-91510289D01*
X146709394Y-91379179D01*
X146769737Y-91233497D01*
X146800500Y-91078842D01*
X146800500Y-90921158D01*
X146800500Y-90921155D01*
X146800499Y-90921153D01*
X146769738Y-90766510D01*
X146769737Y-90766503D01*
X146709394Y-90620821D01*
X146674694Y-90568889D01*
X146653816Y-90502215D01*
X146672300Y-90434835D01*
X146674676Y-90431136D01*
X146709394Y-90379179D01*
X146769737Y-90233497D01*
X146800500Y-90078842D01*
X146800500Y-89921158D01*
X146800500Y-89921155D01*
X146800499Y-89921153D01*
X146769738Y-89766510D01*
X146769737Y-89766503D01*
X146769735Y-89766498D01*
X146709397Y-89620827D01*
X146709390Y-89620814D01*
X146621789Y-89489711D01*
X146621786Y-89489707D01*
X146536319Y-89404240D01*
X146502834Y-89342917D01*
X146500000Y-89316559D01*
X146500000Y-86625143D01*
X146502383Y-86600950D01*
X146510394Y-86560679D01*
X146510394Y-86402991D01*
X146510393Y-86402989D01*
X146479632Y-86248346D01*
X146479631Y-86248339D01*
X146447660Y-86171153D01*
X146419291Y-86102663D01*
X146419284Y-86102650D01*
X146331683Y-85971547D01*
X146331680Y-85971543D01*
X146220186Y-85860049D01*
X146220182Y-85860046D01*
X146089079Y-85772445D01*
X146089066Y-85772438D01*
X145943395Y-85712100D01*
X145943385Y-85712097D01*
X145849808Y-85693483D01*
X145787897Y-85661098D01*
X145753323Y-85600382D01*
X145750000Y-85571866D01*
X145750000Y-84801362D01*
X145769685Y-84734323D01*
X145786319Y-84713681D01*
X147213681Y-83286319D01*
X147275004Y-83252834D01*
X147301362Y-83250000D01*
X150626000Y-83250000D01*
X150693039Y-83269685D01*
G37*
%TD.AperFunction*%
%TD*%
M02*
