%TF.GenerationSoftware,KiCad,Pcbnew,9.0.2*%
%TF.CreationDate,2025-12-06T18:07:06+09:00*%
%TF.ProjectId,ECG,4543472e-6b69-4636-9164-5f7063625858,rev?*%
%TF.SameCoordinates,Original*%
%TF.FileFunction,Legend,Bot*%
%TF.FilePolarity,Positive*%
%FSLAX46Y46*%
G04 Gerber Fmt 4.6, Leading zero omitted, Abs format (unit mm)*
G04 Created by KiCad (PCBNEW 9.0.2) date 2025-12-06 18:07:06*
%MOMM*%
%LPD*%
G01*
G04 APERTURE LIST*
G04 Aperture macros list*
%AMRoundRect*
0 Rectangle with rounded corners*
0 $1 Rounding radius*
0 $2 $3 $4 $5 $6 $7 $8 $9 X,Y pos of 4 corners*
0 Add a 4 corners polygon primitive as box body*
4,1,4,$2,$3,$4,$5,$6,$7,$8,$9,$2,$3,0*
0 Add four circle primitives for the rounded corners*
1,1,$1+$1,$2,$3*
1,1,$1+$1,$4,$5*
1,1,$1+$1,$6,$7*
1,1,$1+$1,$8,$9*
0 Add four rect primitives between the rounded corners*
20,1,$1+$1,$2,$3,$4,$5,0*
20,1,$1+$1,$4,$5,$6,$7,0*
20,1,$1+$1,$6,$7,$8,$9,0*
20,1,$1+$1,$8,$9,$2,$3,0*%
G04 Aperture macros list end*
%ADD10C,0.100000*%
%ADD11C,0.160000*%
%ADD12C,0.120000*%
%ADD13C,0.200000*%
%ADD14C,3.550000*%
%ADD15RoundRect,0.262500X-0.612500X-0.612500X0.612500X-0.612500X0.612500X0.612500X-0.612500X0.612500X0*%
%ADD16C,0.650000*%
%ADD17O,1.000000X2.100000*%
%ADD18O,1.000000X1.600000*%
%ADD19R,1.700000X1.700000*%
%ADD20O,1.700000X1.700000*%
%ADD21C,1.320000*%
%ADD22C,1.200000*%
%ADD23RoundRect,0.250000X-0.625000X0.350000X-0.625000X-0.350000X0.625000X-0.350000X0.625000X0.350000X0*%
%ADD24O,1.750000X1.200000*%
G04 APERTURE END LIST*
D10*
X172250000Y-107750000D02*
G75*
G02*
X181005219Y-98050881I9750000J0D01*
G01*
X172250000Y-120500000D02*
X172250000Y-107750000D01*
X192750000Y-98500000D02*
X200000000Y-98500000D01*
X136250000Y-65500000D02*
X172250000Y-65500000D01*
X172250000Y-120500000D01*
X136250000Y-120500000D01*
X136250000Y-65500000D01*
X180250000Y-107750000D02*
X180250000Y-120500000D01*
X192750000Y-106500000D02*
X192250000Y-106000000D01*
X181500000Y-98500000D02*
X181005219Y-98050881D01*
X200000000Y-106500000D02*
X192750000Y-106500000D01*
X192250000Y-99000000D02*
X192750000Y-98500000D01*
X180250001Y-107750000D02*
G75*
G02*
X181446602Y-106089805I1749999J0D01*
G01*
D11*
X181416665Y-72045700D02*
X181416665Y-71331415D01*
X181416665Y-71331415D02*
X181369046Y-71188558D01*
X181369046Y-71188558D02*
X181273808Y-71093320D01*
X181273808Y-71093320D02*
X181130951Y-71045700D01*
X181130951Y-71045700D02*
X181035713Y-71045700D01*
X182416665Y-71045700D02*
X181845237Y-71045700D01*
X182130951Y-71045700D02*
X182130951Y-72045700D01*
X182130951Y-72045700D02*
X182035713Y-71902843D01*
X182035713Y-71902843D02*
X181940475Y-71807605D01*
X181940475Y-71807605D02*
X181845237Y-71759986D01*
X178204299Y-86785714D02*
X177204299Y-86785714D01*
X177204299Y-86785714D02*
X177204299Y-87166666D01*
X177204299Y-87166666D02*
X177251918Y-87261904D01*
X177251918Y-87261904D02*
X177299537Y-87309523D01*
X177299537Y-87309523D02*
X177394775Y-87357142D01*
X177394775Y-87357142D02*
X177537632Y-87357142D01*
X177537632Y-87357142D02*
X177632870Y-87309523D01*
X177632870Y-87309523D02*
X177680489Y-87261904D01*
X177680489Y-87261904D02*
X177728108Y-87166666D01*
X177728108Y-87166666D02*
X177728108Y-86785714D01*
X178156680Y-87738095D02*
X178204299Y-87880952D01*
X178204299Y-87880952D02*
X178204299Y-88119047D01*
X178204299Y-88119047D02*
X178156680Y-88214285D01*
X178156680Y-88214285D02*
X178109060Y-88261904D01*
X178109060Y-88261904D02*
X178013822Y-88309523D01*
X178013822Y-88309523D02*
X177918584Y-88309523D01*
X177918584Y-88309523D02*
X177823346Y-88261904D01*
X177823346Y-88261904D02*
X177775727Y-88214285D01*
X177775727Y-88214285D02*
X177728108Y-88119047D01*
X177728108Y-88119047D02*
X177680489Y-87928571D01*
X177680489Y-87928571D02*
X177632870Y-87833333D01*
X177632870Y-87833333D02*
X177585251Y-87785714D01*
X177585251Y-87785714D02*
X177490013Y-87738095D01*
X177490013Y-87738095D02*
X177394775Y-87738095D01*
X177394775Y-87738095D02*
X177299537Y-87785714D01*
X177299537Y-87785714D02*
X177251918Y-87833333D01*
X177251918Y-87833333D02*
X177204299Y-87928571D01*
X177204299Y-87928571D02*
X177204299Y-88166666D01*
X177204299Y-88166666D02*
X177251918Y-88309523D01*
X177299537Y-88690476D02*
X177251918Y-88738095D01*
X177251918Y-88738095D02*
X177204299Y-88833333D01*
X177204299Y-88833333D02*
X177204299Y-89071428D01*
X177204299Y-89071428D02*
X177251918Y-89166666D01*
X177251918Y-89166666D02*
X177299537Y-89214285D01*
X177299537Y-89214285D02*
X177394775Y-89261904D01*
X177394775Y-89261904D02*
X177490013Y-89261904D01*
X177490013Y-89261904D02*
X177632870Y-89214285D01*
X177632870Y-89214285D02*
X178204299Y-88642857D01*
X178204299Y-88642857D02*
X178204299Y-89261904D01*
X173680489Y-79964285D02*
X173728108Y-80107142D01*
X173728108Y-80107142D02*
X173775727Y-80154761D01*
X173775727Y-80154761D02*
X173870965Y-80202380D01*
X173870965Y-80202380D02*
X174013822Y-80202380D01*
X174013822Y-80202380D02*
X174109060Y-80154761D01*
X174109060Y-80154761D02*
X174156680Y-80107142D01*
X174156680Y-80107142D02*
X174204299Y-80011904D01*
X174204299Y-80011904D02*
X174204299Y-79630952D01*
X174204299Y-79630952D02*
X173204299Y-79630952D01*
X173204299Y-79630952D02*
X173204299Y-79964285D01*
X173204299Y-79964285D02*
X173251918Y-80059523D01*
X173251918Y-80059523D02*
X173299537Y-80107142D01*
X173299537Y-80107142D02*
X173394775Y-80154761D01*
X173394775Y-80154761D02*
X173490013Y-80154761D01*
X173490013Y-80154761D02*
X173585251Y-80107142D01*
X173585251Y-80107142D02*
X173632870Y-80059523D01*
X173632870Y-80059523D02*
X173680489Y-79964285D01*
X173680489Y-79964285D02*
X173680489Y-79630952D01*
X173204299Y-80488095D02*
X173204299Y-81059523D01*
X174204299Y-80773809D02*
X173204299Y-80773809D01*
X174204299Y-81916666D02*
X174204299Y-81345238D01*
X174204299Y-81630952D02*
X173204299Y-81630952D01*
X173204299Y-81630952D02*
X173347156Y-81535714D01*
X173347156Y-81535714D02*
X173442394Y-81440476D01*
X173442394Y-81440476D02*
X173490013Y-81345238D01*
D12*
%TO.C,J1*%
X172920000Y-68170000D02*
X172920000Y-69500000D01*
X174250000Y-68170000D02*
X172920000Y-68170000D01*
X175520001Y-68170000D02*
X175520001Y-70830000D01*
X175520001Y-68170000D02*
X188280000Y-68170000D01*
X175520001Y-70830000D02*
X188280000Y-70830000D01*
X188280000Y-68170000D02*
X188280000Y-70830000D01*
D13*
%TO.C,TH1*%
X173250000Y-87200000D02*
X173250000Y-87200000D01*
X173250000Y-87300000D02*
X173250000Y-87300000D01*
X173250000Y-87300000D02*
X173250000Y-87300000D01*
X173250000Y-87200000D02*
G75*
G02*
X173250000Y-87300000I0J-50000D01*
G01*
X173250000Y-87300000D02*
G75*
G02*
X173250000Y-87200000I0J50000D01*
G01*
X173250000Y-87300000D02*
G75*
G02*
X173250000Y-87200000I0J50000D01*
G01*
%TO.C,PS2*%
X178025000Y-115055000D02*
X178025000Y-115055000D01*
X178025000Y-115055000D02*
X178025000Y-115055000D01*
X178125000Y-115055000D02*
X178125000Y-115055000D01*
X178685000Y-87625000D02*
X199045000Y-87625000D01*
X178685000Y-119375000D02*
X178685000Y-87625000D01*
X199045000Y-87625000D02*
X199045000Y-119375000D01*
X199045000Y-119375000D02*
X178685000Y-119375000D01*
X178025000Y-115055000D02*
G75*
G02*
X178125000Y-115055000I50000J0D01*
G01*
X178025000Y-115055000D02*
G75*
G02*
X178125000Y-115055000I50000J0D01*
G01*
X178125000Y-115055000D02*
G75*
G02*
X178025000Y-115055000I-50000J0D01*
G01*
D12*
%TO.C,BT1*%
X174540000Y-79689999D02*
X182360000Y-79689999D01*
X174540000Y-80609999D02*
X174540000Y-79689999D01*
X174540000Y-84889999D02*
X176140000Y-84889999D01*
X174540001Y-85809999D02*
X174540000Y-84889999D01*
X176139999Y-85809999D02*
X176140000Y-84889999D01*
X176140000Y-79689999D02*
X176140000Y-80609999D01*
X176140000Y-80609999D02*
X174540000Y-80609999D01*
X176140000Y-80889999D02*
X174925000Y-80889999D01*
X176140000Y-80889999D02*
X176140000Y-80609999D01*
X176140000Y-84889999D02*
X176140000Y-84609998D01*
X178000000Y-82249999D02*
X178000000Y-83249999D01*
X178000000Y-83249999D02*
X182360000Y-83249999D01*
X178500000Y-80449999D02*
X180100000Y-80449999D01*
X178500000Y-81449999D02*
X178500000Y-80449999D01*
X178500000Y-84050000D02*
X178500000Y-85049998D01*
X178500000Y-85049998D02*
X180100000Y-85049999D01*
X180100000Y-80449999D02*
X180100000Y-81449999D01*
X180100000Y-80949999D02*
X182360001Y-80949999D01*
X180100000Y-81449999D02*
X178500000Y-81449999D01*
X180100000Y-81449999D02*
X182360000Y-81449999D01*
X180100000Y-84049999D02*
X178500000Y-84050000D01*
X180100000Y-85049999D02*
X180100000Y-84049999D01*
X182360000Y-79689999D02*
X182360001Y-85809999D01*
X182360001Y-82249999D02*
X178000000Y-82249999D01*
X182360001Y-85809999D02*
X174540001Y-85809999D01*
%TD*%
%LPC*%
D10*
X181500000Y-99017767D02*
X191964466Y-99017767D01*
X191964466Y-106017767D01*
X181500000Y-106017767D01*
X181500000Y-99017767D01*
G36*
X181500000Y-99017767D02*
G01*
X191964466Y-99017767D01*
X191964466Y-106017767D01*
X181500000Y-106017767D01*
X181500000Y-99017767D01*
G37*
D14*
X183275000Y-102517767D02*
G75*
G02*
X179725000Y-102517767I-1775000J0D01*
G01*
X179725000Y-102517767D02*
G75*
G02*
X183275000Y-102517767I1775000J0D01*
G01*
X193757233Y-102500000D02*
G75*
G02*
X190207233Y-102500000I-1775000J0D01*
G01*
X190207233Y-102500000D02*
G75*
G02*
X193757233Y-102500000I1775000J0D01*
G01*
D15*
%TO.C,TP3*%
X133675000Y-81175000D03*
%TD*%
%TO.C,TP7*%
X133675000Y-96175000D03*
%TD*%
%TO.C,TP5*%
X133675000Y-88675000D03*
%TD*%
%TO.C,TP10*%
X133675000Y-107425000D03*
%TD*%
%TO.C,TP2*%
X133675000Y-77425000D03*
%TD*%
%TO.C,TP11*%
X133675000Y-111425000D03*
%TD*%
%TO.C,TP4*%
X133675000Y-84925000D03*
%TD*%
%TO.C,TP6*%
X133675000Y-92425000D03*
%TD*%
%TO.C,TP9*%
X133675000Y-103675000D03*
%TD*%
%TO.C,TP1*%
X133675000Y-73675000D03*
%TD*%
%TO.C,TP8*%
X133675000Y-99925000D03*
%TD*%
D16*
%TO.C,J2*%
X186360000Y-115900000D03*
X192140000Y-115900000D03*
D17*
X184930000Y-115370000D03*
D18*
X184930000Y-119550000D03*
D17*
X193570000Y-115370000D03*
D18*
X193570000Y-119550000D03*
%TD*%
D19*
%TO.C,J1*%
X174250000Y-69500000D03*
D20*
X176790000Y-69500000D03*
X179329999Y-69500000D03*
X181870000Y-69500000D03*
X184410000Y-69500000D03*
X186950000Y-69500000D03*
%TD*%
D21*
%TO.C,TH1*%
X173250000Y-85400000D03*
X173250000Y-83600000D03*
%TD*%
D22*
%TO.C,PS2*%
X181225000Y-115055000D03*
X181225000Y-112515000D03*
X181225000Y-94735000D03*
X196465000Y-92195000D03*
X196465000Y-97275000D03*
X196465000Y-112515000D03*
X196465000Y-115055000D03*
%TD*%
D23*
%TO.C,BT1*%
X176000000Y-81749999D03*
D24*
X176000000Y-83750000D03*
%TD*%
%LPD*%
M02*
