%TF.GenerationSoftware,KiCad,Pcbnew,9.0.2*%
%TF.CreationDate,2025-12-06T18:07:06+09:00*%
%TF.ProjectId,ECG,4543472e-6b69-4636-9164-5f7063625858,rev?*%
%TF.SameCoordinates,Original*%
%TF.FileFunction,Soldermask,Bot*%
%TF.FilePolarity,Negative*%
%FSLAX46Y46*%
G04 Gerber Fmt 4.6, Leading zero omitted, Abs format (unit mm)*
G04 Created by KiCad (PCBNEW 9.0.2) date 2025-12-06 18:07:06*
%MOMM*%
%LPD*%
G01*
G04 APERTURE LIST*
G04 Aperture macros list*
%AMRoundRect*
0 Rectangle with rounded corners*
0 $1 Rounding radius*
0 $2 $3 $4 $5 $6 $7 $8 $9 X,Y pos of 4 corners*
0 Add a 4 corners polygon primitive as box body*
4,1,4,$2,$3,$4,$5,$6,$7,$8,$9,$2,$3,0*
0 Add four circle primitives for the rounded corners*
1,1,$1+$1,$2,$3*
1,1,$1+$1,$4,$5*
1,1,$1+$1,$6,$7*
1,1,$1+$1,$8,$9*
0 Add four rect primitives between the rounded corners*
20,1,$1+$1,$2,$3,$4,$5,0*
20,1,$1+$1,$4,$5,$6,$7,0*
20,1,$1+$1,$6,$7,$8,$9,0*
20,1,$1+$1,$8,$9,$2,$3,0*%
G04 Aperture macros list end*
%ADD10C,0.100000*%
%ADD11C,3.550000*%
%ADD12RoundRect,0.262500X-0.612500X-0.612500X0.612500X-0.612500X0.612500X0.612500X-0.612500X0.612500X0*%
%ADD13C,0.650000*%
%ADD14O,1.000000X2.100000*%
%ADD15O,1.000000X1.600000*%
%ADD16R,1.700000X1.700000*%
%ADD17O,1.700000X1.700000*%
%ADD18C,1.320000*%
%ADD19C,1.200000*%
%ADD20RoundRect,0.250000X-0.625000X0.350000X-0.625000X-0.350000X0.625000X-0.350000X0.625000X0.350000X0*%
%ADD21O,1.750000X1.200000*%
G04 APERTURE END LIST*
D10*
X181500000Y-99017767D02*
X191964466Y-99017767D01*
X191964466Y-106017767D01*
X181500000Y-106017767D01*
X181500000Y-99017767D01*
G36*
X181500000Y-99017767D02*
G01*
X191964466Y-99017767D01*
X191964466Y-106017767D01*
X181500000Y-106017767D01*
X181500000Y-99017767D01*
G37*
D11*
X183275000Y-102517767D02*
G75*
G02*
X179725000Y-102517767I-1775000J0D01*
G01*
X179725000Y-102517767D02*
G75*
G02*
X183275000Y-102517767I1775000J0D01*
G01*
X193757233Y-102500000D02*
G75*
G02*
X190207233Y-102500000I-1775000J0D01*
G01*
X190207233Y-102500000D02*
G75*
G02*
X193757233Y-102500000I1775000J0D01*
G01*
D12*
%TO.C,TP3*%
X133675000Y-81175000D03*
%TD*%
%TO.C,TP7*%
X133675000Y-96175000D03*
%TD*%
%TO.C,TP5*%
X133675000Y-88675000D03*
%TD*%
%TO.C,TP10*%
X133675000Y-107425000D03*
%TD*%
%TO.C,TP2*%
X133675000Y-77425000D03*
%TD*%
%TO.C,TP11*%
X133675000Y-111425000D03*
%TD*%
%TO.C,TP4*%
X133675000Y-84925000D03*
%TD*%
%TO.C,TP6*%
X133675000Y-92425000D03*
%TD*%
%TO.C,TP9*%
X133675000Y-103675000D03*
%TD*%
%TO.C,TP1*%
X133675000Y-73675000D03*
%TD*%
%TO.C,TP8*%
X133675000Y-99925000D03*
%TD*%
D13*
%TO.C,J2*%
X186360000Y-115900000D03*
X192140000Y-115900000D03*
D14*
X184930000Y-115370000D03*
D15*
X184930000Y-119550000D03*
D14*
X193570000Y-115370000D03*
D15*
X193570000Y-119550000D03*
%TD*%
D16*
%TO.C,J1*%
X174250000Y-69500000D03*
D17*
X176790000Y-69500000D03*
X179329999Y-69500000D03*
X181870000Y-69500000D03*
X184410000Y-69500000D03*
X186950000Y-69500000D03*
%TD*%
D18*
%TO.C,TH1*%
X173250000Y-85400000D03*
X173250000Y-83600000D03*
%TD*%
D19*
%TO.C,PS2*%
X181225000Y-115055000D03*
X181225000Y-112515000D03*
X181225000Y-94735000D03*
X196465000Y-92195000D03*
X196465000Y-97275000D03*
X196465000Y-112515000D03*
X196465000Y-115055000D03*
%TD*%
D20*
%TO.C,BT1*%
X176000000Y-81749999D03*
D21*
X176000000Y-83750000D03*
%TD*%
M02*
