%TF.GenerationSoftware,KiCad,Pcbnew,9.0.2*%
%TF.CreationDate,2025-12-06T18:07:06+09:00*%
%TF.ProjectId,ECG,4543472e-6b69-4636-9164-5f7063625858,rev?*%
%TF.SameCoordinates,Original*%
%TF.FileFunction,Soldermask,Top*%
%TF.FilePolarity,Negative*%
%FSLAX46Y46*%
G04 Gerber Fmt 4.6, Leading zero omitted, Abs format (unit mm)*
G04 Created by KiCad (PCBNEW 9.0.2) date 2025-12-06 18:07:06*
%MOMM*%
%LPD*%
G01*
G04 APERTURE LIST*
G04 Aperture macros list*
%AMRoundRect*
0 Rectangle with rounded corners*
0 $1 Rounding radius*
0 $2 $3 $4 $5 $6 $7 $8 $9 X,Y pos of 4 corners*
0 Add a 4 corners polygon primitive as box body*
4,1,4,$2,$3,$4,$5,$6,$7,$8,$9,$2,$3,0*
0 Add four circle primitives for the rounded corners*
1,1,$1+$1,$2,$3*
1,1,$1+$1,$4,$5*
1,1,$1+$1,$6,$7*
1,1,$1+$1,$8,$9*
0 Add four rect primitives between the rounded corners*
20,1,$1+$1,$2,$3,$4,$5,0*
20,1,$1+$1,$4,$5,$6,$7,0*
20,1,$1+$1,$6,$7,$8,$9,0*
20,1,$1+$1,$8,$9,$2,$3,0*%
G04 Aperture macros list end*
%ADD10C,0.100000*%
%ADD11C,3.550000*%
%ADD12RoundRect,0.200000X-0.275000X0.200000X-0.275000X-0.200000X0.275000X-0.200000X0.275000X0.200000X0*%
%ADD13R,1.450000X0.450000*%
%ADD14R,1.300000X1.550000*%
%ADD15RoundRect,0.140000X-0.140000X-0.170000X0.140000X-0.170000X0.140000X0.170000X-0.140000X0.170000X0*%
%ADD16RoundRect,0.200000X-0.200000X-0.275000X0.200000X-0.275000X0.200000X0.275000X-0.200000X0.275000X0*%
%ADD17RoundRect,0.200000X0.200000X0.275000X-0.200000X0.275000X-0.200000X-0.275000X0.200000X-0.275000X0*%
%ADD18RoundRect,0.135000X0.135000X0.185000X-0.135000X0.185000X-0.135000X-0.185000X0.135000X-0.185000X0*%
%ADD19RoundRect,0.262500X-0.612500X-0.612500X0.612500X-0.612500X0.612500X0.612500X-0.612500X0.612500X0*%
%ADD20RoundRect,0.225000X-0.225000X-0.250000X0.225000X-0.250000X0.225000X0.250000X-0.225000X0.250000X0*%
%ADD21RoundRect,0.135000X0.185000X-0.135000X0.185000X0.135000X-0.185000X0.135000X-0.185000X-0.135000X0*%
%ADD22RoundRect,0.250000X0.475000X-0.250000X0.475000X0.250000X-0.475000X0.250000X-0.475000X-0.250000X0*%
%ADD23R,1.100000X0.900000*%
%ADD24R,0.700000X0.700000*%
%ADD25RoundRect,0.140000X0.140000X0.170000X-0.140000X0.170000X-0.140000X-0.170000X0.140000X-0.170000X0*%
%ADD26RoundRect,0.140000X0.170000X-0.140000X0.170000X0.140000X-0.170000X0.140000X-0.170000X-0.140000X0*%
%ADD27RoundRect,0.250000X-0.375000X-1.075000X0.375000X-1.075000X0.375000X1.075000X-0.375000X1.075000X0*%
%ADD28RoundRect,0.218750X-0.218750X-0.256250X0.218750X-0.256250X0.218750X0.256250X-0.218750X0.256250X0*%
%ADD29R,0.850000X0.300000*%
%ADD30R,0.300000X0.850000*%
%ADD31R,1.550000X1.550000*%
%ADD32RoundRect,0.100000X0.100000X-0.712500X0.100000X0.712500X-0.100000X0.712500X-0.100000X-0.712500X0*%
%ADD33RoundRect,0.135000X-0.185000X0.135000X-0.185000X-0.135000X0.185000X-0.135000X0.185000X0.135000X0*%
%ADD34R,0.300000X0.800000*%
%ADD35R,3.400000X1.800000*%
%ADD36RoundRect,0.218750X0.256250X-0.218750X0.256250X0.218750X-0.256250X0.218750X-0.256250X-0.218750X0*%
%ADD37RoundRect,0.250000X-0.475000X0.250000X-0.475000X-0.250000X0.475000X-0.250000X0.475000X0.250000X0*%
%ADD38RoundRect,0.218750X0.218750X0.256250X-0.218750X0.256250X-0.218750X-0.256250X0.218750X-0.256250X0*%
%ADD39RoundRect,0.225000X-0.250000X0.225000X-0.250000X-0.225000X0.250000X-0.225000X0.250000X0.225000X0*%
%ADD40R,1.450000X0.300000*%
%ADD41R,0.300000X1.450000*%
%ADD42R,0.900000X1.500000*%
%ADD43C,0.600000*%
%ADD44R,2.900000X2.900000*%
%ADD45RoundRect,0.150000X0.150000X-0.875000X0.150000X0.875000X-0.150000X0.875000X-0.150000X-0.875000X0*%
%ADD46RoundRect,0.250000X0.375000X1.075000X-0.375000X1.075000X-0.375000X-1.075000X0.375000X-1.075000X0*%
%ADD47RoundRect,0.150000X-0.200000X0.150000X-0.200000X-0.150000X0.200000X-0.150000X0.200000X0.150000X0*%
%ADD48RoundRect,0.225000X0.225000X0.250000X-0.225000X0.250000X-0.225000X-0.250000X0.225000X-0.250000X0*%
%ADD49R,1.600000X0.300000*%
%ADD50RoundRect,0.250000X-0.750000X0.400000X-0.750000X-0.400000X0.750000X-0.400000X0.750000X0.400000X0*%
%ADD51RoundRect,0.250000X-0.750000X0.750000X-0.750000X-0.750000X0.750000X-0.750000X0.750000X0.750000X0*%
%ADD52RoundRect,0.200000X0.275000X-0.200000X0.275000X0.200000X-0.275000X0.200000X-0.275000X-0.200000X0*%
%ADD53R,0.200000X0.750000*%
%ADD54R,1.600000X1.000000*%
%ADD55RoundRect,0.140000X-0.170000X0.140000X-0.170000X-0.140000X0.170000X-0.140000X0.170000X0.140000X0*%
%ADD56RoundRect,0.250000X-0.250000X-0.475000X0.250000X-0.475000X0.250000X0.475000X-0.250000X0.475000X0*%
%ADD57RoundRect,0.225000X0.250000X-0.225000X0.250000X0.225000X-0.250000X0.225000X-0.250000X-0.225000X0*%
%ADD58R,0.600000X1.450000*%
%ADD59O,1.000000X2.100000*%
%ADD60O,1.000000X1.600000*%
%ADD61R,1.700000X1.700000*%
%ADD62O,1.700000X1.700000*%
%ADD63C,1.320000*%
%ADD64C,1.200000*%
%ADD65RoundRect,0.250000X-0.625000X0.350000X-0.625000X-0.350000X0.625000X-0.350000X0.625000X0.350000X0*%
%ADD66O,1.750000X1.200000*%
G04 APERTURE END LIST*
D10*
X181500000Y-99017767D02*
X191964466Y-99017767D01*
X191964466Y-106017767D01*
X181500000Y-106017767D01*
X181500000Y-99017767D01*
G36*
X181500000Y-99017767D02*
G01*
X191964466Y-99017767D01*
X191964466Y-106017767D01*
X181500000Y-106017767D01*
X181500000Y-99017767D01*
G37*
D11*
X183275000Y-102517767D02*
G75*
G02*
X179725000Y-102517767I-1775000J0D01*
G01*
X179725000Y-102517767D02*
G75*
G02*
X183275000Y-102517767I1775000J0D01*
G01*
X193757233Y-102500000D02*
G75*
G02*
X190207233Y-102500000I-1775000J0D01*
G01*
X190207233Y-102500000D02*
G75*
G02*
X193757233Y-102500000I1775000J0D01*
G01*
D12*
%TO.C,R26*%
X165049999Y-88424999D03*
X165049999Y-90074999D03*
%TD*%
D13*
%TO.C,IC3*%
X137975000Y-80225000D03*
X137975000Y-80875000D03*
X137975000Y-81525000D03*
X137975000Y-82175000D03*
X142425000Y-82175000D03*
X142425000Y-81525000D03*
X142425000Y-80875000D03*
X142425000Y-80225000D03*
%TD*%
D14*
%TO.C,SW2*%
X163750000Y-81230000D03*
X163750000Y-73270000D03*
X168250000Y-81230000D03*
X168250000Y-73270000D03*
%TD*%
D15*
%TO.C,C16*%
X144270000Y-93500000D03*
X145230000Y-93500000D03*
%TD*%
D16*
%TO.C,R41*%
X189925000Y-91750000D03*
X191575000Y-91750000D03*
%TD*%
D17*
%TO.C,R32*%
X177325000Y-86500000D03*
X175675000Y-86500000D03*
%TD*%
D18*
%TO.C,R11*%
X145260000Y-77000000D03*
X144240000Y-77000000D03*
%TD*%
D17*
%TO.C,R9*%
X137325000Y-107500000D03*
X135675000Y-107500000D03*
%TD*%
D13*
%TO.C,IC6*%
X137975000Y-91475000D03*
X137975000Y-92125000D03*
X137975000Y-92775000D03*
X137975000Y-93425000D03*
X142425000Y-93425000D03*
X142425000Y-92775000D03*
X142425000Y-92125000D03*
X142425000Y-91475000D03*
%TD*%
D16*
%TO.C,R18*%
X155425000Y-94000000D03*
X157075000Y-94000000D03*
%TD*%
D19*
%TO.C,TP3*%
X133675000Y-81175000D03*
%TD*%
D15*
%TO.C,C4*%
X142270000Y-105250000D03*
X143230000Y-105250000D03*
%TD*%
D14*
%TO.C,SW3*%
X178250000Y-73270000D03*
X178250000Y-81230000D03*
X173750000Y-73270000D03*
X173750000Y-81230000D03*
%TD*%
D15*
%TO.C,C19*%
X144270000Y-98500000D03*
X145230000Y-98500000D03*
%TD*%
D20*
%TO.C,C37*%
X176625000Y-96900000D03*
X178175000Y-96900000D03*
%TD*%
D21*
%TO.C,R4*%
X136250000Y-85460000D03*
X136250000Y-84440000D03*
%TD*%
D13*
%TO.C,IC8*%
X137975000Y-98975000D03*
X137975000Y-99625000D03*
X137975000Y-100275000D03*
X137975000Y-100925000D03*
X142425000Y-100925000D03*
X142425000Y-100275000D03*
X142425000Y-99625000D03*
X142425000Y-98975000D03*
%TD*%
D18*
%TO.C,R14*%
X145260000Y-88250000D03*
X144240000Y-88250000D03*
%TD*%
D19*
%TO.C,TP7*%
X133675000Y-96175000D03*
%TD*%
D15*
%TO.C,C13*%
X144270000Y-87250000D03*
X145230000Y-87250000D03*
%TD*%
D16*
%TO.C,R34*%
X180425000Y-93250000D03*
X182075000Y-93250000D03*
%TD*%
D21*
%TO.C,R7*%
X136250000Y-96710000D03*
X136250000Y-95690000D03*
%TD*%
D17*
%TO.C,R40*%
X191325000Y-70250000D03*
X189675000Y-70250000D03*
%TD*%
D12*
%TO.C,R31*%
X176250000Y-89425000D03*
X176250000Y-91075000D03*
%TD*%
D22*
%TO.C,C29*%
X162549999Y-102749997D03*
X162549999Y-100849999D03*
%TD*%
D12*
%TO.C,R25*%
X163549999Y-88424999D03*
X163549999Y-90074999D03*
%TD*%
D23*
%TO.C,Y1*%
X158375000Y-84850000D03*
X156675000Y-84850000D03*
X156675000Y-86150000D03*
X158375000Y-86150000D03*
%TD*%
D24*
%TO.C,LED9*%
X165450000Y-69665000D03*
X166550000Y-69665000D03*
X166550000Y-67835000D03*
X165450000Y-67835000D03*
%TD*%
D19*
%TO.C,TP5*%
X133675000Y-88675000D03*
%TD*%
D25*
%TO.C,C26*%
X158079999Y-96199999D03*
X157119999Y-96199999D03*
%TD*%
D26*
%TO.C,C3*%
X142000000Y-109480000D03*
X142000000Y-108520000D03*
%TD*%
D24*
%TO.C,LED4*%
X150450000Y-69665000D03*
X151550000Y-69665000D03*
X151550000Y-67835000D03*
X150450000Y-67835000D03*
%TD*%
D13*
%TO.C,IC4*%
X137975000Y-83975000D03*
X137975000Y-84625000D03*
X137975000Y-85275000D03*
X137975000Y-85925000D03*
X142425000Y-85925000D03*
X142425000Y-85275000D03*
X142425000Y-84625000D03*
X142425000Y-83975000D03*
%TD*%
D21*
%TO.C,R8*%
X136250000Y-100460000D03*
X136250000Y-99440000D03*
%TD*%
D15*
%TO.C,C12*%
X144270000Y-86000000D03*
X145230000Y-86000000D03*
%TD*%
D27*
%TO.C,L1*%
X168500001Y-96899998D03*
X171299999Y-96899998D03*
%TD*%
D21*
%TO.C,R1*%
X136250000Y-74210000D03*
X136250000Y-73190000D03*
%TD*%
D18*
%TO.C,R12*%
X145260000Y-80750000D03*
X144240000Y-80750000D03*
%TD*%
D28*
%TO.C,D1*%
X175712499Y-88000000D03*
X177287501Y-88000000D03*
%TD*%
D16*
%TO.C,R38*%
X186020000Y-112500000D03*
X187670000Y-112500000D03*
%TD*%
D19*
%TO.C,TP10*%
X133675000Y-107425000D03*
%TD*%
D29*
%TO.C,IC10*%
X165850000Y-92499998D03*
X165850000Y-92999998D03*
X165850000Y-93499998D03*
X165850000Y-93999998D03*
D30*
X166550000Y-94699998D03*
X167050000Y-94699998D03*
X167550000Y-94699998D03*
X168050000Y-94699998D03*
D29*
X168750000Y-93999998D03*
X168750000Y-93499998D03*
X168750000Y-92999998D03*
X168750000Y-92499998D03*
D30*
X168050000Y-91799998D03*
X167550000Y-91799998D03*
X167050000Y-91799998D03*
X166550000Y-91799998D03*
D31*
X167300000Y-93249998D03*
%TD*%
D24*
%TO.C,LED5*%
X153450000Y-69665000D03*
X154550000Y-69665000D03*
X154550000Y-67835000D03*
X153450000Y-67835000D03*
%TD*%
D18*
%TO.C,R21*%
X158059998Y-98499999D03*
X157040000Y-98499999D03*
%TD*%
D19*
%TO.C,TP2*%
X133675000Y-77425000D03*
%TD*%
D32*
%TO.C,U1*%
X139025000Y-109612500D03*
X139675000Y-109612500D03*
X140325000Y-109612500D03*
X140975000Y-109612500D03*
X140975000Y-105387500D03*
X140325000Y-105387500D03*
X139675000Y-105387500D03*
X139025000Y-105387500D03*
%TD*%
D22*
%TO.C,C31*%
X164549999Y-102749998D03*
X164549999Y-100850000D03*
%TD*%
D19*
%TO.C,TP11*%
X133675000Y-111425000D03*
%TD*%
D33*
%TO.C,R24*%
X158999999Y-100490000D03*
X158999999Y-101509998D03*
%TD*%
D17*
%TO.C,R30*%
X172575000Y-89999999D03*
X170925000Y-89999999D03*
%TD*%
D19*
%TO.C,TP4*%
X133675000Y-84925000D03*
%TD*%
D18*
%TO.C,R16*%
X145260000Y-95750000D03*
X144240000Y-95750000D03*
%TD*%
D21*
%TO.C,R2*%
X136250000Y-77960000D03*
X136250000Y-76940000D03*
%TD*%
D34*
%TO.C,PS1*%
X160300000Y-98999999D03*
X160800000Y-98999999D03*
X161300000Y-98999999D03*
X161800000Y-98999999D03*
X162300000Y-98999999D03*
X162800000Y-98999999D03*
X163300000Y-98999999D03*
X163300000Y-95999999D03*
X162800000Y-95999999D03*
X162300000Y-95999999D03*
X161800000Y-95999999D03*
X161300000Y-95999999D03*
X160800000Y-95999999D03*
X160300000Y-95999999D03*
D35*
X161800000Y-97499999D03*
%TD*%
D36*
%TO.C,D2*%
X179700000Y-97387501D03*
X179700000Y-95812499D03*
%TD*%
D20*
%TO.C,C22*%
X151475000Y-93500000D03*
X153025000Y-93500000D03*
%TD*%
D21*
%TO.C,R23*%
X159049999Y-95209998D03*
X159049999Y-94190000D03*
%TD*%
D37*
%TO.C,C28*%
X161299999Y-92050000D03*
X161299999Y-93949998D03*
%TD*%
D38*
%TO.C,D4*%
X185037500Y-91750000D03*
X183462500Y-91750000D03*
%TD*%
D39*
%TO.C,C24*%
X155000000Y-83725000D03*
X155000000Y-85275000D03*
%TD*%
D22*
%TO.C,C36*%
X173300000Y-101099997D03*
X173300000Y-99199999D03*
%TD*%
D40*
%TO.C,IC9*%
X148025000Y-86500000D03*
X148025000Y-87000000D03*
X148025000Y-87500000D03*
X148025000Y-88000000D03*
X148025000Y-88500000D03*
X148025000Y-89000000D03*
X148025000Y-89500000D03*
X148025000Y-90000000D03*
D41*
X149500000Y-91475000D03*
X150000000Y-91475000D03*
X150500000Y-91475000D03*
X151000000Y-91475000D03*
X151500000Y-91475000D03*
X152000000Y-91475000D03*
X152500000Y-91475000D03*
X153000000Y-91475000D03*
D40*
X154475000Y-90000000D03*
X154475000Y-89500000D03*
X154475000Y-89000000D03*
X154475000Y-88500000D03*
X154475000Y-88000000D03*
X154475000Y-87500000D03*
X154475000Y-87000000D03*
X154475000Y-86500000D03*
D41*
X153000000Y-85025000D03*
X152500000Y-85025000D03*
X152000000Y-85025000D03*
X151500000Y-85025000D03*
X151000000Y-85025000D03*
X150500000Y-85025000D03*
X150000000Y-85025000D03*
X149500000Y-85025000D03*
%TD*%
D13*
%TO.C,IC7*%
X137975000Y-95225000D03*
X137975000Y-95875000D03*
X137975000Y-96525000D03*
X137975000Y-97175000D03*
X142425000Y-97175000D03*
X142425000Y-96525000D03*
X142425000Y-95875000D03*
X142425000Y-95225000D03*
%TD*%
D42*
%TO.C,U2*%
X192900000Y-72500000D03*
X191400000Y-72500000D03*
X189900000Y-72500000D03*
X188400000Y-72500000D03*
X186900000Y-72500000D03*
X185400000Y-72500000D03*
X183900000Y-72500000D03*
X182400000Y-72500000D03*
X180900000Y-72500000D03*
X180900000Y-90000000D03*
X182400000Y-90000000D03*
X183900000Y-90000000D03*
X185400000Y-90000000D03*
X186900000Y-90000000D03*
X188400000Y-90000000D03*
X189900000Y-90000000D03*
X191400000Y-90000000D03*
X192900000Y-90000000D03*
D43*
X187250000Y-81110000D03*
X186150000Y-81110000D03*
X187800000Y-81660000D03*
X186700000Y-81660000D03*
X185600000Y-81660000D03*
X187250000Y-82210000D03*
D44*
X186700000Y-82210000D03*
D43*
X186150000Y-82210000D03*
X187800000Y-82760000D03*
X186700000Y-82760000D03*
X185600000Y-82760000D03*
X187250000Y-83310000D03*
X186150000Y-83310000D03*
%TD*%
D45*
%TO.C,U3*%
X182400000Y-107195000D03*
X183670000Y-107195000D03*
X184940000Y-107195000D03*
X186210000Y-107195000D03*
X187480000Y-107195000D03*
X188750000Y-107195000D03*
X190020000Y-107195000D03*
X191290000Y-107195000D03*
X191290000Y-97895000D03*
X190020000Y-97895000D03*
X188750000Y-97895000D03*
X187480000Y-97895000D03*
X186210000Y-97895000D03*
X184940000Y-97895000D03*
X183670000Y-97895000D03*
X182400000Y-97895000D03*
%TD*%
D13*
%TO.C,IC1*%
X137975000Y-72725000D03*
X137975000Y-73375000D03*
X137975000Y-74025000D03*
X137975000Y-74675000D03*
X142425000Y-74675000D03*
X142425000Y-74025000D03*
X142425000Y-73375000D03*
X142425000Y-72725000D03*
%TD*%
D24*
%TO.C,LED1*%
X141450000Y-69665000D03*
X142550000Y-69665000D03*
X142550000Y-67835000D03*
X141450000Y-67835000D03*
%TD*%
D15*
%TO.C,C20*%
X144270000Y-101000000D03*
X145230000Y-101000000D03*
%TD*%
D17*
%TO.C,R42*%
X192920000Y-112500000D03*
X191270000Y-112500000D03*
%TD*%
D18*
%TO.C,R17*%
X145260000Y-99500000D03*
X144240000Y-99500000D03*
%TD*%
D39*
%TO.C,C34*%
X171750000Y-67725000D03*
X171750000Y-69275000D03*
%TD*%
D14*
%TO.C,SW1*%
X153750000Y-81230000D03*
X153750000Y-73270000D03*
X158250000Y-81230000D03*
X158250000Y-73270000D03*
%TD*%
D18*
%TO.C,R22*%
X158059998Y-100499999D03*
X157040000Y-100499999D03*
%TD*%
D22*
%TO.C,C33*%
X170750000Y-93949998D03*
X170750000Y-92050000D03*
%TD*%
D37*
%TO.C,C35*%
X173300000Y-95949999D03*
X173300000Y-97849997D03*
%TD*%
D24*
%TO.C,LED10*%
X168450000Y-69665000D03*
X169550000Y-69665000D03*
X169550000Y-67835000D03*
X168450000Y-67835000D03*
%TD*%
D28*
%TO.C,D3*%
X180462500Y-91750000D03*
X182037500Y-91750000D03*
%TD*%
D18*
%TO.C,R20*%
X158109998Y-95199999D03*
X157090000Y-95199999D03*
%TD*%
D15*
%TO.C,C9*%
X144270000Y-79750000D03*
X145230000Y-79750000D03*
%TD*%
D17*
%TO.C,R27*%
X169575000Y-83500000D03*
X167925000Y-83500000D03*
%TD*%
D46*
%TO.C,L2*%
X171299999Y-100149998D03*
X168500001Y-100149998D03*
%TD*%
D17*
%TO.C,R37*%
X185075000Y-93250000D03*
X183425000Y-93250000D03*
%TD*%
D39*
%TO.C,C2*%
X139750000Y-67975000D03*
X139750000Y-69525000D03*
%TD*%
D15*
%TO.C,C15*%
X144270000Y-91000000D03*
X145230000Y-91000000D03*
%TD*%
D47*
%TO.C,D5*%
X166500000Y-89950000D03*
X166500000Y-88550000D03*
%TD*%
D19*
%TO.C,TP6*%
X133675000Y-92425000D03*
%TD*%
D48*
%TO.C,C23*%
X153525000Y-83250000D03*
X151975000Y-83250000D03*
%TD*%
D37*
%TO.C,C38*%
X192500000Y-93550001D03*
X192500000Y-95449999D03*
%TD*%
D15*
%TO.C,C7*%
X144270000Y-76000000D03*
X145230000Y-76000000D03*
%TD*%
D19*
%TO.C,TP9*%
X133675000Y-103675000D03*
%TD*%
D16*
%TO.C,R39*%
X189675000Y-68000000D03*
X191325000Y-68000000D03*
%TD*%
D24*
%TO.C,LED2*%
X144450000Y-69665000D03*
X145550000Y-69665000D03*
X145550000Y-67835000D03*
X144450000Y-67835000D03*
%TD*%
D21*
%TO.C,R5*%
X136250000Y-89210000D03*
X136250000Y-88190000D03*
%TD*%
D15*
%TO.C,C18*%
X144270000Y-97250000D03*
X145230000Y-97250000D03*
%TD*%
D24*
%TO.C,LED7*%
X159450000Y-69665000D03*
X160550000Y-69665000D03*
X160550000Y-67835000D03*
X159450000Y-67835000D03*
%TD*%
D17*
%TO.C,R19*%
X157075000Y-101750000D03*
X155425000Y-101750000D03*
%TD*%
D49*
%TO.C,U4*%
X164050000Y-85025000D03*
X164050000Y-85675000D03*
X164050000Y-86325000D03*
X164050000Y-86975000D03*
X167450000Y-86975000D03*
X167450000Y-86325000D03*
X167450000Y-85675000D03*
X167450000Y-85025000D03*
%TD*%
D50*
%TO.C,RV1*%
X153500000Y-98000000D03*
D51*
X149499999Y-99150000D03*
D50*
X153500000Y-100300000D03*
%TD*%
D12*
%TO.C,R35*%
X181200000Y-95975000D03*
X181200000Y-97625000D03*
%TD*%
%TO.C,R33*%
X177750000Y-89424999D03*
X177750000Y-91074999D03*
%TD*%
D15*
%TO.C,C5*%
X144250000Y-72250000D03*
X145210000Y-72250000D03*
%TD*%
D24*
%TO.C,LED8*%
X162450000Y-69665000D03*
X163550000Y-69665000D03*
X163550000Y-67835000D03*
X162450000Y-67835000D03*
%TD*%
D17*
%TO.C,R36*%
X184325000Y-94800000D03*
X182675000Y-94800000D03*
%TD*%
D18*
%TO.C,R15*%
X145260000Y-92000000D03*
X144240000Y-92000000D03*
%TD*%
D52*
%TO.C,R29*%
X169549999Y-90074999D03*
X169549999Y-88424999D03*
%TD*%
D15*
%TO.C,C10*%
X144270000Y-82250000D03*
X145230000Y-82250000D03*
%TD*%
%TO.C,C11*%
X144270000Y-83500000D03*
X145230000Y-83500000D03*
%TD*%
%TO.C,C6*%
X144270000Y-74750000D03*
X145230000Y-74750000D03*
%TD*%
D37*
%TO.C,C32*%
X165049999Y-96550000D03*
X165049999Y-98449998D03*
%TD*%
D15*
%TO.C,C17*%
X144270000Y-94750000D03*
X145230000Y-94750000D03*
%TD*%
D53*
%TO.C,IC11*%
X176600000Y-95000000D03*
X177000000Y-95000000D03*
X177400000Y-94999999D03*
X177800000Y-95000000D03*
X178200000Y-95000000D03*
X178200000Y-92800000D03*
X177800000Y-92800000D03*
X177400000Y-92800001D03*
X177000000Y-92800000D03*
X176600000Y-92800000D03*
D54*
X177400000Y-93900000D03*
%TD*%
D18*
%TO.C,R13*%
X145260000Y-84500000D03*
X144240000Y-84500000D03*
%TD*%
D15*
%TO.C,C14*%
X144270000Y-89750000D03*
X145230000Y-89750000D03*
%TD*%
D13*
%TO.C,IC2*%
X137975000Y-76475000D03*
X137975000Y-77125000D03*
X137975000Y-77775000D03*
X137975000Y-78425000D03*
X142425000Y-78425000D03*
X142425000Y-77775000D03*
X142425000Y-77125000D03*
X142425000Y-76475000D03*
%TD*%
D18*
%TO.C,R10*%
X145260000Y-73250000D03*
X144240000Y-73250000D03*
%TD*%
D48*
%TO.C,C25*%
X158300000Y-83250000D03*
X156750000Y-83250000D03*
%TD*%
D24*
%TO.C,LED3*%
X147450000Y-69665000D03*
X148550000Y-69665000D03*
X148550000Y-67835000D03*
X147450000Y-67835000D03*
%TD*%
D15*
%TO.C,C8*%
X144270000Y-78500000D03*
X145230000Y-78500000D03*
%TD*%
D24*
%TO.C,LED6*%
X156450000Y-69665000D03*
X157550000Y-69665000D03*
X157550000Y-67835000D03*
X156450000Y-67835000D03*
%TD*%
D55*
%TO.C,C1*%
X138000000Y-105270000D03*
X138000000Y-106230000D03*
%TD*%
D21*
%TO.C,R6*%
X136250000Y-92960000D03*
X136250000Y-91940000D03*
%TD*%
D25*
%TO.C,C27*%
X158029999Y-99500000D03*
X157069999Y-99500000D03*
%TD*%
D12*
%TO.C,R28*%
X168049998Y-88425000D03*
X168049998Y-90075000D03*
%TD*%
D48*
%TO.C,C40*%
X166525000Y-83500000D03*
X164975000Y-83500000D03*
%TD*%
D56*
%TO.C,C21*%
X150550001Y-95500000D03*
X152449999Y-95500000D03*
%TD*%
D57*
%TO.C,C39*%
X193000000Y-70550000D03*
X193000000Y-69000000D03*
%TD*%
D19*
%TO.C,TP1*%
X133675000Y-73675000D03*
%TD*%
D21*
%TO.C,R3*%
X136250000Y-81710000D03*
X136250000Y-80690000D03*
%TD*%
D13*
%TO.C,IC5*%
X137975000Y-87725000D03*
X137975000Y-88375000D03*
X137975000Y-89025000D03*
X137975000Y-89675000D03*
X142425000Y-89675000D03*
X142425000Y-89025000D03*
X142425000Y-88375000D03*
X142425000Y-87725000D03*
%TD*%
D19*
%TO.C,TP8*%
X133675000Y-99925000D03*
%TD*%
D22*
%TO.C,C30*%
X163549999Y-93949998D03*
X163549999Y-92050000D03*
%TD*%
D58*
%TO.C,J2*%
X186000000Y-114455000D03*
X186800000Y-114455000D03*
D41*
X188000000Y-114455000D03*
X189000000Y-114455000D03*
X189500000Y-114455000D03*
X190500000Y-114455000D03*
D58*
X191700000Y-114455000D03*
X192500000Y-114455000D03*
X192500000Y-114455000D03*
X191700000Y-114455000D03*
D41*
X191000000Y-114455000D03*
X190000000Y-114455000D03*
X188500000Y-114455000D03*
X187500000Y-114455000D03*
D58*
X186800000Y-114455000D03*
X186000000Y-114455000D03*
D59*
X184930000Y-115370000D03*
D60*
X184930000Y-119550000D03*
D59*
X193570000Y-115370000D03*
D60*
X193570000Y-119550000D03*
%TD*%
D61*
%TO.C,J1*%
X174250000Y-69500000D03*
D62*
X176790000Y-69500000D03*
X179329999Y-69500000D03*
X181870000Y-69500000D03*
X184410000Y-69500000D03*
X186950000Y-69500000D03*
%TD*%
D63*
%TO.C,TH1*%
X173250000Y-85400000D03*
X173250000Y-83600000D03*
%TD*%
D64*
%TO.C,PS2*%
X181225000Y-115055000D03*
X181225000Y-112515000D03*
X181225000Y-94735000D03*
X196465000Y-92195000D03*
X196465000Y-97275000D03*
X196465000Y-112515000D03*
X196465000Y-115055000D03*
%TD*%
D65*
%TO.C,BT1*%
X176000000Y-81749999D03*
D66*
X176000000Y-83750000D03*
%TD*%
M02*
