%TF.GenerationSoftware,KiCad,Pcbnew,9.0.2*%
%TF.CreationDate,2025-12-06T18:07:06+09:00*%
%TF.ProjectId,ECG,4543472e-6b69-4636-9164-5f7063625858,rev?*%
%TF.SameCoordinates,Original*%
%TF.FileFunction,Copper,L2,Inr*%
%TF.FilePolarity,Positive*%
%FSLAX46Y46*%
G04 Gerber Fmt 4.6, Leading zero omitted, Abs format (unit mm)*
G04 Created by KiCad (PCBNEW 9.0.2) date 2025-12-06 18:07:06*
%MOMM*%
%LPD*%
G01*
G04 APERTURE LIST*
G04 Aperture macros list*
%AMRoundRect*
0 Rectangle with rounded corners*
0 $1 Rounding radius*
0 $2 $3 $4 $5 $6 $7 $8 $9 X,Y pos of 4 corners*
0 Add a 4 corners polygon primitive as box body*
4,1,4,$2,$3,$4,$5,$6,$7,$8,$9,$2,$3,0*
0 Add four circle primitives for the rounded corners*
1,1,$1+$1,$2,$3*
1,1,$1+$1,$4,$5*
1,1,$1+$1,$6,$7*
1,1,$1+$1,$8,$9*
0 Add four rect primitives between the rounded corners*
20,1,$1+$1,$2,$3,$4,$5,0*
20,1,$1+$1,$4,$5,$6,$7,0*
20,1,$1+$1,$6,$7,$8,$9,0*
20,1,$1+$1,$8,$9,$2,$3,0*%
G04 Aperture macros list end*
%TA.AperFunction,HeatsinkPad*%
%ADD10C,0.600000*%
%TD*%
%TA.AperFunction,ComponentPad*%
%ADD11O,1.000000X2.100000*%
%TD*%
%TA.AperFunction,ComponentPad*%
%ADD12O,1.000000X1.600000*%
%TD*%
%TA.AperFunction,ComponentPad*%
%ADD13C,1.320000*%
%TD*%
%TA.AperFunction,ComponentPad*%
%ADD14C,1.200000*%
%TD*%
%TA.AperFunction,ComponentPad*%
%ADD15RoundRect,0.250000X-0.625000X0.350000X-0.625000X-0.350000X0.625000X-0.350000X0.625000X0.350000X0*%
%TD*%
%TA.AperFunction,ComponentPad*%
%ADD16O,1.750000X1.200000*%
%TD*%
%TA.AperFunction,ViaPad*%
%ADD17C,0.600000*%
%TD*%
%TA.AperFunction,ViaPad*%
%ADD18C,0.800000*%
%TD*%
G04 APERTURE END LIST*
D10*
%TO.N,GNDPWR*%
%TO.C,U2*%
X187250000Y-81110000D03*
X186150000Y-81110000D03*
X187800000Y-81660000D03*
X186700000Y-81660000D03*
X185600000Y-81660000D03*
X187250000Y-82210000D03*
X186150000Y-82210000D03*
X187800000Y-82760000D03*
X186700000Y-82760000D03*
X185600000Y-82760000D03*
X187250000Y-83310000D03*
X186150000Y-83310000D03*
%TD*%
D11*
%TO.N,GND2*%
%TO.C,J2*%
X184930000Y-115370000D03*
D12*
X184930000Y-119550000D03*
D11*
X193570000Y-115370000D03*
D12*
X193570000Y-119550000D03*
%TD*%
D13*
%TO.N,Net-(IC11-TS{slash}MR)*%
%TO.C,TH1*%
X173250000Y-85400000D03*
%TO.N,GNDPWR*%
X173250000Y-83600000D03*
%TD*%
D14*
%TO.N,GND2*%
%TO.C,PS2*%
X181225000Y-115055000D03*
X181225000Y-112515000D03*
%TO.N,Net-(PS2-TRIM)*%
X181225000Y-94735000D03*
%TO.N,Net-(IC11-IN)*%
X196465000Y-92195000D03*
%TO.N,GNDPWR*%
X196465000Y-97275000D03*
%TO.N,Net-(PS2-+VIN_1)*%
X196465000Y-112515000D03*
X196465000Y-115055000D03*
%TD*%
D15*
%TO.N,Net-(BT1-+)*%
%TO.C,BT1*%
X176000000Y-81749999D03*
D16*
%TO.N,GNDPWR*%
X176000000Y-83750000D03*
%TD*%
D17*
%TO.N,+BATT*%
X165000000Y-91249998D03*
X172500000Y-81250000D03*
X176194835Y-95917473D03*
X172500000Y-73250000D03*
X167289359Y-90860705D03*
X177997499Y-95864382D03*
%TO.N,GNDPWR*%
X163700000Y-74900000D03*
X156500000Y-96250000D03*
X167650000Y-93600000D03*
X153750000Y-85000000D03*
X153750000Y-92500000D03*
X169308500Y-70408500D03*
D18*
X162500000Y-104000000D03*
D17*
X178500000Y-84750000D03*
X163750000Y-79500000D03*
X145400000Y-70466000D03*
X170500000Y-90999999D03*
X177000000Y-90150000D03*
X183250000Y-84500000D03*
X148250000Y-82250000D03*
X171750000Y-119500000D03*
X171999999Y-92499999D03*
X166000000Y-101500000D03*
X167650000Y-92900000D03*
X166950000Y-93600001D03*
X135750000Y-113250000D03*
X174249999Y-99250000D03*
X177050000Y-93900000D03*
X160750000Y-96900000D03*
X154300000Y-94900000D03*
X172000000Y-90999999D03*
X184500000Y-85750000D03*
X168750000Y-87500000D03*
X156500000Y-95250000D03*
X171500000Y-81000000D03*
X164050000Y-90999999D03*
X195600000Y-66300000D03*
X146000000Y-90000000D03*
X164228480Y-82726032D03*
X161700000Y-91000000D03*
X163300000Y-90999999D03*
X192250000Y-74000000D03*
X160950000Y-91000000D03*
X153750000Y-91250000D03*
X177200000Y-74500000D03*
X145849000Y-97881000D03*
X144000000Y-105250000D03*
X173500000Y-102250000D03*
X153500000Y-82250000D03*
X145977380Y-82897620D03*
X175249999Y-92105520D03*
X146000000Y-79750000D03*
X177600000Y-66500000D03*
X162150000Y-96900000D03*
X141750000Y-106250000D03*
X148400000Y-70466000D03*
X174250000Y-90250000D03*
X146000000Y-74750000D03*
X181000000Y-78500000D03*
X160400000Y-70466000D03*
X150250000Y-100750000D03*
X162150000Y-98100000D03*
X163250000Y-82500000D03*
X153000000Y-86250000D03*
D18*
X164500000Y-104000000D03*
D17*
X187750000Y-94250000D03*
X151500000Y-86250000D03*
X166950001Y-92900000D03*
X169000000Y-75000000D03*
X161100000Y-97500000D03*
X142000000Y-107750000D03*
X172000000Y-91749999D03*
X159250000Y-91250000D03*
X160750000Y-98100000D03*
X153250000Y-95500000D03*
X186250000Y-92750000D03*
X189000000Y-84000000D03*
X146000000Y-94750000D03*
X160800000Y-72900000D03*
X165750000Y-79500000D03*
X184800000Y-71100000D03*
X146000000Y-76000000D03*
X165049999Y-87549999D03*
X171000000Y-89000000D03*
X151400000Y-70466000D03*
X174250000Y-98500000D03*
X149500000Y-79000000D03*
X135750000Y-119500000D03*
X175250000Y-95250000D03*
X190400000Y-71100000D03*
X161800000Y-97500000D03*
X155500000Y-98250000D03*
X161450000Y-96900000D03*
X145709894Y-86481836D03*
X142400000Y-70466000D03*
X172500000Y-89000000D03*
X160400000Y-97500000D03*
X193000000Y-67800000D03*
X141595495Y-66345045D03*
X177750000Y-93900000D03*
X151500000Y-90250000D03*
X146000000Y-72250000D03*
X171250000Y-90999999D03*
X146000000Y-101000000D03*
X161450000Y-98100000D03*
X138500000Y-106750000D03*
X146000000Y-93500000D03*
X193700000Y-74000000D03*
X153950000Y-95500000D03*
X162850000Y-96900000D03*
X184325000Y-95475000D03*
X193700000Y-88750000D03*
X155750000Y-83250000D03*
X154300000Y-96100000D03*
X153600000Y-96100000D03*
X147750000Y-99250000D03*
X164750000Y-73250000D03*
X157400000Y-70466000D03*
X154400000Y-70466000D03*
X146000000Y-91000000D03*
X162500000Y-97500000D03*
X140325000Y-108250000D03*
X146000000Y-78500000D03*
X174250000Y-97750000D03*
X163200000Y-97500000D03*
X153600000Y-94900000D03*
X174750000Y-87500000D03*
X155500000Y-100000000D03*
X162850000Y-98100000D03*
X154650000Y-95500000D03*
X167000000Y-81000000D03*
X187000000Y-79500000D03*
X178250000Y-83750000D03*
X180800000Y-71300000D03*
D18*
%TO.N,VDD*%
X174000000Y-92500000D03*
D17*
X152000000Y-82250000D03*
X192250000Y-91750000D03*
D18*
X174000000Y-91500000D03*
X174000000Y-94500000D03*
X174000000Y-93500000D03*
D17*
X159250000Y-83250000D03*
D18*
X191000000Y-69125000D03*
D17*
%TO.N,VCC*%
X143500000Y-83750000D03*
X157100000Y-93000000D03*
X157450000Y-92400000D03*
X143500000Y-80225000D03*
X157800000Y-93000000D03*
X143500000Y-72700000D03*
X138000000Y-104250000D03*
X159200000Y-93000000D03*
X143500000Y-87725000D03*
X154000000Y-93500000D03*
X159900000Y-93000000D03*
X158500000Y-93000000D03*
X158150000Y-92400000D03*
X143500000Y-98950000D03*
X143519309Y-76450000D03*
X159550000Y-92400000D03*
X158850000Y-92400000D03*
X143500000Y-91450000D03*
X143500000Y-95200000D03*
%TO.N,VSS*%
X143500000Y-82175000D03*
X143500906Y-74675000D03*
X143500000Y-89708323D03*
X157000000Y-103150000D03*
X142750000Y-106500000D03*
X143500000Y-78425000D03*
X143500000Y-85925000D03*
X158400000Y-103150000D03*
X158050000Y-102550000D03*
X143500000Y-93400000D03*
X158750000Y-102550000D03*
X157700000Y-103150000D03*
X157350000Y-102550000D03*
X143500000Y-97175000D03*
X160850000Y-102550000D03*
X159100000Y-103150000D03*
X160150000Y-102550000D03*
X160500000Y-103150000D03*
X159450000Y-102550000D03*
X159800000Y-103150000D03*
X143500000Y-100925000D03*
X161200000Y-103150000D03*
%TO.N,+5V*%
X164900000Y-94800000D03*
X159601011Y-98431771D03*
X169650000Y-94699999D03*
X162640409Y-89890409D03*
X161450000Y-95099998D03*
X169650000Y-94000000D03*
X164900000Y-94099999D03*
%TO.N,GND*%
X150250000Y-84000000D03*
X148000000Y-97450000D03*
X146074000Y-85250000D03*
X147000000Y-87250000D03*
X148750000Y-83750000D03*
X150250000Y-92500000D03*
X149050000Y-96850000D03*
X149543141Y-94543141D03*
X150100000Y-97450000D03*
X148000000Y-96250000D03*
X147375000Y-85250000D03*
X148700000Y-96250000D03*
X147000000Y-89250000D03*
X149400000Y-96250000D03*
X149400000Y-97450000D03*
X150450000Y-96850000D03*
X147250000Y-92750000D03*
X149750000Y-96850000D03*
X148700000Y-97450000D03*
X148350000Y-96850000D03*
X147650000Y-96850000D03*
%TO.N,Net-(D5-A)*%
X177250000Y-73250000D03*
X179500000Y-81750000D03*
%TO.N,Net-(IC11-IN)*%
X182250000Y-96500000D03*
X176133736Y-92800002D03*
X191250000Y-93500000D03*
X174750000Y-86500000D03*
X187750000Y-95250000D03*
%TO.N,Net-(BT1-+)*%
X179424000Y-93100000D03*
X176719030Y-98014294D03*
%TO.N,Net-(PS2-+VIN_1)*%
X184945000Y-109500000D03*
X186945000Y-113300000D03*
X191845000Y-113400000D03*
%TO.N,GND2*%
X192500000Y-106750000D03*
X199000000Y-107000000D03*
X193000000Y-110700000D03*
X181250000Y-106750000D03*
X183670000Y-108620000D03*
X191290000Y-108640000D03*
X180750000Y-119500000D03*
%TO.N,Net-(U3-UD+)*%
X188849999Y-110819238D03*
X190004620Y-109535380D03*
%TO.N,SCL*%
X169250000Y-81250000D03*
X168250000Y-74500000D03*
%TO.N,PWR-OFF*%
X177798498Y-78400000D03*
X176156463Y-79402000D03*
%TO.N,Net-(LED10-DI)*%
X179604071Y-80523311D03*
X179750000Y-74000000D03*
%TO.N,Net-(U2-EN)*%
X162750000Y-75000000D03*
X162750000Y-77900000D03*
%TD*%
%TA.AperFunction,Conductor*%
%TO.N,VSS*%
G36*
X142281714Y-71004225D02*
G01*
X142288111Y-71005939D01*
X142327525Y-71016500D01*
X142327527Y-71016500D01*
X142472473Y-71016500D01*
X142472475Y-71016500D01*
X142513086Y-71005617D01*
X142518286Y-71004225D01*
X142550379Y-71000000D01*
X144431689Y-71000000D01*
X144498728Y-71019685D01*
X144519370Y-71036319D01*
X145429191Y-71946140D01*
X145444377Y-71973952D01*
X145461062Y-72000908D01*
X145461654Y-72005592D01*
X145462676Y-72007463D01*
X145465492Y-72035923D01*
X145464268Y-72108117D01*
X145460062Y-72138105D01*
X145449500Y-72177526D01*
X145449500Y-72322476D01*
X145455471Y-72344760D01*
X145459678Y-72378953D01*
X145250000Y-84749987D01*
X145250000Y-86144170D01*
X145233388Y-86206169D01*
X145196910Y-86269350D01*
X145196910Y-86269351D01*
X145159394Y-86409361D01*
X145159394Y-86554311D01*
X145193834Y-86682842D01*
X145196911Y-86694325D01*
X145196912Y-86694326D01*
X145233386Y-86757499D01*
X145250000Y-86819500D01*
X145250000Y-101250000D01*
X145750000Y-101750000D01*
X146750000Y-101750000D01*
X147963681Y-100536319D01*
X148025004Y-100502834D01*
X148051362Y-100500000D01*
X149585468Y-100500000D01*
X149652507Y-100519685D01*
X149698262Y-100572489D01*
X149708206Y-100641647D01*
X149705243Y-100656089D01*
X149699500Y-100677525D01*
X149699500Y-100822475D01*
X149737016Y-100962485D01*
X149737017Y-100962488D01*
X149809488Y-101088011D01*
X149809490Y-101088013D01*
X149809491Y-101088015D01*
X149911985Y-101190509D01*
X149911986Y-101190510D01*
X149911988Y-101190511D01*
X150037511Y-101262982D01*
X150037512Y-101262982D01*
X150037515Y-101262984D01*
X150177525Y-101300500D01*
X150177528Y-101300500D01*
X150322472Y-101300500D01*
X150322475Y-101300500D01*
X150462485Y-101262984D01*
X150588015Y-101190509D01*
X150690509Y-101088015D01*
X150762984Y-100962485D01*
X150800500Y-100822475D01*
X150800500Y-100677525D01*
X150794757Y-100656092D01*
X150796420Y-100586243D01*
X150835583Y-100528381D01*
X150899811Y-100500877D01*
X150914532Y-100500000D01*
X155231801Y-100500000D01*
X155278867Y-100512618D01*
X155280005Y-100509873D01*
X155287513Y-100512983D01*
X155287515Y-100512984D01*
X155427525Y-100550500D01*
X155427528Y-100550500D01*
X155572472Y-100550500D01*
X155572475Y-100550500D01*
X155712485Y-100512984D01*
X155712488Y-100512981D01*
X155719995Y-100509873D01*
X155721132Y-100512618D01*
X155768199Y-100500000D01*
X161376000Y-100500000D01*
X161443039Y-100519685D01*
X161488794Y-100572489D01*
X161500000Y-100624000D01*
X161500000Y-103376000D01*
X161480315Y-103443039D01*
X161427511Y-103488794D01*
X161376000Y-103500000D01*
X156499999Y-103500000D01*
X153036319Y-106963681D01*
X152974996Y-106997166D01*
X152948638Y-107000000D01*
X142801362Y-107000000D01*
X142734323Y-106980315D01*
X142713681Y-106963681D01*
X142302935Y-106552935D01*
X142269450Y-106491612D01*
X142270840Y-106433162D01*
X142300500Y-106322475D01*
X142300500Y-106177525D01*
X142262984Y-106037515D01*
X142190509Y-105911985D01*
X142088015Y-105809491D01*
X142088013Y-105809490D01*
X142088011Y-105809488D01*
X141962488Y-105737017D01*
X141962489Y-105737017D01*
X141947751Y-105733068D01*
X141822475Y-105699500D01*
X141677525Y-105699500D01*
X141566837Y-105729158D01*
X141554838Y-105728873D01*
X141543592Y-105733068D01*
X141520557Y-105728057D01*
X141496990Y-105727496D01*
X141485342Y-105720396D01*
X141475319Y-105718216D01*
X141447065Y-105697065D01*
X141286319Y-105536319D01*
X141252834Y-105474996D01*
X141250000Y-105448638D01*
X141250000Y-105177525D01*
X143449500Y-105177525D01*
X143449500Y-105322475D01*
X143483306Y-105448638D01*
X143487017Y-105462488D01*
X143559488Y-105588011D01*
X143559490Y-105588013D01*
X143559491Y-105588015D01*
X143661985Y-105690509D01*
X143661986Y-105690510D01*
X143661988Y-105690511D01*
X143787511Y-105762982D01*
X143787512Y-105762982D01*
X143787515Y-105762984D01*
X143927525Y-105800500D01*
X143927528Y-105800500D01*
X144072472Y-105800500D01*
X144072475Y-105800500D01*
X144212485Y-105762984D01*
X144338015Y-105690509D01*
X144440509Y-105588015D01*
X144512984Y-105462485D01*
X144550500Y-105322475D01*
X144550500Y-105177525D01*
X144512984Y-105037515D01*
X144440509Y-104911985D01*
X144338015Y-104809491D01*
X144338013Y-104809490D01*
X144338011Y-104809488D01*
X144212488Y-104737017D01*
X144212489Y-104737017D01*
X144201006Y-104733940D01*
X144072475Y-104699500D01*
X143927525Y-104699500D01*
X143798993Y-104733940D01*
X143787511Y-104737017D01*
X143661988Y-104809488D01*
X143661982Y-104809493D01*
X143559493Y-104911982D01*
X143559488Y-104911988D01*
X143487017Y-105037511D01*
X143487016Y-105037515D01*
X143449500Y-105177525D01*
X141250000Y-105177525D01*
X141250000Y-98877525D01*
X142949500Y-98877525D01*
X142949500Y-99022475D01*
X142987016Y-99162485D01*
X142987017Y-99162488D01*
X143059488Y-99288011D01*
X143059490Y-99288013D01*
X143059491Y-99288015D01*
X143161985Y-99390509D01*
X143161986Y-99390510D01*
X143161988Y-99390511D01*
X143287511Y-99462982D01*
X143287512Y-99462982D01*
X143287515Y-99462984D01*
X143427525Y-99500500D01*
X143427528Y-99500500D01*
X143572472Y-99500500D01*
X143572475Y-99500500D01*
X143712485Y-99462984D01*
X143838015Y-99390509D01*
X143940509Y-99288015D01*
X144012984Y-99162485D01*
X144050500Y-99022475D01*
X144050500Y-98877525D01*
X144012984Y-98737515D01*
X143940509Y-98611985D01*
X143838015Y-98509491D01*
X143838013Y-98509490D01*
X143838011Y-98509488D01*
X143712488Y-98437017D01*
X143712489Y-98437017D01*
X143691899Y-98431500D01*
X143572475Y-98399500D01*
X143427525Y-98399500D01*
X143308101Y-98431500D01*
X143287511Y-98437017D01*
X143161988Y-98509488D01*
X143161982Y-98509493D01*
X143059493Y-98611982D01*
X143059488Y-98611988D01*
X142987017Y-98737511D01*
X142987016Y-98737515D01*
X142949500Y-98877525D01*
X141250000Y-98877525D01*
X141250000Y-95127525D01*
X142949500Y-95127525D01*
X142949500Y-95272475D01*
X142962898Y-95322475D01*
X142987017Y-95412488D01*
X143059488Y-95538011D01*
X143059490Y-95538013D01*
X143059491Y-95538015D01*
X143161985Y-95640509D01*
X143161986Y-95640510D01*
X143161988Y-95640511D01*
X143287511Y-95712982D01*
X143287512Y-95712982D01*
X143287515Y-95712984D01*
X143427525Y-95750500D01*
X143427528Y-95750500D01*
X143572472Y-95750500D01*
X143572475Y-95750500D01*
X143712485Y-95712984D01*
X143838015Y-95640509D01*
X143940509Y-95538015D01*
X144012984Y-95412485D01*
X144050500Y-95272475D01*
X144050500Y-95127525D01*
X144012984Y-94987515D01*
X144010403Y-94983045D01*
X143940511Y-94861988D01*
X143940506Y-94861982D01*
X143838017Y-94759493D01*
X143838011Y-94759488D01*
X143712488Y-94687017D01*
X143712489Y-94687017D01*
X143701006Y-94683940D01*
X143572475Y-94649500D01*
X143427525Y-94649500D01*
X143298993Y-94683940D01*
X143287511Y-94687017D01*
X143161988Y-94759488D01*
X143161982Y-94759493D01*
X143059493Y-94861982D01*
X143059488Y-94861988D01*
X142987017Y-94987511D01*
X142987016Y-94987515D01*
X142949500Y-95127525D01*
X141250000Y-95127525D01*
X141250000Y-91377525D01*
X142949500Y-91377525D01*
X142949500Y-91522475D01*
X142967062Y-91588015D01*
X142987017Y-91662488D01*
X143059488Y-91788011D01*
X143059490Y-91788013D01*
X143059491Y-91788015D01*
X143161985Y-91890509D01*
X143161986Y-91890510D01*
X143161988Y-91890511D01*
X143287511Y-91962982D01*
X143287512Y-91962982D01*
X143287515Y-91962984D01*
X143427525Y-92000500D01*
X143427528Y-92000500D01*
X143572472Y-92000500D01*
X143572475Y-92000500D01*
X143712485Y-91962984D01*
X143838015Y-91890509D01*
X143940509Y-91788015D01*
X144012984Y-91662485D01*
X144050500Y-91522475D01*
X144050500Y-91377525D01*
X144012984Y-91237515D01*
X144011516Y-91234973D01*
X143940511Y-91111988D01*
X143940506Y-91111982D01*
X143838017Y-91009493D01*
X143838011Y-91009488D01*
X143712488Y-90937017D01*
X143712489Y-90937017D01*
X143701006Y-90933940D01*
X143572475Y-90899500D01*
X143427525Y-90899500D01*
X143298993Y-90933940D01*
X143287511Y-90937017D01*
X143161988Y-91009488D01*
X143161982Y-91009493D01*
X143059493Y-91111982D01*
X143059488Y-91111988D01*
X142987017Y-91237511D01*
X142987016Y-91237515D01*
X142949500Y-91377525D01*
X141250000Y-91377525D01*
X141250000Y-87652525D01*
X142949500Y-87652525D01*
X142949500Y-87797475D01*
X142950311Y-87800500D01*
X142987017Y-87937488D01*
X143059488Y-88063011D01*
X143059490Y-88063013D01*
X143059491Y-88063015D01*
X143161985Y-88165509D01*
X143161986Y-88165510D01*
X143161988Y-88165511D01*
X143287511Y-88237982D01*
X143287512Y-88237982D01*
X143287515Y-88237984D01*
X143427525Y-88275500D01*
X143427528Y-88275500D01*
X143572472Y-88275500D01*
X143572475Y-88275500D01*
X143712485Y-88237984D01*
X143838015Y-88165509D01*
X143940509Y-88063015D01*
X144012984Y-87937485D01*
X144050500Y-87797475D01*
X144050500Y-87652525D01*
X144012984Y-87512515D01*
X143940509Y-87386985D01*
X143838015Y-87284491D01*
X143838013Y-87284490D01*
X143838011Y-87284488D01*
X143712488Y-87212017D01*
X143712489Y-87212017D01*
X143701006Y-87208940D01*
X143572475Y-87174500D01*
X143427525Y-87174500D01*
X143298993Y-87208940D01*
X143287511Y-87212017D01*
X143161988Y-87284488D01*
X143161982Y-87284493D01*
X143059493Y-87386982D01*
X143059488Y-87386988D01*
X142987017Y-87512511D01*
X142987016Y-87512515D01*
X142949500Y-87652525D01*
X141250000Y-87652525D01*
X141250000Y-83677525D01*
X142949500Y-83677525D01*
X142949500Y-83822475D01*
X142987016Y-83962485D01*
X142987017Y-83962488D01*
X143059488Y-84088011D01*
X143059490Y-84088013D01*
X143059491Y-84088015D01*
X143161985Y-84190509D01*
X143161986Y-84190510D01*
X143161988Y-84190511D01*
X143287511Y-84262982D01*
X143287512Y-84262982D01*
X143287515Y-84262984D01*
X143427525Y-84300500D01*
X143427528Y-84300500D01*
X143572472Y-84300500D01*
X143572475Y-84300500D01*
X143712485Y-84262984D01*
X143838015Y-84190509D01*
X143940509Y-84088015D01*
X144012984Y-83962485D01*
X144050500Y-83822475D01*
X144050500Y-83677525D01*
X144012984Y-83537515D01*
X143983828Y-83487016D01*
X143940511Y-83411988D01*
X143940506Y-83411982D01*
X143838017Y-83309493D01*
X143838011Y-83309488D01*
X143712488Y-83237017D01*
X143712489Y-83237017D01*
X143701006Y-83233940D01*
X143572475Y-83199500D01*
X143427525Y-83199500D01*
X143298993Y-83233940D01*
X143287511Y-83237017D01*
X143161988Y-83309488D01*
X143161982Y-83309493D01*
X143059493Y-83411982D01*
X143059488Y-83411988D01*
X142987017Y-83537511D01*
X142987016Y-83537515D01*
X142949500Y-83677525D01*
X141250000Y-83677525D01*
X141250000Y-80152525D01*
X142949500Y-80152525D01*
X142949500Y-80297475D01*
X142950311Y-80300500D01*
X142987017Y-80437488D01*
X143059488Y-80563011D01*
X143059490Y-80563013D01*
X143059491Y-80563015D01*
X143161985Y-80665509D01*
X143161986Y-80665510D01*
X143161988Y-80665511D01*
X143287511Y-80737982D01*
X143287512Y-80737982D01*
X143287515Y-80737984D01*
X143427525Y-80775500D01*
X143427528Y-80775500D01*
X143572472Y-80775500D01*
X143572475Y-80775500D01*
X143712485Y-80737984D01*
X143838015Y-80665509D01*
X143940509Y-80563015D01*
X144012984Y-80437485D01*
X144050500Y-80297475D01*
X144050500Y-80152525D01*
X144012984Y-80012515D01*
X143940509Y-79886985D01*
X143838015Y-79784491D01*
X143838013Y-79784490D01*
X143838011Y-79784488D01*
X143712488Y-79712017D01*
X143712489Y-79712017D01*
X143701006Y-79708940D01*
X143572475Y-79674500D01*
X143427525Y-79674500D01*
X143298993Y-79708940D01*
X143287511Y-79712017D01*
X143161988Y-79784488D01*
X143161982Y-79784493D01*
X143059493Y-79886982D01*
X143059488Y-79886988D01*
X142987017Y-80012511D01*
X142987016Y-80012515D01*
X142949500Y-80152525D01*
X141250000Y-80152525D01*
X141250000Y-76377525D01*
X142968809Y-76377525D01*
X142968809Y-76522475D01*
X143006325Y-76662485D01*
X143006326Y-76662488D01*
X143078797Y-76788011D01*
X143078799Y-76788013D01*
X143078800Y-76788015D01*
X143181294Y-76890509D01*
X143181295Y-76890510D01*
X143181297Y-76890511D01*
X143306820Y-76962982D01*
X143306821Y-76962982D01*
X143306824Y-76962984D01*
X143446834Y-77000500D01*
X143446837Y-77000500D01*
X143591781Y-77000500D01*
X143591784Y-77000500D01*
X143731794Y-76962984D01*
X143857324Y-76890509D01*
X143959818Y-76788015D01*
X144032293Y-76662485D01*
X144069809Y-76522475D01*
X144069809Y-76377525D01*
X144032293Y-76237515D01*
X143959818Y-76111985D01*
X143857324Y-76009491D01*
X143857322Y-76009490D01*
X143857320Y-76009488D01*
X143731797Y-75937017D01*
X143731798Y-75937017D01*
X143720315Y-75933940D01*
X143591784Y-75899500D01*
X143446834Y-75899500D01*
X143318302Y-75933940D01*
X143306820Y-75937017D01*
X143181297Y-76009488D01*
X143181291Y-76009493D01*
X143078802Y-76111982D01*
X143078797Y-76111988D01*
X143006326Y-76237511D01*
X143006325Y-76237515D01*
X142968809Y-76377525D01*
X141250000Y-76377525D01*
X141250000Y-72627525D01*
X142949500Y-72627525D01*
X142949500Y-72772475D01*
X142964251Y-72827525D01*
X142987017Y-72912488D01*
X143059488Y-73038011D01*
X143059490Y-73038013D01*
X143059491Y-73038015D01*
X143161985Y-73140509D01*
X143161986Y-73140510D01*
X143161988Y-73140511D01*
X143287511Y-73212982D01*
X143287512Y-73212982D01*
X143287515Y-73212984D01*
X143427525Y-73250500D01*
X143427528Y-73250500D01*
X143572472Y-73250500D01*
X143572475Y-73250500D01*
X143712485Y-73212984D01*
X143838015Y-73140509D01*
X143940509Y-73038015D01*
X144012984Y-72912485D01*
X144050500Y-72772475D01*
X144050500Y-72627525D01*
X144012984Y-72487515D01*
X143996804Y-72459491D01*
X143940511Y-72361988D01*
X143940506Y-72361982D01*
X143838017Y-72259493D01*
X143838011Y-72259488D01*
X143712488Y-72187017D01*
X143712489Y-72187017D01*
X143677068Y-72177526D01*
X143572475Y-72149500D01*
X143427525Y-72149500D01*
X143322932Y-72177526D01*
X143287511Y-72187017D01*
X143161988Y-72259488D01*
X143161982Y-72259493D01*
X143059493Y-72361982D01*
X143059488Y-72361988D01*
X142987017Y-72487511D01*
X142987016Y-72487515D01*
X142949500Y-72627525D01*
X141250000Y-72627525D01*
X141250000Y-71124000D01*
X141269685Y-71056961D01*
X141322489Y-71011206D01*
X141374000Y-71000000D01*
X142249621Y-71000000D01*
X142281714Y-71004225D01*
G37*
%TD.AperFunction*%
%TD*%
%TA.AperFunction,Conductor*%
%TO.N,GNDPWR*%
G36*
X195943039Y-66020185D02*
G01*
X195988794Y-66072989D01*
X196000000Y-66124500D01*
X196000000Y-66407104D01*
X195980315Y-66474143D01*
X195938000Y-66514491D01*
X195747013Y-66624757D01*
X195746997Y-66624768D01*
X195512959Y-66804352D01*
X195512952Y-66804358D01*
X195304358Y-67012952D01*
X195159690Y-67201487D01*
X195103262Y-67242689D01*
X195061314Y-67250000D01*
X194000000Y-67250000D01*
X194000000Y-95250000D01*
X199375500Y-95250000D01*
X199442539Y-95269685D01*
X199488294Y-95322489D01*
X199499500Y-95374000D01*
X199499500Y-98376000D01*
X199479815Y-98443039D01*
X199427011Y-98488794D01*
X199375500Y-98500000D01*
X197000257Y-98500000D01*
X196933218Y-98480315D01*
X196887463Y-98427511D01*
X196877519Y-98358353D01*
X196906544Y-98294797D01*
X196943962Y-98265515D01*
X197041525Y-98215803D01*
X197047736Y-98211289D01*
X197047737Y-98211289D01*
X196465001Y-97628553D01*
X196465000Y-97628553D01*
X195882261Y-98211289D01*
X195882262Y-98211290D01*
X195888471Y-98215801D01*
X195986038Y-98265515D01*
X196036834Y-98313490D01*
X196053629Y-98381311D01*
X196031091Y-98447446D01*
X195976376Y-98490897D01*
X195929743Y-98500000D01*
X192749999Y-98500000D01*
X192286319Y-98963681D01*
X192224996Y-98997166D01*
X192198638Y-99000000D01*
X182049665Y-99000000D01*
X181982626Y-98980315D01*
X181964067Y-98965716D01*
X181005218Y-98050880D01*
X180695778Y-98085095D01*
X180081749Y-98188008D01*
X179475531Y-98329892D01*
X179475525Y-98329893D01*
X178879584Y-98510173D01*
X178296358Y-98728114D01*
X177728235Y-98982822D01*
X177177534Y-99273255D01*
X177177530Y-99273257D01*
X176646471Y-99598244D01*
X176137239Y-99956451D01*
X176137208Y-99956474D01*
X175651895Y-100346424D01*
X175651888Y-100346430D01*
X175651881Y-100346436D01*
X175368816Y-100605276D01*
X175240499Y-100722612D01*
X175192409Y-100766586D01*
X174760681Y-101215198D01*
X174760676Y-101215203D01*
X174760673Y-101215207D01*
X174358464Y-101690436D01*
X174172920Y-101940415D01*
X173987381Y-102190386D01*
X173987376Y-102190394D01*
X173648965Y-102712977D01*
X173648951Y-102713001D01*
X173344579Y-103256108D01*
X173344576Y-103256115D01*
X173344574Y-103256119D01*
X173252610Y-103447985D01*
X173075462Y-103817571D01*
X173075462Y-103817572D01*
X172842730Y-104395036D01*
X172842725Y-104395051D01*
X172647320Y-104986173D01*
X172647309Y-104986210D01*
X172602629Y-105157327D01*
X172566647Y-105217219D01*
X172503996Y-105248149D01*
X172482652Y-105250000D01*
X162301362Y-105250000D01*
X162234323Y-105230315D01*
X162213681Y-105213681D01*
X161786319Y-104786319D01*
X161752834Y-104724996D01*
X161750000Y-104698638D01*
X161750000Y-103472472D01*
X161749626Y-103471788D01*
X161748054Y-103427786D01*
X161755500Y-103376000D01*
X161755500Y-100624000D01*
X161749661Y-100569687D01*
X161738455Y-100518176D01*
X161731219Y-100491802D01*
X161726137Y-100482877D01*
X161681894Y-100405181D01*
X161681890Y-100405176D01*
X161681888Y-100405172D01*
X161638990Y-100355665D01*
X161636136Y-100352371D01*
X161603359Y-100320743D01*
X161515022Y-100274534D01*
X161515022Y-100274533D01*
X161447990Y-100254851D01*
X161447978Y-100254848D01*
X161376001Y-100244500D01*
X161376000Y-100244500D01*
X155768199Y-100244500D01*
X155768190Y-100244500D01*
X155702050Y-100253212D01*
X155702043Y-100253213D01*
X155702039Y-100253214D01*
X155702033Y-100253215D01*
X155702031Y-100253216D01*
X155698274Y-100254223D01*
X155696747Y-100254622D01*
X155646670Y-100267362D01*
X155646356Y-100266190D01*
X155553858Y-100290975D01*
X155553084Y-100291172D01*
X155551913Y-100291129D01*
X155522511Y-100295000D01*
X155477489Y-100295000D01*
X155445395Y-100290775D01*
X155353644Y-100266190D01*
X155319115Y-100256938D01*
X155301719Y-100254222D01*
X155297969Y-100253216D01*
X155297951Y-100253213D01*
X155231804Y-100244500D01*
X155231801Y-100244500D01*
X150914532Y-100244500D01*
X150914529Y-100244500D01*
X150899357Y-100244951D01*
X150899342Y-100244951D01*
X150899338Y-100244952D01*
X150891611Y-100245412D01*
X150884615Y-100245829D01*
X150884609Y-100245830D01*
X150799232Y-100266006D01*
X150799231Y-100266006D01*
X150735016Y-100293504D01*
X150734982Y-100293521D01*
X150694905Y-100315096D01*
X150623992Y-100385169D01*
X150584829Y-100443031D01*
X150562763Y-100482876D01*
X150540991Y-100580163D01*
X150539329Y-100650013D01*
X150539329Y-100650015D01*
X150544123Y-100690105D01*
X150545000Y-100704827D01*
X150545000Y-100772509D01*
X150540774Y-100804605D01*
X150529119Y-100848099D01*
X150516732Y-100878004D01*
X150494219Y-100916997D01*
X150474513Y-100942677D01*
X150442677Y-100974513D01*
X150416996Y-100994219D01*
X150378001Y-101016733D01*
X150348100Y-101029119D01*
X150348098Y-101029120D01*
X150327951Y-101034518D01*
X150304606Y-101040774D01*
X150272513Y-101045000D01*
X150227489Y-101045000D01*
X150195393Y-101040774D01*
X150151900Y-101029119D01*
X150121997Y-101016733D01*
X150102500Y-101005477D01*
X150083002Y-100994219D01*
X150057325Y-100974516D01*
X150025477Y-100942668D01*
X150005776Y-100916993D01*
X149983267Y-100878007D01*
X149983266Y-100878004D01*
X149970879Y-100848098D01*
X149959225Y-100804603D01*
X149955000Y-100772511D01*
X149955000Y-100722612D01*
X149957530Y-100697690D01*
X149957581Y-100697440D01*
X149958493Y-100692997D01*
X149961105Y-100605283D01*
X149951161Y-100536125D01*
X149946919Y-100518176D01*
X149940688Y-100491807D01*
X149940687Y-100491802D01*
X149891356Y-100405172D01*
X149848458Y-100355665D01*
X149845604Y-100352371D01*
X149812827Y-100320743D01*
X149724490Y-100274534D01*
X149724490Y-100274533D01*
X149657458Y-100254851D01*
X149657446Y-100254848D01*
X149585469Y-100244500D01*
X149585468Y-100244500D01*
X148051362Y-100244500D01*
X148051361Y-100244500D01*
X148024065Y-100245963D01*
X148024060Y-100245963D01*
X148024048Y-100245964D01*
X148024040Y-100245964D01*
X148024011Y-100245967D01*
X147997689Y-100248797D01*
X147997687Y-100248798D01*
X147902558Y-100278586D01*
X147902548Y-100278590D01*
X147841238Y-100312068D01*
X147841230Y-100312073D01*
X147783019Y-100355649D01*
X147783001Y-100355665D01*
X146680487Y-101458181D01*
X146619164Y-101491666D01*
X146592806Y-101494500D01*
X145907194Y-101494500D01*
X145840155Y-101474815D01*
X145819513Y-101458181D01*
X145541819Y-101180487D01*
X145508334Y-101119164D01*
X145505500Y-101092806D01*
X145505500Y-98359296D01*
X159050511Y-98359296D01*
X159050511Y-98504246D01*
X159088027Y-98644256D01*
X159088028Y-98644259D01*
X159160499Y-98769782D01*
X159160501Y-98769784D01*
X159160502Y-98769786D01*
X159262996Y-98872280D01*
X159262997Y-98872281D01*
X159262999Y-98872282D01*
X159388522Y-98944753D01*
X159388523Y-98944753D01*
X159388526Y-98944755D01*
X159528536Y-98982271D01*
X159528539Y-98982271D01*
X159673483Y-98982271D01*
X159673486Y-98982271D01*
X159813496Y-98944755D01*
X159939026Y-98872280D01*
X160041520Y-98769786D01*
X160113995Y-98644256D01*
X160151511Y-98504246D01*
X160151511Y-98359296D01*
X160113995Y-98219286D01*
X160109378Y-98211290D01*
X160041522Y-98093759D01*
X160041517Y-98093753D01*
X159939028Y-97991264D01*
X159939022Y-97991259D01*
X159853390Y-97941819D01*
X176168530Y-97941819D01*
X176168530Y-98086769D01*
X176203105Y-98215803D01*
X176206047Y-98226782D01*
X176278518Y-98352305D01*
X176278520Y-98352307D01*
X176278521Y-98352309D01*
X176381015Y-98454803D01*
X176381016Y-98454804D01*
X176381018Y-98454805D01*
X176506541Y-98527276D01*
X176506542Y-98527276D01*
X176506545Y-98527278D01*
X176646555Y-98564794D01*
X176646558Y-98564794D01*
X176791502Y-98564794D01*
X176791505Y-98564794D01*
X176931515Y-98527278D01*
X177057045Y-98454803D01*
X177159539Y-98352309D01*
X177232014Y-98226779D01*
X177269530Y-98086769D01*
X177269530Y-97941819D01*
X177232014Y-97801809D01*
X177159539Y-97676279D01*
X177057045Y-97573785D01*
X177057043Y-97573784D01*
X177057041Y-97573782D01*
X176931518Y-97501311D01*
X176931519Y-97501311D01*
X176888951Y-97489905D01*
X176791505Y-97463794D01*
X176646555Y-97463794D01*
X176549109Y-97489905D01*
X176506541Y-97501311D01*
X176381018Y-97573782D01*
X176381012Y-97573787D01*
X176278523Y-97676276D01*
X176278518Y-97676282D01*
X176206047Y-97801805D01*
X176206046Y-97801809D01*
X176168530Y-97941819D01*
X159853390Y-97941819D01*
X159813499Y-97918788D01*
X159813500Y-97918788D01*
X159802017Y-97915711D01*
X159673486Y-97881271D01*
X159528536Y-97881271D01*
X159400004Y-97915711D01*
X159388522Y-97918788D01*
X159262999Y-97991259D01*
X159262993Y-97991264D01*
X159160504Y-98093753D01*
X159160499Y-98093759D01*
X159088028Y-98219282D01*
X159088027Y-98219286D01*
X159050511Y-98359296D01*
X145505500Y-98359296D01*
X145505500Y-96777525D01*
X147099500Y-96777525D01*
X147099500Y-96922475D01*
X147133805Y-97050500D01*
X147137017Y-97062488D01*
X147209488Y-97188011D01*
X147209490Y-97188013D01*
X147209491Y-97188015D01*
X147311985Y-97290509D01*
X147364932Y-97321078D01*
X147387499Y-97334107D01*
X147435715Y-97384673D01*
X147449500Y-97441494D01*
X147449500Y-97522475D01*
X147470581Y-97601148D01*
X147487017Y-97662488D01*
X147559488Y-97788011D01*
X147559490Y-97788013D01*
X147559491Y-97788015D01*
X147661985Y-97890509D01*
X147661986Y-97890510D01*
X147661988Y-97890511D01*
X147787511Y-97962982D01*
X147787512Y-97962982D01*
X147787515Y-97962984D01*
X147927525Y-98000500D01*
X147927528Y-98000500D01*
X148072472Y-98000500D01*
X148072475Y-98000500D01*
X148212485Y-97962984D01*
X148288001Y-97919384D01*
X148355899Y-97902912D01*
X148411998Y-97919384D01*
X148487515Y-97962984D01*
X148627525Y-98000500D01*
X148627528Y-98000500D01*
X148772472Y-98000500D01*
X148772475Y-98000500D01*
X148912485Y-97962984D01*
X148988001Y-97919384D01*
X149055899Y-97902912D01*
X149111998Y-97919384D01*
X149187515Y-97962984D01*
X149327525Y-98000500D01*
X149327528Y-98000500D01*
X149472472Y-98000500D01*
X149472475Y-98000500D01*
X149612485Y-97962984D01*
X149688001Y-97919384D01*
X149755899Y-97902912D01*
X149811998Y-97919384D01*
X149887515Y-97962984D01*
X150027525Y-98000500D01*
X150027528Y-98000500D01*
X150172472Y-98000500D01*
X150172475Y-98000500D01*
X150312485Y-97962984D01*
X150438015Y-97890509D01*
X150540509Y-97788015D01*
X150612984Y-97662485D01*
X150650500Y-97522475D01*
X150650500Y-97441494D01*
X150670185Y-97374455D01*
X150712501Y-97334107D01*
X150788015Y-97290509D01*
X150890096Y-97188428D01*
X195365000Y-97188428D01*
X195365000Y-97361571D01*
X195392085Y-97532584D01*
X195445592Y-97697259D01*
X195524196Y-97851525D01*
X195528709Y-97857736D01*
X195528709Y-97857737D01*
X196111446Y-97275001D01*
X196111446Y-97274999D01*
X196065369Y-97228922D01*
X196115000Y-97228922D01*
X196115000Y-97321078D01*
X196138852Y-97410095D01*
X196184930Y-97489905D01*
X196250095Y-97555070D01*
X196329905Y-97601148D01*
X196418922Y-97625000D01*
X196511078Y-97625000D01*
X196600095Y-97601148D01*
X196679905Y-97555070D01*
X196745070Y-97489905D01*
X196791148Y-97410095D01*
X196815000Y-97321078D01*
X196815000Y-97274999D01*
X196818553Y-97274999D01*
X196818553Y-97275000D01*
X197401289Y-97857736D01*
X197405803Y-97851525D01*
X197484408Y-97697257D01*
X197537914Y-97532584D01*
X197565000Y-97361571D01*
X197565000Y-97188428D01*
X197537914Y-97017415D01*
X197484408Y-96852742D01*
X197405801Y-96698471D01*
X197401290Y-96692262D01*
X197401289Y-96692261D01*
X196818553Y-97274999D01*
X196815000Y-97274999D01*
X196815000Y-97228922D01*
X196791148Y-97139905D01*
X196745070Y-97060095D01*
X196679905Y-96994930D01*
X196600095Y-96948852D01*
X196511078Y-96925000D01*
X196418922Y-96925000D01*
X196329905Y-96948852D01*
X196250095Y-96994930D01*
X196184930Y-97060095D01*
X196138852Y-97139905D01*
X196115000Y-97228922D01*
X196065369Y-97228922D01*
X195528709Y-96692261D01*
X195528708Y-96692261D01*
X195524203Y-96698463D01*
X195524193Y-96698480D01*
X195445592Y-96852740D01*
X195392085Y-97017415D01*
X195365000Y-97188428D01*
X150890096Y-97188428D01*
X150890509Y-97188015D01*
X150962984Y-97062485D01*
X151000500Y-96922475D01*
X151000500Y-96777525D01*
X150962984Y-96637515D01*
X150925431Y-96572472D01*
X150890511Y-96511988D01*
X150890506Y-96511982D01*
X150788017Y-96409493D01*
X150788011Y-96409488D01*
X150662488Y-96337017D01*
X150662489Y-96337017D01*
X150619671Y-96325544D01*
X150522475Y-96299500D01*
X150377525Y-96299500D01*
X150280329Y-96325544D01*
X150237510Y-96337017D01*
X150237507Y-96337018D01*
X150161998Y-96380614D01*
X150150333Y-96383443D01*
X150140555Y-96390407D01*
X150117008Y-96391528D01*
X150094098Y-96397087D01*
X150081010Y-96393243D01*
X150070764Y-96393732D01*
X150037999Y-96380614D01*
X150012500Y-96365892D01*
X149964284Y-96315325D01*
X149950500Y-96258505D01*
X149950500Y-96177527D01*
X149950500Y-96177525D01*
X149912984Y-96037515D01*
X149885519Y-95989945D01*
X149840511Y-95911988D01*
X149840506Y-95911982D01*
X149773522Y-95844998D01*
X175644335Y-95844998D01*
X175644335Y-95989948D01*
X175667626Y-96076870D01*
X175681852Y-96129961D01*
X175754323Y-96255484D01*
X175754325Y-96255486D01*
X175754326Y-96255488D01*
X175856820Y-96357982D01*
X175856821Y-96357983D01*
X175856823Y-96357984D01*
X175982346Y-96430455D01*
X175982347Y-96430455D01*
X175982350Y-96430457D01*
X176122360Y-96467973D01*
X176122363Y-96467973D01*
X176267307Y-96467973D01*
X176267310Y-96467973D01*
X176407320Y-96430457D01*
X176412398Y-96427525D01*
X181699500Y-96427525D01*
X181699500Y-96572475D01*
X181737016Y-96712485D01*
X181737017Y-96712488D01*
X181809488Y-96838011D01*
X181809490Y-96838013D01*
X181809491Y-96838015D01*
X181911985Y-96940509D01*
X181911986Y-96940510D01*
X181911988Y-96940511D01*
X182037511Y-97012982D01*
X182037512Y-97012982D01*
X182037515Y-97012984D01*
X182177525Y-97050500D01*
X182177528Y-97050500D01*
X182322472Y-97050500D01*
X182322475Y-97050500D01*
X182462485Y-97012984D01*
X182588015Y-96940509D01*
X182690509Y-96838015D01*
X182762984Y-96712485D01*
X182800500Y-96572475D01*
X182800500Y-96427525D01*
X182776701Y-96338708D01*
X195882261Y-96338708D01*
X195882261Y-96338709D01*
X196465000Y-96921446D01*
X196465001Y-96921446D01*
X197047737Y-96338709D01*
X197041525Y-96334196D01*
X196887259Y-96255592D01*
X196722584Y-96202085D01*
X196551571Y-96175000D01*
X196378429Y-96175000D01*
X196207415Y-96202085D01*
X196042740Y-96255592D01*
X195888480Y-96334193D01*
X195888463Y-96334203D01*
X195882261Y-96338708D01*
X182776701Y-96338708D01*
X182762984Y-96287515D01*
X182744494Y-96255490D01*
X182690511Y-96161988D01*
X182690506Y-96161982D01*
X182588017Y-96059493D01*
X182588011Y-96059488D01*
X182462488Y-95987017D01*
X182462489Y-95987017D01*
X182451006Y-95983940D01*
X182322475Y-95949500D01*
X182177525Y-95949500D01*
X182048993Y-95983940D01*
X182037511Y-95987017D01*
X181911988Y-96059488D01*
X181911982Y-96059493D01*
X181809493Y-96161982D01*
X181809488Y-96161988D01*
X181737017Y-96287511D01*
X181737016Y-96287515D01*
X181699500Y-96427525D01*
X176412398Y-96427525D01*
X176532850Y-96357982D01*
X176635344Y-96255488D01*
X176707819Y-96129958D01*
X176745335Y-95989948D01*
X176745335Y-95844998D01*
X176731109Y-95791907D01*
X177446999Y-95791907D01*
X177446999Y-95936857D01*
X177479859Y-96059491D01*
X177484516Y-96076870D01*
X177556987Y-96202393D01*
X177556989Y-96202395D01*
X177556990Y-96202397D01*
X177659484Y-96304891D01*
X177659485Y-96304892D01*
X177659487Y-96304893D01*
X177785010Y-96377364D01*
X177785011Y-96377364D01*
X177785014Y-96377366D01*
X177925024Y-96414882D01*
X177925027Y-96414882D01*
X178069971Y-96414882D01*
X178069974Y-96414882D01*
X178209984Y-96377366D01*
X178335514Y-96304891D01*
X178438008Y-96202397D01*
X178510483Y-96076867D01*
X178547999Y-95936857D01*
X178547999Y-95791907D01*
X178510483Y-95651897D01*
X178509675Y-95650498D01*
X178438010Y-95526370D01*
X178438005Y-95526364D01*
X178335516Y-95423875D01*
X178335510Y-95423870D01*
X178209987Y-95351399D01*
X178209988Y-95351399D01*
X178198505Y-95348322D01*
X178069974Y-95313882D01*
X177925024Y-95313882D01*
X177796492Y-95348322D01*
X177785010Y-95351399D01*
X177659487Y-95423870D01*
X177659481Y-95423875D01*
X177556992Y-95526364D01*
X177556987Y-95526370D01*
X177484516Y-95651893D01*
X177484515Y-95651897D01*
X177446999Y-95791907D01*
X176731109Y-95791907D01*
X176707819Y-95704988D01*
X176704650Y-95699500D01*
X176635346Y-95579461D01*
X176635341Y-95579455D01*
X176532852Y-95476966D01*
X176532846Y-95476961D01*
X176407323Y-95404490D01*
X176407324Y-95404490D01*
X176374243Y-95395626D01*
X176267310Y-95366973D01*
X176122360Y-95366973D01*
X176015427Y-95395626D01*
X175982346Y-95404490D01*
X175856823Y-95476961D01*
X175856817Y-95476966D01*
X175754328Y-95579455D01*
X175754323Y-95579461D01*
X175681852Y-95704984D01*
X175681851Y-95704988D01*
X175644335Y-95844998D01*
X149773522Y-95844998D01*
X149738017Y-95809493D01*
X149738011Y-95809488D01*
X149612488Y-95737017D01*
X149612489Y-95737017D01*
X149601006Y-95733940D01*
X149472475Y-95699500D01*
X149327525Y-95699500D01*
X149198993Y-95733940D01*
X149187511Y-95737017D01*
X149112000Y-95780614D01*
X149044100Y-95797087D01*
X148988000Y-95780614D01*
X148912488Y-95737017D01*
X148912489Y-95737017D01*
X148901006Y-95733940D01*
X148772475Y-95699500D01*
X148627525Y-95699500D01*
X148498993Y-95733940D01*
X148487511Y-95737017D01*
X148412000Y-95780614D01*
X148344100Y-95797087D01*
X148288000Y-95780614D01*
X148212488Y-95737017D01*
X148212489Y-95737017D01*
X148201006Y-95733940D01*
X148072475Y-95699500D01*
X147927525Y-95699500D01*
X147798993Y-95733940D01*
X147787511Y-95737017D01*
X147661988Y-95809488D01*
X147661982Y-95809493D01*
X147559493Y-95911982D01*
X147559488Y-95911988D01*
X147487017Y-96037511D01*
X147487016Y-96037515D01*
X147449500Y-96177525D01*
X147449500Y-96177527D01*
X147449500Y-96258505D01*
X147429815Y-96325544D01*
X147387500Y-96365892D01*
X147311988Y-96409489D01*
X147311982Y-96409493D01*
X147209493Y-96511982D01*
X147209488Y-96511988D01*
X147137017Y-96637511D01*
X147137016Y-96637515D01*
X147099500Y-96777525D01*
X145505500Y-96777525D01*
X145505500Y-94470666D01*
X148992641Y-94470666D01*
X148992641Y-94615616D01*
X149025171Y-94737017D01*
X149030158Y-94755629D01*
X149102629Y-94881152D01*
X149102631Y-94881154D01*
X149102632Y-94881156D01*
X149205126Y-94983650D01*
X149205127Y-94983651D01*
X149205129Y-94983652D01*
X149330652Y-95056123D01*
X149330653Y-95056123D01*
X149330656Y-95056125D01*
X149470666Y-95093641D01*
X149470669Y-95093641D01*
X149615613Y-95093641D01*
X149615616Y-95093641D01*
X149755626Y-95056125D01*
X149805166Y-95027523D01*
X160899500Y-95027523D01*
X160899500Y-95172473D01*
X160927552Y-95277162D01*
X160937017Y-95312486D01*
X161009488Y-95438009D01*
X161009490Y-95438011D01*
X161009491Y-95438013D01*
X161111985Y-95540507D01*
X161111986Y-95540508D01*
X161111988Y-95540509D01*
X161237511Y-95612980D01*
X161237512Y-95612980D01*
X161237515Y-95612982D01*
X161377525Y-95650498D01*
X161377528Y-95650498D01*
X161522472Y-95650498D01*
X161522475Y-95650498D01*
X161662485Y-95612982D01*
X161788015Y-95540507D01*
X161890509Y-95438013D01*
X161962984Y-95312483D01*
X162000500Y-95172473D01*
X162000500Y-95027523D01*
X161962984Y-94887513D01*
X161959311Y-94881152D01*
X161890511Y-94761986D01*
X161890506Y-94761980D01*
X161788017Y-94659491D01*
X161788011Y-94659486D01*
X161662488Y-94587015D01*
X161662489Y-94587015D01*
X161651006Y-94583938D01*
X161522475Y-94549498D01*
X161377525Y-94549498D01*
X161248993Y-94583938D01*
X161237511Y-94587015D01*
X161111988Y-94659486D01*
X161111982Y-94659491D01*
X161009493Y-94761980D01*
X161009488Y-94761986D01*
X160937017Y-94887509D01*
X160937016Y-94887513D01*
X160899500Y-95027523D01*
X149805166Y-95027523D01*
X149881156Y-94983650D01*
X149983650Y-94881156D01*
X150056125Y-94755626D01*
X150093641Y-94615616D01*
X150093641Y-94470666D01*
X150056125Y-94330656D01*
X150045633Y-94312484D01*
X149983652Y-94205129D01*
X149983647Y-94205123D01*
X149881158Y-94102634D01*
X149881152Y-94102629D01*
X149755629Y-94030158D01*
X149755630Y-94030158D01*
X149741564Y-94026389D01*
X149615616Y-93992641D01*
X149470666Y-93992641D01*
X149344718Y-94026389D01*
X149330652Y-94030158D01*
X149205129Y-94102629D01*
X149205123Y-94102634D01*
X149102634Y-94205123D01*
X149102629Y-94205129D01*
X149030158Y-94330652D01*
X149030157Y-94330656D01*
X148992641Y-94470666D01*
X145505500Y-94470666D01*
X145505500Y-93427525D01*
X153449500Y-93427525D01*
X153449500Y-93572475D01*
X153487016Y-93712485D01*
X153487017Y-93712488D01*
X153559488Y-93838011D01*
X153559490Y-93838013D01*
X153559491Y-93838015D01*
X153661985Y-93940509D01*
X153661986Y-93940510D01*
X153661988Y-93940511D01*
X153787511Y-94012982D01*
X153787512Y-94012982D01*
X153787515Y-94012984D01*
X153927525Y-94050500D01*
X153927528Y-94050500D01*
X154072472Y-94050500D01*
X154072475Y-94050500D01*
X154212485Y-94012984D01*
X154338015Y-93940509D01*
X154440509Y-93838015D01*
X154512984Y-93712485D01*
X154550500Y-93572475D01*
X154550500Y-93427525D01*
X154512984Y-93287515D01*
X154485847Y-93240513D01*
X154440511Y-93161988D01*
X154440506Y-93161982D01*
X154338017Y-93059493D01*
X154338015Y-93059491D01*
X154282652Y-93027527D01*
X154281367Y-93026785D01*
X154212485Y-92987016D01*
X154072475Y-92949500D01*
X153927525Y-92949500D01*
X153798993Y-92983940D01*
X153787511Y-92987017D01*
X153661988Y-93059488D01*
X153661982Y-93059493D01*
X153559493Y-93161982D01*
X153559488Y-93161988D01*
X153487017Y-93287511D01*
X153487016Y-93287515D01*
X153449500Y-93427525D01*
X145505500Y-93427525D01*
X145505500Y-92677525D01*
X146699500Y-92677525D01*
X146699500Y-92822475D01*
X146731128Y-92940511D01*
X146737017Y-92962488D01*
X146809488Y-93088011D01*
X146809490Y-93088013D01*
X146809491Y-93088015D01*
X146911985Y-93190509D01*
X146911986Y-93190510D01*
X146911988Y-93190511D01*
X147037511Y-93262982D01*
X147037512Y-93262982D01*
X147037515Y-93262984D01*
X147177525Y-93300500D01*
X147177528Y-93300500D01*
X147322473Y-93300500D01*
X147322475Y-93300500D01*
X147462485Y-93262984D01*
X147588015Y-93190509D01*
X147690509Y-93088015D01*
X147762984Y-92962485D01*
X147800500Y-92822475D01*
X147800500Y-92677525D01*
X147762984Y-92537515D01*
X147699481Y-92427525D01*
X149699500Y-92427525D01*
X149699500Y-92572475D01*
X149737016Y-92712485D01*
X149737017Y-92712488D01*
X149809488Y-92838011D01*
X149809490Y-92838013D01*
X149809491Y-92838015D01*
X149911985Y-92940509D01*
X149911986Y-92940510D01*
X149911988Y-92940511D01*
X150037511Y-93012982D01*
X150037512Y-93012982D01*
X150037515Y-93012984D01*
X150177525Y-93050500D01*
X150177528Y-93050500D01*
X150322472Y-93050500D01*
X150322475Y-93050500D01*
X150462485Y-93012984D01*
X150588015Y-92940509D01*
X150600999Y-92927525D01*
X156549500Y-92927525D01*
X156549500Y-93072475D01*
X156581128Y-93190511D01*
X156587017Y-93212488D01*
X156659488Y-93338011D01*
X156659490Y-93338013D01*
X156659491Y-93338015D01*
X156761985Y-93440509D01*
X156761986Y-93440510D01*
X156761988Y-93440511D01*
X156887511Y-93512982D01*
X156887512Y-93512982D01*
X156887515Y-93512984D01*
X157027525Y-93550500D01*
X157027528Y-93550500D01*
X157172472Y-93550500D01*
X157172475Y-93550500D01*
X157312485Y-93512984D01*
X157388001Y-93469384D01*
X157455899Y-93452912D01*
X157511998Y-93469384D01*
X157587515Y-93512984D01*
X157727525Y-93550500D01*
X157727528Y-93550500D01*
X157872472Y-93550500D01*
X157872475Y-93550500D01*
X158012485Y-93512984D01*
X158088001Y-93469384D01*
X158155899Y-93452912D01*
X158211998Y-93469384D01*
X158287515Y-93512984D01*
X158427525Y-93550500D01*
X158427528Y-93550500D01*
X158572472Y-93550500D01*
X158572475Y-93550500D01*
X158712485Y-93512984D01*
X158788001Y-93469384D01*
X158855899Y-93452912D01*
X158911998Y-93469384D01*
X158987515Y-93512984D01*
X159127525Y-93550500D01*
X159127528Y-93550500D01*
X159272472Y-93550500D01*
X159272475Y-93550500D01*
X159412485Y-93512984D01*
X159488001Y-93469384D01*
X159555899Y-93452912D01*
X159611998Y-93469384D01*
X159687515Y-93512984D01*
X159827525Y-93550500D01*
X159827528Y-93550500D01*
X159972472Y-93550500D01*
X159972475Y-93550500D01*
X160112485Y-93512984D01*
X160238015Y-93440509D01*
X160340509Y-93338015D01*
X160412984Y-93212485D01*
X160450500Y-93072475D01*
X160450500Y-92927525D01*
X160412984Y-92787515D01*
X160398244Y-92761985D01*
X160340511Y-92661988D01*
X160340506Y-92661982D01*
X160238017Y-92559493D01*
X160238015Y-92559491D01*
X160162500Y-92515892D01*
X160114284Y-92465325D01*
X160100500Y-92408505D01*
X160100500Y-92327527D01*
X160100500Y-92327525D01*
X160062984Y-92187515D01*
X160004373Y-92085998D01*
X159987901Y-92018101D01*
X160010753Y-91952074D01*
X160065674Y-91908883D01*
X160111761Y-91900000D01*
X160450000Y-91900000D01*
X160450000Y-91051365D01*
X160469685Y-90984326D01*
X160486321Y-90963681D01*
X160575510Y-90874497D01*
X160713702Y-90736312D01*
X160775024Y-90702831D01*
X160801373Y-90699998D01*
X162325984Y-90699941D01*
X162393023Y-90719623D01*
X162438779Y-90772425D01*
X162449987Y-90823941D01*
X162449999Y-95499999D01*
X162450000Y-95500000D01*
X162450001Y-95500000D01*
X162650000Y-95500000D01*
X162650000Y-94027524D01*
X164349500Y-94027524D01*
X164349500Y-94172474D01*
X164387016Y-94312484D01*
X164387017Y-94312487D01*
X164430614Y-94387999D01*
X164447087Y-94455899D01*
X164430614Y-94511998D01*
X164387018Y-94587507D01*
X164387017Y-94587510D01*
X164387016Y-94587515D01*
X164349500Y-94727525D01*
X164349500Y-94872475D01*
X164387016Y-95012485D01*
X164387017Y-95012488D01*
X164459488Y-95138011D01*
X164459490Y-95138013D01*
X164459491Y-95138015D01*
X164561985Y-95240509D01*
X164561986Y-95240510D01*
X164561988Y-95240511D01*
X164687511Y-95312982D01*
X164687512Y-95312982D01*
X164687515Y-95312984D01*
X164827525Y-95350500D01*
X164827528Y-95350500D01*
X164972472Y-95350500D01*
X164972475Y-95350500D01*
X165112485Y-95312984D01*
X165238015Y-95240509D01*
X165340509Y-95138015D01*
X165412984Y-95012485D01*
X165450500Y-94872475D01*
X165450500Y-94727525D01*
X165412984Y-94587515D01*
X165412981Y-94587510D01*
X165369385Y-94511999D01*
X165352912Y-94444099D01*
X165369385Y-94387999D01*
X165412984Y-94312484D01*
X165450500Y-94172474D01*
X165450500Y-94027524D01*
X165423705Y-93927525D01*
X169099500Y-93927525D01*
X169099500Y-94072475D01*
X169137016Y-94212485D01*
X169180613Y-94287997D01*
X169180614Y-94287998D01*
X169197087Y-94355899D01*
X169180614Y-94411999D01*
X169137017Y-94487510D01*
X169137016Y-94487514D01*
X169099500Y-94627524D01*
X169099500Y-94772474D01*
X169136882Y-94911985D01*
X169137017Y-94912487D01*
X169209488Y-95038010D01*
X169209490Y-95038012D01*
X169209491Y-95038014D01*
X169311985Y-95140508D01*
X169311986Y-95140509D01*
X169311988Y-95140510D01*
X169437511Y-95212981D01*
X169437512Y-95212981D01*
X169437515Y-95212983D01*
X169577525Y-95250499D01*
X169577528Y-95250499D01*
X169722472Y-95250499D01*
X169722475Y-95250499D01*
X169862485Y-95212983D01*
X169988015Y-95140508D01*
X170090509Y-95038014D01*
X170162984Y-94912484D01*
X170200500Y-94772474D01*
X170200500Y-94627524D01*
X170162984Y-94487514D01*
X170119384Y-94411997D01*
X170102912Y-94344100D01*
X170119386Y-94287998D01*
X170162984Y-94212485D01*
X170200500Y-94072475D01*
X170200500Y-93927525D01*
X170162984Y-93787515D01*
X170148245Y-93761987D01*
X170090511Y-93661988D01*
X170090506Y-93661982D01*
X169988017Y-93559493D01*
X169988011Y-93559488D01*
X169862488Y-93487017D01*
X169862489Y-93487017D01*
X169851006Y-93483940D01*
X169722475Y-93449500D01*
X169577525Y-93449500D01*
X169448993Y-93483940D01*
X169437511Y-93487017D01*
X169311988Y-93559488D01*
X169311982Y-93559493D01*
X169209493Y-93661982D01*
X169209488Y-93661988D01*
X169137017Y-93787511D01*
X169137016Y-93787515D01*
X169099500Y-93927525D01*
X165423705Y-93927525D01*
X165412984Y-93887514D01*
X165384403Y-93838011D01*
X165340511Y-93761987D01*
X165340506Y-93761981D01*
X165238017Y-93659492D01*
X165238011Y-93659487D01*
X165112488Y-93587016D01*
X165112489Y-93587016D01*
X165101006Y-93583939D01*
X164972475Y-93549499D01*
X164827525Y-93549499D01*
X164698993Y-93583939D01*
X164687511Y-93587016D01*
X164561988Y-93659487D01*
X164561982Y-93659492D01*
X164459493Y-93761981D01*
X164459488Y-93761987D01*
X164387017Y-93887510D01*
X164387016Y-93887514D01*
X164349500Y-94027524D01*
X162650000Y-94027524D01*
X162650000Y-91177523D01*
X164449500Y-91177523D01*
X164449500Y-91322473D01*
X164487016Y-91462483D01*
X164487017Y-91462486D01*
X164559488Y-91588009D01*
X164559490Y-91588011D01*
X164559491Y-91588013D01*
X164661985Y-91690507D01*
X164661986Y-91690508D01*
X164661988Y-91690509D01*
X164787511Y-91762980D01*
X164787512Y-91762980D01*
X164787515Y-91762982D01*
X164927525Y-91800498D01*
X164927528Y-91800498D01*
X165072472Y-91800498D01*
X165072475Y-91800498D01*
X165212485Y-91762982D01*
X165338015Y-91690507D01*
X165440509Y-91588013D01*
X165454332Y-91564071D01*
X173349499Y-91564071D01*
X173374497Y-91689738D01*
X173374499Y-91689744D01*
X173423533Y-91808124D01*
X173423538Y-91808133D01*
X173494723Y-91914668D01*
X173498589Y-91919379D01*
X173496958Y-91920716D01*
X173525858Y-91973642D01*
X173520874Y-92043334D01*
X173497489Y-92079719D01*
X173498589Y-92080621D01*
X173494723Y-92085331D01*
X173423538Y-92191866D01*
X173423533Y-92191875D01*
X173374499Y-92310255D01*
X173374497Y-92310261D01*
X173349500Y-92435928D01*
X173349500Y-92435931D01*
X173349500Y-92564069D01*
X173349500Y-92564071D01*
X173349499Y-92564071D01*
X173374497Y-92689738D01*
X173374499Y-92689744D01*
X173423533Y-92808124D01*
X173423538Y-92808133D01*
X173494723Y-92914668D01*
X173498589Y-92919379D01*
X173496958Y-92920716D01*
X173525858Y-92973642D01*
X173520874Y-93043334D01*
X173497489Y-93079719D01*
X173498589Y-93080621D01*
X173494723Y-93085331D01*
X173423538Y-93191866D01*
X173423533Y-93191875D01*
X173374499Y-93310255D01*
X173374497Y-93310261D01*
X173349500Y-93435928D01*
X173349500Y-93435931D01*
X173349500Y-93564069D01*
X173349500Y-93564071D01*
X173349499Y-93564071D01*
X173374497Y-93689738D01*
X173374499Y-93689744D01*
X173423533Y-93808124D01*
X173423538Y-93808133D01*
X173494723Y-93914668D01*
X173498589Y-93919379D01*
X173496958Y-93920716D01*
X173525858Y-93973642D01*
X173520874Y-94043334D01*
X173497489Y-94079719D01*
X173498589Y-94080621D01*
X173494723Y-94085331D01*
X173423538Y-94191866D01*
X173423533Y-94191875D01*
X173374499Y-94310255D01*
X173374497Y-94310261D01*
X173349500Y-94435928D01*
X173349500Y-94435931D01*
X173349500Y-94564069D01*
X173349500Y-94564071D01*
X173349499Y-94564071D01*
X173374497Y-94689738D01*
X173374499Y-94689744D01*
X173423533Y-94808124D01*
X173423538Y-94808133D01*
X173494723Y-94914668D01*
X173494726Y-94914672D01*
X173585327Y-95005273D01*
X173585331Y-95005276D01*
X173691866Y-95076461D01*
X173691872Y-95076464D01*
X173691873Y-95076465D01*
X173810256Y-95125501D01*
X173810260Y-95125501D01*
X173810261Y-95125502D01*
X173935928Y-95150500D01*
X173935931Y-95150500D01*
X174064071Y-95150500D01*
X174148615Y-95133682D01*
X174189744Y-95125501D01*
X174308127Y-95076465D01*
X174414669Y-95005276D01*
X174505276Y-94914669D01*
X174576465Y-94808127D01*
X174625501Y-94689744D01*
X174633163Y-94651228D01*
X180374500Y-94651228D01*
X180374500Y-94818771D01*
X180407182Y-94983074D01*
X180407184Y-94983082D01*
X180471295Y-95137860D01*
X180564373Y-95277162D01*
X180682837Y-95395626D01*
X180725112Y-95423873D01*
X180822137Y-95488703D01*
X180976918Y-95552816D01*
X181110858Y-95579458D01*
X181141228Y-95585499D01*
X181141232Y-95585500D01*
X181141233Y-95585500D01*
X181308768Y-95585500D01*
X181308769Y-95585499D01*
X181473082Y-95552816D01*
X181627863Y-95488703D01*
X181767162Y-95395626D01*
X181885626Y-95277162D01*
X181952202Y-95177525D01*
X187199500Y-95177525D01*
X187199500Y-95322475D01*
X187237016Y-95462485D01*
X187237017Y-95462488D01*
X187309488Y-95588011D01*
X187309490Y-95588013D01*
X187309491Y-95588015D01*
X187411985Y-95690509D01*
X187411986Y-95690510D01*
X187411988Y-95690511D01*
X187537511Y-95762982D01*
X187537512Y-95762982D01*
X187537515Y-95762984D01*
X187677525Y-95800500D01*
X187677528Y-95800500D01*
X187822472Y-95800500D01*
X187822475Y-95800500D01*
X187962485Y-95762984D01*
X188088015Y-95690509D01*
X188190509Y-95588015D01*
X188262984Y-95462485D01*
X188300500Y-95322475D01*
X188300500Y-95177525D01*
X188262984Y-95037515D01*
X188257216Y-95027525D01*
X188190511Y-94911988D01*
X188190506Y-94911982D01*
X188088017Y-94809493D01*
X188088011Y-94809488D01*
X187962488Y-94737017D01*
X187962489Y-94737017D01*
X187951006Y-94733940D01*
X187822475Y-94699500D01*
X187677525Y-94699500D01*
X187548993Y-94733940D01*
X187537511Y-94737017D01*
X187411988Y-94809488D01*
X187411982Y-94809493D01*
X187309493Y-94911982D01*
X187309488Y-94911988D01*
X187237017Y-95037511D01*
X187237016Y-95037515D01*
X187199500Y-95177525D01*
X181952202Y-95177525D01*
X181978703Y-95137863D01*
X182042816Y-94983082D01*
X182075500Y-94818767D01*
X182075500Y-94651233D01*
X182042816Y-94486918D01*
X181978703Y-94332137D01*
X181947537Y-94285494D01*
X181885626Y-94192837D01*
X181767162Y-94074373D01*
X181627860Y-93981295D01*
X181473082Y-93917184D01*
X181473074Y-93917182D01*
X181308771Y-93884500D01*
X181308767Y-93884500D01*
X181141233Y-93884500D01*
X181141228Y-93884500D01*
X180976925Y-93917182D01*
X180976917Y-93917184D01*
X180822139Y-93981295D01*
X180682837Y-94074373D01*
X180564373Y-94192837D01*
X180471295Y-94332139D01*
X180407184Y-94486917D01*
X180407182Y-94486925D01*
X180374500Y-94651228D01*
X174633163Y-94651228D01*
X174639186Y-94620949D01*
X174650500Y-94564071D01*
X174650500Y-94435928D01*
X174625502Y-94310261D01*
X174625501Y-94310260D01*
X174625501Y-94310256D01*
X174576465Y-94191873D01*
X174576464Y-94191872D01*
X174576461Y-94191866D01*
X174505276Y-94085331D01*
X174501411Y-94080621D01*
X174503045Y-94079279D01*
X174474148Y-94026389D01*
X174479114Y-93956696D01*
X174502514Y-93920284D01*
X174501411Y-93919379D01*
X174505271Y-93914673D01*
X174505276Y-93914669D01*
X174576465Y-93808127D01*
X174625501Y-93689744D01*
X174640770Y-93612982D01*
X174650500Y-93564071D01*
X174650500Y-93435928D01*
X174625502Y-93310261D01*
X174625501Y-93310260D01*
X174625501Y-93310256D01*
X174576465Y-93191873D01*
X174576464Y-93191872D01*
X174576461Y-93191866D01*
X174505276Y-93085331D01*
X174501411Y-93080621D01*
X174503045Y-93079279D01*
X174474148Y-93026389D01*
X174479114Y-92956696D01*
X174502514Y-92920284D01*
X174501411Y-92919379D01*
X174505271Y-92914673D01*
X174505276Y-92914669D01*
X174576465Y-92808127D01*
X174609851Y-92727527D01*
X175583236Y-92727527D01*
X175583236Y-92872477D01*
X175617406Y-93000000D01*
X175620753Y-93012490D01*
X175693224Y-93138013D01*
X175693226Y-93138015D01*
X175693227Y-93138017D01*
X175795721Y-93240511D01*
X175795722Y-93240512D01*
X175795724Y-93240513D01*
X175921247Y-93312984D01*
X175921248Y-93312984D01*
X175921251Y-93312986D01*
X176061261Y-93350502D01*
X176061264Y-93350502D01*
X176206208Y-93350502D01*
X176206211Y-93350502D01*
X176346221Y-93312986D01*
X176471751Y-93240511D01*
X176574245Y-93138017D01*
X176638038Y-93027525D01*
X178873500Y-93027525D01*
X178873500Y-93172475D01*
X178910419Y-93310256D01*
X178911017Y-93312488D01*
X178983488Y-93438011D01*
X178983490Y-93438013D01*
X178983491Y-93438015D01*
X179085985Y-93540509D01*
X179085986Y-93540510D01*
X179085988Y-93540511D01*
X179211511Y-93612982D01*
X179211512Y-93612982D01*
X179211515Y-93612984D01*
X179351525Y-93650500D01*
X179351528Y-93650500D01*
X179496472Y-93650500D01*
X179496475Y-93650500D01*
X179636485Y-93612984D01*
X179762015Y-93540509D01*
X179864509Y-93438015D01*
X179870565Y-93427525D01*
X190699500Y-93427525D01*
X190699500Y-93572475D01*
X190737016Y-93712485D01*
X190737017Y-93712488D01*
X190809488Y-93838011D01*
X190809490Y-93838013D01*
X190809491Y-93838015D01*
X190911985Y-93940509D01*
X190911986Y-93940510D01*
X190911988Y-93940511D01*
X191037511Y-94012982D01*
X191037512Y-94012982D01*
X191037515Y-94012984D01*
X191177525Y-94050500D01*
X191177528Y-94050500D01*
X191322472Y-94050500D01*
X191322475Y-94050500D01*
X191462485Y-94012984D01*
X191588015Y-93940509D01*
X191690509Y-93838015D01*
X191762984Y-93712485D01*
X191800500Y-93572475D01*
X191800500Y-93427525D01*
X191762984Y-93287515D01*
X191735847Y-93240513D01*
X191690511Y-93161988D01*
X191690506Y-93161982D01*
X191588017Y-93059493D01*
X191588011Y-93059488D01*
X191462488Y-92987017D01*
X191462489Y-92987017D01*
X191451006Y-92983940D01*
X191322475Y-92949500D01*
X191177525Y-92949500D01*
X191048993Y-92983940D01*
X191037511Y-92987017D01*
X190911988Y-93059488D01*
X190911982Y-93059493D01*
X190809493Y-93161982D01*
X190809488Y-93161988D01*
X190737017Y-93287511D01*
X190737016Y-93287515D01*
X190699500Y-93427525D01*
X179870565Y-93427525D01*
X179936984Y-93312485D01*
X179974500Y-93172475D01*
X179974500Y-93027525D01*
X179936984Y-92887515D01*
X179908406Y-92838017D01*
X179864511Y-92761988D01*
X179864506Y-92761982D01*
X179762017Y-92659493D01*
X179762011Y-92659488D01*
X179636488Y-92587017D01*
X179636489Y-92587017D01*
X179625006Y-92583940D01*
X179496475Y-92549500D01*
X179351525Y-92549500D01*
X179222993Y-92583940D01*
X179211511Y-92587017D01*
X179085988Y-92659488D01*
X179085982Y-92659493D01*
X178983493Y-92761982D01*
X178983488Y-92761988D01*
X178911017Y-92887511D01*
X178911016Y-92887515D01*
X178873500Y-93027525D01*
X176638038Y-93027525D01*
X176646720Y-93012487D01*
X176684236Y-92872477D01*
X176684236Y-92727527D01*
X176646720Y-92587517D01*
X176646431Y-92587017D01*
X176574247Y-92461990D01*
X176574242Y-92461984D01*
X176471753Y-92359495D01*
X176471747Y-92359490D01*
X176346224Y-92287019D01*
X176346225Y-92287019D01*
X176334742Y-92283942D01*
X176206211Y-92249502D01*
X176061261Y-92249502D01*
X175932729Y-92283942D01*
X175921247Y-92287019D01*
X175795724Y-92359490D01*
X175795718Y-92359495D01*
X175693229Y-92461984D01*
X175693224Y-92461990D01*
X175620753Y-92587513D01*
X175620752Y-92587517D01*
X175583236Y-92727527D01*
X174609851Y-92727527D01*
X174625501Y-92689744D01*
X174645935Y-92587017D01*
X174650500Y-92564071D01*
X174650500Y-92435928D01*
X174625502Y-92310261D01*
X174625501Y-92310260D01*
X174625501Y-92310256D01*
X174576465Y-92191873D01*
X174576464Y-92191872D01*
X174576461Y-92191866D01*
X174505276Y-92085331D01*
X174501411Y-92080621D01*
X174503045Y-92079279D01*
X174474148Y-92026389D01*
X174479114Y-91956696D01*
X174502514Y-91920284D01*
X174501411Y-91919379D01*
X174505271Y-91914673D01*
X174505276Y-91914669D01*
X174576465Y-91808127D01*
X174625501Y-91689744D01*
X174627932Y-91677525D01*
X191699500Y-91677525D01*
X191699500Y-91822475D01*
X191735465Y-91956696D01*
X191737017Y-91962488D01*
X191809488Y-92088011D01*
X191809490Y-92088013D01*
X191809491Y-92088015D01*
X191911985Y-92190509D01*
X191911986Y-92190510D01*
X191911988Y-92190511D01*
X192037511Y-92262982D01*
X192037512Y-92262982D01*
X192037515Y-92262984D01*
X192177525Y-92300500D01*
X192177528Y-92300500D01*
X192322472Y-92300500D01*
X192322475Y-92300500D01*
X192462485Y-92262984D01*
X192588015Y-92190509D01*
X192690509Y-92088015D01*
X192762984Y-91962485D01*
X192800500Y-91822475D01*
X192800500Y-91677525D01*
X192762984Y-91537515D01*
X192704334Y-91435931D01*
X192690511Y-91411988D01*
X192690506Y-91411982D01*
X192588017Y-91309493D01*
X192588011Y-91309488D01*
X192462488Y-91237017D01*
X192462489Y-91237017D01*
X192451006Y-91233940D01*
X192322475Y-91199500D01*
X192177525Y-91199500D01*
X192048993Y-91233940D01*
X192037511Y-91237017D01*
X191911988Y-91309488D01*
X191911982Y-91309493D01*
X191809493Y-91411982D01*
X191809488Y-91411988D01*
X191737017Y-91537511D01*
X191737016Y-91537515D01*
X191699500Y-91677525D01*
X174627932Y-91677525D01*
X174634361Y-91645206D01*
X174650500Y-91564071D01*
X174650500Y-91435928D01*
X174625502Y-91310261D01*
X174625501Y-91310260D01*
X174625501Y-91310256D01*
X174579301Y-91198720D01*
X174576466Y-91191875D01*
X174576461Y-91191866D01*
X174505276Y-91085331D01*
X174505273Y-91085327D01*
X174414672Y-90994726D01*
X174414668Y-90994723D01*
X174308133Y-90923538D01*
X174308124Y-90923533D01*
X174189744Y-90874499D01*
X174189738Y-90874497D01*
X174064071Y-90849500D01*
X174064069Y-90849500D01*
X173935931Y-90849500D01*
X173935929Y-90849500D01*
X173810261Y-90874497D01*
X173810255Y-90874499D01*
X173691875Y-90923533D01*
X173691866Y-90923538D01*
X173585331Y-90994723D01*
X173585327Y-90994726D01*
X173494726Y-91085327D01*
X173494723Y-91085331D01*
X173423538Y-91191866D01*
X173423533Y-91191875D01*
X173374499Y-91310255D01*
X173374497Y-91310261D01*
X173349500Y-91435928D01*
X173349500Y-91435931D01*
X173349500Y-91564069D01*
X173349500Y-91564071D01*
X173349499Y-91564071D01*
X165454332Y-91564071D01*
X165512984Y-91462483D01*
X165550500Y-91322473D01*
X165550500Y-91177523D01*
X165512984Y-91037513D01*
X165482276Y-90984326D01*
X165440511Y-90911986D01*
X165440506Y-90911980D01*
X165338017Y-90809491D01*
X165338011Y-90809486D01*
X165301195Y-90788230D01*
X166738859Y-90788230D01*
X166738859Y-90933180D01*
X166770527Y-91051365D01*
X166776376Y-91073193D01*
X166848847Y-91198716D01*
X166848849Y-91198718D01*
X166848850Y-91198720D01*
X166951344Y-91301214D01*
X166951345Y-91301215D01*
X166951347Y-91301216D01*
X167076870Y-91373687D01*
X167076871Y-91373687D01*
X167076874Y-91373689D01*
X167216884Y-91411205D01*
X167216887Y-91411205D01*
X167361831Y-91411205D01*
X167361834Y-91411205D01*
X167501844Y-91373689D01*
X167627374Y-91301214D01*
X167729868Y-91198720D01*
X167802343Y-91073190D01*
X167839859Y-90933180D01*
X167839859Y-90788230D01*
X167802343Y-90648220D01*
X167747313Y-90552906D01*
X167729870Y-90522693D01*
X167729865Y-90522687D01*
X167627376Y-90420198D01*
X167627370Y-90420193D01*
X167501847Y-90347722D01*
X167501848Y-90347722D01*
X167490365Y-90344645D01*
X167361834Y-90310205D01*
X167216884Y-90310205D01*
X167088352Y-90344645D01*
X167076870Y-90347722D01*
X166951347Y-90420193D01*
X166951341Y-90420198D01*
X166848852Y-90522687D01*
X166848847Y-90522693D01*
X166776376Y-90648216D01*
X166776375Y-90648220D01*
X166738859Y-90788230D01*
X165301195Y-90788230D01*
X165212488Y-90737015D01*
X165212489Y-90737015D01*
X165201006Y-90733938D01*
X165072475Y-90699498D01*
X164927525Y-90699498D01*
X164798993Y-90733938D01*
X164787511Y-90737015D01*
X164661988Y-90809486D01*
X164661982Y-90809491D01*
X164559493Y-90911980D01*
X164559488Y-90911986D01*
X164487017Y-91037509D01*
X164487016Y-91037513D01*
X164449500Y-91177523D01*
X162650000Y-91177523D01*
X162650000Y-90552906D01*
X162669685Y-90485867D01*
X162722489Y-90440112D01*
X162741893Y-90433135D01*
X162852894Y-90403393D01*
X162978424Y-90330918D01*
X163080918Y-90228424D01*
X163153393Y-90102894D01*
X163190909Y-89962884D01*
X163190909Y-89817934D01*
X163153393Y-89677924D01*
X163080918Y-89552394D01*
X162978424Y-89449900D01*
X162978422Y-89449899D01*
X162978420Y-89449897D01*
X162852897Y-89377426D01*
X162852898Y-89377426D01*
X162841415Y-89374349D01*
X162712884Y-89339909D01*
X162712881Y-89339909D01*
X162691271Y-89339909D01*
X162624232Y-89320224D01*
X162603590Y-89303590D01*
X162250000Y-88950000D01*
X162150000Y-88950000D01*
X162149999Y-88950000D01*
X159225177Y-91874821D01*
X159163854Y-91908306D01*
X159094162Y-91903322D01*
X159075497Y-91894528D01*
X159062487Y-91887017D01*
X159062486Y-91887016D01*
X159062485Y-91887016D01*
X158922475Y-91849500D01*
X158777525Y-91849500D01*
X158648993Y-91883940D01*
X158637511Y-91887017D01*
X158562000Y-91930614D01*
X158494100Y-91947087D01*
X158438000Y-91930614D01*
X158362488Y-91887017D01*
X158362489Y-91887017D01*
X158351006Y-91883940D01*
X158222475Y-91849500D01*
X158077525Y-91849500D01*
X157948993Y-91883940D01*
X157937511Y-91887017D01*
X157862000Y-91930614D01*
X157794100Y-91947087D01*
X157738000Y-91930614D01*
X157662488Y-91887017D01*
X157662489Y-91887017D01*
X157651006Y-91883940D01*
X157522475Y-91849500D01*
X157377525Y-91849500D01*
X157248993Y-91883940D01*
X157237511Y-91887017D01*
X157111988Y-91959488D01*
X157111982Y-91959493D01*
X157009493Y-92061982D01*
X157009488Y-92061988D01*
X156937017Y-92187511D01*
X156936214Y-92190509D01*
X156899500Y-92327525D01*
X156899500Y-92327527D01*
X156899500Y-92408505D01*
X156879815Y-92475544D01*
X156837500Y-92515892D01*
X156761988Y-92559489D01*
X156761982Y-92559493D01*
X156659493Y-92661982D01*
X156659488Y-92661988D01*
X156587017Y-92787511D01*
X156587016Y-92787515D01*
X156549500Y-92927525D01*
X150600999Y-92927525D01*
X150690509Y-92838015D01*
X150762984Y-92712485D01*
X150800500Y-92572475D01*
X150800500Y-92427525D01*
X150762984Y-92287515D01*
X150733828Y-92237016D01*
X150690511Y-92161988D01*
X150690506Y-92161982D01*
X150588017Y-92059493D01*
X150588011Y-92059488D01*
X150462488Y-91987017D01*
X150462489Y-91987017D01*
X150451006Y-91983940D01*
X150322475Y-91949500D01*
X150177525Y-91949500D01*
X150048993Y-91983940D01*
X150037511Y-91987017D01*
X149911988Y-92059488D01*
X149911982Y-92059493D01*
X149809493Y-92161982D01*
X149809488Y-92161988D01*
X149737017Y-92287511D01*
X149737016Y-92287515D01*
X149699500Y-92427525D01*
X147699481Y-92427525D01*
X147690509Y-92411985D01*
X147588015Y-92309491D01*
X147588013Y-92309490D01*
X147588011Y-92309488D01*
X147462488Y-92237017D01*
X147462489Y-92237017D01*
X147451006Y-92233940D01*
X147322475Y-92199500D01*
X147177525Y-92199500D01*
X147048993Y-92233940D01*
X147037511Y-92237017D01*
X146911988Y-92309488D01*
X146911982Y-92309493D01*
X146809493Y-92411982D01*
X146809488Y-92411988D01*
X146737017Y-92537511D01*
X146737016Y-92537515D01*
X146699500Y-92677525D01*
X145505500Y-92677525D01*
X145505500Y-89177525D01*
X146449500Y-89177525D01*
X146449500Y-89322475D01*
X146487016Y-89462485D01*
X146487017Y-89462488D01*
X146559488Y-89588011D01*
X146559490Y-89588013D01*
X146559491Y-89588015D01*
X146661985Y-89690509D01*
X146661986Y-89690510D01*
X146661988Y-89690511D01*
X146787511Y-89762982D01*
X146787512Y-89762982D01*
X146787515Y-89762984D01*
X146927525Y-89800500D01*
X146927528Y-89800500D01*
X147072472Y-89800500D01*
X147072475Y-89800500D01*
X147212485Y-89762984D01*
X147338015Y-89690509D01*
X147440509Y-89588015D01*
X147512984Y-89462485D01*
X147550500Y-89322475D01*
X147550500Y-89177525D01*
X147512984Y-89037515D01*
X147440509Y-88911985D01*
X147338015Y-88809491D01*
X147338013Y-88809490D01*
X147338011Y-88809488D01*
X147212488Y-88737017D01*
X147212489Y-88737017D01*
X147201006Y-88733940D01*
X147072475Y-88699500D01*
X146927525Y-88699500D01*
X146798993Y-88733940D01*
X146787511Y-88737017D01*
X146661988Y-88809488D01*
X146661982Y-88809493D01*
X146559493Y-88911982D01*
X146559488Y-88911988D01*
X146487017Y-89037511D01*
X146487016Y-89037515D01*
X146449500Y-89177525D01*
X145505500Y-89177525D01*
X145505500Y-87177525D01*
X146449500Y-87177525D01*
X146449500Y-87322475D01*
X146487016Y-87462485D01*
X146487017Y-87462488D01*
X146559488Y-87588011D01*
X146559490Y-87588013D01*
X146559491Y-87588015D01*
X146661985Y-87690509D01*
X146661986Y-87690510D01*
X146661988Y-87690511D01*
X146787511Y-87762982D01*
X146787512Y-87762982D01*
X146787515Y-87762984D01*
X146927525Y-87800500D01*
X146927528Y-87800500D01*
X147072472Y-87800500D01*
X147072475Y-87800500D01*
X147212485Y-87762984D01*
X147338015Y-87690509D01*
X147440509Y-87588015D01*
X147512984Y-87462485D01*
X147550500Y-87322475D01*
X147550500Y-87177525D01*
X147512984Y-87037515D01*
X147456977Y-86940509D01*
X147440511Y-86911988D01*
X147440506Y-86911982D01*
X147338017Y-86809493D01*
X147338011Y-86809488D01*
X147212488Y-86737017D01*
X147212489Y-86737017D01*
X147201006Y-86733940D01*
X147072475Y-86699500D01*
X146927525Y-86699500D01*
X146798993Y-86733940D01*
X146787511Y-86737017D01*
X146661988Y-86809488D01*
X146661982Y-86809493D01*
X146559493Y-86911982D01*
X146559488Y-86911988D01*
X146487017Y-87037511D01*
X146487016Y-87037515D01*
X146449500Y-87177525D01*
X145505500Y-87177525D01*
X145505500Y-86819499D01*
X145503758Y-86806273D01*
X145496793Y-86753368D01*
X145480179Y-86691367D01*
X145454653Y-86629745D01*
X145443161Y-86609842D01*
X145430772Y-86579932D01*
X145419119Y-86536440D01*
X145414894Y-86504348D01*
X145414894Y-86459323D01*
X145419080Y-86427525D01*
X174199500Y-86427525D01*
X174199500Y-86572475D01*
X174233537Y-86699500D01*
X174237017Y-86712488D01*
X174309488Y-86838011D01*
X174309490Y-86838013D01*
X174309491Y-86838015D01*
X174411985Y-86940509D01*
X174411986Y-86940510D01*
X174411988Y-86940511D01*
X174537511Y-87012982D01*
X174537512Y-87012982D01*
X174537515Y-87012984D01*
X174677525Y-87050500D01*
X174677528Y-87050500D01*
X174822472Y-87050500D01*
X174822475Y-87050500D01*
X174962485Y-87012984D01*
X175088015Y-86940509D01*
X175190509Y-86838015D01*
X175262984Y-86712485D01*
X175300500Y-86572475D01*
X175300500Y-86427525D01*
X175262984Y-86287515D01*
X175256052Y-86275509D01*
X175190511Y-86161988D01*
X175190506Y-86161982D01*
X175088017Y-86059493D01*
X175088011Y-86059488D01*
X174962488Y-85987017D01*
X174962489Y-85987017D01*
X174951006Y-85983940D01*
X174822475Y-85949500D01*
X174677525Y-85949500D01*
X174548993Y-85983940D01*
X174537511Y-85987017D01*
X174411988Y-86059488D01*
X174411982Y-86059493D01*
X174309493Y-86161982D01*
X174309488Y-86161988D01*
X174237017Y-86287511D01*
X174237016Y-86287515D01*
X174199500Y-86427525D01*
X145419080Y-86427525D01*
X145419119Y-86427231D01*
X145430771Y-86383743D01*
X145443160Y-86353833D01*
X145454658Y-86333919D01*
X145473879Y-86287515D01*
X145480177Y-86272310D01*
X145480177Y-86272307D01*
X145480183Y-86272295D01*
X145496795Y-86210296D01*
X145497246Y-86206871D01*
X145505500Y-86144173D01*
X145505500Y-85759386D01*
X145525185Y-85692347D01*
X145577989Y-85646592D01*
X145647147Y-85636648D01*
X145710703Y-85665673D01*
X145717181Y-85671705D01*
X145735985Y-85690509D01*
X145735986Y-85690510D01*
X145735988Y-85690511D01*
X145861511Y-85762982D01*
X145861512Y-85762982D01*
X145861515Y-85762984D01*
X146001525Y-85800500D01*
X146001528Y-85800500D01*
X146146472Y-85800500D01*
X146146475Y-85800500D01*
X146286485Y-85762984D01*
X146412015Y-85690509D01*
X146514509Y-85588015D01*
X146586984Y-85462485D01*
X146604726Y-85396271D01*
X146641090Y-85336613D01*
X146703937Y-85306084D01*
X146773313Y-85314379D01*
X146827191Y-85358864D01*
X146844273Y-85396269D01*
X146862016Y-85462485D01*
X146862017Y-85462488D01*
X146934488Y-85588011D01*
X146934490Y-85588013D01*
X146934491Y-85588015D01*
X147036985Y-85690509D01*
X147036986Y-85690510D01*
X147036988Y-85690511D01*
X147162511Y-85762982D01*
X147162512Y-85762982D01*
X147162515Y-85762984D01*
X147302525Y-85800500D01*
X147302528Y-85800500D01*
X147447472Y-85800500D01*
X147447475Y-85800500D01*
X147587485Y-85762984D01*
X147713015Y-85690509D01*
X147815509Y-85588015D01*
X147887984Y-85462485D01*
X147925500Y-85322475D01*
X147925500Y-85177525D01*
X147887984Y-85037515D01*
X147848266Y-84968722D01*
X147815511Y-84911988D01*
X147815506Y-84911982D01*
X147713017Y-84809493D01*
X147713011Y-84809488D01*
X147587488Y-84737017D01*
X147587489Y-84737017D01*
X147576006Y-84733940D01*
X147447475Y-84699500D01*
X147302525Y-84699500D01*
X147173993Y-84733940D01*
X147162511Y-84737017D01*
X147036988Y-84809488D01*
X147036982Y-84809493D01*
X146934493Y-84911982D01*
X146934488Y-84911988D01*
X146862017Y-85037511D01*
X146844275Y-85103726D01*
X146807909Y-85163386D01*
X146745062Y-85193915D01*
X146675687Y-85185620D01*
X146621809Y-85141134D01*
X146604725Y-85103726D01*
X146586984Y-85037515D01*
X146547266Y-84968722D01*
X146514511Y-84911988D01*
X146514506Y-84911982D01*
X146412017Y-84809493D01*
X146412011Y-84809488D01*
X146286488Y-84737017D01*
X146286489Y-84737017D01*
X146275006Y-84733940D01*
X146146475Y-84699500D01*
X146001525Y-84699500D01*
X145872993Y-84733940D01*
X145861511Y-84737017D01*
X145735988Y-84809488D01*
X145735981Y-84809494D01*
X145717395Y-84828080D01*
X145656072Y-84861564D01*
X145586380Y-84856578D01*
X145530447Y-84814705D01*
X145506032Y-84749241D01*
X145505734Y-84738307D01*
X145523713Y-83677525D01*
X148199500Y-83677525D01*
X148199500Y-83822475D01*
X148227649Y-83927527D01*
X148237017Y-83962488D01*
X148309488Y-84088011D01*
X148309490Y-84088013D01*
X148309491Y-84088015D01*
X148411985Y-84190509D01*
X148411986Y-84190510D01*
X148411988Y-84190511D01*
X148537511Y-84262982D01*
X148537512Y-84262982D01*
X148537515Y-84262984D01*
X148677525Y-84300500D01*
X148677528Y-84300500D01*
X148822472Y-84300500D01*
X148822475Y-84300500D01*
X148962485Y-84262984D01*
X149088015Y-84190509D01*
X149190509Y-84088015D01*
X149262984Y-83962485D01*
X149272352Y-83927525D01*
X149699500Y-83927525D01*
X149699500Y-84072475D01*
X149731128Y-84190511D01*
X149737017Y-84212488D01*
X149809488Y-84338011D01*
X149809490Y-84338013D01*
X149809491Y-84338015D01*
X149911985Y-84440509D01*
X149911986Y-84440510D01*
X149911988Y-84440511D01*
X150037511Y-84512982D01*
X150037512Y-84512982D01*
X150037515Y-84512984D01*
X150177525Y-84550500D01*
X150177528Y-84550500D01*
X150322472Y-84550500D01*
X150322475Y-84550500D01*
X150462485Y-84512984D01*
X150588015Y-84440509D01*
X150690509Y-84338015D01*
X150762984Y-84212485D01*
X150800500Y-84072475D01*
X150800500Y-83927525D01*
X150762984Y-83787515D01*
X150747794Y-83761206D01*
X150690511Y-83661988D01*
X150690506Y-83661982D01*
X150588017Y-83559493D01*
X150588011Y-83559488D01*
X150462488Y-83487017D01*
X150462489Y-83487017D01*
X150451006Y-83483940D01*
X150322475Y-83449500D01*
X150177525Y-83449500D01*
X150048993Y-83483940D01*
X150037511Y-83487017D01*
X149911988Y-83559488D01*
X149911982Y-83559493D01*
X149809493Y-83661982D01*
X149809488Y-83661988D01*
X149737017Y-83787511D01*
X149737016Y-83787515D01*
X149699500Y-83927525D01*
X149272352Y-83927525D01*
X149300500Y-83822475D01*
X149300500Y-83677525D01*
X149262984Y-83537515D01*
X149252724Y-83519745D01*
X149190511Y-83411988D01*
X149190506Y-83411982D01*
X149088017Y-83309493D01*
X149088015Y-83309491D01*
X148962485Y-83237016D01*
X148822475Y-83199500D01*
X148677525Y-83199500D01*
X148548993Y-83233940D01*
X148537511Y-83237017D01*
X148411988Y-83309488D01*
X148411982Y-83309493D01*
X148309493Y-83411982D01*
X148309488Y-83411988D01*
X148237017Y-83537511D01*
X148237016Y-83537515D01*
X148199500Y-83677525D01*
X145523713Y-83677525D01*
X145527571Y-83449925D01*
X145532188Y-83177525D01*
X158699500Y-83177525D01*
X158699500Y-83322475D01*
X158733537Y-83449500D01*
X158737017Y-83462488D01*
X158809488Y-83588011D01*
X158809490Y-83588013D01*
X158809491Y-83588015D01*
X158911985Y-83690509D01*
X158911986Y-83690510D01*
X158911988Y-83690511D01*
X159037511Y-83762982D01*
X159037512Y-83762982D01*
X159037515Y-83762984D01*
X159177525Y-83800500D01*
X159177528Y-83800500D01*
X159322472Y-83800500D01*
X159322475Y-83800500D01*
X159462485Y-83762984D01*
X159588015Y-83690509D01*
X159690509Y-83588015D01*
X159736302Y-83508700D01*
X172090000Y-83508700D01*
X172090000Y-83691299D01*
X172118562Y-83871630D01*
X172174987Y-84045287D01*
X172257880Y-84207975D01*
X172270753Y-84225692D01*
X172865000Y-83631445D01*
X172865000Y-83650686D01*
X172891237Y-83748604D01*
X172941923Y-83836395D01*
X173013605Y-83908077D01*
X173101396Y-83958763D01*
X173199314Y-83985000D01*
X173218553Y-83985000D01*
X172624305Y-84579245D01*
X172625579Y-84595427D01*
X172641492Y-84616063D01*
X172647473Y-84685676D01*
X172614868Y-84747472D01*
X172613623Y-84748734D01*
X172542770Y-84819586D01*
X172542767Y-84819590D01*
X172443128Y-84968709D01*
X172443121Y-84968722D01*
X172374490Y-85134415D01*
X172374487Y-85134424D01*
X172339500Y-85310319D01*
X172339500Y-85489680D01*
X172374487Y-85665575D01*
X172374490Y-85665584D01*
X172443121Y-85831277D01*
X172443128Y-85831290D01*
X172542767Y-85980409D01*
X172542770Y-85980413D01*
X172669586Y-86107229D01*
X172669590Y-86107232D01*
X172818709Y-86206871D01*
X172818722Y-86206878D01*
X172942991Y-86258351D01*
X172984417Y-86275510D01*
X172984419Y-86275510D01*
X172984424Y-86275512D01*
X173160319Y-86310499D01*
X173160323Y-86310500D01*
X173160324Y-86310500D01*
X173339677Y-86310500D01*
X173339677Y-86310499D01*
X173370884Y-86304292D01*
X173403621Y-86297781D01*
X173515575Y-86275512D01*
X173515578Y-86275510D01*
X173515583Y-86275510D01*
X173657006Y-86216930D01*
X173681277Y-86206878D01*
X173681277Y-86206877D01*
X173681284Y-86206875D01*
X173830410Y-86107232D01*
X173957232Y-85980410D01*
X174056875Y-85831284D01*
X174125510Y-85665583D01*
X174160500Y-85489676D01*
X174160500Y-85310324D01*
X174135695Y-85185620D01*
X174125512Y-85134424D01*
X174125509Y-85134415D01*
X174056878Y-84968722D01*
X174056871Y-84968709D01*
X173957232Y-84819590D01*
X173957229Y-84819586D01*
X173886375Y-84748732D01*
X173852890Y-84687409D01*
X173857874Y-84617717D01*
X173874403Y-84595636D01*
X173875693Y-84579245D01*
X173281448Y-83985000D01*
X173300686Y-83985000D01*
X173398604Y-83958763D01*
X173486395Y-83908077D01*
X173558077Y-83836395D01*
X173608763Y-83748604D01*
X173635000Y-83650686D01*
X173635000Y-83631447D01*
X174229246Y-84225693D01*
X174229246Y-84225692D01*
X174242117Y-84207979D01*
X174242119Y-84207975D01*
X174325012Y-84045287D01*
X174381436Y-83871635D01*
X174383521Y-83858471D01*
X174413450Y-83795336D01*
X174472761Y-83758404D01*
X174542623Y-83759400D01*
X174600857Y-83798009D01*
X174628468Y-83858469D01*
X174652085Y-84007584D01*
X174705591Y-84172257D01*
X174784195Y-84326524D01*
X174885967Y-84466602D01*
X175008397Y-84589032D01*
X175148475Y-84690804D01*
X175302742Y-84769408D01*
X175467415Y-84822914D01*
X175638429Y-84850000D01*
X175750000Y-84850000D01*
X175750000Y-84030330D01*
X175769745Y-84050075D01*
X175855255Y-84099444D01*
X175950630Y-84125000D01*
X176049370Y-84125000D01*
X176144745Y-84099444D01*
X176230255Y-84050075D01*
X176250000Y-84030330D01*
X176250000Y-84850000D01*
X176361571Y-84850000D01*
X176532584Y-84822914D01*
X176697257Y-84769408D01*
X176851524Y-84690804D01*
X176991602Y-84589032D01*
X177114032Y-84466602D01*
X177215804Y-84326524D01*
X177294408Y-84172255D01*
X177347914Y-84007584D01*
X177349115Y-84000000D01*
X176280330Y-84000000D01*
X176300075Y-83980255D01*
X176349444Y-83894745D01*
X176375000Y-83799370D01*
X176375000Y-83700630D01*
X176349444Y-83605255D01*
X176300075Y-83519745D01*
X176280330Y-83500000D01*
X177349115Y-83500000D01*
X177349115Y-83499999D01*
X177347914Y-83492415D01*
X177294408Y-83327744D01*
X177215804Y-83173475D01*
X177114032Y-83033397D01*
X176991602Y-82910967D01*
X176851524Y-82809195D01*
X176808834Y-82787443D01*
X176758039Y-82739468D01*
X176741245Y-82671646D01*
X176763784Y-82605512D01*
X176818499Y-82562061D01*
X176821741Y-82560798D01*
X176867331Y-82543795D01*
X176982546Y-82457545D01*
X177068796Y-82342330D01*
X177119091Y-82207482D01*
X177125500Y-82147872D01*
X177125499Y-81677525D01*
X178949500Y-81677525D01*
X178949500Y-81822475D01*
X178987016Y-81962485D01*
X178987017Y-81962488D01*
X179059488Y-82088011D01*
X179059490Y-82088013D01*
X179059491Y-82088015D01*
X179161985Y-82190509D01*
X179161986Y-82190510D01*
X179161988Y-82190511D01*
X179287511Y-82262982D01*
X179287512Y-82262982D01*
X179287515Y-82262984D01*
X179427525Y-82300500D01*
X179427528Y-82300500D01*
X179572472Y-82300500D01*
X179572475Y-82300500D01*
X179712485Y-82262984D01*
X179838015Y-82190509D01*
X179940509Y-82088015D01*
X180012984Y-81962485D01*
X180050500Y-81822475D01*
X180050500Y-81677525D01*
X180012984Y-81537515D01*
X179969665Y-81462485D01*
X179940511Y-81411988D01*
X179940506Y-81411982D01*
X179838017Y-81309493D01*
X179838015Y-81309491D01*
X179767272Y-81268647D01*
X179719058Y-81218080D01*
X179705836Y-81149473D01*
X179731804Y-81084609D01*
X179788718Y-81044081D01*
X179797166Y-81041490D01*
X179816556Y-81036295D01*
X179942086Y-80963820D01*
X180044580Y-80861326D01*
X180117055Y-80735796D01*
X180154571Y-80595786D01*
X180154571Y-80450836D01*
X180117055Y-80310826D01*
X180044580Y-80185296D01*
X179942086Y-80082802D01*
X179942084Y-80082801D01*
X179942082Y-80082799D01*
X179816559Y-80010328D01*
X179816560Y-80010328D01*
X179805077Y-80007251D01*
X179676546Y-79972811D01*
X179531596Y-79972811D01*
X179403064Y-80007251D01*
X179391582Y-80010328D01*
X179266059Y-80082799D01*
X179266053Y-80082804D01*
X179163564Y-80185293D01*
X179163559Y-80185299D01*
X179091088Y-80310822D01*
X179091087Y-80310826D01*
X179053571Y-80450836D01*
X179053571Y-80595786D01*
X179091087Y-80735796D01*
X179091088Y-80735799D01*
X179163559Y-80861322D01*
X179163561Y-80861324D01*
X179163562Y-80861326D01*
X179266056Y-80963820D01*
X179327006Y-80999010D01*
X179336796Y-81004662D01*
X179385012Y-81055229D01*
X179398234Y-81123836D01*
X179372266Y-81188701D01*
X179315352Y-81229229D01*
X179306894Y-81231823D01*
X179294440Y-81235160D01*
X179287515Y-81237016D01*
X179287514Y-81237016D01*
X179287512Y-81237017D01*
X179287511Y-81237017D01*
X179161988Y-81309488D01*
X179161982Y-81309493D01*
X179059493Y-81411982D01*
X179059488Y-81411988D01*
X178987017Y-81537511D01*
X178987016Y-81537515D01*
X178949500Y-81677525D01*
X177125499Y-81677525D01*
X177125499Y-81352127D01*
X177119091Y-81292516D01*
X177098391Y-81237017D01*
X177068797Y-81157670D01*
X177068793Y-81157663D01*
X176982547Y-81042454D01*
X176982544Y-81042451D01*
X176867335Y-80956205D01*
X176867328Y-80956201D01*
X176732482Y-80905907D01*
X176732483Y-80905907D01*
X176672883Y-80899500D01*
X176672881Y-80899499D01*
X176672873Y-80899499D01*
X176672864Y-80899499D01*
X175327129Y-80899499D01*
X175327123Y-80899500D01*
X175267516Y-80905907D01*
X175132671Y-80956201D01*
X175132664Y-80956205D01*
X175017455Y-81042451D01*
X175017452Y-81042454D01*
X174931206Y-81157663D01*
X174931202Y-81157670D01*
X174880908Y-81292516D01*
X174874501Y-81352115D01*
X174874501Y-81352122D01*
X174874500Y-81352134D01*
X174874500Y-82147869D01*
X174874501Y-82147875D01*
X174880908Y-82207482D01*
X174931202Y-82342327D01*
X174931206Y-82342334D01*
X175017452Y-82457543D01*
X175017455Y-82457546D01*
X175132664Y-82543792D01*
X175132673Y-82543797D01*
X175178200Y-82560777D01*
X175234134Y-82602647D01*
X175258552Y-82668111D01*
X175243701Y-82736384D01*
X175194297Y-82785790D01*
X175191166Y-82787442D01*
X175148478Y-82809193D01*
X175008397Y-82910967D01*
X174885967Y-83033397D01*
X174784195Y-83173475D01*
X174705591Y-83327742D01*
X174652085Y-83492415D01*
X174650951Y-83497144D01*
X174649708Y-83496845D01*
X174622290Y-83554671D01*
X174562975Y-83591598D01*
X174493113Y-83590594D01*
X174434883Y-83551979D01*
X174407280Y-83491529D01*
X174381437Y-83328369D01*
X174325012Y-83154712D01*
X174242119Y-82992025D01*
X174242113Y-82992016D01*
X174229246Y-82974306D01*
X174229245Y-82974305D01*
X173635000Y-83568551D01*
X173635000Y-83549314D01*
X173608763Y-83451396D01*
X173558077Y-83363605D01*
X173486395Y-83291923D01*
X173398604Y-83241237D01*
X173300686Y-83215000D01*
X173281447Y-83215000D01*
X173875692Y-82620753D01*
X173875692Y-82620752D01*
X173857975Y-82607880D01*
X173695287Y-82524987D01*
X173521630Y-82468562D01*
X173341299Y-82440000D01*
X173158701Y-82440000D01*
X172978369Y-82468562D01*
X172804712Y-82524987D01*
X172642022Y-82607881D01*
X172624306Y-82620751D01*
X172624306Y-82620754D01*
X173218554Y-83215000D01*
X173199314Y-83215000D01*
X173101396Y-83241237D01*
X173013605Y-83291923D01*
X172941923Y-83363605D01*
X172891237Y-83451396D01*
X172865000Y-83549314D01*
X172865000Y-83568552D01*
X172270754Y-82974306D01*
X172270751Y-82974306D01*
X172257881Y-82992022D01*
X172174987Y-83154712D01*
X172118562Y-83328369D01*
X172090000Y-83508700D01*
X159736302Y-83508700D01*
X159762984Y-83462485D01*
X159800500Y-83322475D01*
X159800500Y-83177525D01*
X159762984Y-83037515D01*
X159760606Y-83033397D01*
X159690511Y-82911988D01*
X159690506Y-82911982D01*
X159588017Y-82809493D01*
X159588015Y-82809491D01*
X159528965Y-82775398D01*
X159528964Y-82775397D01*
X159462488Y-82737017D01*
X159462489Y-82737017D01*
X159451006Y-82733940D01*
X159322475Y-82699500D01*
X159177525Y-82699500D01*
X159048993Y-82733940D01*
X159037511Y-82737017D01*
X158911988Y-82809488D01*
X158911982Y-82809493D01*
X158809493Y-82911982D01*
X158809488Y-82911988D01*
X158737017Y-83037511D01*
X158737016Y-83037515D01*
X158699500Y-83177525D01*
X145532188Y-83177525D01*
X145549138Y-82177525D01*
X151449500Y-82177525D01*
X151449500Y-82322475D01*
X151485693Y-82457546D01*
X151487017Y-82462488D01*
X151559488Y-82588011D01*
X151559490Y-82588013D01*
X151559491Y-82588015D01*
X151661985Y-82690509D01*
X151661986Y-82690510D01*
X151661988Y-82690511D01*
X151787511Y-82762982D01*
X151787512Y-82762982D01*
X151787515Y-82762984D01*
X151927525Y-82800500D01*
X151927528Y-82800500D01*
X152072472Y-82800500D01*
X152072475Y-82800500D01*
X152212485Y-82762984D01*
X152338015Y-82690509D01*
X152440509Y-82588015D01*
X152512984Y-82462485D01*
X152550500Y-82322475D01*
X152550500Y-82177525D01*
X152512984Y-82037515D01*
X152469665Y-81962485D01*
X152440511Y-81911988D01*
X152440506Y-81911982D01*
X152338017Y-81809493D01*
X152338011Y-81809488D01*
X152212488Y-81737017D01*
X152212489Y-81737017D01*
X152201006Y-81733940D01*
X152072475Y-81699500D01*
X151927525Y-81699500D01*
X151798993Y-81733940D01*
X151787511Y-81737017D01*
X151661988Y-81809488D01*
X151661982Y-81809493D01*
X151559493Y-81911982D01*
X151559488Y-81911988D01*
X151487017Y-82037511D01*
X151487016Y-82037515D01*
X151449500Y-82177525D01*
X145549138Y-82177525D01*
X145549311Y-82167297D01*
X145566087Y-81177525D01*
X168699500Y-81177525D01*
X168699500Y-81322475D01*
X168737016Y-81462485D01*
X168737017Y-81462488D01*
X168809488Y-81588011D01*
X168809490Y-81588013D01*
X168809491Y-81588015D01*
X168911985Y-81690509D01*
X168911986Y-81690510D01*
X168911988Y-81690511D01*
X169037511Y-81762982D01*
X169037512Y-81762982D01*
X169037515Y-81762984D01*
X169177525Y-81800500D01*
X169177528Y-81800500D01*
X169322472Y-81800500D01*
X169322475Y-81800500D01*
X169462485Y-81762984D01*
X169588015Y-81690509D01*
X169690509Y-81588015D01*
X169762984Y-81462485D01*
X169800500Y-81322475D01*
X169800500Y-81177525D01*
X171949500Y-81177525D01*
X171949500Y-81322475D01*
X171987016Y-81462485D01*
X171987017Y-81462488D01*
X172059488Y-81588011D01*
X172059490Y-81588013D01*
X172059491Y-81588015D01*
X172161985Y-81690509D01*
X172161986Y-81690510D01*
X172161988Y-81690511D01*
X172287511Y-81762982D01*
X172287512Y-81762982D01*
X172287515Y-81762984D01*
X172427525Y-81800500D01*
X172427528Y-81800500D01*
X172572472Y-81800500D01*
X172572475Y-81800500D01*
X172712485Y-81762984D01*
X172838015Y-81690509D01*
X172940509Y-81588015D01*
X173012984Y-81462485D01*
X173050500Y-81322475D01*
X173050500Y-81177525D01*
X173012984Y-81037515D01*
X173012278Y-81036293D01*
X172940511Y-80911988D01*
X172940506Y-80911982D01*
X172838017Y-80809493D01*
X172838011Y-80809488D01*
X172712488Y-80737017D01*
X172712489Y-80737017D01*
X172701006Y-80733940D01*
X172572475Y-80699500D01*
X172427525Y-80699500D01*
X172298993Y-80733940D01*
X172287511Y-80737017D01*
X172161988Y-80809488D01*
X172161982Y-80809493D01*
X172059493Y-80911982D01*
X172059488Y-80911988D01*
X171987017Y-81037511D01*
X171987016Y-81037515D01*
X171949500Y-81177525D01*
X169800500Y-81177525D01*
X169762984Y-81037515D01*
X169762278Y-81036293D01*
X169690511Y-80911988D01*
X169690506Y-80911982D01*
X169588017Y-80809493D01*
X169588011Y-80809488D01*
X169462488Y-80737017D01*
X169462489Y-80737017D01*
X169451006Y-80733940D01*
X169322475Y-80699500D01*
X169177525Y-80699500D01*
X169048993Y-80733940D01*
X169037511Y-80737017D01*
X168911988Y-80809488D01*
X168911982Y-80809493D01*
X168809493Y-80911982D01*
X168809488Y-80911988D01*
X168737017Y-81037511D01*
X168737016Y-81037515D01*
X168699500Y-81177525D01*
X145566087Y-81177525D01*
X145566260Y-81167297D01*
X145597409Y-79329525D01*
X175605963Y-79329525D01*
X175605963Y-79474475D01*
X175643479Y-79614485D01*
X175643480Y-79614488D01*
X175715951Y-79740011D01*
X175715953Y-79740013D01*
X175715954Y-79740015D01*
X175818448Y-79842509D01*
X175818449Y-79842510D01*
X175818451Y-79842511D01*
X175943974Y-79914982D01*
X175943975Y-79914982D01*
X175943978Y-79914984D01*
X176083988Y-79952500D01*
X176083991Y-79952500D01*
X176228935Y-79952500D01*
X176228938Y-79952500D01*
X176368948Y-79914984D01*
X176494478Y-79842509D01*
X176596972Y-79740015D01*
X176669447Y-79614485D01*
X176706963Y-79474475D01*
X176706963Y-79329525D01*
X176669447Y-79189515D01*
X176596972Y-79063985D01*
X176494478Y-78961491D01*
X176494476Y-78961490D01*
X176494474Y-78961488D01*
X176368951Y-78889017D01*
X176368952Y-78889017D01*
X176357469Y-78885940D01*
X176228938Y-78851500D01*
X176083988Y-78851500D01*
X175955456Y-78885940D01*
X175943974Y-78889017D01*
X175818451Y-78961488D01*
X175818445Y-78961493D01*
X175715956Y-79063982D01*
X175715951Y-79063988D01*
X175643480Y-79189511D01*
X175643479Y-79189515D01*
X175605963Y-79329525D01*
X145597409Y-79329525D01*
X145597582Y-79319297D01*
X145622867Y-77827525D01*
X162199500Y-77827525D01*
X162199500Y-77972475D01*
X162237016Y-78112485D01*
X162237017Y-78112488D01*
X162309488Y-78238011D01*
X162309490Y-78238013D01*
X162309491Y-78238015D01*
X162411985Y-78340509D01*
X162411986Y-78340510D01*
X162411988Y-78340511D01*
X162537511Y-78412982D01*
X162537512Y-78412982D01*
X162537515Y-78412984D01*
X162677525Y-78450500D01*
X162677528Y-78450500D01*
X162822472Y-78450500D01*
X162822475Y-78450500D01*
X162962485Y-78412984D01*
X163088015Y-78340509D01*
X163100999Y-78327525D01*
X177247998Y-78327525D01*
X177247998Y-78472475D01*
X177285514Y-78612485D01*
X177285515Y-78612488D01*
X177357986Y-78738011D01*
X177357988Y-78738013D01*
X177357989Y-78738015D01*
X177460483Y-78840509D01*
X177460484Y-78840510D01*
X177460486Y-78840511D01*
X177586009Y-78912982D01*
X177586010Y-78912982D01*
X177586013Y-78912984D01*
X177726023Y-78950500D01*
X177726026Y-78950500D01*
X177870970Y-78950500D01*
X177870973Y-78950500D01*
X178010983Y-78912984D01*
X178136513Y-78840509D01*
X178239007Y-78738015D01*
X178311482Y-78612485D01*
X178348998Y-78472475D01*
X178348998Y-78327525D01*
X178311482Y-78187515D01*
X178268163Y-78112485D01*
X178239009Y-78061988D01*
X178239004Y-78061982D01*
X178136515Y-77959493D01*
X178136509Y-77959488D01*
X178010986Y-77887017D01*
X178010987Y-77887017D01*
X177999504Y-77883940D01*
X177870973Y-77849500D01*
X177726023Y-77849500D01*
X177597491Y-77883940D01*
X177586009Y-77887017D01*
X177460486Y-77959488D01*
X177460480Y-77959493D01*
X177357991Y-78061982D01*
X177357986Y-78061988D01*
X177285515Y-78187511D01*
X177285514Y-78187515D01*
X177247998Y-78327525D01*
X163100999Y-78327525D01*
X163190509Y-78238015D01*
X163262984Y-78112485D01*
X163300500Y-77972475D01*
X163300500Y-77827525D01*
X163262984Y-77687515D01*
X163190509Y-77561985D01*
X163088015Y-77459491D01*
X163088013Y-77459490D01*
X163088011Y-77459488D01*
X162962488Y-77387017D01*
X162962489Y-77387017D01*
X162951006Y-77383940D01*
X162822475Y-77349500D01*
X162677525Y-77349500D01*
X162548993Y-77383940D01*
X162537511Y-77387017D01*
X162411988Y-77459488D01*
X162411982Y-77459493D01*
X162309493Y-77561982D01*
X162309488Y-77561988D01*
X162237017Y-77687511D01*
X162237016Y-77687515D01*
X162199500Y-77827525D01*
X145622867Y-77827525D01*
X145623040Y-77817297D01*
X145672019Y-74927525D01*
X162199500Y-74927525D01*
X162199500Y-75072475D01*
X162237016Y-75212485D01*
X162237017Y-75212488D01*
X162309488Y-75338011D01*
X162309490Y-75338013D01*
X162309491Y-75338015D01*
X162411985Y-75440509D01*
X162411986Y-75440510D01*
X162411988Y-75440511D01*
X162537511Y-75512982D01*
X162537512Y-75512982D01*
X162537515Y-75512984D01*
X162677525Y-75550500D01*
X162677528Y-75550500D01*
X162822472Y-75550500D01*
X162822475Y-75550500D01*
X162962485Y-75512984D01*
X163088015Y-75440509D01*
X163190509Y-75338015D01*
X163262984Y-75212485D01*
X163300500Y-75072475D01*
X163300500Y-74927525D01*
X163262984Y-74787515D01*
X163219665Y-74712485D01*
X163190511Y-74661988D01*
X163190506Y-74661982D01*
X163088017Y-74559493D01*
X163088015Y-74559491D01*
X162962485Y-74487016D01*
X162822475Y-74449500D01*
X162677525Y-74449500D01*
X162548993Y-74483940D01*
X162537511Y-74487017D01*
X162411988Y-74559488D01*
X162411982Y-74559493D01*
X162309493Y-74661982D01*
X162309488Y-74661988D01*
X162237017Y-74787511D01*
X162237016Y-74787515D01*
X162199500Y-74927525D01*
X145672019Y-74927525D01*
X145672192Y-74917297D01*
X145680493Y-74427525D01*
X167699500Y-74427525D01*
X167699500Y-74572475D01*
X167737016Y-74712485D01*
X167737017Y-74712488D01*
X167809488Y-74838011D01*
X167809490Y-74838013D01*
X167809491Y-74838015D01*
X167911985Y-74940509D01*
X167911986Y-74940510D01*
X167911988Y-74940511D01*
X168037511Y-75012982D01*
X168037512Y-75012982D01*
X168037515Y-75012984D01*
X168177525Y-75050500D01*
X168177528Y-75050500D01*
X168322472Y-75050500D01*
X168322475Y-75050500D01*
X168462485Y-75012984D01*
X168588015Y-74940509D01*
X168690509Y-74838015D01*
X168762984Y-74712485D01*
X168800500Y-74572475D01*
X168800500Y-74427525D01*
X168762984Y-74287515D01*
X168719665Y-74212485D01*
X168690511Y-74161988D01*
X168690506Y-74161982D01*
X168588017Y-74059493D01*
X168588011Y-74059488D01*
X168462488Y-73987017D01*
X168462489Y-73987017D01*
X168451006Y-73983940D01*
X168322475Y-73949500D01*
X168177525Y-73949500D01*
X168048993Y-73983940D01*
X168037511Y-73987017D01*
X167911988Y-74059488D01*
X167911982Y-74059493D01*
X167809493Y-74161982D01*
X167809488Y-74161988D01*
X167737017Y-74287511D01*
X167737016Y-74287515D01*
X167699500Y-74427525D01*
X145680493Y-74427525D01*
X145688968Y-73927525D01*
X179199500Y-73927525D01*
X179199500Y-74072475D01*
X179237016Y-74212485D01*
X179237017Y-74212488D01*
X179309488Y-74338011D01*
X179309490Y-74338013D01*
X179309491Y-74338015D01*
X179411985Y-74440509D01*
X179411986Y-74440510D01*
X179411988Y-74440511D01*
X179537511Y-74512982D01*
X179537512Y-74512982D01*
X179537515Y-74512984D01*
X179677525Y-74550500D01*
X179677528Y-74550500D01*
X179822472Y-74550500D01*
X179822475Y-74550500D01*
X179962485Y-74512984D01*
X180088015Y-74440509D01*
X180190509Y-74338015D01*
X180262984Y-74212485D01*
X180300500Y-74072475D01*
X180300500Y-73927525D01*
X180262984Y-73787515D01*
X180206977Y-73690509D01*
X180190511Y-73661988D01*
X180190506Y-73661982D01*
X180088017Y-73559493D01*
X180088011Y-73559488D01*
X179962488Y-73487017D01*
X179962489Y-73487017D01*
X179951006Y-73483940D01*
X179822475Y-73449500D01*
X179677525Y-73449500D01*
X179548993Y-73483940D01*
X179537511Y-73487017D01*
X179411988Y-73559488D01*
X179411982Y-73559493D01*
X179309493Y-73661982D01*
X179309488Y-73661988D01*
X179237017Y-73787511D01*
X179237016Y-73787515D01*
X179199500Y-73927525D01*
X145688968Y-73927525D01*
X145701680Y-73177525D01*
X171949500Y-73177525D01*
X171949500Y-73322475D01*
X171983537Y-73449500D01*
X171987017Y-73462488D01*
X172059488Y-73588011D01*
X172059490Y-73588013D01*
X172059491Y-73588015D01*
X172161985Y-73690509D01*
X172161986Y-73690510D01*
X172161988Y-73690511D01*
X172287511Y-73762982D01*
X172287512Y-73762982D01*
X172287515Y-73762984D01*
X172427525Y-73800500D01*
X172427528Y-73800500D01*
X172572472Y-73800500D01*
X172572475Y-73800500D01*
X172712485Y-73762984D01*
X172838015Y-73690509D01*
X172940509Y-73588015D01*
X173012984Y-73462485D01*
X173050500Y-73322475D01*
X173050500Y-73177525D01*
X176699500Y-73177525D01*
X176699500Y-73322475D01*
X176733537Y-73449500D01*
X176737017Y-73462488D01*
X176809488Y-73588011D01*
X176809490Y-73588013D01*
X176809491Y-73588015D01*
X176911985Y-73690509D01*
X176911986Y-73690510D01*
X176911988Y-73690511D01*
X177037511Y-73762982D01*
X177037512Y-73762982D01*
X177037515Y-73762984D01*
X177177525Y-73800500D01*
X177177528Y-73800500D01*
X177322473Y-73800500D01*
X177322475Y-73800500D01*
X177462485Y-73762984D01*
X177588015Y-73690509D01*
X177690509Y-73588015D01*
X177762984Y-73462485D01*
X177800500Y-73322475D01*
X177800500Y-73177525D01*
X177762984Y-73037515D01*
X177690509Y-72911985D01*
X177588015Y-72809491D01*
X177588013Y-72809490D01*
X177588011Y-72809488D01*
X177462488Y-72737017D01*
X177462489Y-72737017D01*
X177451006Y-72733940D01*
X177322475Y-72699500D01*
X177177525Y-72699500D01*
X177048993Y-72733940D01*
X177037511Y-72737017D01*
X176911988Y-72809488D01*
X176911982Y-72809493D01*
X176809493Y-72911982D01*
X176809488Y-72911988D01*
X176737017Y-73037511D01*
X176737016Y-73037515D01*
X176699500Y-73177525D01*
X173050500Y-73177525D01*
X173012984Y-73037515D01*
X172940509Y-72911985D01*
X172838015Y-72809491D01*
X172838013Y-72809490D01*
X172838011Y-72809488D01*
X172712488Y-72737017D01*
X172712489Y-72737017D01*
X172701006Y-72733940D01*
X172572475Y-72699500D01*
X172427525Y-72699500D01*
X172298993Y-72733940D01*
X172287511Y-72737017D01*
X172161988Y-72809488D01*
X172161982Y-72809493D01*
X172059493Y-72911982D01*
X172059488Y-72911988D01*
X171987017Y-73037511D01*
X171987016Y-73037515D01*
X171949500Y-73177525D01*
X145701680Y-73177525D01*
X145701853Y-73167297D01*
X145715141Y-72383287D01*
X145715141Y-72383283D01*
X145713266Y-72347752D01*
X145709059Y-72313559D01*
X145707279Y-72304411D01*
X145705000Y-72280743D01*
X145705000Y-72225838D01*
X145707486Y-72201135D01*
X145708972Y-72193821D01*
X145713085Y-72173593D01*
X145717291Y-72143605D01*
X145718866Y-72123484D01*
X145719731Y-72112455D01*
X145720955Y-72040260D01*
X145720955Y-72040248D01*
X145720786Y-72036139D01*
X145719750Y-72010765D01*
X145716934Y-71982305D01*
X145716924Y-71982214D01*
X145716908Y-71982046D01*
X145716708Y-71980117D01*
X145716708Y-71980114D01*
X145716706Y-71980108D01*
X145715650Y-71974979D01*
X145714375Y-71967698D01*
X145713235Y-71959810D01*
X145695450Y-71912258D01*
X145686905Y-71884982D01*
X145685883Y-71883111D01*
X145684775Y-71883716D01*
X145678312Y-71866436D01*
X145678308Y-71866429D01*
X145667066Y-71848266D01*
X145663667Y-71842425D01*
X145653444Y-71823701D01*
X145609856Y-71765473D01*
X145609849Y-71765465D01*
X144700049Y-70855666D01*
X144700036Y-70855653D01*
X144679686Y-70837374D01*
X144679680Y-70837369D01*
X144679671Y-70837361D01*
X144659050Y-70820744D01*
X144659047Y-70820742D01*
X144659044Y-70820740D01*
X144570713Y-70774535D01*
X144570710Y-70774534D01*
X144503675Y-70754850D01*
X144503667Y-70754848D01*
X144431690Y-70744500D01*
X144431689Y-70744500D01*
X142550379Y-70744500D01*
X142532827Y-70745650D01*
X142517022Y-70746686D01*
X142484945Y-70750909D01*
X142484944Y-70750909D01*
X142452222Y-70757413D01*
X142450736Y-70757760D01*
X142422577Y-70761000D01*
X142377414Y-70761000D01*
X142349828Y-70757825D01*
X142349828Y-70757826D01*
X142349820Y-70757824D01*
X142349251Y-70757759D01*
X142347859Y-70757434D01*
X142347763Y-70757415D01*
X142315062Y-70750911D01*
X142300178Y-70748951D01*
X142282972Y-70746686D01*
X142275273Y-70746181D01*
X142249621Y-70744500D01*
X141374000Y-70744500D01*
X141306961Y-70724815D01*
X141261206Y-70672011D01*
X141250000Y-70620500D01*
X141250000Y-68602155D01*
X172900000Y-68602155D01*
X172900000Y-69250000D01*
X173816988Y-69250000D01*
X173784075Y-69307007D01*
X173750000Y-69434174D01*
X173750000Y-69565826D01*
X173784075Y-69692993D01*
X173816988Y-69750000D01*
X172900000Y-69750000D01*
X172900000Y-70397844D01*
X172906401Y-70457372D01*
X172906403Y-70457379D01*
X172956645Y-70592086D01*
X172956649Y-70592093D01*
X173042809Y-70707187D01*
X173042812Y-70707190D01*
X173157906Y-70793350D01*
X173157913Y-70793354D01*
X173292620Y-70843596D01*
X173292627Y-70843598D01*
X173352155Y-70849999D01*
X173352172Y-70850000D01*
X174000000Y-70850000D01*
X174000000Y-69933012D01*
X174057007Y-69965925D01*
X174184174Y-70000000D01*
X174315826Y-70000000D01*
X174442993Y-69965925D01*
X174500000Y-69933012D01*
X174500000Y-70850000D01*
X175147828Y-70850000D01*
X175147844Y-70849999D01*
X175207372Y-70843598D01*
X175207379Y-70843596D01*
X175342086Y-70793354D01*
X175342093Y-70793350D01*
X175457187Y-70707190D01*
X175457190Y-70707187D01*
X175543350Y-70592093D01*
X175543354Y-70592086D01*
X175593596Y-70457379D01*
X175593598Y-70457372D01*
X175599999Y-70397844D01*
X175600000Y-70397827D01*
X175600000Y-70105050D01*
X175619685Y-70038011D01*
X175672489Y-69992256D01*
X175741647Y-69982312D01*
X175805203Y-70011337D01*
X175834485Y-70048756D01*
X175848766Y-70076786D01*
X175879357Y-70118890D01*
X175950586Y-70216928D01*
X176073072Y-70339414D01*
X176213212Y-70441232D01*
X176367555Y-70519873D01*
X176532299Y-70573402D01*
X176703389Y-70600500D01*
X176703390Y-70600500D01*
X176876610Y-70600500D01*
X176876611Y-70600500D01*
X177047701Y-70573402D01*
X177212445Y-70519873D01*
X177366788Y-70441232D01*
X177506928Y-70339414D01*
X177629414Y-70216928D01*
X177731232Y-70076788D01*
X177809873Y-69922445D01*
X177863402Y-69757701D01*
X177890500Y-69586611D01*
X177890500Y-69413389D01*
X178229499Y-69413389D01*
X178229499Y-69586610D01*
X178255456Y-69750502D01*
X178256597Y-69757701D01*
X178310126Y-69922445D01*
X178388767Y-70076788D01*
X178490585Y-70216928D01*
X178613071Y-70339414D01*
X178753211Y-70441232D01*
X178907554Y-70519873D01*
X179072298Y-70573402D01*
X179243388Y-70600500D01*
X179243389Y-70600500D01*
X179416609Y-70600500D01*
X179416610Y-70600500D01*
X179587700Y-70573402D01*
X179752444Y-70519873D01*
X179906787Y-70441232D01*
X180046927Y-70339414D01*
X180169413Y-70216928D01*
X180271231Y-70076788D01*
X180349872Y-69922445D01*
X180403401Y-69757701D01*
X180430499Y-69586611D01*
X180430499Y-69413389D01*
X180769500Y-69413389D01*
X180769500Y-69586610D01*
X180795457Y-69750502D01*
X180796598Y-69757701D01*
X180850127Y-69922445D01*
X180928768Y-70076788D01*
X181030586Y-70216928D01*
X181153072Y-70339414D01*
X181293212Y-70441232D01*
X181447555Y-70519873D01*
X181612299Y-70573402D01*
X181783389Y-70600500D01*
X181783390Y-70600500D01*
X181956610Y-70600500D01*
X181956611Y-70600500D01*
X182127701Y-70573402D01*
X182292445Y-70519873D01*
X182446788Y-70441232D01*
X182586928Y-70339414D01*
X182709414Y-70216928D01*
X182811232Y-70076788D01*
X182889873Y-69922445D01*
X182943402Y-69757701D01*
X182970500Y-69586611D01*
X182970500Y-69413389D01*
X183309500Y-69413389D01*
X183309500Y-69586610D01*
X183335457Y-69750502D01*
X183336598Y-69757701D01*
X183390127Y-69922445D01*
X183468768Y-70076788D01*
X183570586Y-70216928D01*
X183693072Y-70339414D01*
X183833212Y-70441232D01*
X183987555Y-70519873D01*
X184152299Y-70573402D01*
X184323389Y-70600500D01*
X184323390Y-70600500D01*
X184496610Y-70600500D01*
X184496611Y-70600500D01*
X184667701Y-70573402D01*
X184832445Y-70519873D01*
X184986788Y-70441232D01*
X185126928Y-70339414D01*
X185249414Y-70216928D01*
X185351232Y-70076788D01*
X185429873Y-69922445D01*
X185430896Y-69919294D01*
X185431610Y-69918250D01*
X185431734Y-69917952D01*
X185431796Y-69917977D01*
X185470327Y-69861618D01*
X185534683Y-69834415D01*
X185603530Y-69846323D01*
X185655011Y-69893562D01*
X185666760Y-69919287D01*
X185698904Y-70018217D01*
X185795379Y-70207557D01*
X185920272Y-70379459D01*
X185920276Y-70379464D01*
X186070535Y-70529723D01*
X186070540Y-70529727D01*
X186242442Y-70654620D01*
X186431782Y-70751095D01*
X186633871Y-70816757D01*
X186700000Y-70827231D01*
X186700000Y-69933012D01*
X186757007Y-69965925D01*
X186884174Y-70000000D01*
X187015826Y-70000000D01*
X187142993Y-69965925D01*
X187200000Y-69933012D01*
X187200000Y-70827230D01*
X187266126Y-70816757D01*
X187266129Y-70816757D01*
X187468217Y-70751095D01*
X187657557Y-70654620D01*
X187829459Y-70529727D01*
X187829464Y-70529723D01*
X187979723Y-70379464D01*
X187979727Y-70379459D01*
X188104620Y-70207557D01*
X188201095Y-70018217D01*
X188266757Y-69816129D01*
X188266757Y-69816126D01*
X188277231Y-69750000D01*
X187383012Y-69750000D01*
X187415925Y-69692993D01*
X187450000Y-69565826D01*
X187450000Y-69434174D01*
X187415925Y-69307007D01*
X187383012Y-69250000D01*
X188277231Y-69250000D01*
X188267580Y-69189071D01*
X190349499Y-69189071D01*
X190374497Y-69314738D01*
X190374499Y-69314744D01*
X190423533Y-69433124D01*
X190423538Y-69433133D01*
X190494723Y-69539668D01*
X190494726Y-69539672D01*
X190585327Y-69630273D01*
X190585331Y-69630276D01*
X190691866Y-69701461D01*
X190691872Y-69701464D01*
X190691873Y-69701465D01*
X190810256Y-69750501D01*
X190810260Y-69750501D01*
X190810261Y-69750502D01*
X190935928Y-69775500D01*
X190935931Y-69775500D01*
X191064071Y-69775500D01*
X191153568Y-69757697D01*
X191189744Y-69750501D01*
X191308127Y-69701465D01*
X191414669Y-69630276D01*
X191505276Y-69539669D01*
X191576465Y-69433127D01*
X191625501Y-69314744D01*
X191639912Y-69242299D01*
X191650500Y-69189071D01*
X191650500Y-69060928D01*
X191625502Y-68935261D01*
X191625501Y-68935260D01*
X191625501Y-68935256D01*
X191576465Y-68816873D01*
X191576464Y-68816872D01*
X191576461Y-68816866D01*
X191505276Y-68710331D01*
X191505273Y-68710327D01*
X191414672Y-68619726D01*
X191414668Y-68619723D01*
X191308133Y-68548538D01*
X191308124Y-68548533D01*
X191189744Y-68499499D01*
X191189738Y-68499497D01*
X191064071Y-68474500D01*
X191064069Y-68474500D01*
X190935931Y-68474500D01*
X190935929Y-68474500D01*
X190810261Y-68499497D01*
X190810255Y-68499499D01*
X190691875Y-68548533D01*
X190691866Y-68548538D01*
X190585331Y-68619723D01*
X190585327Y-68619726D01*
X190494726Y-68710327D01*
X190494723Y-68710331D01*
X190423538Y-68816866D01*
X190423533Y-68816875D01*
X190374499Y-68935255D01*
X190374497Y-68935261D01*
X190349500Y-69060928D01*
X190349500Y-69060931D01*
X190349500Y-69189069D01*
X190349500Y-69189071D01*
X190349499Y-69189071D01*
X188267580Y-69189071D01*
X188266757Y-69183873D01*
X188266757Y-69183870D01*
X188237283Y-69093157D01*
X188201095Y-68981782D01*
X188104620Y-68792442D01*
X187979727Y-68620540D01*
X187979723Y-68620535D01*
X187829464Y-68470276D01*
X187829459Y-68470272D01*
X187657557Y-68345379D01*
X187468215Y-68248903D01*
X187266124Y-68183241D01*
X187200000Y-68172768D01*
X187200000Y-69066988D01*
X187142993Y-69034075D01*
X187015826Y-69000000D01*
X186884174Y-69000000D01*
X186757007Y-69034075D01*
X186700000Y-69066988D01*
X186700000Y-68172768D01*
X186699999Y-68172768D01*
X186633875Y-68183241D01*
X186431784Y-68248903D01*
X186242442Y-68345379D01*
X186070540Y-68470272D01*
X186070535Y-68470276D01*
X185920276Y-68620535D01*
X185920272Y-68620540D01*
X185795379Y-68792442D01*
X185698904Y-68981783D01*
X185666760Y-69080712D01*
X185627322Y-69138388D01*
X185562964Y-69165586D01*
X185494117Y-69153671D01*
X185442642Y-69106427D01*
X185430898Y-69080712D01*
X185429873Y-69077555D01*
X185351232Y-68923212D01*
X185249414Y-68783072D01*
X185126928Y-68660586D01*
X184986788Y-68558768D01*
X184832445Y-68480127D01*
X184667701Y-68426598D01*
X184667699Y-68426597D01*
X184667698Y-68426597D01*
X184536271Y-68405781D01*
X184496611Y-68399500D01*
X184323389Y-68399500D01*
X184283728Y-68405781D01*
X184152302Y-68426597D01*
X183987552Y-68480128D01*
X183833211Y-68558768D01*
X183753256Y-68616859D01*
X183693072Y-68660586D01*
X183693070Y-68660588D01*
X183693069Y-68660588D01*
X183570588Y-68783069D01*
X183570588Y-68783070D01*
X183570586Y-68783072D01*
X183546033Y-68816866D01*
X183468768Y-68923211D01*
X183390128Y-69077552D01*
X183336597Y-69242302D01*
X183309500Y-69413389D01*
X182970500Y-69413389D01*
X182943402Y-69242299D01*
X182889873Y-69077555D01*
X182811232Y-68923212D01*
X182709414Y-68783072D01*
X182586928Y-68660586D01*
X182446788Y-68558768D01*
X182292445Y-68480127D01*
X182127701Y-68426598D01*
X182127699Y-68426597D01*
X182127698Y-68426597D01*
X181996271Y-68405781D01*
X181956611Y-68399500D01*
X181783389Y-68399500D01*
X181743728Y-68405781D01*
X181612302Y-68426597D01*
X181447552Y-68480128D01*
X181293211Y-68558768D01*
X181213256Y-68616859D01*
X181153072Y-68660586D01*
X181153070Y-68660588D01*
X181153069Y-68660588D01*
X181030588Y-68783069D01*
X181030588Y-68783070D01*
X181030586Y-68783072D01*
X181006033Y-68816866D01*
X180928768Y-68923211D01*
X180850128Y-69077552D01*
X180796597Y-69242302D01*
X180769500Y-69413389D01*
X180430499Y-69413389D01*
X180403401Y-69242299D01*
X180349872Y-69077555D01*
X180271231Y-68923212D01*
X180169413Y-68783072D01*
X180046927Y-68660586D01*
X179906787Y-68558768D01*
X179752444Y-68480127D01*
X179587700Y-68426598D01*
X179587698Y-68426597D01*
X179587697Y-68426597D01*
X179456270Y-68405781D01*
X179416610Y-68399500D01*
X179243388Y-68399500D01*
X179203727Y-68405781D01*
X179072301Y-68426597D01*
X178907551Y-68480128D01*
X178753210Y-68558768D01*
X178673255Y-68616859D01*
X178613071Y-68660586D01*
X178613069Y-68660588D01*
X178613068Y-68660588D01*
X178490587Y-68783069D01*
X178490587Y-68783070D01*
X178490585Y-68783072D01*
X178466032Y-68816866D01*
X178388767Y-68923211D01*
X178310127Y-69077552D01*
X178256596Y-69242302D01*
X178229499Y-69413389D01*
X177890500Y-69413389D01*
X177863402Y-69242299D01*
X177809873Y-69077555D01*
X177731232Y-68923212D01*
X177629414Y-68783072D01*
X177506928Y-68660586D01*
X177366788Y-68558768D01*
X177212445Y-68480127D01*
X177047701Y-68426598D01*
X177047699Y-68426597D01*
X177047698Y-68426597D01*
X176916271Y-68405781D01*
X176876611Y-68399500D01*
X176703389Y-68399500D01*
X176663728Y-68405781D01*
X176532302Y-68426597D01*
X176367552Y-68480128D01*
X176213211Y-68558768D01*
X176133256Y-68616859D01*
X176073072Y-68660586D01*
X176073070Y-68660588D01*
X176073069Y-68660588D01*
X175950588Y-68783069D01*
X175950588Y-68783070D01*
X175950586Y-68783072D01*
X175926033Y-68816866D01*
X175848768Y-68923211D01*
X175834485Y-68951244D01*
X175786510Y-69002040D01*
X175718689Y-69018835D01*
X175652554Y-68996297D01*
X175609103Y-68941582D01*
X175600000Y-68894949D01*
X175600000Y-68602172D01*
X175599999Y-68602155D01*
X175593598Y-68542627D01*
X175593596Y-68542620D01*
X175543354Y-68407913D01*
X175543350Y-68407906D01*
X175457190Y-68292812D01*
X175457187Y-68292809D01*
X175342093Y-68206649D01*
X175342086Y-68206645D01*
X175207379Y-68156403D01*
X175207372Y-68156401D01*
X175147844Y-68150000D01*
X174500000Y-68150000D01*
X174500000Y-69066988D01*
X174442993Y-69034075D01*
X174315826Y-69000000D01*
X174184174Y-69000000D01*
X174057007Y-69034075D01*
X174000000Y-69066988D01*
X174000000Y-68150000D01*
X173352155Y-68150000D01*
X173292627Y-68156401D01*
X173292620Y-68156403D01*
X173157913Y-68206645D01*
X173157906Y-68206649D01*
X173042812Y-68292809D01*
X173042809Y-68292812D01*
X172956649Y-68407906D01*
X172956645Y-68407913D01*
X172906403Y-68542620D01*
X172906401Y-68542627D01*
X172900000Y-68602155D01*
X141250000Y-68602155D01*
X141250000Y-66124500D01*
X141269685Y-66057461D01*
X141322489Y-66011706D01*
X141374000Y-66000500D01*
X195876000Y-66000500D01*
X195943039Y-66020185D01*
G37*
%TD.AperFunction*%
%TD*%
M02*
