%TF.GenerationSoftware,KiCad,Pcbnew,9.0.2*%
%TF.CreationDate,2025-12-06T18:07:06+09:00*%
%TF.ProjectId,ECG,4543472e-6b69-4636-9164-5f7063625858,rev?*%
%TF.SameCoordinates,Original*%
%TF.FileFunction,Copper,L3,Inr*%
%TF.FilePolarity,Positive*%
%FSLAX46Y46*%
G04 Gerber Fmt 4.6, Leading zero omitted, Abs format (unit mm)*
G04 Created by KiCad (PCBNEW 9.0.2) date 2025-12-06 18:07:06*
%MOMM*%
%LPD*%
G01*
G04 APERTURE LIST*
G04 Aperture macros list*
%AMRoundRect*
0 Rectangle with rounded corners*
0 $1 Rounding radius*
0 $2 $3 $4 $5 $6 $7 $8 $9 X,Y pos of 4 corners*
0 Add a 4 corners polygon primitive as box body*
4,1,4,$2,$3,$4,$5,$6,$7,$8,$9,$2,$3,0*
0 Add four circle primitives for the rounded corners*
1,1,$1+$1,$2,$3*
1,1,$1+$1,$4,$5*
1,1,$1+$1,$6,$7*
1,1,$1+$1,$8,$9*
0 Add four rect primitives between the rounded corners*
20,1,$1+$1,$2,$3,$4,$5,0*
20,1,$1+$1,$4,$5,$6,$7,0*
20,1,$1+$1,$6,$7,$8,$9,0*
20,1,$1+$1,$8,$9,$2,$3,0*%
G04 Aperture macros list end*
%TA.AperFunction,HeatsinkPad*%
%ADD10C,0.600000*%
%TD*%
%TA.AperFunction,ComponentPad*%
%ADD11O,1.000000X2.100000*%
%TD*%
%TA.AperFunction,ComponentPad*%
%ADD12O,1.000000X1.600000*%
%TD*%
%TA.AperFunction,ComponentPad*%
%ADD13C,1.320000*%
%TD*%
%TA.AperFunction,ComponentPad*%
%ADD14C,1.200000*%
%TD*%
%TA.AperFunction,ComponentPad*%
%ADD15RoundRect,0.250000X-0.625000X0.350000X-0.625000X-0.350000X0.625000X-0.350000X0.625000X0.350000X0*%
%TD*%
%TA.AperFunction,ComponentPad*%
%ADD16O,1.750000X1.200000*%
%TD*%
%TA.AperFunction,ViaPad*%
%ADD17C,0.600000*%
%TD*%
%TA.AperFunction,ViaPad*%
%ADD18C,0.800000*%
%TD*%
G04 APERTURE END LIST*
D10*
%TO.N,GNDPWR*%
%TO.C,U2*%
X187250000Y-81110000D03*
X186150000Y-81110000D03*
X187800000Y-81660000D03*
X186700000Y-81660000D03*
X185600000Y-81660000D03*
X187250000Y-82210000D03*
X186150000Y-82210000D03*
X187800000Y-82760000D03*
X186700000Y-82760000D03*
X185600000Y-82760000D03*
X187250000Y-83310000D03*
X186150000Y-83310000D03*
%TD*%
D11*
%TO.N,GND2*%
%TO.C,J2*%
X184930000Y-115370000D03*
D12*
X184930000Y-119550000D03*
D11*
X193570000Y-115370000D03*
D12*
X193570000Y-119550000D03*
%TD*%
D13*
%TO.N,Net-(IC11-TS{slash}MR)*%
%TO.C,TH1*%
X173250000Y-85400000D03*
%TO.N,GNDPWR*%
X173250000Y-83600000D03*
%TD*%
D14*
%TO.N,GND2*%
%TO.C,PS2*%
X181225000Y-115055000D03*
X181225000Y-112515000D03*
%TO.N,Net-(PS2-TRIM)*%
X181225000Y-94735000D03*
%TO.N,Net-(IC11-IN)*%
X196465000Y-92195000D03*
%TO.N,GNDPWR*%
X196465000Y-97275000D03*
%TO.N,Net-(PS2-+VIN_1)*%
X196465000Y-112515000D03*
X196465000Y-115055000D03*
%TD*%
D15*
%TO.N,Net-(BT1-+)*%
%TO.C,BT1*%
X176000000Y-81749999D03*
D16*
%TO.N,GNDPWR*%
X176000000Y-83750000D03*
%TD*%
D17*
%TO.N,+BATT*%
X165000000Y-91249998D03*
X172500000Y-81250000D03*
X176194835Y-95917473D03*
X172500000Y-73250000D03*
X167289359Y-90860705D03*
X177997499Y-95864382D03*
%TO.N,GNDPWR*%
X163700000Y-74900000D03*
X156500000Y-96250000D03*
X167650000Y-93600000D03*
X153750000Y-85000000D03*
X153750000Y-92500000D03*
X169308500Y-70408500D03*
D18*
X162500000Y-104000000D03*
D17*
X178500000Y-84750000D03*
X163750000Y-79500000D03*
X145400000Y-70466000D03*
X170500000Y-90999999D03*
X177000000Y-90150000D03*
X183250000Y-84500000D03*
X148250000Y-82250000D03*
X171750000Y-119500000D03*
X171999999Y-92499999D03*
X166000000Y-101500000D03*
X167650000Y-92900000D03*
X166950000Y-93600001D03*
X135750000Y-113250000D03*
X174249999Y-99250000D03*
X177050000Y-93900000D03*
X160750000Y-96900000D03*
X154300000Y-94900000D03*
X172000000Y-90999999D03*
X184500000Y-85750000D03*
X168750000Y-87500000D03*
X156500000Y-95250000D03*
X171500000Y-81000000D03*
X164050000Y-90999999D03*
X195600000Y-66300000D03*
X146000000Y-90000000D03*
X164228480Y-82726032D03*
X161700000Y-91000000D03*
X163300000Y-90999999D03*
X192250000Y-74000000D03*
X160950000Y-91000000D03*
X153750000Y-91250000D03*
X177200000Y-74500000D03*
X145849000Y-97881000D03*
X144000000Y-105250000D03*
X173500000Y-102250000D03*
X153500000Y-82250000D03*
X145977380Y-82897620D03*
X175249999Y-92105520D03*
X146000000Y-79750000D03*
X177600000Y-66500000D03*
X162150000Y-96900000D03*
X141750000Y-106250000D03*
X148400000Y-70466000D03*
X174250000Y-90250000D03*
X146000000Y-74750000D03*
X181000000Y-78500000D03*
X160400000Y-70466000D03*
X150250000Y-100750000D03*
X162150000Y-98100000D03*
X163250000Y-82500000D03*
X153000000Y-86250000D03*
D18*
X164500000Y-104000000D03*
D17*
X187750000Y-94250000D03*
X151500000Y-86250000D03*
X166950001Y-92900000D03*
X169000000Y-75000000D03*
X161100000Y-97500000D03*
X142000000Y-107750000D03*
X172000000Y-91749999D03*
X159250000Y-91250000D03*
X160750000Y-98100000D03*
X153250000Y-95500000D03*
X186250000Y-92750000D03*
X189000000Y-84000000D03*
X146000000Y-94750000D03*
X160800000Y-72900000D03*
X165750000Y-79500000D03*
X184800000Y-71100000D03*
X146000000Y-76000000D03*
X165049999Y-87549999D03*
X171000000Y-89000000D03*
X151400000Y-70466000D03*
X174250000Y-98500000D03*
X149500000Y-79000000D03*
X135750000Y-119500000D03*
X175250000Y-95250000D03*
X190400000Y-71100000D03*
X161800000Y-97500000D03*
X155500000Y-98250000D03*
X161450000Y-96900000D03*
X145709894Y-86481836D03*
X142400000Y-70466000D03*
X172500000Y-89000000D03*
X160400000Y-97500000D03*
X193000000Y-67800000D03*
X141595495Y-66345045D03*
X177750000Y-93900000D03*
X151500000Y-90250000D03*
X146000000Y-72250000D03*
X171250000Y-90999999D03*
X146000000Y-101000000D03*
X161450000Y-98100000D03*
X138500000Y-106750000D03*
X146000000Y-93500000D03*
X193700000Y-74000000D03*
X153950000Y-95500000D03*
X162850000Y-96900000D03*
X184325000Y-95475000D03*
X193700000Y-88750000D03*
X155750000Y-83250000D03*
X154300000Y-96100000D03*
X153600000Y-96100000D03*
X147750000Y-99250000D03*
X164750000Y-73250000D03*
X157400000Y-70466000D03*
X154400000Y-70466000D03*
X146000000Y-91000000D03*
X162500000Y-97500000D03*
X140325000Y-108250000D03*
X146000000Y-78500000D03*
X174250000Y-97750000D03*
X163200000Y-97500000D03*
X153600000Y-94900000D03*
X174750000Y-87500000D03*
X155500000Y-100000000D03*
X162850000Y-98100000D03*
X154650000Y-95500000D03*
X167000000Y-81000000D03*
X187000000Y-79500000D03*
X178250000Y-83750000D03*
X180800000Y-71300000D03*
D18*
%TO.N,VDD*%
X174000000Y-92500000D03*
D17*
X152000000Y-82250000D03*
X192250000Y-91750000D03*
D18*
X174000000Y-91500000D03*
X174000000Y-94500000D03*
X174000000Y-93500000D03*
D17*
X159250000Y-83250000D03*
D18*
X191000000Y-69125000D03*
D17*
%TO.N,VCC*%
X143500000Y-83750000D03*
X157100000Y-93000000D03*
X157450000Y-92400000D03*
X143500000Y-80225000D03*
X157800000Y-93000000D03*
X143500000Y-72700000D03*
X138000000Y-104250000D03*
X159200000Y-93000000D03*
X143500000Y-87725000D03*
X154000000Y-93500000D03*
X159900000Y-93000000D03*
X158500000Y-93000000D03*
X158150000Y-92400000D03*
X143500000Y-98950000D03*
X143519309Y-76450000D03*
X159550000Y-92400000D03*
X158850000Y-92400000D03*
X143500000Y-91450000D03*
X143500000Y-95200000D03*
%TO.N,VSS*%
X143500000Y-82175000D03*
X143500906Y-74675000D03*
X143500000Y-89708323D03*
X157000000Y-103150000D03*
X142750000Y-106500000D03*
X143500000Y-78425000D03*
X143500000Y-85925000D03*
X158400000Y-103150000D03*
X158050000Y-102550000D03*
X143500000Y-93400000D03*
X158750000Y-102550000D03*
X157700000Y-103150000D03*
X157350000Y-102550000D03*
X143500000Y-97175000D03*
X160850000Y-102550000D03*
X159100000Y-103150000D03*
X160150000Y-102550000D03*
X160500000Y-103150000D03*
X159450000Y-102550000D03*
X159800000Y-103150000D03*
X143500000Y-100925000D03*
X161200000Y-103150000D03*
%TO.N,+5V*%
X164900000Y-94800000D03*
X159601011Y-98431771D03*
X169650000Y-94699999D03*
X162640409Y-89890409D03*
X161450000Y-95099998D03*
X169650000Y-94000000D03*
X164900000Y-94099999D03*
%TO.N,GND*%
X150250000Y-84000000D03*
X148000000Y-97450000D03*
X146074000Y-85250000D03*
X147000000Y-87250000D03*
X148750000Y-83750000D03*
X150250000Y-92500000D03*
X149050000Y-96850000D03*
X149543141Y-94543141D03*
X150100000Y-97450000D03*
X148000000Y-96250000D03*
X147375000Y-85250000D03*
X148700000Y-96250000D03*
X147000000Y-89250000D03*
X149400000Y-96250000D03*
X149400000Y-97450000D03*
X150450000Y-96850000D03*
X147250000Y-92750000D03*
X149750000Y-96850000D03*
X148700000Y-97450000D03*
X148350000Y-96850000D03*
X147650000Y-96850000D03*
%TO.N,Net-(D5-A)*%
X177250000Y-73250000D03*
X179500000Y-81750000D03*
%TO.N,Net-(IC11-IN)*%
X182250000Y-96500000D03*
X176133736Y-92800002D03*
X191250000Y-93500000D03*
X174750000Y-86500000D03*
X187750000Y-95250000D03*
%TO.N,Net-(BT1-+)*%
X179424000Y-93100000D03*
X176719030Y-98014294D03*
%TO.N,Net-(PS2-+VIN_1)*%
X184945000Y-109500000D03*
X186945000Y-113300000D03*
X191845000Y-113400000D03*
%TO.N,GND2*%
X192500000Y-106750000D03*
X199000000Y-107000000D03*
X193000000Y-110700000D03*
X181250000Y-106750000D03*
X183670000Y-108620000D03*
X191290000Y-108640000D03*
X180750000Y-119500000D03*
%TO.N,Net-(U3-UD+)*%
X188849999Y-110819238D03*
X190004620Y-109535380D03*
%TO.N,SCL*%
X169250000Y-81250000D03*
X168250000Y-74500000D03*
%TO.N,PWR-OFF*%
X177798498Y-78400000D03*
X176156463Y-79402000D03*
%TO.N,Net-(LED10-DI)*%
X179604071Y-80523311D03*
X179750000Y-74000000D03*
%TO.N,Net-(U2-EN)*%
X162750000Y-75000000D03*
X162750000Y-77900000D03*
%TD*%
%TA.AperFunction,Conductor*%
%TO.N,VCC*%
G36*
X142281714Y-71004225D02*
G01*
X142288111Y-71005939D01*
X142327525Y-71016500D01*
X142327527Y-71016500D01*
X142472473Y-71016500D01*
X142472475Y-71016500D01*
X142513086Y-71005617D01*
X142518286Y-71004225D01*
X142550379Y-71000000D01*
X145249621Y-71000000D01*
X145281714Y-71004225D01*
X145288111Y-71005939D01*
X145327525Y-71016500D01*
X145327527Y-71016500D01*
X145472473Y-71016500D01*
X145472475Y-71016500D01*
X145513086Y-71005617D01*
X145518286Y-71004225D01*
X145550379Y-71000000D01*
X146448638Y-71000000D01*
X146515677Y-71019685D01*
X146536319Y-71036319D01*
X149213681Y-73713681D01*
X149247166Y-73775004D01*
X149250000Y-73801362D01*
X149250000Y-78437084D01*
X149230315Y-78504123D01*
X149188002Y-78544470D01*
X149161985Y-78559491D01*
X149161982Y-78559493D01*
X149059493Y-78661982D01*
X149059488Y-78661988D01*
X148987017Y-78787511D01*
X148987016Y-78787515D01*
X148949500Y-78927525D01*
X148949500Y-79072475D01*
X148980529Y-79188274D01*
X148987017Y-79212488D01*
X149059488Y-79338011D01*
X149059490Y-79338013D01*
X149059491Y-79338015D01*
X149161985Y-79440509D01*
X149187999Y-79455528D01*
X149236214Y-79506092D01*
X149250000Y-79562915D01*
X149250000Y-83188238D01*
X149230315Y-83255277D01*
X149177511Y-83301032D01*
X149108353Y-83310976D01*
X149064000Y-83295625D01*
X148962488Y-83237017D01*
X148962489Y-83237017D01*
X148951006Y-83233940D01*
X148822475Y-83199500D01*
X148677525Y-83199500D01*
X148548993Y-83233940D01*
X148537511Y-83237017D01*
X148411988Y-83309488D01*
X148411982Y-83309493D01*
X148309493Y-83411982D01*
X148309488Y-83411988D01*
X148237017Y-83537511D01*
X148237016Y-83537515D01*
X148199500Y-83677525D01*
X148199500Y-83822475D01*
X148237016Y-83962485D01*
X148237017Y-83962488D01*
X148309488Y-84088011D01*
X148309490Y-84088013D01*
X148309491Y-84088015D01*
X148411985Y-84190509D01*
X148411986Y-84190510D01*
X148411988Y-84190511D01*
X148537511Y-84262982D01*
X148537512Y-84262982D01*
X148537515Y-84262984D01*
X148677525Y-84300500D01*
X148677528Y-84300500D01*
X148822472Y-84300500D01*
X148822475Y-84300500D01*
X148962485Y-84262984D01*
X149064001Y-84204373D01*
X149131899Y-84187901D01*
X149197926Y-84210753D01*
X149241117Y-84265674D01*
X149250000Y-84311761D01*
X149250000Y-88500000D01*
X150750000Y-90000000D01*
X150835468Y-90000000D01*
X150902507Y-90019685D01*
X150948262Y-90072489D01*
X150958206Y-90141647D01*
X150955243Y-90156089D01*
X150949500Y-90177525D01*
X150949500Y-90322475D01*
X150985457Y-90456666D01*
X150987017Y-90462488D01*
X151059488Y-90588011D01*
X151059490Y-90588013D01*
X151059491Y-90588015D01*
X151161985Y-90690509D01*
X151161986Y-90690510D01*
X151161988Y-90690511D01*
X151287511Y-90762982D01*
X151287512Y-90762982D01*
X151287515Y-90762984D01*
X151427525Y-90800500D01*
X151427528Y-90800500D01*
X151572472Y-90800500D01*
X151572475Y-90800500D01*
X151712485Y-90762984D01*
X151838015Y-90690509D01*
X151940509Y-90588015D01*
X152012984Y-90462485D01*
X152050500Y-90322475D01*
X152050500Y-90177525D01*
X152044757Y-90156092D01*
X152046420Y-90086243D01*
X152085583Y-90028381D01*
X152149811Y-90000877D01*
X152164532Y-90000000D01*
X155198638Y-90000000D01*
X155265677Y-90019685D01*
X155286319Y-90036319D01*
X156500000Y-91250000D01*
X158584932Y-91250000D01*
X158651971Y-91269685D01*
X158697726Y-91322489D01*
X158704705Y-91341901D01*
X158731128Y-91440511D01*
X158737017Y-91462488D01*
X158809488Y-91588011D01*
X158809490Y-91588013D01*
X158809491Y-91588015D01*
X158911985Y-91690509D01*
X159037515Y-91762984D01*
X159097381Y-91779025D01*
X159157040Y-91815389D01*
X159179847Y-91851346D01*
X159200000Y-91900000D01*
X160126000Y-91900000D01*
X160193039Y-91919685D01*
X160238794Y-91972489D01*
X160250000Y-92024000D01*
X160250000Y-94626000D01*
X160230315Y-94693039D01*
X160177511Y-94738794D01*
X160126000Y-94750000D01*
X156768199Y-94750000D01*
X156721132Y-94737381D01*
X156719995Y-94740127D01*
X156712486Y-94737016D01*
X156677482Y-94727637D01*
X156572475Y-94699500D01*
X156427525Y-94699500D01*
X156343519Y-94722009D01*
X156287513Y-94737016D01*
X156280005Y-94740127D01*
X156278867Y-94737381D01*
X156231801Y-94750000D01*
X154920652Y-94750000D01*
X154853613Y-94730315D01*
X154813265Y-94688001D01*
X154771471Y-94615613D01*
X154740509Y-94561985D01*
X154638015Y-94459491D01*
X154638013Y-94459490D01*
X154638011Y-94459488D01*
X154512488Y-94387017D01*
X154512489Y-94387017D01*
X154501006Y-94383940D01*
X154372475Y-94349500D01*
X154227525Y-94349500D01*
X154098993Y-94383940D01*
X154087511Y-94387017D01*
X154012000Y-94430614D01*
X153944100Y-94447087D01*
X153888000Y-94430614D01*
X153812488Y-94387017D01*
X153812489Y-94387017D01*
X153801006Y-94383940D01*
X153672475Y-94349500D01*
X153527525Y-94349500D01*
X153398993Y-94383940D01*
X153387511Y-94387017D01*
X153261988Y-94459488D01*
X153261982Y-94459493D01*
X153159493Y-94561982D01*
X153159491Y-94561985D01*
X153086735Y-94688001D01*
X153036167Y-94736216D01*
X152979348Y-94750000D01*
X150749999Y-94750000D01*
X149775177Y-95724821D01*
X149713854Y-95758306D01*
X149644162Y-95753322D01*
X149625500Y-95744529D01*
X149612491Y-95737018D01*
X149612486Y-95737016D01*
X149566973Y-95724821D01*
X149472475Y-95699500D01*
X149327525Y-95699500D01*
X149198993Y-95733940D01*
X149187511Y-95737017D01*
X149112000Y-95780614D01*
X149044100Y-95797087D01*
X148988000Y-95780614D01*
X148912488Y-95737017D01*
X148912489Y-95737017D01*
X148901006Y-95733940D01*
X148772475Y-95699500D01*
X148627525Y-95699500D01*
X148498993Y-95733940D01*
X148487511Y-95737017D01*
X148412000Y-95780614D01*
X148344100Y-95797087D01*
X148288000Y-95780614D01*
X148212488Y-95737017D01*
X148212489Y-95737017D01*
X148201006Y-95733940D01*
X148072475Y-95699500D01*
X147927525Y-95699500D01*
X147798993Y-95733940D01*
X147787511Y-95737017D01*
X147661988Y-95809488D01*
X147661982Y-95809493D01*
X147559493Y-95911982D01*
X147559488Y-95911988D01*
X147487017Y-96037511D01*
X147487016Y-96037515D01*
X147449500Y-96177525D01*
X147449500Y-96177527D01*
X147449500Y-96258505D01*
X147429815Y-96325544D01*
X147387500Y-96365892D01*
X147311988Y-96409489D01*
X147311982Y-96409493D01*
X147209493Y-96511982D01*
X147209488Y-96511988D01*
X147137017Y-96637511D01*
X147137016Y-96637515D01*
X147099500Y-96777525D01*
X147099500Y-96922475D01*
X147110228Y-96962511D01*
X147137017Y-97062488D01*
X147209488Y-97188011D01*
X147209490Y-97188013D01*
X147209491Y-97188015D01*
X147311985Y-97290509D01*
X147387499Y-97334107D01*
X147435715Y-97384673D01*
X147449500Y-97441494D01*
X147449500Y-97522475D01*
X147486214Y-97659491D01*
X147487017Y-97662488D01*
X147559490Y-97788014D01*
X147559501Y-97788028D01*
X147559506Y-97788041D01*
X147563555Y-97795054D01*
X147562461Y-97795685D01*
X147584694Y-97853198D01*
X147570655Y-97921642D01*
X147548805Y-97951194D01*
X145250000Y-100249999D01*
X145250000Y-102698638D01*
X145230315Y-102765677D01*
X145213681Y-102786319D01*
X143286319Y-104713681D01*
X143224996Y-104747166D01*
X143198638Y-104750000D01*
X137874000Y-104750000D01*
X137806961Y-104730315D01*
X137761206Y-104677511D01*
X137750000Y-104626000D01*
X137750000Y-102624000D01*
X137769685Y-102556961D01*
X137822489Y-102511206D01*
X137874000Y-102500000D01*
X140750000Y-102500000D01*
X141250000Y-102000000D01*
X141250000Y-100852525D01*
X142949500Y-100852525D01*
X142949500Y-100997475D01*
X142987016Y-101137485D01*
X142987017Y-101137488D01*
X143059488Y-101263011D01*
X143059490Y-101263013D01*
X143059491Y-101263015D01*
X143161985Y-101365509D01*
X143161986Y-101365510D01*
X143161988Y-101365511D01*
X143287511Y-101437982D01*
X143287512Y-101437982D01*
X143287515Y-101437984D01*
X143427525Y-101475500D01*
X143427528Y-101475500D01*
X143572472Y-101475500D01*
X143572475Y-101475500D01*
X143712485Y-101437984D01*
X143838015Y-101365509D01*
X143940509Y-101263015D01*
X144012984Y-101137485D01*
X144050500Y-100997475D01*
X144050500Y-100852525D01*
X144012984Y-100712515D01*
X143992782Y-100677525D01*
X143940511Y-100586988D01*
X143940506Y-100586982D01*
X143838017Y-100484493D01*
X143838011Y-100484488D01*
X143712488Y-100412017D01*
X143712489Y-100412017D01*
X143701006Y-100408940D01*
X143572475Y-100374500D01*
X143427525Y-100374500D01*
X143298993Y-100408940D01*
X143287511Y-100412017D01*
X143161988Y-100484488D01*
X143161982Y-100484493D01*
X143059493Y-100586982D01*
X143059488Y-100586988D01*
X142987017Y-100712511D01*
X142987016Y-100712515D01*
X142949500Y-100852525D01*
X141250000Y-100852525D01*
X141250000Y-97808525D01*
X145298500Y-97808525D01*
X145298500Y-97953475D01*
X145318342Y-98027525D01*
X145336017Y-98093488D01*
X145408488Y-98219011D01*
X145408490Y-98219013D01*
X145408491Y-98219015D01*
X145510985Y-98321509D01*
X145510986Y-98321510D01*
X145510988Y-98321511D01*
X145636511Y-98393982D01*
X145636512Y-98393982D01*
X145636515Y-98393984D01*
X145776525Y-98431500D01*
X145776528Y-98431500D01*
X145921472Y-98431500D01*
X145921475Y-98431500D01*
X146061485Y-98393984D01*
X146187015Y-98321509D01*
X146289509Y-98219015D01*
X146361984Y-98093485D01*
X146399500Y-97953475D01*
X146399500Y-97808525D01*
X146361984Y-97668515D01*
X146358504Y-97662488D01*
X146289511Y-97542988D01*
X146289506Y-97542982D01*
X146187017Y-97440493D01*
X146187011Y-97440488D01*
X146061488Y-97368017D01*
X146061489Y-97368017D01*
X146050006Y-97364940D01*
X145921475Y-97330500D01*
X145776525Y-97330500D01*
X145647993Y-97364940D01*
X145636511Y-97368017D01*
X145510988Y-97440488D01*
X145510982Y-97440493D01*
X145408493Y-97542982D01*
X145408488Y-97542988D01*
X145336017Y-97668511D01*
X145336016Y-97668515D01*
X145298500Y-97808525D01*
X141250000Y-97808525D01*
X141250000Y-97102525D01*
X142949500Y-97102525D01*
X142949500Y-97247475D01*
X142981800Y-97368017D01*
X142987017Y-97387488D01*
X143059488Y-97513011D01*
X143059490Y-97513013D01*
X143059491Y-97513015D01*
X143161985Y-97615509D01*
X143161986Y-97615510D01*
X143161988Y-97615511D01*
X143287511Y-97687982D01*
X143287512Y-97687982D01*
X143287515Y-97687984D01*
X143427525Y-97725500D01*
X143427528Y-97725500D01*
X143572472Y-97725500D01*
X143572475Y-97725500D01*
X143712485Y-97687984D01*
X143838015Y-97615509D01*
X143940509Y-97513015D01*
X144012984Y-97387485D01*
X144050500Y-97247475D01*
X144050500Y-97102525D01*
X144012984Y-96962515D01*
X143940509Y-96836985D01*
X143838015Y-96734491D01*
X143838013Y-96734490D01*
X143838011Y-96734488D01*
X143712488Y-96662017D01*
X143712489Y-96662017D01*
X143701006Y-96658940D01*
X143572475Y-96624500D01*
X143427525Y-96624500D01*
X143298993Y-96658940D01*
X143287511Y-96662017D01*
X143161988Y-96734488D01*
X143161982Y-96734493D01*
X143059493Y-96836982D01*
X143059488Y-96836988D01*
X142987017Y-96962511D01*
X142987016Y-96962515D01*
X142949500Y-97102525D01*
X141250000Y-97102525D01*
X141250000Y-93327525D01*
X142949500Y-93327525D01*
X142949500Y-93472475D01*
X142987016Y-93612485D01*
X142987017Y-93612488D01*
X143059488Y-93738011D01*
X143059490Y-93738013D01*
X143059491Y-93738015D01*
X143161985Y-93840509D01*
X143161986Y-93840510D01*
X143161988Y-93840511D01*
X143287511Y-93912982D01*
X143287512Y-93912982D01*
X143287515Y-93912984D01*
X143427525Y-93950500D01*
X143427528Y-93950500D01*
X143572472Y-93950500D01*
X143572475Y-93950500D01*
X143712485Y-93912984D01*
X143838015Y-93840509D01*
X143940509Y-93738015D01*
X144012984Y-93612485D01*
X144050500Y-93472475D01*
X144050500Y-93427525D01*
X145449500Y-93427525D01*
X145449500Y-93572475D01*
X145460221Y-93612485D01*
X145487017Y-93712488D01*
X145559488Y-93838011D01*
X145559490Y-93838013D01*
X145559491Y-93838015D01*
X145661985Y-93940509D01*
X145661986Y-93940510D01*
X145661988Y-93940511D01*
X145794553Y-94017048D01*
X145792971Y-94019787D01*
X145835774Y-94054281D01*
X145857838Y-94120575D01*
X145840558Y-94188274D01*
X145793859Y-94231751D01*
X145794553Y-94232952D01*
X145661988Y-94309488D01*
X145661982Y-94309493D01*
X145559493Y-94411982D01*
X145559488Y-94411988D01*
X145487017Y-94537511D01*
X145487016Y-94537515D01*
X145449500Y-94677525D01*
X145449500Y-94822475D01*
X145487016Y-94962485D01*
X145487017Y-94962488D01*
X145559488Y-95088011D01*
X145559490Y-95088013D01*
X145559491Y-95088015D01*
X145661985Y-95190509D01*
X145661986Y-95190510D01*
X145661988Y-95190511D01*
X145787511Y-95262982D01*
X145787512Y-95262982D01*
X145787515Y-95262984D01*
X145927525Y-95300500D01*
X145927528Y-95300500D01*
X146072472Y-95300500D01*
X146072475Y-95300500D01*
X146212485Y-95262984D01*
X146338015Y-95190509D01*
X146440509Y-95088015D01*
X146512984Y-94962485D01*
X146550500Y-94822475D01*
X146550500Y-94677525D01*
X146512984Y-94537515D01*
X146512982Y-94537511D01*
X146505494Y-94524541D01*
X146505493Y-94524540D01*
X146474856Y-94471476D01*
X146474388Y-94470666D01*
X148992641Y-94470666D01*
X148992641Y-94615616D01*
X149025268Y-94737381D01*
X149030158Y-94755629D01*
X149102629Y-94881152D01*
X149102631Y-94881154D01*
X149102632Y-94881156D01*
X149205126Y-94983650D01*
X149205127Y-94983651D01*
X149205129Y-94983652D01*
X149330652Y-95056123D01*
X149330653Y-95056123D01*
X149330656Y-95056125D01*
X149470666Y-95093641D01*
X149470669Y-95093641D01*
X149615613Y-95093641D01*
X149615616Y-95093641D01*
X149755626Y-95056125D01*
X149881156Y-94983650D01*
X149983650Y-94881156D01*
X150056125Y-94755626D01*
X150093641Y-94615616D01*
X150093641Y-94470666D01*
X150056125Y-94330656D01*
X150043906Y-94309493D01*
X149983652Y-94205129D01*
X149983647Y-94205123D01*
X149881158Y-94102634D01*
X149881152Y-94102629D01*
X149755629Y-94030158D01*
X149755630Y-94030158D01*
X149744147Y-94027081D01*
X149615616Y-93992641D01*
X149470666Y-93992641D01*
X149342134Y-94027081D01*
X149330652Y-94030158D01*
X149205129Y-94102629D01*
X149205123Y-94102634D01*
X149102634Y-94205123D01*
X149102629Y-94205129D01*
X149030158Y-94330652D01*
X149030157Y-94330656D01*
X148992641Y-94470666D01*
X146474388Y-94470666D01*
X146440509Y-94411985D01*
X146338015Y-94309491D01*
X146338013Y-94309490D01*
X146338011Y-94309488D01*
X146205447Y-94232952D01*
X146207031Y-94230208D01*
X146164244Y-94195746D01*
X146142162Y-94129457D01*
X146159424Y-94061753D01*
X146206136Y-94018241D01*
X146205447Y-94017048D01*
X146320710Y-93950500D01*
X146338015Y-93940509D01*
X146440509Y-93838015D01*
X146512984Y-93712485D01*
X146550500Y-93572475D01*
X146550500Y-93427525D01*
X146512984Y-93287515D01*
X146456977Y-93190509D01*
X146440511Y-93161988D01*
X146440506Y-93161982D01*
X146338017Y-93059493D01*
X146338011Y-93059488D01*
X146212488Y-92987017D01*
X146212489Y-92987017D01*
X146201006Y-92983940D01*
X146072475Y-92949500D01*
X145927525Y-92949500D01*
X145798993Y-92983940D01*
X145787511Y-92987017D01*
X145661988Y-93059488D01*
X145661982Y-93059493D01*
X145559493Y-93161982D01*
X145559488Y-93161988D01*
X145487017Y-93287511D01*
X145487016Y-93287515D01*
X145449500Y-93427525D01*
X144050500Y-93427525D01*
X144050500Y-93327525D01*
X144012984Y-93187515D01*
X143998244Y-93161985D01*
X143940511Y-93061988D01*
X143940506Y-93061982D01*
X143838017Y-92959493D01*
X143838011Y-92959488D01*
X143712488Y-92887017D01*
X143712489Y-92887017D01*
X143701006Y-92883940D01*
X143572475Y-92849500D01*
X143427525Y-92849500D01*
X143298993Y-92883940D01*
X143287511Y-92887017D01*
X143161988Y-92959488D01*
X143161982Y-92959493D01*
X143059493Y-93061982D01*
X143059488Y-93061988D01*
X142987017Y-93187511D01*
X142986214Y-93190509D01*
X142949500Y-93327525D01*
X141250000Y-93327525D01*
X141250000Y-92677525D01*
X146699500Y-92677525D01*
X146699500Y-92822475D01*
X146731128Y-92940511D01*
X146737017Y-92962488D01*
X146809488Y-93088011D01*
X146809490Y-93088013D01*
X146809491Y-93088015D01*
X146911985Y-93190509D01*
X146911986Y-93190510D01*
X146911988Y-93190511D01*
X147037511Y-93262982D01*
X147037512Y-93262982D01*
X147037515Y-93262984D01*
X147177525Y-93300500D01*
X147177528Y-93300500D01*
X147322472Y-93300500D01*
X147322475Y-93300500D01*
X147462485Y-93262984D01*
X147588015Y-93190509D01*
X147690509Y-93088015D01*
X147762984Y-92962485D01*
X147800500Y-92822475D01*
X147800500Y-92677525D01*
X147762984Y-92537515D01*
X147699481Y-92427525D01*
X149699500Y-92427525D01*
X149699500Y-92572475D01*
X149727649Y-92677527D01*
X149737017Y-92712488D01*
X149809488Y-92838011D01*
X149809490Y-92838013D01*
X149809491Y-92838015D01*
X149911985Y-92940509D01*
X149911986Y-92940510D01*
X149911988Y-92940511D01*
X150037511Y-93012982D01*
X150037512Y-93012982D01*
X150037515Y-93012984D01*
X150177525Y-93050500D01*
X150177528Y-93050500D01*
X150322472Y-93050500D01*
X150322475Y-93050500D01*
X150462485Y-93012984D01*
X150588015Y-92940509D01*
X150690509Y-92838015D01*
X150762984Y-92712485D01*
X150800500Y-92572475D01*
X150800500Y-92427525D01*
X150762984Y-92287515D01*
X150733828Y-92237016D01*
X150690511Y-92161988D01*
X150690506Y-92161982D01*
X150588017Y-92059493D01*
X150588011Y-92059488D01*
X150462488Y-91987017D01*
X150462489Y-91987017D01*
X150437077Y-91980208D01*
X150322475Y-91949500D01*
X150177525Y-91949500D01*
X150062923Y-91980208D01*
X150037511Y-91987017D01*
X149911988Y-92059488D01*
X149911982Y-92059493D01*
X149809493Y-92161982D01*
X149809488Y-92161988D01*
X149737017Y-92287511D01*
X149737016Y-92287515D01*
X149699500Y-92427525D01*
X147699481Y-92427525D01*
X147690509Y-92411985D01*
X147588015Y-92309491D01*
X147588013Y-92309490D01*
X147588011Y-92309488D01*
X147462488Y-92237017D01*
X147462489Y-92237017D01*
X147451006Y-92233940D01*
X147322475Y-92199500D01*
X147177525Y-92199500D01*
X147048993Y-92233940D01*
X147037511Y-92237017D01*
X146911988Y-92309488D01*
X146911982Y-92309493D01*
X146809493Y-92411982D01*
X146809488Y-92411988D01*
X146737017Y-92537511D01*
X146737016Y-92537515D01*
X146699500Y-92677525D01*
X141250000Y-92677525D01*
X141250000Y-89635848D01*
X142949500Y-89635848D01*
X142949500Y-89780798D01*
X142978039Y-89887304D01*
X142987017Y-89920811D01*
X143059488Y-90046334D01*
X143059490Y-90046336D01*
X143059491Y-90046338D01*
X143161985Y-90148832D01*
X143161986Y-90148833D01*
X143161988Y-90148834D01*
X143287511Y-90221305D01*
X143287512Y-90221305D01*
X143287515Y-90221307D01*
X143427525Y-90258823D01*
X143427528Y-90258823D01*
X143572472Y-90258823D01*
X143572475Y-90258823D01*
X143712485Y-90221307D01*
X143838015Y-90148832D01*
X143940509Y-90046338D01*
X144009106Y-89927525D01*
X145449500Y-89927525D01*
X145449500Y-90072475D01*
X145477649Y-90177527D01*
X145487017Y-90212488D01*
X145559488Y-90338011D01*
X145559493Y-90338017D01*
X145633795Y-90412319D01*
X145667280Y-90473642D01*
X145662296Y-90543334D01*
X145633795Y-90587681D01*
X145559493Y-90661982D01*
X145559488Y-90661988D01*
X145487017Y-90787511D01*
X145487016Y-90787515D01*
X145449500Y-90927525D01*
X145449500Y-91072475D01*
X145477649Y-91177527D01*
X145487017Y-91212488D01*
X145559488Y-91338011D01*
X145559490Y-91338013D01*
X145559491Y-91338015D01*
X145661985Y-91440509D01*
X145661986Y-91440510D01*
X145661988Y-91440511D01*
X145787511Y-91512982D01*
X145787512Y-91512982D01*
X145787515Y-91512984D01*
X145927525Y-91550500D01*
X145927528Y-91550500D01*
X146072472Y-91550500D01*
X146072475Y-91550500D01*
X146212485Y-91512984D01*
X146338015Y-91440509D01*
X146440509Y-91338015D01*
X146512984Y-91212485D01*
X146522352Y-91177525D01*
X153199500Y-91177525D01*
X153199500Y-91322475D01*
X153231128Y-91440511D01*
X153237017Y-91462488D01*
X153309488Y-91588011D01*
X153309490Y-91588013D01*
X153309491Y-91588015D01*
X153411985Y-91690509D01*
X153411986Y-91690510D01*
X153411988Y-91690511D01*
X153544553Y-91767048D01*
X153542971Y-91769787D01*
X153585774Y-91804281D01*
X153607838Y-91870575D01*
X153590558Y-91938274D01*
X153543859Y-91981751D01*
X153544553Y-91982952D01*
X153411988Y-92059488D01*
X153411982Y-92059493D01*
X153309493Y-92161982D01*
X153309488Y-92161988D01*
X153237017Y-92287511D01*
X153237016Y-92287515D01*
X153199500Y-92427525D01*
X153199500Y-92572475D01*
X153227649Y-92677527D01*
X153237017Y-92712488D01*
X153309488Y-92838011D01*
X153309490Y-92838013D01*
X153309491Y-92838015D01*
X153411985Y-92940509D01*
X153411986Y-92940510D01*
X153411988Y-92940511D01*
X153537511Y-93012982D01*
X153537512Y-93012982D01*
X153537515Y-93012984D01*
X153677525Y-93050500D01*
X153677528Y-93050500D01*
X153822472Y-93050500D01*
X153822475Y-93050500D01*
X153962485Y-93012984D01*
X154088015Y-92940509D01*
X154190509Y-92838015D01*
X154262984Y-92712485D01*
X154300500Y-92572475D01*
X154300500Y-92427525D01*
X154262984Y-92287515D01*
X154233828Y-92237016D01*
X154190511Y-92161988D01*
X154190506Y-92161982D01*
X154088017Y-92059493D01*
X154088011Y-92059488D01*
X153955447Y-91982952D01*
X153957031Y-91980208D01*
X153914244Y-91945746D01*
X153892162Y-91879457D01*
X153909424Y-91811753D01*
X153956136Y-91768241D01*
X153955447Y-91767048D01*
X154042731Y-91716653D01*
X154088015Y-91690509D01*
X154190509Y-91588015D01*
X154262984Y-91462485D01*
X154300500Y-91322475D01*
X154300500Y-91177525D01*
X154262984Y-91037515D01*
X154190509Y-90911985D01*
X154088015Y-90809491D01*
X154088013Y-90809490D01*
X154088011Y-90809488D01*
X153962488Y-90737017D01*
X153962489Y-90737017D01*
X153951006Y-90733940D01*
X153822475Y-90699500D01*
X153677525Y-90699500D01*
X153548993Y-90733940D01*
X153537511Y-90737017D01*
X153411988Y-90809488D01*
X153411982Y-90809493D01*
X153309493Y-90911982D01*
X153309488Y-90911988D01*
X153237017Y-91037511D01*
X153237016Y-91037515D01*
X153199500Y-91177525D01*
X146522352Y-91177525D01*
X146550500Y-91072475D01*
X146550500Y-90927525D01*
X146512984Y-90787515D01*
X146483828Y-90737016D01*
X146440511Y-90661988D01*
X146440506Y-90661982D01*
X146366205Y-90587681D01*
X146332720Y-90526358D01*
X146337704Y-90456666D01*
X146366205Y-90412319D01*
X146440509Y-90338015D01*
X146512984Y-90212485D01*
X146550500Y-90072475D01*
X146550500Y-89927525D01*
X146532445Y-89860144D01*
X146534108Y-89790299D01*
X146573270Y-89732436D01*
X146637498Y-89704931D01*
X146706400Y-89716517D01*
X146714209Y-89720660D01*
X146787515Y-89762984D01*
X146927525Y-89800500D01*
X146927528Y-89800500D01*
X147072472Y-89800500D01*
X147072475Y-89800500D01*
X147212485Y-89762984D01*
X147338015Y-89690509D01*
X147440509Y-89588015D01*
X147512984Y-89462485D01*
X147550500Y-89322475D01*
X147550500Y-89177525D01*
X147512984Y-89037515D01*
X147440509Y-88911985D01*
X147338015Y-88809491D01*
X147338013Y-88809490D01*
X147338011Y-88809488D01*
X147212488Y-88737017D01*
X147212489Y-88737017D01*
X147201006Y-88733940D01*
X147072475Y-88699500D01*
X146927525Y-88699500D01*
X146798993Y-88733940D01*
X146787511Y-88737017D01*
X146661988Y-88809488D01*
X146661982Y-88809493D01*
X146559493Y-88911982D01*
X146559488Y-88911988D01*
X146487017Y-89037511D01*
X146487016Y-89037515D01*
X146449500Y-89177525D01*
X146449500Y-89322475D01*
X146462318Y-89370311D01*
X146467554Y-89389851D01*
X146465891Y-89459701D01*
X146426729Y-89517564D01*
X146362500Y-89545068D01*
X146293598Y-89533482D01*
X146285779Y-89529332D01*
X146212488Y-89487017D01*
X146212489Y-89487017D01*
X146201006Y-89483940D01*
X146072475Y-89449500D01*
X145927525Y-89449500D01*
X145798993Y-89483940D01*
X145787511Y-89487017D01*
X145661988Y-89559488D01*
X145661982Y-89559493D01*
X145559493Y-89661982D01*
X145559488Y-89661988D01*
X145487017Y-89787511D01*
X145487016Y-89787515D01*
X145449500Y-89927525D01*
X144009106Y-89927525D01*
X144012984Y-89920808D01*
X144050500Y-89780798D01*
X144050500Y-89635848D01*
X144012984Y-89495838D01*
X143993729Y-89462488D01*
X143940511Y-89370311D01*
X143940506Y-89370305D01*
X143838017Y-89267816D01*
X143838011Y-89267811D01*
X143712488Y-89195340D01*
X143712489Y-89195340D01*
X143701006Y-89192263D01*
X143572475Y-89157823D01*
X143427525Y-89157823D01*
X143298993Y-89192263D01*
X143287511Y-89195340D01*
X143161988Y-89267811D01*
X143161982Y-89267816D01*
X143059493Y-89370305D01*
X143059488Y-89370311D01*
X142987017Y-89495834D01*
X142987016Y-89495838D01*
X142949500Y-89635848D01*
X141250000Y-89635848D01*
X141250000Y-87177525D01*
X146449500Y-87177525D01*
X146449500Y-87322475D01*
X146487016Y-87462485D01*
X146487017Y-87462488D01*
X146559488Y-87588011D01*
X146559490Y-87588013D01*
X146559491Y-87588015D01*
X146661985Y-87690509D01*
X146661986Y-87690510D01*
X146661988Y-87690511D01*
X146787511Y-87762982D01*
X146787512Y-87762982D01*
X146787515Y-87762984D01*
X146927525Y-87800500D01*
X146927528Y-87800500D01*
X147072472Y-87800500D01*
X147072475Y-87800500D01*
X147212485Y-87762984D01*
X147338015Y-87690509D01*
X147440509Y-87588015D01*
X147512984Y-87462485D01*
X147550500Y-87322475D01*
X147550500Y-87177525D01*
X147512984Y-87037515D01*
X147446490Y-86922345D01*
X147440511Y-86911988D01*
X147440506Y-86911982D01*
X147338017Y-86809493D01*
X147338011Y-86809488D01*
X147212488Y-86737017D01*
X147212489Y-86737017D01*
X147201006Y-86733940D01*
X147072475Y-86699500D01*
X146927525Y-86699500D01*
X146798993Y-86733940D01*
X146787511Y-86737017D01*
X146661988Y-86809488D01*
X146661982Y-86809493D01*
X146559493Y-86911982D01*
X146559488Y-86911988D01*
X146487017Y-87037511D01*
X146487016Y-87037515D01*
X146449500Y-87177525D01*
X141250000Y-87177525D01*
X141250000Y-85852525D01*
X142949500Y-85852525D01*
X142949500Y-85997475D01*
X142961251Y-86041329D01*
X142987017Y-86137488D01*
X143059488Y-86263011D01*
X143059490Y-86263013D01*
X143059491Y-86263015D01*
X143161985Y-86365509D01*
X143161986Y-86365510D01*
X143161988Y-86365511D01*
X143287511Y-86437982D01*
X143287512Y-86437982D01*
X143287515Y-86437984D01*
X143427525Y-86475500D01*
X143427528Y-86475500D01*
X143572472Y-86475500D01*
X143572475Y-86475500D01*
X143712485Y-86437984D01*
X143762061Y-86409361D01*
X145159394Y-86409361D01*
X145159394Y-86554311D01*
X145195889Y-86690509D01*
X145196911Y-86694324D01*
X145269382Y-86819847D01*
X145269384Y-86819849D01*
X145269385Y-86819851D01*
X145371879Y-86922345D01*
X145371880Y-86922346D01*
X145371882Y-86922347D01*
X145497405Y-86994818D01*
X145497406Y-86994818D01*
X145497409Y-86994820D01*
X145637419Y-87032336D01*
X145637422Y-87032336D01*
X145782366Y-87032336D01*
X145782369Y-87032336D01*
X145922379Y-86994820D01*
X146047909Y-86922345D01*
X146150403Y-86819851D01*
X146222878Y-86694321D01*
X146260394Y-86554311D01*
X146260394Y-86409361D01*
X146222878Y-86269351D01*
X146150403Y-86143821D01*
X146047909Y-86041327D01*
X146047008Y-86040807D01*
X146031558Y-86031886D01*
X145983343Y-85981319D01*
X145970121Y-85912712D01*
X145996089Y-85847847D01*
X146053004Y-85807319D01*
X146093559Y-85800500D01*
X146146472Y-85800500D01*
X146146475Y-85800500D01*
X146286485Y-85762984D01*
X146412015Y-85690509D01*
X146514509Y-85588015D01*
X146586984Y-85462485D01*
X146604726Y-85396271D01*
X146641090Y-85336613D01*
X146703937Y-85306084D01*
X146773313Y-85314379D01*
X146827191Y-85358864D01*
X146844273Y-85396269D01*
X146862016Y-85462485D01*
X146862017Y-85462488D01*
X146934488Y-85588011D01*
X146934490Y-85588013D01*
X146934491Y-85588015D01*
X147036985Y-85690509D01*
X147036986Y-85690510D01*
X147036988Y-85690511D01*
X147162511Y-85762982D01*
X147162512Y-85762982D01*
X147162515Y-85762984D01*
X147302525Y-85800500D01*
X147302528Y-85800500D01*
X147447472Y-85800500D01*
X147447475Y-85800500D01*
X147587485Y-85762984D01*
X147713015Y-85690509D01*
X147815509Y-85588015D01*
X147887984Y-85462485D01*
X147925500Y-85322475D01*
X147925500Y-85177525D01*
X147887984Y-85037515D01*
X147815509Y-84911985D01*
X147713015Y-84809491D01*
X147713013Y-84809490D01*
X147713011Y-84809488D01*
X147587488Y-84737017D01*
X147587489Y-84737017D01*
X147576006Y-84733940D01*
X147447475Y-84699500D01*
X147302525Y-84699500D01*
X147173993Y-84733940D01*
X147162511Y-84737017D01*
X147036988Y-84809488D01*
X147036982Y-84809493D01*
X146934493Y-84911982D01*
X146934488Y-84911988D01*
X146862017Y-85037511D01*
X146862016Y-85037515D01*
X146852649Y-85072475D01*
X146844275Y-85103726D01*
X146807909Y-85163386D01*
X146745062Y-85193915D01*
X146675687Y-85185620D01*
X146621809Y-85141134D01*
X146604725Y-85103726D01*
X146586984Y-85037515D01*
X146514509Y-84911985D01*
X146412015Y-84809491D01*
X146412013Y-84809490D01*
X146412011Y-84809488D01*
X146286488Y-84737017D01*
X146286489Y-84737017D01*
X146275006Y-84733940D01*
X146146475Y-84699500D01*
X146001525Y-84699500D01*
X145872993Y-84733940D01*
X145861511Y-84737017D01*
X145735988Y-84809488D01*
X145735982Y-84809493D01*
X145633493Y-84911982D01*
X145633488Y-84911988D01*
X145561017Y-85037511D01*
X145561016Y-85037515D01*
X145523500Y-85177525D01*
X145523500Y-85322475D01*
X145561016Y-85462485D01*
X145561017Y-85462488D01*
X145633488Y-85588011D01*
X145633490Y-85588013D01*
X145633491Y-85588015D01*
X145735985Y-85690509D01*
X145742413Y-85694220D01*
X145752336Y-85699950D01*
X145800551Y-85750517D01*
X145813773Y-85819124D01*
X145787805Y-85883989D01*
X145730890Y-85924517D01*
X145690335Y-85931336D01*
X145637419Y-85931336D01*
X145508887Y-85965776D01*
X145497405Y-85968853D01*
X145371882Y-86041324D01*
X145371876Y-86041329D01*
X145269387Y-86143818D01*
X145269382Y-86143824D01*
X145196911Y-86269347D01*
X145196910Y-86269351D01*
X145159394Y-86409361D01*
X143762061Y-86409361D01*
X143838015Y-86365509D01*
X143940509Y-86263015D01*
X144012984Y-86137485D01*
X144050500Y-85997475D01*
X144050500Y-85852525D01*
X144012984Y-85712515D01*
X143941101Y-85588011D01*
X143940511Y-85586988D01*
X143940506Y-85586982D01*
X143838017Y-85484493D01*
X143838011Y-85484488D01*
X143712488Y-85412017D01*
X143712489Y-85412017D01*
X143701006Y-85408940D01*
X143572475Y-85374500D01*
X143427525Y-85374500D01*
X143298993Y-85408940D01*
X143287511Y-85412017D01*
X143161988Y-85484488D01*
X143161982Y-85484493D01*
X143059493Y-85586982D01*
X143059488Y-85586988D01*
X142987017Y-85712511D01*
X142987016Y-85712515D01*
X142949500Y-85852525D01*
X141250000Y-85852525D01*
X141250000Y-82825145D01*
X145426880Y-82825145D01*
X145426880Y-82970095D01*
X145464396Y-83110105D01*
X145464397Y-83110108D01*
X145536868Y-83235631D01*
X145536870Y-83235633D01*
X145536871Y-83235635D01*
X145639365Y-83338129D01*
X145639366Y-83338130D01*
X145639368Y-83338131D01*
X145764891Y-83410602D01*
X145764892Y-83410602D01*
X145764895Y-83410604D01*
X145904905Y-83448120D01*
X145904908Y-83448120D01*
X146049852Y-83448120D01*
X146049855Y-83448120D01*
X146189865Y-83410604D01*
X146315395Y-83338129D01*
X146417889Y-83235635D01*
X146490364Y-83110105D01*
X146527880Y-82970095D01*
X146527880Y-82825145D01*
X146490364Y-82685135D01*
X146450166Y-82615511D01*
X146417891Y-82559608D01*
X146417886Y-82559602D01*
X146315397Y-82457113D01*
X146315391Y-82457108D01*
X146189868Y-82384637D01*
X146189869Y-82384637D01*
X146178386Y-82381560D01*
X146049855Y-82347120D01*
X145904905Y-82347120D01*
X145776373Y-82381560D01*
X145764891Y-82384637D01*
X145639368Y-82457108D01*
X145639362Y-82457113D01*
X145536873Y-82559602D01*
X145536868Y-82559608D01*
X145464397Y-82685131D01*
X145464396Y-82685135D01*
X145426880Y-82825145D01*
X141250000Y-82825145D01*
X141250000Y-82102525D01*
X142949500Y-82102525D01*
X142949500Y-82247475D01*
X142976200Y-82347120D01*
X142987017Y-82387488D01*
X143059488Y-82513011D01*
X143059490Y-82513013D01*
X143059491Y-82513015D01*
X143161985Y-82615509D01*
X143161986Y-82615510D01*
X143161988Y-82615511D01*
X143287511Y-82687982D01*
X143287512Y-82687982D01*
X143287515Y-82687984D01*
X143427525Y-82725500D01*
X143427528Y-82725500D01*
X143572472Y-82725500D01*
X143572475Y-82725500D01*
X143712485Y-82687984D01*
X143838015Y-82615509D01*
X143940509Y-82513015D01*
X144012984Y-82387485D01*
X144050500Y-82247475D01*
X144050500Y-82177525D01*
X147699500Y-82177525D01*
X147699500Y-82322475D01*
X147735575Y-82457108D01*
X147737017Y-82462488D01*
X147809488Y-82588011D01*
X147809490Y-82588013D01*
X147809491Y-82588015D01*
X147911985Y-82690509D01*
X147911986Y-82690510D01*
X147911988Y-82690511D01*
X148037511Y-82762982D01*
X148037512Y-82762982D01*
X148037515Y-82762984D01*
X148177525Y-82800500D01*
X148177528Y-82800500D01*
X148322472Y-82800500D01*
X148322475Y-82800500D01*
X148462485Y-82762984D01*
X148588015Y-82690509D01*
X148690509Y-82588015D01*
X148762984Y-82462485D01*
X148800500Y-82322475D01*
X148800500Y-82177525D01*
X148762984Y-82037515D01*
X148719680Y-81962511D01*
X148690511Y-81911988D01*
X148690506Y-81911982D01*
X148588017Y-81809493D01*
X148588011Y-81809488D01*
X148462488Y-81737017D01*
X148462489Y-81737017D01*
X148451006Y-81733940D01*
X148322475Y-81699500D01*
X148177525Y-81699500D01*
X148048993Y-81733940D01*
X148037511Y-81737017D01*
X147911988Y-81809488D01*
X147911982Y-81809493D01*
X147809493Y-81911982D01*
X147809488Y-81911988D01*
X147737017Y-82037511D01*
X147737016Y-82037515D01*
X147699500Y-82177525D01*
X144050500Y-82177525D01*
X144050500Y-82102525D01*
X144012984Y-81962515D01*
X143983810Y-81911985D01*
X143940511Y-81836988D01*
X143940506Y-81836982D01*
X143838017Y-81734493D01*
X143838011Y-81734488D01*
X143712488Y-81662017D01*
X143712489Y-81662017D01*
X143701006Y-81658940D01*
X143572475Y-81624500D01*
X143427525Y-81624500D01*
X143298993Y-81658940D01*
X143287511Y-81662017D01*
X143161988Y-81734488D01*
X143161982Y-81734493D01*
X143059493Y-81836982D01*
X143059488Y-81836988D01*
X142987017Y-81962511D01*
X142987016Y-81962515D01*
X142949500Y-82102525D01*
X141250000Y-82102525D01*
X141250000Y-78352525D01*
X142949500Y-78352525D01*
X142949500Y-78497475D01*
X142987016Y-78637485D01*
X142987017Y-78637488D01*
X143059488Y-78763011D01*
X143059490Y-78763013D01*
X143059491Y-78763015D01*
X143161985Y-78865509D01*
X143161986Y-78865510D01*
X143161988Y-78865511D01*
X143287511Y-78937982D01*
X143287512Y-78937982D01*
X143287515Y-78937984D01*
X143427525Y-78975500D01*
X143427528Y-78975500D01*
X143572472Y-78975500D01*
X143572475Y-78975500D01*
X143712485Y-78937984D01*
X143838015Y-78865509D01*
X143940509Y-78763015D01*
X144012984Y-78637485D01*
X144050500Y-78497475D01*
X144050500Y-78427525D01*
X145449500Y-78427525D01*
X145449500Y-78572475D01*
X145487016Y-78712485D01*
X145487017Y-78712488D01*
X145559488Y-78838011D01*
X145559490Y-78838013D01*
X145559491Y-78838015D01*
X145661985Y-78940509D01*
X145661986Y-78940510D01*
X145661988Y-78940511D01*
X145794553Y-79017048D01*
X145792971Y-79019787D01*
X145835774Y-79054281D01*
X145857838Y-79120575D01*
X145840558Y-79188274D01*
X145793859Y-79231751D01*
X145794553Y-79232952D01*
X145661988Y-79309488D01*
X145661982Y-79309493D01*
X145559493Y-79411982D01*
X145559488Y-79411988D01*
X145487017Y-79537511D01*
X145487016Y-79537515D01*
X145449500Y-79677525D01*
X145449500Y-79822475D01*
X145487016Y-79962485D01*
X145487017Y-79962488D01*
X145559488Y-80088011D01*
X145559490Y-80088013D01*
X145559491Y-80088015D01*
X145661985Y-80190509D01*
X145661986Y-80190510D01*
X145661988Y-80190511D01*
X145787511Y-80262982D01*
X145787512Y-80262982D01*
X145787515Y-80262984D01*
X145927525Y-80300500D01*
X145927528Y-80300500D01*
X146072472Y-80300500D01*
X146072475Y-80300500D01*
X146212485Y-80262984D01*
X146338015Y-80190509D01*
X146440509Y-80088015D01*
X146512984Y-79962485D01*
X146550500Y-79822475D01*
X146550500Y-79677525D01*
X146512984Y-79537515D01*
X146465647Y-79455526D01*
X146440511Y-79411988D01*
X146440506Y-79411982D01*
X146338017Y-79309493D01*
X146338011Y-79309488D01*
X146205447Y-79232952D01*
X146207031Y-79230208D01*
X146164244Y-79195746D01*
X146142162Y-79129457D01*
X146159424Y-79061753D01*
X146206136Y-79018241D01*
X146205447Y-79017048D01*
X146292731Y-78966653D01*
X146338015Y-78940509D01*
X146440509Y-78838015D01*
X146512984Y-78712485D01*
X146550500Y-78572475D01*
X146550500Y-78427525D01*
X146512984Y-78287515D01*
X146469680Y-78212511D01*
X146440511Y-78161988D01*
X146440506Y-78161982D01*
X146338017Y-78059493D01*
X146338011Y-78059488D01*
X146212488Y-77987017D01*
X146212489Y-77987017D01*
X146201006Y-77983940D01*
X146072475Y-77949500D01*
X145927525Y-77949500D01*
X145798993Y-77983940D01*
X145787511Y-77987017D01*
X145661988Y-78059488D01*
X145661982Y-78059493D01*
X145559493Y-78161982D01*
X145559488Y-78161988D01*
X145487017Y-78287511D01*
X145487016Y-78287515D01*
X145449500Y-78427525D01*
X144050500Y-78427525D01*
X144050500Y-78352525D01*
X144012984Y-78212515D01*
X143983810Y-78161985D01*
X143940511Y-78086988D01*
X143940506Y-78086982D01*
X143838017Y-77984493D01*
X143838011Y-77984488D01*
X143712488Y-77912017D01*
X143712489Y-77912017D01*
X143701006Y-77908940D01*
X143572475Y-77874500D01*
X143427525Y-77874500D01*
X143298993Y-77908940D01*
X143287511Y-77912017D01*
X143161988Y-77984488D01*
X143161982Y-77984493D01*
X143059493Y-78086982D01*
X143059488Y-78086988D01*
X142987017Y-78212511D01*
X142987016Y-78212515D01*
X142949500Y-78352525D01*
X141250000Y-78352525D01*
X141250000Y-74602525D01*
X142950406Y-74602525D01*
X142950406Y-74747475D01*
X142987922Y-74887485D01*
X142987923Y-74887488D01*
X143060394Y-75013011D01*
X143060396Y-75013013D01*
X143060397Y-75013015D01*
X143162891Y-75115509D01*
X143162892Y-75115510D01*
X143162894Y-75115511D01*
X143288417Y-75187982D01*
X143288418Y-75187982D01*
X143288421Y-75187984D01*
X143428431Y-75225500D01*
X143428434Y-75225500D01*
X143573378Y-75225500D01*
X143573381Y-75225500D01*
X143713391Y-75187984D01*
X143838921Y-75115509D01*
X143941415Y-75013015D01*
X144013890Y-74887485D01*
X144051406Y-74747475D01*
X144051406Y-74677525D01*
X145449500Y-74677525D01*
X145449500Y-74822475D01*
X145487016Y-74962485D01*
X145487017Y-74962488D01*
X145559488Y-75088011D01*
X145559490Y-75088013D01*
X145559491Y-75088015D01*
X145661985Y-75190509D01*
X145661986Y-75190510D01*
X145661988Y-75190511D01*
X145794553Y-75267048D01*
X145792971Y-75269787D01*
X145835774Y-75304281D01*
X145857838Y-75370575D01*
X145840558Y-75438274D01*
X145793859Y-75481751D01*
X145794553Y-75482952D01*
X145661988Y-75559488D01*
X145661982Y-75559493D01*
X145559493Y-75661982D01*
X145559488Y-75661988D01*
X145487017Y-75787511D01*
X145487016Y-75787515D01*
X145449500Y-75927525D01*
X145449500Y-76072475D01*
X145487016Y-76212485D01*
X145487017Y-76212488D01*
X145559488Y-76338011D01*
X145559490Y-76338013D01*
X145559491Y-76338015D01*
X145661985Y-76440509D01*
X145661986Y-76440510D01*
X145661988Y-76440511D01*
X145787511Y-76512982D01*
X145787512Y-76512982D01*
X145787515Y-76512984D01*
X145927525Y-76550500D01*
X145927528Y-76550500D01*
X146072472Y-76550500D01*
X146072475Y-76550500D01*
X146212485Y-76512984D01*
X146338015Y-76440509D01*
X146440509Y-76338015D01*
X146512984Y-76212485D01*
X146550500Y-76072475D01*
X146550500Y-75927525D01*
X146512984Y-75787515D01*
X146440509Y-75661985D01*
X146338015Y-75559491D01*
X146338013Y-75559490D01*
X146338011Y-75559488D01*
X146205447Y-75482952D01*
X146207031Y-75480208D01*
X146164244Y-75445746D01*
X146142162Y-75379457D01*
X146159424Y-75311753D01*
X146206136Y-75268241D01*
X146205447Y-75267048D01*
X146292731Y-75216653D01*
X146338015Y-75190509D01*
X146440509Y-75088015D01*
X146512984Y-74962485D01*
X146550500Y-74822475D01*
X146550500Y-74677525D01*
X146512984Y-74537515D01*
X146469680Y-74462511D01*
X146440511Y-74411988D01*
X146440506Y-74411982D01*
X146338017Y-74309493D01*
X146338011Y-74309488D01*
X146212488Y-74237017D01*
X146212489Y-74237017D01*
X146201006Y-74233940D01*
X146072475Y-74199500D01*
X145927525Y-74199500D01*
X145798993Y-74233940D01*
X145787511Y-74237017D01*
X145661988Y-74309488D01*
X145661982Y-74309493D01*
X145559493Y-74411982D01*
X145559488Y-74411988D01*
X145487017Y-74537511D01*
X145487016Y-74537515D01*
X145449500Y-74677525D01*
X144051406Y-74677525D01*
X144051406Y-74602525D01*
X144013890Y-74462515D01*
X143984716Y-74411985D01*
X143941417Y-74336988D01*
X143941412Y-74336982D01*
X143838923Y-74234493D01*
X143838917Y-74234488D01*
X143713394Y-74162017D01*
X143713395Y-74162017D01*
X143701912Y-74158940D01*
X143573381Y-74124500D01*
X143428431Y-74124500D01*
X143299899Y-74158940D01*
X143288417Y-74162017D01*
X143162894Y-74234488D01*
X143162888Y-74234493D01*
X143060399Y-74336982D01*
X143060394Y-74336988D01*
X142987923Y-74462511D01*
X142987922Y-74462515D01*
X142950406Y-74602525D01*
X141250000Y-74602525D01*
X141250000Y-72177525D01*
X145449500Y-72177525D01*
X145449500Y-72322475D01*
X145466794Y-72387016D01*
X145487017Y-72462488D01*
X145559488Y-72588011D01*
X145559490Y-72588013D01*
X145559491Y-72588015D01*
X145661985Y-72690509D01*
X145661986Y-72690510D01*
X145661988Y-72690511D01*
X145787511Y-72762982D01*
X145787512Y-72762982D01*
X145787515Y-72762984D01*
X145927525Y-72800500D01*
X145927528Y-72800500D01*
X146072472Y-72800500D01*
X146072475Y-72800500D01*
X146212485Y-72762984D01*
X146338015Y-72690509D01*
X146440509Y-72588015D01*
X146512984Y-72462485D01*
X146550500Y-72322475D01*
X146550500Y-72177525D01*
X146512984Y-72037515D01*
X146440509Y-71911985D01*
X146338015Y-71809491D01*
X146338013Y-71809490D01*
X146338011Y-71809488D01*
X146212488Y-71737017D01*
X146212489Y-71737017D01*
X146201006Y-71733940D01*
X146072475Y-71699500D01*
X145927525Y-71699500D01*
X145798993Y-71733940D01*
X145787511Y-71737017D01*
X145661988Y-71809488D01*
X145661982Y-71809493D01*
X145559493Y-71911982D01*
X145559488Y-71911988D01*
X145487017Y-72037511D01*
X145487016Y-72037515D01*
X145449500Y-72177525D01*
X141250000Y-72177525D01*
X141250000Y-71124000D01*
X141269685Y-71056961D01*
X141322489Y-71011206D01*
X141374000Y-71000000D01*
X142249621Y-71000000D01*
X142281714Y-71004225D01*
G37*
%TD.AperFunction*%
%TD*%
%TA.AperFunction,Conductor*%
%TO.N,VDD*%
G36*
X192415905Y-67519685D02*
G01*
X192461660Y-67572489D01*
X192471604Y-67641647D01*
X192468643Y-67656079D01*
X192449500Y-67727525D01*
X192449500Y-67872475D01*
X192487016Y-68012485D01*
X192487017Y-68012488D01*
X192559488Y-68138011D01*
X192559490Y-68138013D01*
X192559491Y-68138015D01*
X192661985Y-68240509D01*
X192661986Y-68240510D01*
X192661988Y-68240511D01*
X192787511Y-68312982D01*
X192787512Y-68312982D01*
X192787515Y-68312984D01*
X192927525Y-68350500D01*
X192927528Y-68350500D01*
X193072472Y-68350500D01*
X193072475Y-68350500D01*
X193212485Y-68312984D01*
X193338015Y-68240509D01*
X193440509Y-68138015D01*
X193512984Y-68012485D01*
X193550500Y-67872475D01*
X193550500Y-67727525D01*
X193531359Y-67656090D01*
X193533022Y-67586244D01*
X193572184Y-67528382D01*
X193636412Y-67500877D01*
X193651134Y-67500000D01*
X193876000Y-67500000D01*
X193943039Y-67519685D01*
X193988794Y-67572489D01*
X194000000Y-67624000D01*
X194000000Y-73348865D01*
X193980315Y-73415904D01*
X193927511Y-73461659D01*
X193858353Y-73471603D01*
X193843907Y-73468640D01*
X193802575Y-73457565D01*
X193772475Y-73449500D01*
X193627525Y-73449500D01*
X193498993Y-73483940D01*
X193487511Y-73487017D01*
X193361988Y-73559488D01*
X193361982Y-73559493D01*
X193259493Y-73661982D01*
X193259488Y-73661988D01*
X193187017Y-73787511D01*
X193187016Y-73787515D01*
X193149500Y-73927525D01*
X193149500Y-74072475D01*
X193187016Y-74212485D01*
X193187017Y-74212488D01*
X193259488Y-74338011D01*
X193259490Y-74338013D01*
X193259491Y-74338015D01*
X193361985Y-74440509D01*
X193361986Y-74440510D01*
X193361988Y-74440511D01*
X193487511Y-74512982D01*
X193487512Y-74512982D01*
X193487515Y-74512984D01*
X193627525Y-74550500D01*
X193627528Y-74550500D01*
X193772472Y-74550500D01*
X193772475Y-74550500D01*
X193843909Y-74531359D01*
X193913756Y-74533022D01*
X193971618Y-74572184D01*
X193999123Y-74636412D01*
X194000000Y-74651134D01*
X194000000Y-88098865D01*
X193980315Y-88165904D01*
X193927511Y-88211659D01*
X193858353Y-88221603D01*
X193843907Y-88218640D01*
X193802575Y-88207565D01*
X193772475Y-88199500D01*
X193627525Y-88199500D01*
X193498993Y-88233940D01*
X193487511Y-88237017D01*
X193361988Y-88309488D01*
X193361982Y-88309493D01*
X193259493Y-88411982D01*
X193259488Y-88411988D01*
X193187017Y-88537511D01*
X193187016Y-88537515D01*
X193149500Y-88677525D01*
X193149500Y-88822475D01*
X193177649Y-88927527D01*
X193187017Y-88962488D01*
X193259488Y-89088011D01*
X193259490Y-89088013D01*
X193259491Y-89088015D01*
X193361985Y-89190509D01*
X193361986Y-89190510D01*
X193361988Y-89190511D01*
X193487511Y-89262982D01*
X193487512Y-89262982D01*
X193487515Y-89262984D01*
X193627525Y-89300500D01*
X193627528Y-89300500D01*
X193772472Y-89300500D01*
X193772475Y-89300500D01*
X193843909Y-89281359D01*
X193913756Y-89283022D01*
X193971618Y-89322184D01*
X193999123Y-89386412D01*
X194000000Y-89401134D01*
X194000000Y-95250000D01*
X199375500Y-95250000D01*
X199384185Y-95252550D01*
X199393147Y-95251262D01*
X199417187Y-95262240D01*
X199442539Y-95269685D01*
X199448466Y-95276525D01*
X199456703Y-95280287D01*
X199470992Y-95302521D01*
X199488294Y-95322489D01*
X199490581Y-95333003D01*
X199494477Y-95339065D01*
X199499500Y-95374000D01*
X199499500Y-95376000D01*
X199479815Y-95443039D01*
X199427011Y-95488794D01*
X199375500Y-95500000D01*
X188414532Y-95500000D01*
X188347493Y-95480315D01*
X188301738Y-95427511D01*
X188291794Y-95358353D01*
X188294757Y-95343907D01*
X188295595Y-95340780D01*
X188300500Y-95322475D01*
X188300500Y-95177525D01*
X188262984Y-95037515D01*
X188261239Y-95034493D01*
X188190511Y-94911988D01*
X188190506Y-94911982D01*
X188116205Y-94837681D01*
X188082720Y-94776358D01*
X188087704Y-94706666D01*
X188116205Y-94662319D01*
X188151000Y-94627524D01*
X188190509Y-94588015D01*
X188262984Y-94462485D01*
X188300500Y-94322475D01*
X188300500Y-94177525D01*
X188262984Y-94037515D01*
X188230526Y-93981297D01*
X188190511Y-93911988D01*
X188190506Y-93911982D01*
X188088017Y-93809493D01*
X188088011Y-93809488D01*
X187962488Y-93737017D01*
X187962489Y-93737017D01*
X187951006Y-93733940D01*
X187822475Y-93699500D01*
X187677525Y-93699500D01*
X187548993Y-93733940D01*
X187537511Y-93737017D01*
X187411988Y-93809488D01*
X187411982Y-93809493D01*
X187309493Y-93911982D01*
X187309488Y-93911988D01*
X187237017Y-94037511D01*
X187237016Y-94037515D01*
X187199500Y-94177525D01*
X187199500Y-94322475D01*
X187233805Y-94450500D01*
X187237017Y-94462488D01*
X187309488Y-94588011D01*
X187309493Y-94588017D01*
X187383795Y-94662319D01*
X187417280Y-94723642D01*
X187412296Y-94793334D01*
X187383795Y-94837681D01*
X187309493Y-94911982D01*
X187309488Y-94911988D01*
X187237017Y-95037511D01*
X187237016Y-95037515D01*
X187199500Y-95177525D01*
X187199500Y-95322475D01*
X187204405Y-95340780D01*
X187205243Y-95343907D01*
X187203580Y-95413757D01*
X187164417Y-95471619D01*
X187100189Y-95499123D01*
X187085468Y-95500000D01*
X184996767Y-95500000D01*
X184929728Y-95480315D01*
X184883973Y-95427511D01*
X184876992Y-95408094D01*
X184875500Y-95402525D01*
X184837984Y-95262515D01*
X184837825Y-95262240D01*
X184765511Y-95136988D01*
X184765506Y-95136982D01*
X184663017Y-95034493D01*
X184663011Y-95034488D01*
X184537488Y-94962017D01*
X184537489Y-94962017D01*
X184526006Y-94958940D01*
X184397475Y-94924500D01*
X184252525Y-94924500D01*
X184123993Y-94958940D01*
X184112511Y-94962017D01*
X183986988Y-95034488D01*
X183986982Y-95034493D01*
X183884493Y-95136982D01*
X183884488Y-95136988D01*
X183812017Y-95262511D01*
X183812016Y-95262515D01*
X183776328Y-95395705D01*
X183773008Y-95408094D01*
X183736642Y-95467754D01*
X183673795Y-95498283D01*
X183653233Y-95500000D01*
X181962151Y-95500000D01*
X181895112Y-95480315D01*
X181849357Y-95427511D01*
X181839413Y-95358353D01*
X181868438Y-95294797D01*
X181874470Y-95288319D01*
X181885623Y-95277165D01*
X181885626Y-95277162D01*
X181895413Y-95262515D01*
X181978703Y-95137863D01*
X182042816Y-94983082D01*
X182075500Y-94818767D01*
X182075500Y-94651233D01*
X182042816Y-94486918D01*
X181978703Y-94332137D01*
X181915814Y-94238017D01*
X181885626Y-94192837D01*
X181767162Y-94074373D01*
X181627860Y-93981295D01*
X181473082Y-93917184D01*
X181473074Y-93917182D01*
X181308771Y-93884500D01*
X181308767Y-93884500D01*
X181141233Y-93884500D01*
X181141228Y-93884500D01*
X180976925Y-93917182D01*
X180976917Y-93917184D01*
X180822139Y-93981295D01*
X180682837Y-94074373D01*
X180564373Y-94192837D01*
X180471295Y-94332139D01*
X180407184Y-94486917D01*
X180407182Y-94486925D01*
X180374500Y-94651228D01*
X180374500Y-94818771D01*
X180407182Y-94983074D01*
X180407184Y-94983082D01*
X180471295Y-95137860D01*
X180564373Y-95277162D01*
X180575530Y-95288319D01*
X180609015Y-95349642D01*
X180604031Y-95419334D01*
X180562159Y-95475267D01*
X180496695Y-95499684D01*
X180487849Y-95500000D01*
X178463003Y-95500000D01*
X178395964Y-95480315D01*
X178375322Y-95463681D01*
X178335516Y-95423875D01*
X178335510Y-95423870D01*
X178209987Y-95351399D01*
X178209988Y-95351399D01*
X178198505Y-95348322D01*
X178069974Y-95313882D01*
X177925024Y-95313882D01*
X177796492Y-95348322D01*
X177785010Y-95351399D01*
X177659487Y-95423870D01*
X177659481Y-95423875D01*
X177619676Y-95463681D01*
X177558353Y-95497166D01*
X177531995Y-95500000D01*
X176604963Y-95500000D01*
X176539956Y-95480911D01*
X176539889Y-95481028D01*
X176539409Y-95480751D01*
X176537924Y-95480315D01*
X176534573Y-95477958D01*
X176407323Y-95404490D01*
X176407324Y-95404490D01*
X176374243Y-95395626D01*
X176267310Y-95366973D01*
X176122360Y-95366973D01*
X176023943Y-95393343D01*
X175982345Y-95404490D01*
X175974836Y-95407601D01*
X175973828Y-95405168D01*
X175918587Y-95418564D01*
X175852563Y-95395705D01*
X175809378Y-95340780D01*
X175800500Y-95294705D01*
X175800500Y-95177527D01*
X175800500Y-95177525D01*
X175762984Y-95037515D01*
X175761239Y-95034493D01*
X175690511Y-94911988D01*
X175690506Y-94911982D01*
X175588017Y-94809493D01*
X175588011Y-94809488D01*
X175462488Y-94737017D01*
X175462489Y-94737017D01*
X175451006Y-94733940D01*
X175322475Y-94699500D01*
X175177525Y-94699500D01*
X175048993Y-94733940D01*
X175037511Y-94737017D01*
X174911988Y-94809488D01*
X174911982Y-94809493D01*
X174809493Y-94911982D01*
X174809488Y-94911988D01*
X174737017Y-95037511D01*
X174737016Y-95037515D01*
X174699500Y-95177525D01*
X174699500Y-95322475D01*
X174704405Y-95340780D01*
X174705243Y-95343907D01*
X174703580Y-95413757D01*
X174664417Y-95471619D01*
X174600189Y-95499123D01*
X174585468Y-95500000D01*
X174051362Y-95500000D01*
X173984323Y-95480315D01*
X173963681Y-95463681D01*
X172327525Y-93827525D01*
X176499500Y-93827525D01*
X176499500Y-93972475D01*
X176526804Y-94074373D01*
X176537017Y-94112488D01*
X176609488Y-94238011D01*
X176609490Y-94238013D01*
X176609491Y-94238015D01*
X176711985Y-94340509D01*
X176711986Y-94340510D01*
X176711988Y-94340511D01*
X176837511Y-94412982D01*
X176837512Y-94412982D01*
X176837515Y-94412984D01*
X176977525Y-94450500D01*
X176977528Y-94450500D01*
X177122472Y-94450500D01*
X177122475Y-94450500D01*
X177262485Y-94412984D01*
X177338001Y-94369384D01*
X177405899Y-94352912D01*
X177461998Y-94369384D01*
X177537515Y-94412984D01*
X177677525Y-94450500D01*
X177677528Y-94450500D01*
X177822472Y-94450500D01*
X177822475Y-94450500D01*
X177962485Y-94412984D01*
X178088015Y-94340509D01*
X178190509Y-94238015D01*
X178262984Y-94112485D01*
X178300500Y-93972475D01*
X178300500Y-93827525D01*
X178262984Y-93687515D01*
X178254301Y-93672476D01*
X178190511Y-93561988D01*
X178190506Y-93561982D01*
X178088017Y-93459493D01*
X178088011Y-93459488D01*
X177962488Y-93387017D01*
X177962489Y-93387017D01*
X177951006Y-93383940D01*
X177822475Y-93349500D01*
X177677525Y-93349500D01*
X177548993Y-93383940D01*
X177537511Y-93387017D01*
X177462000Y-93430614D01*
X177394100Y-93447087D01*
X177338000Y-93430614D01*
X177262488Y-93387017D01*
X177262489Y-93387017D01*
X177251006Y-93383940D01*
X177122475Y-93349500D01*
X176977525Y-93349500D01*
X176848993Y-93383940D01*
X176837511Y-93387017D01*
X176711988Y-93459488D01*
X176711982Y-93459493D01*
X176609493Y-93561982D01*
X176609488Y-93561988D01*
X176537017Y-93687511D01*
X176537016Y-93687515D01*
X176499500Y-93827525D01*
X172327525Y-93827525D01*
X171739727Y-93239727D01*
X171706242Y-93178404D01*
X171711226Y-93108712D01*
X171753098Y-93052779D01*
X171818562Y-93028362D01*
X171859499Y-93032271D01*
X171927524Y-93050499D01*
X171927526Y-93050499D01*
X172072471Y-93050499D01*
X172072474Y-93050499D01*
X172212484Y-93012983D01*
X172338014Y-92940508D01*
X172440508Y-92838014D01*
X172512983Y-92712484D01*
X172550499Y-92572474D01*
X172550499Y-92427524D01*
X172512983Y-92287514D01*
X172512981Y-92287510D01*
X172454951Y-92186999D01*
X172452120Y-92175331D01*
X172445158Y-92165554D01*
X172444036Y-92142011D01*
X172438478Y-92119099D01*
X172442321Y-92106008D01*
X172441834Y-92095764D01*
X172454948Y-92063003D01*
X172472245Y-92033045D01*
X174699499Y-92033045D01*
X174699499Y-92177995D01*
X174728844Y-92287510D01*
X174737016Y-92318008D01*
X174809487Y-92443531D01*
X174809489Y-92443533D01*
X174809490Y-92443535D01*
X174911984Y-92546029D01*
X174911985Y-92546030D01*
X174911987Y-92546031D01*
X175037510Y-92618502D01*
X175037511Y-92618502D01*
X175037514Y-92618504D01*
X175177524Y-92656020D01*
X175177527Y-92656020D01*
X175322471Y-92656020D01*
X175322474Y-92656020D01*
X175427145Y-92627973D01*
X175496992Y-92629636D01*
X175554854Y-92668798D01*
X175582359Y-92733026D01*
X175583236Y-92747748D01*
X175583236Y-92872477D01*
X175620752Y-93012487D01*
X175620753Y-93012490D01*
X175693224Y-93138013D01*
X175693226Y-93138015D01*
X175693227Y-93138017D01*
X175795721Y-93240511D01*
X175795722Y-93240512D01*
X175795724Y-93240513D01*
X175921247Y-93312984D01*
X175921248Y-93312984D01*
X175921251Y-93312986D01*
X176061261Y-93350502D01*
X176061264Y-93350502D01*
X176206208Y-93350502D01*
X176206211Y-93350502D01*
X176346221Y-93312986D01*
X176471751Y-93240511D01*
X176574245Y-93138017D01*
X176638038Y-93027525D01*
X178873500Y-93027525D01*
X178873500Y-93172475D01*
X178907805Y-93300500D01*
X178911017Y-93312488D01*
X178983488Y-93438011D01*
X178983490Y-93438013D01*
X178983491Y-93438015D01*
X179085985Y-93540509D01*
X179085986Y-93540510D01*
X179085988Y-93540511D01*
X179211511Y-93612982D01*
X179211512Y-93612982D01*
X179211515Y-93612984D01*
X179351525Y-93650500D01*
X179351528Y-93650500D01*
X179496472Y-93650500D01*
X179496475Y-93650500D01*
X179636485Y-93612984D01*
X179762015Y-93540509D01*
X179864509Y-93438015D01*
X179870565Y-93427525D01*
X190699500Y-93427525D01*
X190699500Y-93572475D01*
X190733537Y-93699500D01*
X190737017Y-93712488D01*
X190809488Y-93838011D01*
X190809490Y-93838013D01*
X190809491Y-93838015D01*
X190911985Y-93940509D01*
X190911986Y-93940510D01*
X190911988Y-93940511D01*
X191037511Y-94012982D01*
X191037512Y-94012982D01*
X191037515Y-94012984D01*
X191177525Y-94050500D01*
X191177528Y-94050500D01*
X191322472Y-94050500D01*
X191322475Y-94050500D01*
X191462485Y-94012984D01*
X191588015Y-93940509D01*
X191690509Y-93838015D01*
X191762984Y-93712485D01*
X191800500Y-93572475D01*
X191800500Y-93427525D01*
X191762984Y-93287515D01*
X191748244Y-93261985D01*
X191690511Y-93161988D01*
X191690506Y-93161982D01*
X191588017Y-93059493D01*
X191588011Y-93059488D01*
X191462488Y-92987017D01*
X191462489Y-92987017D01*
X191451006Y-92983940D01*
X191322475Y-92949500D01*
X191177525Y-92949500D01*
X191048993Y-92983940D01*
X191037511Y-92987017D01*
X190911988Y-93059488D01*
X190911982Y-93059493D01*
X190809493Y-93161982D01*
X190809488Y-93161988D01*
X190737017Y-93287511D01*
X190737016Y-93287515D01*
X190699500Y-93427525D01*
X179870565Y-93427525D01*
X179936984Y-93312485D01*
X179974500Y-93172475D01*
X179974500Y-93027525D01*
X179936984Y-92887515D01*
X179908404Y-92838014D01*
X179864511Y-92761988D01*
X179864506Y-92761982D01*
X179780049Y-92677525D01*
X185699500Y-92677525D01*
X185699500Y-92822475D01*
X185731128Y-92940510D01*
X185737017Y-92962488D01*
X185809488Y-93088011D01*
X185809490Y-93088013D01*
X185809491Y-93088015D01*
X185911985Y-93190509D01*
X185911986Y-93190510D01*
X185911988Y-93190511D01*
X186037511Y-93262982D01*
X186037512Y-93262982D01*
X186037515Y-93262984D01*
X186177525Y-93300500D01*
X186177528Y-93300500D01*
X186322473Y-93300500D01*
X186322475Y-93300500D01*
X186462485Y-93262984D01*
X186588015Y-93190509D01*
X186690509Y-93088015D01*
X186762984Y-92962485D01*
X186800500Y-92822475D01*
X186800500Y-92677525D01*
X186762984Y-92537515D01*
X186733828Y-92487016D01*
X186690511Y-92411988D01*
X186690506Y-92411982D01*
X186588017Y-92309493D01*
X186588011Y-92309488D01*
X186462488Y-92237017D01*
X186462489Y-92237017D01*
X186451006Y-92233940D01*
X186322475Y-92199500D01*
X186177525Y-92199500D01*
X186048993Y-92233940D01*
X186037511Y-92237017D01*
X185911988Y-92309488D01*
X185911982Y-92309493D01*
X185809493Y-92411982D01*
X185809488Y-92411988D01*
X185737017Y-92537511D01*
X185737016Y-92537515D01*
X185699500Y-92677525D01*
X179780049Y-92677525D01*
X179762017Y-92659493D01*
X179762011Y-92659488D01*
X179636488Y-92587017D01*
X179636489Y-92587017D01*
X179625006Y-92583940D01*
X179496475Y-92549500D01*
X179351525Y-92549500D01*
X179222993Y-92583940D01*
X179211511Y-92587017D01*
X179085988Y-92659488D01*
X179085982Y-92659493D01*
X178983493Y-92761982D01*
X178983488Y-92761988D01*
X178911017Y-92887511D01*
X178911016Y-92887515D01*
X178873500Y-93027525D01*
X176638038Y-93027525D01*
X176646720Y-93012487D01*
X176684236Y-92872477D01*
X176684236Y-92727527D01*
X176646720Y-92587517D01*
X176646431Y-92587017D01*
X176574247Y-92461990D01*
X176574242Y-92461984D01*
X176471753Y-92359495D01*
X176471747Y-92359490D01*
X176346224Y-92287019D01*
X176346225Y-92287019D01*
X176334742Y-92283942D01*
X176206211Y-92249502D01*
X176061261Y-92249502D01*
X175956592Y-92277548D01*
X175886742Y-92275885D01*
X175828880Y-92236722D01*
X175801376Y-92172494D01*
X175800499Y-92157773D01*
X175800499Y-92033047D01*
X175800499Y-92033045D01*
X175762983Y-91893035D01*
X175722244Y-91822474D01*
X175690510Y-91767508D01*
X175690505Y-91767502D01*
X175588016Y-91665013D01*
X175588010Y-91665008D01*
X175462487Y-91592537D01*
X175462488Y-91592537D01*
X175451005Y-91589460D01*
X175322474Y-91555020D01*
X175177524Y-91555020D01*
X175048992Y-91589460D01*
X175037510Y-91592537D01*
X174911987Y-91665008D01*
X174911981Y-91665013D01*
X174809492Y-91767502D01*
X174809487Y-91767508D01*
X174737016Y-91893031D01*
X174737015Y-91893035D01*
X174699499Y-92033045D01*
X172472245Y-92033045D01*
X172512984Y-91962484D01*
X172550500Y-91822474D01*
X172550500Y-91677524D01*
X172512984Y-91537514D01*
X172454950Y-91436996D01*
X172438478Y-91369100D01*
X172454949Y-91313001D01*
X172512984Y-91212484D01*
X172550500Y-91072474D01*
X172550500Y-90927524D01*
X172512984Y-90787514D01*
X172498820Y-90762982D01*
X172440511Y-90661987D01*
X172440506Y-90661981D01*
X172338017Y-90559492D01*
X172338011Y-90559487D01*
X172212488Y-90487016D01*
X172212489Y-90487016D01*
X172201006Y-90483939D01*
X172072475Y-90449499D01*
X171927525Y-90449499D01*
X171798993Y-90483939D01*
X171787511Y-90487016D01*
X171687000Y-90545047D01*
X171619100Y-90561520D01*
X171563000Y-90545047D01*
X171462488Y-90487016D01*
X171462489Y-90487016D01*
X171451006Y-90483939D01*
X171322475Y-90449499D01*
X171177525Y-90449499D01*
X171048993Y-90483939D01*
X171037511Y-90487016D01*
X170937000Y-90545047D01*
X170869100Y-90561520D01*
X170813000Y-90545047D01*
X170712488Y-90487016D01*
X170712489Y-90487016D01*
X170701006Y-90483939D01*
X170572475Y-90449499D01*
X170427525Y-90449499D01*
X170298993Y-90483939D01*
X170287511Y-90487016D01*
X170161988Y-90559487D01*
X170161982Y-90559492D01*
X170059493Y-90661981D01*
X170059488Y-90661987D01*
X169987017Y-90787510D01*
X169987016Y-90787514D01*
X169949500Y-90927524D01*
X169949500Y-91072474D01*
X169949692Y-91073190D01*
X169967727Y-91140497D01*
X169966064Y-91210346D01*
X169926901Y-91268209D01*
X169862673Y-91295713D01*
X169793771Y-91284126D01*
X169760271Y-91260271D01*
X168677525Y-90177525D01*
X173699500Y-90177525D01*
X173699500Y-90322475D01*
X173737016Y-90462485D01*
X173737017Y-90462488D01*
X173809488Y-90588011D01*
X173809490Y-90588013D01*
X173809491Y-90588015D01*
X173911985Y-90690509D01*
X173911986Y-90690510D01*
X173911988Y-90690511D01*
X174037511Y-90762982D01*
X174037512Y-90762982D01*
X174037515Y-90762984D01*
X174177525Y-90800500D01*
X174177528Y-90800500D01*
X174322472Y-90800500D01*
X174322475Y-90800500D01*
X174462485Y-90762984D01*
X174588015Y-90690509D01*
X174690509Y-90588015D01*
X174762984Y-90462485D01*
X174800500Y-90322475D01*
X174800500Y-90177525D01*
X174773705Y-90077525D01*
X176449500Y-90077525D01*
X176449500Y-90222475D01*
X176478558Y-90330918D01*
X176487017Y-90362488D01*
X176559488Y-90488011D01*
X176559490Y-90488013D01*
X176559491Y-90488015D01*
X176661985Y-90590509D01*
X176661986Y-90590510D01*
X176661988Y-90590511D01*
X176787511Y-90662982D01*
X176787512Y-90662982D01*
X176787515Y-90662984D01*
X176927525Y-90700500D01*
X176927528Y-90700500D01*
X177072472Y-90700500D01*
X177072475Y-90700500D01*
X177212485Y-90662984D01*
X177338015Y-90590509D01*
X177440509Y-90488015D01*
X177512984Y-90362485D01*
X177550500Y-90222475D01*
X177550500Y-90077525D01*
X177512984Y-89937515D01*
X177498244Y-89911985D01*
X177440511Y-89811988D01*
X177440506Y-89811982D01*
X177338017Y-89709493D01*
X177338011Y-89709488D01*
X177212488Y-89637017D01*
X177212489Y-89637017D01*
X177201006Y-89633940D01*
X177072475Y-89599500D01*
X176927525Y-89599500D01*
X176798993Y-89633940D01*
X176787511Y-89637017D01*
X176661988Y-89709488D01*
X176661982Y-89709493D01*
X176559493Y-89811982D01*
X176559488Y-89811988D01*
X176487017Y-89937511D01*
X176487016Y-89937515D01*
X176449500Y-90077525D01*
X174773705Y-90077525D01*
X174762984Y-90037515D01*
X174705246Y-89937511D01*
X174690511Y-89911988D01*
X174690506Y-89911982D01*
X174588017Y-89809493D01*
X174588011Y-89809488D01*
X174462488Y-89737017D01*
X174462489Y-89737017D01*
X174451006Y-89733940D01*
X174322475Y-89699500D01*
X174177525Y-89699500D01*
X174048993Y-89733940D01*
X174037511Y-89737017D01*
X173911988Y-89809488D01*
X173911982Y-89809493D01*
X173809493Y-89911982D01*
X173809488Y-89911988D01*
X173737017Y-90037511D01*
X173737016Y-90037515D01*
X173699500Y-90177525D01*
X168677525Y-90177525D01*
X167427525Y-88927525D01*
X170449500Y-88927525D01*
X170449500Y-89072475D01*
X170487016Y-89212485D01*
X170487017Y-89212488D01*
X170559488Y-89338011D01*
X170559490Y-89338013D01*
X170559491Y-89338015D01*
X170661985Y-89440509D01*
X170661986Y-89440510D01*
X170661988Y-89440511D01*
X170787511Y-89512982D01*
X170787512Y-89512982D01*
X170787515Y-89512984D01*
X170927525Y-89550500D01*
X170927528Y-89550500D01*
X171072472Y-89550500D01*
X171072475Y-89550500D01*
X171212485Y-89512984D01*
X171338015Y-89440509D01*
X171440509Y-89338015D01*
X171512984Y-89212485D01*
X171550500Y-89072475D01*
X171550500Y-88927525D01*
X171949500Y-88927525D01*
X171949500Y-89072475D01*
X171987016Y-89212485D01*
X171987017Y-89212488D01*
X172059488Y-89338011D01*
X172059490Y-89338013D01*
X172059491Y-89338015D01*
X172161985Y-89440509D01*
X172161986Y-89440510D01*
X172161988Y-89440511D01*
X172287511Y-89512982D01*
X172287512Y-89512982D01*
X172287515Y-89512984D01*
X172427525Y-89550500D01*
X172427528Y-89550500D01*
X172572472Y-89550500D01*
X172572475Y-89550500D01*
X172712485Y-89512984D01*
X172838015Y-89440509D01*
X172940509Y-89338015D01*
X173012984Y-89212485D01*
X173050500Y-89072475D01*
X173050500Y-88927525D01*
X173012984Y-88787515D01*
X172940509Y-88661985D01*
X172838015Y-88559491D01*
X172838013Y-88559490D01*
X172838011Y-88559488D01*
X172712488Y-88487017D01*
X172712489Y-88487017D01*
X172687477Y-88480315D01*
X172572475Y-88449500D01*
X172427525Y-88449500D01*
X172312523Y-88480315D01*
X172287511Y-88487017D01*
X172161988Y-88559488D01*
X172161982Y-88559493D01*
X172059493Y-88661982D01*
X172059488Y-88661988D01*
X171987017Y-88787511D01*
X171987016Y-88787515D01*
X171949500Y-88927525D01*
X171550500Y-88927525D01*
X171512984Y-88787515D01*
X171440509Y-88661985D01*
X171338015Y-88559491D01*
X171338013Y-88559490D01*
X171338011Y-88559488D01*
X171212488Y-88487017D01*
X171212489Y-88487017D01*
X171187477Y-88480315D01*
X171072475Y-88449500D01*
X170927525Y-88449500D01*
X170812523Y-88480315D01*
X170787511Y-88487017D01*
X170661988Y-88559488D01*
X170661982Y-88559493D01*
X170559493Y-88661982D01*
X170559488Y-88661988D01*
X170487017Y-88787511D01*
X170487016Y-88787515D01*
X170449500Y-88927525D01*
X167427525Y-88927525D01*
X167000000Y-88500000D01*
X157051362Y-88500000D01*
X156984323Y-88480315D01*
X156963681Y-88463681D01*
X155977524Y-87477524D01*
X164499499Y-87477524D01*
X164499499Y-87622474D01*
X164537015Y-87762484D01*
X164537016Y-87762487D01*
X164609487Y-87888010D01*
X164609489Y-87888012D01*
X164609490Y-87888014D01*
X164711984Y-87990508D01*
X164711985Y-87990509D01*
X164711987Y-87990510D01*
X164837510Y-88062981D01*
X164837511Y-88062981D01*
X164837514Y-88062983D01*
X164977524Y-88100499D01*
X164977527Y-88100499D01*
X165122471Y-88100499D01*
X165122474Y-88100499D01*
X165262484Y-88062983D01*
X165388014Y-87990508D01*
X165490508Y-87888014D01*
X165562983Y-87762484D01*
X165600499Y-87622474D01*
X165600499Y-87477524D01*
X165587102Y-87427525D01*
X168199500Y-87427525D01*
X168199500Y-87572475D01*
X168237016Y-87712485D01*
X168237017Y-87712488D01*
X168309488Y-87838011D01*
X168309490Y-87838013D01*
X168309491Y-87838015D01*
X168411985Y-87940509D01*
X168411986Y-87940510D01*
X168411988Y-87940511D01*
X168537511Y-88012982D01*
X168537512Y-88012982D01*
X168537515Y-88012984D01*
X168677525Y-88050500D01*
X168677528Y-88050500D01*
X168822472Y-88050500D01*
X168822475Y-88050500D01*
X168962485Y-88012984D01*
X169088015Y-87940509D01*
X169190509Y-87838015D01*
X169262984Y-87712485D01*
X169300500Y-87572475D01*
X169300500Y-87427525D01*
X169262984Y-87287515D01*
X169219374Y-87211981D01*
X169190511Y-87161988D01*
X169190506Y-87161982D01*
X169088017Y-87059493D01*
X169088011Y-87059488D01*
X168962488Y-86987017D01*
X168962489Y-86987017D01*
X168951006Y-86983940D01*
X168822475Y-86949500D01*
X168677525Y-86949500D01*
X168548993Y-86983940D01*
X168537511Y-86987017D01*
X168411988Y-87059488D01*
X168411982Y-87059493D01*
X168309493Y-87161982D01*
X168309488Y-87161988D01*
X168237017Y-87287511D01*
X168237016Y-87287515D01*
X168199500Y-87427525D01*
X165587102Y-87427525D01*
X165562983Y-87337514D01*
X165490508Y-87211984D01*
X165388014Y-87109490D01*
X165388012Y-87109489D01*
X165388010Y-87109487D01*
X165262487Y-87037016D01*
X165262488Y-87037016D01*
X165251005Y-87033939D01*
X165122474Y-86999499D01*
X164977524Y-86999499D01*
X164848992Y-87033939D01*
X164837510Y-87037016D01*
X164711987Y-87109487D01*
X164711981Y-87109492D01*
X164609492Y-87211981D01*
X164609487Y-87211987D01*
X164537016Y-87337510D01*
X164537015Y-87337514D01*
X164499499Y-87477524D01*
X155977524Y-87477524D01*
X154927525Y-86427525D01*
X174199500Y-86427525D01*
X174199500Y-86572475D01*
X174237016Y-86712485D01*
X174237017Y-86712488D01*
X174309488Y-86838011D01*
X174309493Y-86838017D01*
X174383795Y-86912319D01*
X174417280Y-86973642D01*
X174412296Y-87043334D01*
X174383795Y-87087681D01*
X174309493Y-87161982D01*
X174309488Y-87161988D01*
X174237017Y-87287511D01*
X174237016Y-87287515D01*
X174199500Y-87427525D01*
X174199500Y-87572475D01*
X174237016Y-87712485D01*
X174237017Y-87712488D01*
X174309488Y-87838011D01*
X174309490Y-87838013D01*
X174309491Y-87838015D01*
X174411985Y-87940509D01*
X174411986Y-87940510D01*
X174411988Y-87940511D01*
X174537511Y-88012982D01*
X174537512Y-88012982D01*
X174537515Y-88012984D01*
X174677525Y-88050500D01*
X174677528Y-88050500D01*
X174822472Y-88050500D01*
X174822475Y-88050500D01*
X174962485Y-88012984D01*
X175088015Y-87940509D01*
X175190509Y-87838015D01*
X175262984Y-87712485D01*
X175300500Y-87572475D01*
X175300500Y-87427525D01*
X175262984Y-87287515D01*
X175219374Y-87211981D01*
X175190511Y-87161988D01*
X175190506Y-87161982D01*
X175116205Y-87087681D01*
X175082720Y-87026358D01*
X175087704Y-86956666D01*
X175116205Y-86912319D01*
X175190509Y-86838015D01*
X175262984Y-86712485D01*
X175300500Y-86572475D01*
X175300500Y-86427525D01*
X175262984Y-86287515D01*
X175256052Y-86275509D01*
X175190511Y-86161988D01*
X175190506Y-86161982D01*
X175088017Y-86059493D01*
X175088011Y-86059488D01*
X174962488Y-85987017D01*
X174962489Y-85987017D01*
X174951006Y-85983940D01*
X174822475Y-85949500D01*
X174677525Y-85949500D01*
X174548993Y-85983940D01*
X174537511Y-85987017D01*
X174411988Y-86059488D01*
X174411982Y-86059493D01*
X174309493Y-86161982D01*
X174309488Y-86161988D01*
X174237017Y-86287511D01*
X174237016Y-86287515D01*
X174199500Y-86427525D01*
X154927525Y-86427525D01*
X154101943Y-85601943D01*
X154068458Y-85540620D01*
X154073442Y-85470928D01*
X154101943Y-85426581D01*
X154116542Y-85411982D01*
X154190509Y-85338015D01*
X154262984Y-85212485D01*
X154300500Y-85072475D01*
X154300500Y-84927525D01*
X154262984Y-84787515D01*
X154219665Y-84712485D01*
X154190511Y-84661988D01*
X154190506Y-84661982D01*
X154088017Y-84559493D01*
X154088011Y-84559488D01*
X153962488Y-84487017D01*
X153962489Y-84487017D01*
X153936917Y-84480165D01*
X153822475Y-84449500D01*
X153677525Y-84449500D01*
X153563083Y-84480165D01*
X153537511Y-84487017D01*
X153411988Y-84559488D01*
X153411981Y-84559494D01*
X153323417Y-84648057D01*
X153262094Y-84681541D01*
X153192402Y-84676556D01*
X153148056Y-84648056D01*
X151677525Y-83177525D01*
X155199500Y-83177525D01*
X155199500Y-83322475D01*
X155233537Y-83449500D01*
X155237017Y-83462488D01*
X155309488Y-83588011D01*
X155309490Y-83588013D01*
X155309491Y-83588015D01*
X155411985Y-83690509D01*
X155411986Y-83690510D01*
X155411988Y-83690511D01*
X155537511Y-83762982D01*
X155537512Y-83762982D01*
X155537515Y-83762984D01*
X155677525Y-83800500D01*
X155677528Y-83800500D01*
X155822472Y-83800500D01*
X155822475Y-83800500D01*
X155962485Y-83762984D01*
X156088015Y-83690509D01*
X156190509Y-83588015D01*
X156235367Y-83510319D01*
X172339500Y-83510319D01*
X172339500Y-83689680D01*
X172374487Y-83865575D01*
X172374490Y-83865584D01*
X172443121Y-84031277D01*
X172443128Y-84031290D01*
X172542767Y-84180409D01*
X172542770Y-84180413D01*
X172669586Y-84307229D01*
X172669590Y-84307232D01*
X172803783Y-84396898D01*
X172848588Y-84450510D01*
X172857295Y-84519835D01*
X172827140Y-84582863D01*
X172803783Y-84603102D01*
X172669590Y-84692767D01*
X172669586Y-84692770D01*
X172542770Y-84819586D01*
X172542767Y-84819590D01*
X172443128Y-84968709D01*
X172443121Y-84968722D01*
X172374490Y-85134415D01*
X172374487Y-85134424D01*
X172339500Y-85310319D01*
X172339500Y-85489680D01*
X172374487Y-85665575D01*
X172374490Y-85665584D01*
X172443121Y-85831277D01*
X172443128Y-85831290D01*
X172542767Y-85980409D01*
X172542770Y-85980413D01*
X172669586Y-86107229D01*
X172669590Y-86107232D01*
X172818709Y-86206871D01*
X172818722Y-86206878D01*
X172942991Y-86258351D01*
X172984417Y-86275510D01*
X172984419Y-86275510D01*
X172984424Y-86275512D01*
X173160319Y-86310499D01*
X173160323Y-86310500D01*
X173160324Y-86310500D01*
X173339677Y-86310500D01*
X173339677Y-86310499D01*
X173370884Y-86304292D01*
X173403621Y-86297781D01*
X173515575Y-86275512D01*
X173515578Y-86275510D01*
X173515583Y-86275510D01*
X173681284Y-86206875D01*
X173830410Y-86107232D01*
X173957232Y-85980410D01*
X174056875Y-85831284D01*
X174120564Y-85677525D01*
X183949500Y-85677525D01*
X183949500Y-85822475D01*
X183983537Y-85949500D01*
X183987017Y-85962488D01*
X184059488Y-86088011D01*
X184059490Y-86088013D01*
X184059491Y-86088015D01*
X184161985Y-86190509D01*
X184161986Y-86190510D01*
X184161988Y-86190511D01*
X184287511Y-86262982D01*
X184287512Y-86262982D01*
X184287515Y-86262984D01*
X184427525Y-86300500D01*
X184427528Y-86300500D01*
X184572472Y-86300500D01*
X184572475Y-86300500D01*
X184712485Y-86262984D01*
X184838015Y-86190509D01*
X184940509Y-86088015D01*
X185012984Y-85962485D01*
X185050500Y-85822475D01*
X185050500Y-85677525D01*
X185012984Y-85537515D01*
X184985366Y-85489680D01*
X184940511Y-85411988D01*
X184940506Y-85411982D01*
X184838017Y-85309493D01*
X184838011Y-85309488D01*
X184712488Y-85237017D01*
X184712489Y-85237017D01*
X184701006Y-85233940D01*
X184572475Y-85199500D01*
X184427525Y-85199500D01*
X184298993Y-85233940D01*
X184287511Y-85237017D01*
X184161988Y-85309488D01*
X184161982Y-85309493D01*
X184059493Y-85411982D01*
X184059488Y-85411988D01*
X183987017Y-85537511D01*
X183987016Y-85537515D01*
X183949500Y-85677525D01*
X174120564Y-85677525D01*
X174125510Y-85665583D01*
X174126534Y-85660433D01*
X174129564Y-85645205D01*
X174129564Y-85645203D01*
X174160499Y-85489680D01*
X174160500Y-85489677D01*
X174160500Y-85310323D01*
X174160499Y-85310319D01*
X174125512Y-85134424D01*
X174125509Y-85134415D01*
X174056878Y-84968722D01*
X174056871Y-84968709D01*
X173957232Y-84819590D01*
X173957229Y-84819586D01*
X173830413Y-84692770D01*
X173830409Y-84692767D01*
X173696216Y-84603102D01*
X173651411Y-84549490D01*
X173642704Y-84480165D01*
X173672858Y-84417137D01*
X173696216Y-84396898D01*
X173784346Y-84338011D01*
X173830410Y-84307232D01*
X173957232Y-84180410D01*
X174056875Y-84031284D01*
X174125510Y-83865583D01*
X174131839Y-83833768D01*
X174160499Y-83689680D01*
X174160500Y-83689677D01*
X174160500Y-83666228D01*
X174874500Y-83666228D01*
X174874500Y-83833771D01*
X174907182Y-83998074D01*
X174907184Y-83998082D01*
X174971295Y-84152860D01*
X175064373Y-84292162D01*
X175182837Y-84410626D01*
X175242528Y-84450510D01*
X175322137Y-84503703D01*
X175476918Y-84567816D01*
X175641228Y-84600499D01*
X175641232Y-84600500D01*
X175641233Y-84600500D01*
X176358768Y-84600500D01*
X176358769Y-84600499D01*
X176523082Y-84567816D01*
X176677863Y-84503703D01*
X176817162Y-84410626D01*
X176935626Y-84292162D01*
X177028703Y-84152863D01*
X177092816Y-83998082D01*
X177125500Y-83833767D01*
X177125500Y-83677525D01*
X177699500Y-83677525D01*
X177699500Y-83822475D01*
X177727649Y-83927527D01*
X177737017Y-83962488D01*
X177809488Y-84088011D01*
X177809490Y-84088013D01*
X177809491Y-84088015D01*
X177911985Y-84190509D01*
X177950054Y-84212488D01*
X178011129Y-84247750D01*
X178059345Y-84298317D01*
X178072568Y-84366924D01*
X178056516Y-84417137D01*
X177987017Y-84537511D01*
X177987016Y-84537515D01*
X177949500Y-84677525D01*
X177949500Y-84822475D01*
X177981128Y-84940511D01*
X177987017Y-84962488D01*
X178059488Y-85088011D01*
X178059490Y-85088013D01*
X178059491Y-85088015D01*
X178161985Y-85190509D01*
X178161986Y-85190510D01*
X178161988Y-85190511D01*
X178287511Y-85262982D01*
X178287512Y-85262982D01*
X178287515Y-85262984D01*
X178427525Y-85300500D01*
X178427528Y-85300500D01*
X178572472Y-85300500D01*
X178572475Y-85300500D01*
X178712485Y-85262984D01*
X178838015Y-85190509D01*
X178940509Y-85088015D01*
X179012984Y-84962485D01*
X179050500Y-84822475D01*
X179050500Y-84677525D01*
X179012984Y-84537515D01*
X178965664Y-84455555D01*
X178949481Y-84427525D01*
X182699500Y-84427525D01*
X182699500Y-84572475D01*
X182737016Y-84712485D01*
X182737017Y-84712488D01*
X182809488Y-84838011D01*
X182809490Y-84838013D01*
X182809491Y-84838015D01*
X182911985Y-84940509D01*
X182911986Y-84940510D01*
X182911988Y-84940511D01*
X183037511Y-85012982D01*
X183037512Y-85012982D01*
X183037515Y-85012984D01*
X183177525Y-85050500D01*
X183177528Y-85050500D01*
X183322472Y-85050500D01*
X183322475Y-85050500D01*
X183462485Y-85012984D01*
X183588015Y-84940509D01*
X183690509Y-84838015D01*
X183762984Y-84712485D01*
X183800500Y-84572475D01*
X183800500Y-84427525D01*
X183762984Y-84287515D01*
X183733828Y-84237016D01*
X183690511Y-84161988D01*
X183690506Y-84161982D01*
X183588017Y-84059493D01*
X183588011Y-84059488D01*
X183462488Y-83987017D01*
X183462489Y-83987017D01*
X183451006Y-83983940D01*
X183322475Y-83949500D01*
X183177525Y-83949500D01*
X183048993Y-83983940D01*
X183037511Y-83987017D01*
X182911988Y-84059488D01*
X182911982Y-84059493D01*
X182809493Y-84161982D01*
X182809488Y-84161988D01*
X182737017Y-84287511D01*
X182737016Y-84287515D01*
X182699500Y-84427525D01*
X178949481Y-84427525D01*
X178940511Y-84411988D01*
X178940506Y-84411982D01*
X178838017Y-84309493D01*
X178838011Y-84309488D01*
X178738870Y-84252249D01*
X178690654Y-84201682D01*
X178677432Y-84133074D01*
X178693483Y-84082863D01*
X178762984Y-83962485D01*
X178772352Y-83927525D01*
X188449500Y-83927525D01*
X188449500Y-84072475D01*
X188487016Y-84212485D01*
X188487017Y-84212488D01*
X188559488Y-84338011D01*
X188559490Y-84338013D01*
X188559491Y-84338015D01*
X188661985Y-84440509D01*
X188661986Y-84440510D01*
X188661988Y-84440511D01*
X188787511Y-84512982D01*
X188787512Y-84512982D01*
X188787515Y-84512984D01*
X188927525Y-84550500D01*
X188927528Y-84550500D01*
X189072472Y-84550500D01*
X189072475Y-84550500D01*
X189212485Y-84512984D01*
X189338015Y-84440509D01*
X189440509Y-84338015D01*
X189512984Y-84212485D01*
X189550500Y-84072475D01*
X189550500Y-83927525D01*
X189512984Y-83787515D01*
X189456977Y-83690509D01*
X189440511Y-83661988D01*
X189440506Y-83661982D01*
X189338017Y-83559493D01*
X189338011Y-83559488D01*
X189212488Y-83487017D01*
X189212489Y-83487017D01*
X189201006Y-83483940D01*
X189072475Y-83449500D01*
X188927525Y-83449500D01*
X188798993Y-83483940D01*
X188787511Y-83487017D01*
X188661988Y-83559488D01*
X188661982Y-83559493D01*
X188559493Y-83661982D01*
X188559488Y-83661988D01*
X188487017Y-83787511D01*
X188487016Y-83787515D01*
X188449500Y-83927525D01*
X178772352Y-83927525D01*
X178800500Y-83822475D01*
X178800500Y-83677525D01*
X178762984Y-83537515D01*
X178754306Y-83522485D01*
X178690511Y-83411988D01*
X178690506Y-83411982D01*
X178588017Y-83309493D01*
X178588011Y-83309488D01*
X178462488Y-83237017D01*
X178462489Y-83237017D01*
X178451006Y-83233940D01*
X178322475Y-83199500D01*
X178177525Y-83199500D01*
X178048993Y-83233940D01*
X178037511Y-83237017D01*
X177911988Y-83309488D01*
X177911982Y-83309493D01*
X177809493Y-83411982D01*
X177809488Y-83411988D01*
X177737017Y-83537511D01*
X177737016Y-83537515D01*
X177699500Y-83677525D01*
X177125500Y-83677525D01*
X177125500Y-83666233D01*
X177092816Y-83501918D01*
X177028703Y-83347137D01*
X176997537Y-83300494D01*
X176935626Y-83207837D01*
X176817162Y-83089373D01*
X176677860Y-82996295D01*
X176523082Y-82932184D01*
X176523074Y-82932182D01*
X176358771Y-82899500D01*
X176358767Y-82899500D01*
X175641233Y-82899500D01*
X175641228Y-82899500D01*
X175476925Y-82932182D01*
X175476917Y-82932184D01*
X175322139Y-82996295D01*
X175182837Y-83089373D01*
X175064373Y-83207837D01*
X174971295Y-83347139D01*
X174907184Y-83501917D01*
X174907182Y-83501925D01*
X174874500Y-83666228D01*
X174160500Y-83666228D01*
X174160500Y-83510323D01*
X174160499Y-83510319D01*
X174125512Y-83334424D01*
X174125509Y-83334415D01*
X174120563Y-83322475D01*
X174073080Y-83207838D01*
X174056878Y-83168722D01*
X174056871Y-83168709D01*
X173957232Y-83019590D01*
X173957229Y-83019586D01*
X173830413Y-82892770D01*
X173830409Y-82892767D01*
X173681290Y-82793128D01*
X173681277Y-82793121D01*
X173515584Y-82724490D01*
X173515575Y-82724487D01*
X173339680Y-82689500D01*
X173339676Y-82689500D01*
X173160324Y-82689500D01*
X173160319Y-82689500D01*
X172984424Y-82724487D01*
X172984415Y-82724490D01*
X172818722Y-82793121D01*
X172818709Y-82793128D01*
X172669590Y-82892767D01*
X172669586Y-82892770D01*
X172542770Y-83019586D01*
X172542767Y-83019590D01*
X172443128Y-83168709D01*
X172443121Y-83168722D01*
X172374490Y-83334415D01*
X172374487Y-83334424D01*
X172339500Y-83510319D01*
X156235367Y-83510319D01*
X156262984Y-83462485D01*
X156300500Y-83322475D01*
X156300500Y-83177525D01*
X156262984Y-83037515D01*
X156206977Y-82940509D01*
X156190511Y-82911988D01*
X156190506Y-82911982D01*
X156088017Y-82809493D01*
X156088011Y-82809488D01*
X155962488Y-82737017D01*
X155962489Y-82737017D01*
X155951006Y-82733940D01*
X155822475Y-82699500D01*
X155677525Y-82699500D01*
X155548993Y-82733940D01*
X155537511Y-82737017D01*
X155411988Y-82809488D01*
X155411982Y-82809493D01*
X155309493Y-82911982D01*
X155309488Y-82911988D01*
X155237017Y-83037511D01*
X155237016Y-83037515D01*
X155199500Y-83177525D01*
X151677525Y-83177525D01*
X151036319Y-82536319D01*
X151002834Y-82474996D01*
X151000000Y-82448638D01*
X151000000Y-82177525D01*
X152949500Y-82177525D01*
X152949500Y-82322475D01*
X152985693Y-82457546D01*
X152987017Y-82462488D01*
X153059488Y-82588011D01*
X153059490Y-82588013D01*
X153059491Y-82588015D01*
X153161985Y-82690509D01*
X153161986Y-82690510D01*
X153161988Y-82690511D01*
X153287511Y-82762982D01*
X153287512Y-82762982D01*
X153287515Y-82762984D01*
X153427525Y-82800500D01*
X153427528Y-82800500D01*
X153572472Y-82800500D01*
X153572475Y-82800500D01*
X153712485Y-82762984D01*
X153838015Y-82690509D01*
X153940509Y-82588015D01*
X154012984Y-82462485D01*
X154022352Y-82427525D01*
X162699500Y-82427525D01*
X162699500Y-82572475D01*
X162731128Y-82690511D01*
X162737017Y-82712488D01*
X162809488Y-82838011D01*
X162809490Y-82838013D01*
X162809491Y-82838015D01*
X162911985Y-82940509D01*
X162911986Y-82940510D01*
X162911988Y-82940511D01*
X163037511Y-83012982D01*
X163037512Y-83012982D01*
X163037515Y-83012984D01*
X163177525Y-83050500D01*
X163177528Y-83050500D01*
X163322472Y-83050500D01*
X163322475Y-83050500D01*
X163462485Y-83012984D01*
X163588015Y-82940509D01*
X163690509Y-82838015D01*
X163762984Y-82712485D01*
X163800500Y-82572475D01*
X163800500Y-82427525D01*
X164199500Y-82427525D01*
X164199500Y-82572475D01*
X164231128Y-82690511D01*
X164237017Y-82712488D01*
X164309488Y-82838011D01*
X164309490Y-82838013D01*
X164309491Y-82838015D01*
X164411985Y-82940509D01*
X164411986Y-82940510D01*
X164411988Y-82940511D01*
X164537511Y-83012982D01*
X164537512Y-83012982D01*
X164537515Y-83012984D01*
X164677525Y-83050500D01*
X164677528Y-83050500D01*
X164822472Y-83050500D01*
X164822475Y-83050500D01*
X164962485Y-83012984D01*
X165088015Y-82940509D01*
X165190509Y-82838015D01*
X165262984Y-82712485D01*
X165300500Y-82572475D01*
X165300500Y-82427525D01*
X165262984Y-82287515D01*
X165262486Y-82286653D01*
X165190511Y-82161988D01*
X165190506Y-82161982D01*
X165088017Y-82059493D01*
X165088011Y-82059488D01*
X164962488Y-81987017D01*
X164962489Y-81987017D01*
X164951006Y-81983940D01*
X164822475Y-81949500D01*
X164677525Y-81949500D01*
X164548993Y-81983940D01*
X164537511Y-81987017D01*
X164411988Y-82059488D01*
X164411982Y-82059493D01*
X164309493Y-82161982D01*
X164309488Y-82161988D01*
X164237017Y-82287511D01*
X164237016Y-82287515D01*
X164199500Y-82427525D01*
X163800500Y-82427525D01*
X163762984Y-82287515D01*
X163762486Y-82286653D01*
X163690511Y-82161988D01*
X163690506Y-82161982D01*
X163588017Y-82059493D01*
X163588011Y-82059488D01*
X163462488Y-81987017D01*
X163462489Y-81987017D01*
X163451006Y-81983940D01*
X163322475Y-81949500D01*
X163177525Y-81949500D01*
X163048993Y-81983940D01*
X163037511Y-81987017D01*
X162911988Y-82059488D01*
X162911982Y-82059493D01*
X162809493Y-82161982D01*
X162809488Y-82161988D01*
X162737017Y-82287511D01*
X162737016Y-82287515D01*
X162699500Y-82427525D01*
X154022352Y-82427525D01*
X154050500Y-82322475D01*
X154050500Y-82177525D01*
X154012984Y-82037515D01*
X153990176Y-81998011D01*
X153940511Y-81911988D01*
X153940506Y-81911982D01*
X153838017Y-81809493D01*
X153838011Y-81809488D01*
X153712488Y-81737017D01*
X153712489Y-81737017D01*
X153695527Y-81732472D01*
X153572475Y-81699500D01*
X153427525Y-81699500D01*
X153304473Y-81732472D01*
X153287511Y-81737017D01*
X153161988Y-81809488D01*
X153161982Y-81809493D01*
X153059493Y-81911982D01*
X153059488Y-81911988D01*
X152987017Y-82037511D01*
X152987016Y-82037515D01*
X152949500Y-82177525D01*
X151000000Y-82177525D01*
X151000000Y-80927525D01*
X166449500Y-80927525D01*
X166449500Y-81072475D01*
X166477649Y-81177527D01*
X166487017Y-81212488D01*
X166559488Y-81338011D01*
X166559490Y-81338013D01*
X166559491Y-81338015D01*
X166661985Y-81440509D01*
X166661986Y-81440510D01*
X166661988Y-81440511D01*
X166787511Y-81512982D01*
X166787512Y-81512982D01*
X166787515Y-81512984D01*
X166927525Y-81550500D01*
X166927528Y-81550500D01*
X167072472Y-81550500D01*
X167072475Y-81550500D01*
X167212485Y-81512984D01*
X167338015Y-81440509D01*
X167440509Y-81338015D01*
X167512984Y-81212485D01*
X167522352Y-81177525D01*
X168699500Y-81177525D01*
X168699500Y-81322475D01*
X168731128Y-81440511D01*
X168737017Y-81462488D01*
X168809488Y-81588011D01*
X168809490Y-81588013D01*
X168809491Y-81588015D01*
X168911985Y-81690509D01*
X168911986Y-81690510D01*
X168911988Y-81690511D01*
X169037511Y-81762982D01*
X169037512Y-81762982D01*
X169037515Y-81762984D01*
X169177525Y-81800500D01*
X169177528Y-81800500D01*
X169322472Y-81800500D01*
X169322475Y-81800500D01*
X169462485Y-81762984D01*
X169588015Y-81690509D01*
X169690509Y-81588015D01*
X169762984Y-81462485D01*
X169800500Y-81322475D01*
X169800500Y-81177525D01*
X169762984Y-81037515D01*
X169699481Y-80927525D01*
X170949500Y-80927525D01*
X170949500Y-81072475D01*
X170977649Y-81177527D01*
X170987017Y-81212488D01*
X171059488Y-81338011D01*
X171059490Y-81338013D01*
X171059491Y-81338015D01*
X171161985Y-81440509D01*
X171161986Y-81440510D01*
X171161988Y-81440511D01*
X171287511Y-81512982D01*
X171287512Y-81512982D01*
X171287515Y-81512984D01*
X171427525Y-81550500D01*
X171427528Y-81550500D01*
X171572472Y-81550500D01*
X171572475Y-81550500D01*
X171712485Y-81512984D01*
X171712487Y-81512982D01*
X171712489Y-81512982D01*
X171712490Y-81512981D01*
X171832863Y-81443483D01*
X171900761Y-81427010D01*
X171966788Y-81449862D01*
X172002249Y-81488870D01*
X172059488Y-81588011D01*
X172059490Y-81588013D01*
X172059491Y-81588015D01*
X172161985Y-81690509D01*
X172161986Y-81690510D01*
X172161988Y-81690511D01*
X172287511Y-81762982D01*
X172287512Y-81762982D01*
X172287515Y-81762984D01*
X172427525Y-81800500D01*
X172427528Y-81800500D01*
X172572472Y-81800500D01*
X172572475Y-81800500D01*
X172712485Y-81762984D01*
X172838015Y-81690509D01*
X172940509Y-81588015D01*
X173012984Y-81462485D01*
X173042553Y-81352134D01*
X174874500Y-81352134D01*
X174874500Y-82147869D01*
X174874501Y-82147875D01*
X174880908Y-82207482D01*
X174931202Y-82342327D01*
X174931206Y-82342334D01*
X175017452Y-82457543D01*
X175017455Y-82457546D01*
X175132664Y-82543792D01*
X175132671Y-82543796D01*
X175267517Y-82594090D01*
X175267516Y-82594090D01*
X175274444Y-82594834D01*
X175327127Y-82600499D01*
X176672872Y-82600498D01*
X176732483Y-82594090D01*
X176867331Y-82543795D01*
X176982546Y-82457545D01*
X177068796Y-82342330D01*
X177119091Y-82207482D01*
X177125500Y-82147872D01*
X177125499Y-81677525D01*
X178949500Y-81677525D01*
X178949500Y-81822475D01*
X178983537Y-81949500D01*
X178987017Y-81962488D01*
X179059488Y-82088011D01*
X179059490Y-82088013D01*
X179059491Y-82088015D01*
X179161985Y-82190509D01*
X179161986Y-82190510D01*
X179161988Y-82190511D01*
X179287511Y-82262982D01*
X179287512Y-82262982D01*
X179287515Y-82262984D01*
X179427525Y-82300500D01*
X179427528Y-82300500D01*
X179572472Y-82300500D01*
X179572475Y-82300500D01*
X179712485Y-82262984D01*
X179838015Y-82190509D01*
X179940509Y-82088015D01*
X180012984Y-81962485D01*
X180050500Y-81822475D01*
X180050500Y-81677525D01*
X180026384Y-81587525D01*
X185049500Y-81587525D01*
X185049500Y-81732475D01*
X185073615Y-81822472D01*
X185087017Y-81872488D01*
X185159488Y-81998011D01*
X185159490Y-81998013D01*
X185159491Y-81998015D01*
X185261985Y-82100509D01*
X185261988Y-82100510D01*
X185261991Y-82100513D01*
X185265630Y-82102614D01*
X185268086Y-82105190D01*
X185268434Y-82105457D01*
X185268392Y-82105511D01*
X185313845Y-82153181D01*
X185327067Y-82221788D01*
X185301099Y-82286653D01*
X185265630Y-82317386D01*
X185261991Y-82319486D01*
X185261982Y-82319493D01*
X185159493Y-82421982D01*
X185159488Y-82421988D01*
X185087017Y-82547511D01*
X185087016Y-82547515D01*
X185049500Y-82687525D01*
X185049500Y-82832475D01*
X185087016Y-82972485D01*
X185087017Y-82972488D01*
X185159488Y-83098011D01*
X185159490Y-83098013D01*
X185159491Y-83098015D01*
X185261985Y-83200509D01*
X185261986Y-83200510D01*
X185261988Y-83200511D01*
X185387511Y-83272982D01*
X185387512Y-83272982D01*
X185387515Y-83272984D01*
X185515140Y-83307181D01*
X185574798Y-83343545D01*
X185602818Y-83394860D01*
X185633757Y-83510324D01*
X185637017Y-83522488D01*
X185709488Y-83648011D01*
X185709490Y-83648013D01*
X185709491Y-83648015D01*
X185811985Y-83750509D01*
X185811986Y-83750510D01*
X185811988Y-83750511D01*
X185937511Y-83822982D01*
X185937512Y-83822982D01*
X185937515Y-83822984D01*
X186077525Y-83860500D01*
X186077528Y-83860500D01*
X186222472Y-83860500D01*
X186222475Y-83860500D01*
X186362485Y-83822984D01*
X186488015Y-83750509D01*
X186590509Y-83648015D01*
X186592612Y-83644371D01*
X186595190Y-83641913D01*
X186595457Y-83641566D01*
X186595511Y-83641607D01*
X186643177Y-83596156D01*
X186711783Y-83582931D01*
X186776649Y-83608897D01*
X186807386Y-83644370D01*
X186809491Y-83648015D01*
X186911985Y-83750509D01*
X186911986Y-83750510D01*
X186911988Y-83750511D01*
X187037511Y-83822982D01*
X187037512Y-83822982D01*
X187037515Y-83822984D01*
X187177525Y-83860500D01*
X187177528Y-83860500D01*
X187322472Y-83860500D01*
X187322475Y-83860500D01*
X187462485Y-83822984D01*
X187588015Y-83750509D01*
X187690509Y-83648015D01*
X187762984Y-83522485D01*
X187797181Y-83394859D01*
X187833545Y-83335201D01*
X187884858Y-83307181D01*
X188012485Y-83272984D01*
X188138015Y-83200509D01*
X188240509Y-83098015D01*
X188312984Y-82972485D01*
X188350500Y-82832475D01*
X188350500Y-82687525D01*
X188312984Y-82547515D01*
X188310836Y-82543795D01*
X188240511Y-82421988D01*
X188240506Y-82421982D01*
X188138017Y-82319493D01*
X188138015Y-82319491D01*
X188134371Y-82317387D01*
X188131913Y-82314809D01*
X188131566Y-82314543D01*
X188131607Y-82314488D01*
X188086156Y-82266823D01*
X188072931Y-82198217D01*
X188098897Y-82133351D01*
X188134370Y-82102613D01*
X188138015Y-82100509D01*
X188240509Y-81998015D01*
X188312984Y-81872485D01*
X188350500Y-81732475D01*
X188350500Y-81587525D01*
X188312984Y-81447515D01*
X188308940Y-81440511D01*
X188240511Y-81321988D01*
X188240506Y-81321982D01*
X188138017Y-81219493D01*
X188138011Y-81219488D01*
X188012488Y-81147017D01*
X188012489Y-81147017D01*
X187925977Y-81123836D01*
X187884860Y-81112818D01*
X187825201Y-81076453D01*
X187797181Y-81025141D01*
X187762984Y-80897515D01*
X187742091Y-80861328D01*
X187690511Y-80771988D01*
X187690506Y-80771982D01*
X187588017Y-80669493D01*
X187588011Y-80669488D01*
X187462488Y-80597017D01*
X187462489Y-80597017D01*
X187451006Y-80593940D01*
X187322475Y-80559500D01*
X187177525Y-80559500D01*
X187048993Y-80593940D01*
X187037511Y-80597017D01*
X186911988Y-80669488D01*
X186911982Y-80669493D01*
X186809493Y-80771982D01*
X186809486Y-80771991D01*
X186807386Y-80775630D01*
X186804809Y-80778086D01*
X186804543Y-80778434D01*
X186804488Y-80778392D01*
X186756819Y-80823845D01*
X186688212Y-80837067D01*
X186623347Y-80811099D01*
X186592614Y-80775630D01*
X186590513Y-80771991D01*
X186590510Y-80771988D01*
X186590509Y-80771985D01*
X186488015Y-80669491D01*
X186488013Y-80669490D01*
X186488011Y-80669488D01*
X186362488Y-80597017D01*
X186362489Y-80597017D01*
X186351006Y-80593940D01*
X186222475Y-80559500D01*
X186077525Y-80559500D01*
X185948993Y-80593940D01*
X185937511Y-80597017D01*
X185811988Y-80669488D01*
X185811982Y-80669493D01*
X185709493Y-80771982D01*
X185709488Y-80771988D01*
X185637017Y-80897511D01*
X185602819Y-81025138D01*
X185566453Y-81084799D01*
X185515138Y-81112819D01*
X185387511Y-81147017D01*
X185261988Y-81219488D01*
X185261982Y-81219493D01*
X185159493Y-81321982D01*
X185159488Y-81321988D01*
X185087017Y-81447511D01*
X185087016Y-81447515D01*
X185049500Y-81587525D01*
X180026384Y-81587525D01*
X180012984Y-81537515D01*
X179998819Y-81512981D01*
X179940511Y-81411988D01*
X179940506Y-81411982D01*
X179838017Y-81309493D01*
X179838015Y-81309491D01*
X179767272Y-81268647D01*
X179719058Y-81218080D01*
X179705836Y-81149473D01*
X179731804Y-81084609D01*
X179788718Y-81044081D01*
X179797166Y-81041490D01*
X179816556Y-81036295D01*
X179942086Y-80963820D01*
X180044580Y-80861326D01*
X180117055Y-80735796D01*
X180154571Y-80595786D01*
X180154571Y-80450836D01*
X180117055Y-80310826D01*
X180044580Y-80185296D01*
X179942086Y-80082802D01*
X179942084Y-80082801D01*
X179942082Y-80082799D01*
X179816559Y-80010328D01*
X179816560Y-80010328D01*
X179805077Y-80007251D01*
X179676546Y-79972811D01*
X179531596Y-79972811D01*
X179403064Y-80007251D01*
X179391582Y-80010328D01*
X179266059Y-80082799D01*
X179266053Y-80082804D01*
X179163564Y-80185293D01*
X179163559Y-80185299D01*
X179091088Y-80310822D01*
X179091087Y-80310826D01*
X179053571Y-80450836D01*
X179053571Y-80595786D01*
X179091087Y-80735796D01*
X179091088Y-80735799D01*
X179163559Y-80861322D01*
X179163561Y-80861324D01*
X179163562Y-80861326D01*
X179266056Y-80963820D01*
X179296504Y-80981399D01*
X179336796Y-81004662D01*
X179385012Y-81055229D01*
X179398234Y-81123836D01*
X179372266Y-81188701D01*
X179315352Y-81229229D01*
X179306894Y-81231823D01*
X179294440Y-81235160D01*
X179287515Y-81237016D01*
X179287514Y-81237016D01*
X179287512Y-81237017D01*
X179287511Y-81237017D01*
X179161988Y-81309488D01*
X179161982Y-81309493D01*
X179059493Y-81411982D01*
X179059488Y-81411988D01*
X178987017Y-81537511D01*
X178987016Y-81537515D01*
X178949500Y-81677525D01*
X177125499Y-81677525D01*
X177125499Y-81352127D01*
X177119091Y-81292516D01*
X177098391Y-81237017D01*
X177068797Y-81157670D01*
X177068793Y-81157663D01*
X176982547Y-81042454D01*
X176982544Y-81042451D01*
X176867335Y-80956205D01*
X176867328Y-80956201D01*
X176732482Y-80905907D01*
X176732483Y-80905907D01*
X176672883Y-80899500D01*
X176672881Y-80899499D01*
X176672873Y-80899499D01*
X176672864Y-80899499D01*
X175327129Y-80899499D01*
X175327123Y-80899500D01*
X175267516Y-80905907D01*
X175132671Y-80956201D01*
X175132664Y-80956205D01*
X175017455Y-81042451D01*
X175017452Y-81042454D01*
X174931206Y-81157663D01*
X174931202Y-81157670D01*
X174880908Y-81292516D01*
X174876017Y-81338015D01*
X174874501Y-81352122D01*
X174874500Y-81352134D01*
X173042553Y-81352134D01*
X173050500Y-81322475D01*
X173050500Y-81177525D01*
X173012984Y-81037515D01*
X173012278Y-81036293D01*
X172940511Y-80911988D01*
X172940506Y-80911982D01*
X172838017Y-80809493D01*
X172838011Y-80809488D01*
X172712488Y-80737017D01*
X172712489Y-80737017D01*
X172701006Y-80733940D01*
X172572475Y-80699500D01*
X172427525Y-80699500D01*
X172298993Y-80733940D01*
X172287511Y-80737017D01*
X172167137Y-80806516D01*
X172099237Y-80822989D01*
X172033210Y-80800137D01*
X171997750Y-80761129D01*
X171983828Y-80737016D01*
X171940509Y-80661985D01*
X171838015Y-80559491D01*
X171838013Y-80559490D01*
X171838011Y-80559488D01*
X171712488Y-80487017D01*
X171712489Y-80487017D01*
X171701006Y-80483940D01*
X171572475Y-80449500D01*
X171427525Y-80449500D01*
X171298993Y-80483940D01*
X171287511Y-80487017D01*
X171161988Y-80559488D01*
X171161982Y-80559493D01*
X171059493Y-80661982D01*
X171059488Y-80661988D01*
X170987017Y-80787511D01*
X170987016Y-80787515D01*
X170949500Y-80927525D01*
X169699481Y-80927525D01*
X169690509Y-80911985D01*
X169588015Y-80809491D01*
X169588013Y-80809490D01*
X169588011Y-80809488D01*
X169462488Y-80737017D01*
X169462489Y-80737017D01*
X169451006Y-80733940D01*
X169322475Y-80699500D01*
X169177525Y-80699500D01*
X169048993Y-80733940D01*
X169037511Y-80737017D01*
X168911988Y-80809488D01*
X168911982Y-80809493D01*
X168809493Y-80911982D01*
X168809488Y-80911988D01*
X168737017Y-81037511D01*
X168737016Y-81037515D01*
X168699500Y-81177525D01*
X167522352Y-81177525D01*
X167550500Y-81072475D01*
X167550500Y-80927525D01*
X167512984Y-80787515D01*
X167504019Y-80771988D01*
X167440511Y-80661988D01*
X167440506Y-80661982D01*
X167338017Y-80559493D01*
X167338011Y-80559488D01*
X167212488Y-80487017D01*
X167212489Y-80487017D01*
X167201006Y-80483940D01*
X167072475Y-80449500D01*
X166927525Y-80449500D01*
X166798993Y-80483940D01*
X166787511Y-80487017D01*
X166661988Y-80559488D01*
X166661982Y-80559493D01*
X166559493Y-80661982D01*
X166559488Y-80661988D01*
X166487017Y-80787511D01*
X166487016Y-80787515D01*
X166449500Y-80927525D01*
X151000000Y-80927525D01*
X151000000Y-79551362D01*
X151008644Y-79521921D01*
X151015168Y-79491935D01*
X151018922Y-79486919D01*
X151019685Y-79484323D01*
X151036319Y-79463681D01*
X151072475Y-79427525D01*
X163199500Y-79427525D01*
X163199500Y-79572475D01*
X163237016Y-79712485D01*
X163237017Y-79712488D01*
X163309488Y-79838011D01*
X163309490Y-79838013D01*
X163309491Y-79838015D01*
X163411985Y-79940509D01*
X163411986Y-79940510D01*
X163411988Y-79940511D01*
X163537511Y-80012982D01*
X163537512Y-80012982D01*
X163537515Y-80012984D01*
X163677525Y-80050500D01*
X163677528Y-80050500D01*
X163822472Y-80050500D01*
X163822475Y-80050500D01*
X163962485Y-80012984D01*
X164088015Y-79940509D01*
X164190509Y-79838015D01*
X164262984Y-79712485D01*
X164300500Y-79572475D01*
X164300500Y-79427525D01*
X165199500Y-79427525D01*
X165199500Y-79572475D01*
X165237016Y-79712485D01*
X165237017Y-79712488D01*
X165309488Y-79838011D01*
X165309490Y-79838013D01*
X165309491Y-79838015D01*
X165411985Y-79940509D01*
X165411986Y-79940510D01*
X165411988Y-79940511D01*
X165537511Y-80012982D01*
X165537512Y-80012982D01*
X165537515Y-80012984D01*
X165677525Y-80050500D01*
X165677528Y-80050500D01*
X165822472Y-80050500D01*
X165822475Y-80050500D01*
X165962485Y-80012984D01*
X166088015Y-79940509D01*
X166190509Y-79838015D01*
X166262984Y-79712485D01*
X166300500Y-79572475D01*
X166300500Y-79427525D01*
X166274241Y-79329525D01*
X175605963Y-79329525D01*
X175605963Y-79474475D01*
X175643479Y-79614485D01*
X175643480Y-79614488D01*
X175715951Y-79740011D01*
X175715953Y-79740013D01*
X175715954Y-79740015D01*
X175818448Y-79842509D01*
X175818449Y-79842510D01*
X175818451Y-79842511D01*
X175943974Y-79914982D01*
X175943975Y-79914982D01*
X175943978Y-79914984D01*
X176083988Y-79952500D01*
X176083991Y-79952500D01*
X176228935Y-79952500D01*
X176228938Y-79952500D01*
X176368948Y-79914984D01*
X176494478Y-79842509D01*
X176596972Y-79740015D01*
X176669447Y-79614485D01*
X176706963Y-79474475D01*
X176706963Y-79427525D01*
X186449500Y-79427525D01*
X186449500Y-79572475D01*
X186487016Y-79712485D01*
X186487017Y-79712488D01*
X186559488Y-79838011D01*
X186559490Y-79838013D01*
X186559491Y-79838015D01*
X186661985Y-79940509D01*
X186661986Y-79940510D01*
X186661988Y-79940511D01*
X186787511Y-80012982D01*
X186787512Y-80012982D01*
X186787515Y-80012984D01*
X186927525Y-80050500D01*
X186927528Y-80050500D01*
X187072472Y-80050500D01*
X187072475Y-80050500D01*
X187212485Y-80012984D01*
X187338015Y-79940509D01*
X187440509Y-79838015D01*
X187512984Y-79712485D01*
X187550500Y-79572475D01*
X187550500Y-79427525D01*
X187512984Y-79287515D01*
X187440509Y-79161985D01*
X187338015Y-79059491D01*
X187338013Y-79059490D01*
X187338011Y-79059488D01*
X187212488Y-78987017D01*
X187212489Y-78987017D01*
X187201006Y-78983940D01*
X187072475Y-78949500D01*
X186927525Y-78949500D01*
X186798993Y-78983940D01*
X186787511Y-78987017D01*
X186661988Y-79059488D01*
X186661982Y-79059493D01*
X186559493Y-79161982D01*
X186559488Y-79161988D01*
X186487017Y-79287511D01*
X186487016Y-79287515D01*
X186449500Y-79427525D01*
X176706963Y-79427525D01*
X176706963Y-79329525D01*
X176669447Y-79189515D01*
X176653554Y-79161988D01*
X176596974Y-79063988D01*
X176596969Y-79063982D01*
X176494480Y-78961493D01*
X176494474Y-78961488D01*
X176368951Y-78889017D01*
X176368952Y-78889017D01*
X176357469Y-78885940D01*
X176228938Y-78851500D01*
X176083988Y-78851500D01*
X175955456Y-78885940D01*
X175943974Y-78889017D01*
X175818451Y-78961488D01*
X175818445Y-78961493D01*
X175715956Y-79063982D01*
X175715951Y-79063988D01*
X175643480Y-79189511D01*
X175643479Y-79189515D01*
X175605963Y-79329525D01*
X166274241Y-79329525D01*
X166262984Y-79287515D01*
X166190509Y-79161985D01*
X166088015Y-79059491D01*
X166088013Y-79059490D01*
X166088011Y-79059488D01*
X165962488Y-78987017D01*
X165962489Y-78987017D01*
X165951006Y-78983940D01*
X165822475Y-78949500D01*
X165677525Y-78949500D01*
X165548993Y-78983940D01*
X165537511Y-78987017D01*
X165411988Y-79059488D01*
X165411982Y-79059493D01*
X165309493Y-79161982D01*
X165309488Y-79161988D01*
X165237017Y-79287511D01*
X165237016Y-79287515D01*
X165199500Y-79427525D01*
X164300500Y-79427525D01*
X164262984Y-79287515D01*
X164190509Y-79161985D01*
X164088015Y-79059491D01*
X164088013Y-79059490D01*
X164088011Y-79059488D01*
X163962488Y-78987017D01*
X163962489Y-78987017D01*
X163951006Y-78983940D01*
X163822475Y-78949500D01*
X163677525Y-78949500D01*
X163548993Y-78983940D01*
X163537511Y-78987017D01*
X163411988Y-79059488D01*
X163411982Y-79059493D01*
X163309493Y-79161982D01*
X163309488Y-79161988D01*
X163237017Y-79287511D01*
X163237016Y-79287515D01*
X163199500Y-79427525D01*
X151072475Y-79427525D01*
X152672475Y-77827525D01*
X162199500Y-77827525D01*
X162199500Y-77972475D01*
X162237016Y-78112485D01*
X162237017Y-78112488D01*
X162309488Y-78238011D01*
X162309490Y-78238013D01*
X162309491Y-78238015D01*
X162411985Y-78340509D01*
X162411986Y-78340510D01*
X162411988Y-78340511D01*
X162537511Y-78412982D01*
X162537512Y-78412982D01*
X162537515Y-78412984D01*
X162677525Y-78450500D01*
X162677528Y-78450500D01*
X162822472Y-78450500D01*
X162822475Y-78450500D01*
X162962485Y-78412984D01*
X163088015Y-78340509D01*
X163100999Y-78327525D01*
X177247998Y-78327525D01*
X177247998Y-78472475D01*
X177285514Y-78612485D01*
X177285515Y-78612488D01*
X177357986Y-78738011D01*
X177357988Y-78738013D01*
X177357989Y-78738015D01*
X177460483Y-78840509D01*
X177460484Y-78840510D01*
X177460486Y-78840511D01*
X177586009Y-78912982D01*
X177586010Y-78912982D01*
X177586013Y-78912984D01*
X177726023Y-78950500D01*
X177726026Y-78950500D01*
X177870970Y-78950500D01*
X177870973Y-78950500D01*
X178010983Y-78912984D01*
X178136513Y-78840509D01*
X178239007Y-78738015D01*
X178311482Y-78612485D01*
X178348998Y-78472475D01*
X178348998Y-78427525D01*
X180449500Y-78427525D01*
X180449500Y-78572475D01*
X180460221Y-78612485D01*
X180487017Y-78712488D01*
X180559488Y-78838011D01*
X180559490Y-78838013D01*
X180559491Y-78838015D01*
X180661985Y-78940509D01*
X180661986Y-78940510D01*
X180661988Y-78940511D01*
X180787511Y-79012982D01*
X180787512Y-79012982D01*
X180787515Y-79012984D01*
X180927525Y-79050500D01*
X180927528Y-79050500D01*
X181072472Y-79050500D01*
X181072475Y-79050500D01*
X181212485Y-79012984D01*
X181338015Y-78940509D01*
X181440509Y-78838015D01*
X181512984Y-78712485D01*
X181550500Y-78572475D01*
X181550500Y-78427525D01*
X181512984Y-78287515D01*
X181484406Y-78238017D01*
X181440511Y-78161988D01*
X181440506Y-78161982D01*
X181338017Y-78059493D01*
X181338011Y-78059488D01*
X181212488Y-77987017D01*
X181212489Y-77987017D01*
X181201006Y-77983940D01*
X181072475Y-77949500D01*
X180927525Y-77949500D01*
X180798993Y-77983940D01*
X180787511Y-77987017D01*
X180661988Y-78059488D01*
X180661982Y-78059493D01*
X180559493Y-78161982D01*
X180559488Y-78161988D01*
X180487017Y-78287511D01*
X180487016Y-78287515D01*
X180449500Y-78427525D01*
X178348998Y-78427525D01*
X178348998Y-78327525D01*
X178311482Y-78187515D01*
X178296742Y-78161985D01*
X178239009Y-78061988D01*
X178239004Y-78061982D01*
X178136515Y-77959493D01*
X178136509Y-77959488D01*
X178010986Y-77887017D01*
X178010987Y-77887017D01*
X177999504Y-77883940D01*
X177870973Y-77849500D01*
X177726023Y-77849500D01*
X177597491Y-77883940D01*
X177586009Y-77887017D01*
X177460486Y-77959488D01*
X177460480Y-77959493D01*
X177357991Y-78061982D01*
X177357986Y-78061988D01*
X177285515Y-78187511D01*
X177285514Y-78187515D01*
X177247998Y-78327525D01*
X163100999Y-78327525D01*
X163190509Y-78238015D01*
X163262984Y-78112485D01*
X163300500Y-77972475D01*
X163300500Y-77827525D01*
X163262984Y-77687515D01*
X163190509Y-77561985D01*
X163088015Y-77459491D01*
X163088013Y-77459490D01*
X163088011Y-77459488D01*
X162962488Y-77387017D01*
X162962489Y-77387017D01*
X162951006Y-77383940D01*
X162822475Y-77349500D01*
X162677525Y-77349500D01*
X162548993Y-77383940D01*
X162537511Y-77387017D01*
X162411988Y-77459488D01*
X162411982Y-77459493D01*
X162309493Y-77561982D01*
X162309488Y-77561988D01*
X162237017Y-77687511D01*
X162237016Y-77687515D01*
X162199500Y-77827525D01*
X152672475Y-77827525D01*
X155572475Y-74927525D01*
X162199500Y-74927525D01*
X162199500Y-75072475D01*
X162210221Y-75112485D01*
X162237017Y-75212488D01*
X162309488Y-75338011D01*
X162309490Y-75338013D01*
X162309491Y-75338015D01*
X162411985Y-75440509D01*
X162411986Y-75440510D01*
X162411988Y-75440511D01*
X162537511Y-75512982D01*
X162537512Y-75512982D01*
X162537515Y-75512984D01*
X162677525Y-75550500D01*
X162677528Y-75550500D01*
X162822472Y-75550500D01*
X162822475Y-75550500D01*
X162962485Y-75512984D01*
X163088015Y-75440509D01*
X163187319Y-75341205D01*
X163248642Y-75307720D01*
X163318334Y-75312704D01*
X163354997Y-75336267D01*
X163355539Y-75335562D01*
X163361988Y-75340511D01*
X163487511Y-75412982D01*
X163487512Y-75412982D01*
X163487515Y-75412984D01*
X163627525Y-75450500D01*
X163627528Y-75450500D01*
X163772472Y-75450500D01*
X163772475Y-75450500D01*
X163912485Y-75412984D01*
X164038015Y-75340509D01*
X164140509Y-75238015D01*
X164212984Y-75112485D01*
X164250500Y-74972475D01*
X164250500Y-74827525D01*
X164212984Y-74687515D01*
X164198244Y-74661985D01*
X164140511Y-74561988D01*
X164140506Y-74561982D01*
X164038017Y-74459493D01*
X164038011Y-74459488D01*
X163982650Y-74427525D01*
X167699500Y-74427525D01*
X167699500Y-74572475D01*
X167737016Y-74712485D01*
X167737017Y-74712488D01*
X167809488Y-74838011D01*
X167809490Y-74838013D01*
X167809491Y-74838015D01*
X167911985Y-74940509D01*
X167911986Y-74940510D01*
X167911988Y-74940511D01*
X168037511Y-75012982D01*
X168037512Y-75012982D01*
X168037515Y-75012984D01*
X168177525Y-75050500D01*
X168177528Y-75050500D01*
X168322474Y-75050500D01*
X168322475Y-75050500D01*
X168322475Y-75050499D01*
X168330532Y-75049439D01*
X168330959Y-75052688D01*
X168385466Y-75053937D01*
X168443364Y-75093047D01*
X168467591Y-75139989D01*
X168487017Y-75212488D01*
X168559488Y-75338011D01*
X168559490Y-75338013D01*
X168559491Y-75338015D01*
X168661985Y-75440509D01*
X168661986Y-75440510D01*
X168661988Y-75440511D01*
X168787511Y-75512982D01*
X168787512Y-75512982D01*
X168787515Y-75512984D01*
X168927525Y-75550500D01*
X168927528Y-75550500D01*
X169072472Y-75550500D01*
X169072475Y-75550500D01*
X169212485Y-75512984D01*
X169338015Y-75440509D01*
X169440509Y-75338015D01*
X169512984Y-75212485D01*
X169550500Y-75072475D01*
X169550500Y-74927525D01*
X169512984Y-74787515D01*
X169469665Y-74712485D01*
X169440511Y-74661988D01*
X169440506Y-74661982D01*
X169338017Y-74559493D01*
X169338015Y-74559491D01*
X169300860Y-74538039D01*
X169281367Y-74526785D01*
X169212485Y-74487016D01*
X169072475Y-74449500D01*
X168927525Y-74449500D01*
X168927523Y-74449500D01*
X168919469Y-74450561D01*
X168919044Y-74447336D01*
X168864379Y-74446013D01*
X168837087Y-74427525D01*
X176649500Y-74427525D01*
X176649500Y-74572475D01*
X176687016Y-74712485D01*
X176687017Y-74712488D01*
X176759488Y-74838011D01*
X176759490Y-74838013D01*
X176759491Y-74838015D01*
X176861985Y-74940509D01*
X176861986Y-74940510D01*
X176861988Y-74940511D01*
X176987511Y-75012982D01*
X176987512Y-75012982D01*
X176987515Y-75012984D01*
X177127525Y-75050500D01*
X177127528Y-75050500D01*
X177272472Y-75050500D01*
X177272475Y-75050500D01*
X177412485Y-75012984D01*
X177538015Y-74940509D01*
X177640509Y-74838015D01*
X177712984Y-74712485D01*
X177750500Y-74572475D01*
X177750500Y-74427525D01*
X177712984Y-74287515D01*
X177669665Y-74212485D01*
X177640511Y-74161988D01*
X177640506Y-74161982D01*
X177538017Y-74059493D01*
X177538015Y-74059491D01*
X177481367Y-74026785D01*
X177422556Y-73992830D01*
X177374341Y-73942262D01*
X177371501Y-73927525D01*
X179199500Y-73927525D01*
X179199500Y-74072475D01*
X179237016Y-74212485D01*
X179237017Y-74212488D01*
X179309488Y-74338011D01*
X179309490Y-74338013D01*
X179309491Y-74338015D01*
X179411985Y-74440509D01*
X179411986Y-74440510D01*
X179411988Y-74440511D01*
X179537511Y-74512982D01*
X179537512Y-74512982D01*
X179537515Y-74512984D01*
X179677525Y-74550500D01*
X179677528Y-74550500D01*
X179822472Y-74550500D01*
X179822475Y-74550500D01*
X179962485Y-74512984D01*
X180088015Y-74440509D01*
X180190509Y-74338015D01*
X180262984Y-74212485D01*
X180300500Y-74072475D01*
X180300500Y-73927525D01*
X191699500Y-73927525D01*
X191699500Y-74072475D01*
X191737016Y-74212485D01*
X191737017Y-74212488D01*
X191809488Y-74338011D01*
X191809490Y-74338013D01*
X191809491Y-74338015D01*
X191911985Y-74440509D01*
X191911986Y-74440510D01*
X191911988Y-74440511D01*
X192037511Y-74512982D01*
X192037512Y-74512982D01*
X192037515Y-74512984D01*
X192177525Y-74550500D01*
X192177528Y-74550500D01*
X192322472Y-74550500D01*
X192322475Y-74550500D01*
X192462485Y-74512984D01*
X192588015Y-74440509D01*
X192690509Y-74338015D01*
X192762984Y-74212485D01*
X192800500Y-74072475D01*
X192800500Y-73927525D01*
X192762984Y-73787515D01*
X192706977Y-73690509D01*
X192690511Y-73661988D01*
X192690506Y-73661982D01*
X192588017Y-73559493D01*
X192588011Y-73559488D01*
X192462488Y-73487017D01*
X192462489Y-73487017D01*
X192451006Y-73483940D01*
X192322475Y-73449500D01*
X192177525Y-73449500D01*
X192048993Y-73483940D01*
X192037511Y-73487017D01*
X191911988Y-73559488D01*
X191911982Y-73559493D01*
X191809493Y-73661982D01*
X191809488Y-73661988D01*
X191737017Y-73787511D01*
X191737016Y-73787515D01*
X191699500Y-73927525D01*
X180300500Y-73927525D01*
X180262984Y-73787515D01*
X180206977Y-73690509D01*
X180190511Y-73661988D01*
X180190506Y-73661982D01*
X180088017Y-73559493D01*
X180088011Y-73559488D01*
X179962488Y-73487017D01*
X179962489Y-73487017D01*
X179951006Y-73483940D01*
X179822475Y-73449500D01*
X179677525Y-73449500D01*
X179548993Y-73483940D01*
X179537511Y-73487017D01*
X179411988Y-73559488D01*
X179411982Y-73559493D01*
X179309493Y-73661982D01*
X179309488Y-73661988D01*
X179237017Y-73787511D01*
X179237016Y-73787515D01*
X179199500Y-73927525D01*
X177371501Y-73927525D01*
X177361119Y-73873655D01*
X177387087Y-73808791D01*
X177444001Y-73768263D01*
X177452440Y-73765675D01*
X177462485Y-73762984D01*
X177588015Y-73690509D01*
X177690509Y-73588015D01*
X177762984Y-73462485D01*
X177800500Y-73322475D01*
X177800500Y-73177525D01*
X177762984Y-73037515D01*
X177690509Y-72911985D01*
X177588015Y-72809491D01*
X177588013Y-72809490D01*
X177588011Y-72809488D01*
X177462488Y-72737017D01*
X177462489Y-72737017D01*
X177451006Y-72733940D01*
X177322475Y-72699500D01*
X177177525Y-72699500D01*
X177048993Y-72733940D01*
X177037511Y-72737017D01*
X176911988Y-72809488D01*
X176911982Y-72809493D01*
X176809493Y-72911982D01*
X176809488Y-72911988D01*
X176737017Y-73037511D01*
X176737016Y-73037515D01*
X176699500Y-73177525D01*
X176699500Y-73322475D01*
X176724535Y-73415904D01*
X176737017Y-73462488D01*
X176809488Y-73588011D01*
X176809490Y-73588013D01*
X176809491Y-73588015D01*
X176911985Y-73690509D01*
X177017946Y-73751686D01*
X177027443Y-73757169D01*
X177075658Y-73807737D01*
X177088880Y-73876344D01*
X177062912Y-73941208D01*
X177005998Y-73981736D01*
X176997539Y-73984330D01*
X176987513Y-73987016D01*
X176987511Y-73987017D01*
X176861988Y-74059488D01*
X176861982Y-74059493D01*
X176759493Y-74161982D01*
X176759488Y-74161988D01*
X176687017Y-74287511D01*
X176687016Y-74287515D01*
X176649500Y-74427525D01*
X168837087Y-74427525D01*
X168806532Y-74406827D01*
X168782409Y-74360012D01*
X168762984Y-74287515D01*
X168719665Y-74212485D01*
X168690511Y-74161988D01*
X168690506Y-74161982D01*
X168588017Y-74059493D01*
X168588011Y-74059488D01*
X168462488Y-73987017D01*
X168462489Y-73987017D01*
X168442780Y-73981736D01*
X168322475Y-73949500D01*
X168177525Y-73949500D01*
X168057220Y-73981736D01*
X168037511Y-73987017D01*
X167911988Y-74059488D01*
X167911982Y-74059493D01*
X167809493Y-74161982D01*
X167809488Y-74161988D01*
X167737017Y-74287511D01*
X167737016Y-74287515D01*
X167699500Y-74427525D01*
X163982650Y-74427525D01*
X163912488Y-74387017D01*
X163912489Y-74387017D01*
X163901006Y-74383940D01*
X163772475Y-74349500D01*
X163627525Y-74349500D01*
X163498993Y-74383940D01*
X163487511Y-74387017D01*
X163361988Y-74459488D01*
X163262681Y-74558795D01*
X163201358Y-74592279D01*
X163131666Y-74587295D01*
X163095001Y-74563734D01*
X163094461Y-74564438D01*
X163088011Y-74559488D01*
X162962488Y-74487017D01*
X162962489Y-74487017D01*
X162949498Y-74483536D01*
X162822475Y-74449500D01*
X162677525Y-74449500D01*
X162550502Y-74483536D01*
X162537511Y-74487017D01*
X162411988Y-74559488D01*
X162411982Y-74559493D01*
X162309493Y-74661982D01*
X162309488Y-74661988D01*
X162237017Y-74787511D01*
X162237016Y-74787515D01*
X162199500Y-74927525D01*
X155572475Y-74927525D01*
X156963681Y-73536319D01*
X157025004Y-73502834D01*
X157051362Y-73500000D01*
X164187084Y-73500000D01*
X164254123Y-73519685D01*
X164294470Y-73561997D01*
X164309491Y-73588015D01*
X164411985Y-73690509D01*
X164411986Y-73690510D01*
X164411988Y-73690511D01*
X164537511Y-73762982D01*
X164537512Y-73762982D01*
X164537515Y-73762984D01*
X164677525Y-73800500D01*
X164677528Y-73800500D01*
X164822472Y-73800500D01*
X164822475Y-73800500D01*
X164962485Y-73762984D01*
X165088015Y-73690509D01*
X165190509Y-73588015D01*
X165205529Y-73561998D01*
X165256097Y-73513784D01*
X165312916Y-73500000D01*
X170000000Y-73500000D01*
X170322475Y-73177525D01*
X171949500Y-73177525D01*
X171949500Y-73322475D01*
X171974535Y-73415904D01*
X171987017Y-73462488D01*
X172059488Y-73588011D01*
X172059490Y-73588013D01*
X172059491Y-73588015D01*
X172161985Y-73690509D01*
X172161986Y-73690510D01*
X172161988Y-73690511D01*
X172287511Y-73762982D01*
X172287512Y-73762982D01*
X172287515Y-73762984D01*
X172427525Y-73800500D01*
X172427528Y-73800500D01*
X172572472Y-73800500D01*
X172572475Y-73800500D01*
X172712485Y-73762984D01*
X172838015Y-73690509D01*
X172940509Y-73588015D01*
X173012984Y-73462485D01*
X173050500Y-73322475D01*
X173050500Y-73177525D01*
X173012984Y-73037515D01*
X172940509Y-72911985D01*
X172838015Y-72809491D01*
X172838013Y-72809490D01*
X172838011Y-72809488D01*
X172712488Y-72737017D01*
X172712489Y-72737017D01*
X172701006Y-72733940D01*
X172572475Y-72699500D01*
X172427525Y-72699500D01*
X172298993Y-72733940D01*
X172287511Y-72737017D01*
X172161988Y-72809488D01*
X172161982Y-72809493D01*
X172059493Y-72911982D01*
X172059488Y-72911988D01*
X171987017Y-73037511D01*
X171987016Y-73037515D01*
X171949500Y-73177525D01*
X170322475Y-73177525D01*
X172272474Y-71227525D01*
X180249500Y-71227525D01*
X180249500Y-71372475D01*
X180287016Y-71512485D01*
X180287017Y-71512488D01*
X180359488Y-71638011D01*
X180359490Y-71638013D01*
X180359491Y-71638015D01*
X180461985Y-71740509D01*
X180461986Y-71740510D01*
X180461988Y-71740511D01*
X180587511Y-71812982D01*
X180587512Y-71812982D01*
X180587515Y-71812984D01*
X180727525Y-71850500D01*
X180727528Y-71850500D01*
X180872472Y-71850500D01*
X180872475Y-71850500D01*
X181012485Y-71812984D01*
X181138015Y-71740509D01*
X181240509Y-71638015D01*
X181312984Y-71512485D01*
X181350500Y-71372475D01*
X181350500Y-71227525D01*
X181312984Y-71087515D01*
X181271983Y-71016500D01*
X181240511Y-70961988D01*
X181240506Y-70961982D01*
X181138017Y-70859493D01*
X181138011Y-70859488D01*
X181012488Y-70787017D01*
X181012489Y-70787017D01*
X181001006Y-70783940D01*
X180872475Y-70749500D01*
X180727525Y-70749500D01*
X180598993Y-70783940D01*
X180587511Y-70787017D01*
X180461988Y-70859488D01*
X180461982Y-70859493D01*
X180359493Y-70961982D01*
X180359488Y-70961988D01*
X180287017Y-71087511D01*
X180287016Y-71087515D01*
X180249500Y-71227525D01*
X172272474Y-71227525D01*
X173012425Y-70487574D01*
X173073746Y-70454091D01*
X173143438Y-70459075D01*
X173199371Y-70500947D01*
X173203206Y-70506366D01*
X173212229Y-70519871D01*
X173219399Y-70530601D01*
X173302260Y-70585966D01*
X173302264Y-70585967D01*
X173375321Y-70600499D01*
X173375324Y-70600500D01*
X173375326Y-70600500D01*
X175124676Y-70600500D01*
X175124677Y-70600499D01*
X175197740Y-70585966D01*
X175280601Y-70530601D01*
X175335966Y-70447740D01*
X175350500Y-70374674D01*
X175350500Y-70164949D01*
X175370185Y-70097910D01*
X175422989Y-70052155D01*
X175492147Y-70042211D01*
X175555703Y-70071236D01*
X175584985Y-70108654D01*
X175635379Y-70207557D01*
X175760272Y-70379459D01*
X175760276Y-70379464D01*
X175910535Y-70529723D01*
X175910540Y-70529727D01*
X176082442Y-70654620D01*
X176271782Y-70751095D01*
X176473871Y-70816757D01*
X176540000Y-70827231D01*
X176540000Y-69933012D01*
X176597007Y-69965925D01*
X176724174Y-70000000D01*
X176855826Y-70000000D01*
X176982993Y-69965925D01*
X177040000Y-69933012D01*
X177040000Y-70827230D01*
X177106126Y-70816757D01*
X177106129Y-70816757D01*
X177308217Y-70751095D01*
X177497557Y-70654620D01*
X177669459Y-70529727D01*
X177669464Y-70529723D01*
X177819723Y-70379464D01*
X177819727Y-70379459D01*
X177944620Y-70207557D01*
X178041096Y-70018215D01*
X178073238Y-69919290D01*
X178112674Y-69861614D01*
X178177033Y-69834415D01*
X178245879Y-69846329D01*
X178297356Y-69893573D01*
X178309096Y-69919277D01*
X178310125Y-69922444D01*
X178349642Y-70000000D01*
X178388767Y-70076788D01*
X178490585Y-70216928D01*
X178613071Y-70339414D01*
X178753211Y-70441232D01*
X178907554Y-70519873D01*
X179072298Y-70573402D01*
X179243388Y-70600500D01*
X179243389Y-70600500D01*
X179416609Y-70600500D01*
X179416610Y-70600500D01*
X179587700Y-70573402D01*
X179752444Y-70519873D01*
X179906787Y-70441232D01*
X180046927Y-70339414D01*
X180169413Y-70216928D01*
X180271231Y-70076788D01*
X180349872Y-69922445D01*
X180403401Y-69757701D01*
X180430499Y-69586611D01*
X180430499Y-69413389D01*
X180769500Y-69413389D01*
X180769500Y-69586611D01*
X180796598Y-69757701D01*
X180850127Y-69922445D01*
X180928768Y-70076788D01*
X181030586Y-70216928D01*
X181153072Y-70339414D01*
X181293212Y-70441232D01*
X181447555Y-70519873D01*
X181612299Y-70573402D01*
X181783389Y-70600500D01*
X181783390Y-70600500D01*
X181956610Y-70600500D01*
X181956611Y-70600500D01*
X182127701Y-70573402D01*
X182292445Y-70519873D01*
X182446788Y-70441232D01*
X182586928Y-70339414D01*
X182709414Y-70216928D01*
X182811232Y-70076788D01*
X182889873Y-69922445D01*
X182943402Y-69757701D01*
X182970500Y-69586611D01*
X182970500Y-69413389D01*
X183309500Y-69413389D01*
X183309500Y-69586611D01*
X183336598Y-69757701D01*
X183390127Y-69922445D01*
X183468768Y-70076788D01*
X183570586Y-70216928D01*
X183693072Y-70339414D01*
X183833212Y-70441232D01*
X183987555Y-70519873D01*
X184152299Y-70573402D01*
X184152302Y-70573402D01*
X184152303Y-70573403D01*
X184224143Y-70584781D01*
X184263687Y-70591044D01*
X184326822Y-70620973D01*
X184363754Y-70680284D01*
X184362756Y-70750147D01*
X184351677Y-70775517D01*
X184287017Y-70887511D01*
X184287016Y-70887515D01*
X184249500Y-71027525D01*
X184249500Y-71172475D01*
X184287016Y-71312485D01*
X184287017Y-71312488D01*
X184359488Y-71438011D01*
X184359490Y-71438013D01*
X184359491Y-71438015D01*
X184461985Y-71540509D01*
X184461986Y-71540510D01*
X184461988Y-71540511D01*
X184587511Y-71612982D01*
X184587512Y-71612982D01*
X184587515Y-71612984D01*
X184727525Y-71650500D01*
X184727528Y-71650500D01*
X184872472Y-71650500D01*
X184872475Y-71650500D01*
X185012485Y-71612984D01*
X185138015Y-71540509D01*
X185240509Y-71438015D01*
X185312984Y-71312485D01*
X185350500Y-71172475D01*
X185350500Y-71027525D01*
X189849500Y-71027525D01*
X189849500Y-71172475D01*
X189887016Y-71312485D01*
X189887017Y-71312488D01*
X189959488Y-71438011D01*
X189959490Y-71438013D01*
X189959491Y-71438015D01*
X190061985Y-71540509D01*
X190061986Y-71540510D01*
X190061988Y-71540511D01*
X190187511Y-71612982D01*
X190187512Y-71612982D01*
X190187515Y-71612984D01*
X190327525Y-71650500D01*
X190327528Y-71650500D01*
X190472472Y-71650500D01*
X190472475Y-71650500D01*
X190612485Y-71612984D01*
X190738015Y-71540509D01*
X190840509Y-71438015D01*
X190912984Y-71312485D01*
X190950500Y-71172475D01*
X190950500Y-71027525D01*
X190912984Y-70887515D01*
X190896805Y-70859493D01*
X190840511Y-70761988D01*
X190840506Y-70761982D01*
X190738017Y-70659493D01*
X190738011Y-70659488D01*
X190612488Y-70587017D01*
X190612489Y-70587017D01*
X190601006Y-70583940D01*
X190472475Y-70549500D01*
X190327525Y-70549500D01*
X190198993Y-70583940D01*
X190187511Y-70587017D01*
X190061988Y-70659488D01*
X190061982Y-70659493D01*
X189959493Y-70761982D01*
X189959488Y-70761988D01*
X189887017Y-70887511D01*
X189887016Y-70887515D01*
X189849500Y-71027525D01*
X185350500Y-71027525D01*
X185312984Y-70887515D01*
X185296805Y-70859493D01*
X185240511Y-70761988D01*
X185240506Y-70761982D01*
X185138017Y-70659493D01*
X185138015Y-70659491D01*
X185071300Y-70620973D01*
X185051720Y-70609668D01*
X185003505Y-70559100D01*
X184990283Y-70490493D01*
X185016251Y-70425628D01*
X185040833Y-70401965D01*
X185126928Y-70339414D01*
X185249414Y-70216928D01*
X185351232Y-70076788D01*
X185429873Y-69922445D01*
X185483402Y-69757701D01*
X185510500Y-69586611D01*
X185510500Y-69413389D01*
X185849500Y-69413389D01*
X185849500Y-69586611D01*
X185876598Y-69757701D01*
X185930127Y-69922445D01*
X186008768Y-70076788D01*
X186110586Y-70216928D01*
X186233072Y-70339414D01*
X186373212Y-70441232D01*
X186527555Y-70519873D01*
X186692299Y-70573402D01*
X186863389Y-70600500D01*
X186863390Y-70600500D01*
X187036610Y-70600500D01*
X187036611Y-70600500D01*
X187207701Y-70573402D01*
X187372445Y-70519873D01*
X187526788Y-70441232D01*
X187666928Y-70339414D01*
X187789414Y-70216928D01*
X187891232Y-70076788D01*
X187969873Y-69922445D01*
X188023402Y-69757701D01*
X188050500Y-69586611D01*
X188050500Y-69413389D01*
X188023402Y-69242299D01*
X187969873Y-69077555D01*
X187891232Y-68923212D01*
X187789414Y-68783072D01*
X187666928Y-68660586D01*
X187526788Y-68558768D01*
X187372445Y-68480127D01*
X187207701Y-68426598D01*
X187207699Y-68426597D01*
X187207698Y-68426597D01*
X187037204Y-68399594D01*
X187036611Y-68399500D01*
X186863389Y-68399500D01*
X186862796Y-68399594D01*
X186692302Y-68426597D01*
X186527552Y-68480128D01*
X186373211Y-68558768D01*
X186293256Y-68616859D01*
X186233072Y-68660586D01*
X186233070Y-68660588D01*
X186233069Y-68660588D01*
X186110588Y-68783069D01*
X186110588Y-68783070D01*
X186110586Y-68783072D01*
X186072822Y-68835050D01*
X186008768Y-68923211D01*
X185930128Y-69077552D01*
X185876597Y-69242302D01*
X185866349Y-69307007D01*
X185849500Y-69413389D01*
X185510500Y-69413389D01*
X185483402Y-69242299D01*
X185429873Y-69077555D01*
X185351232Y-68923212D01*
X185249414Y-68783072D01*
X185126928Y-68660586D01*
X184986788Y-68558768D01*
X184832445Y-68480127D01*
X184667701Y-68426598D01*
X184667699Y-68426597D01*
X184667698Y-68426597D01*
X184497204Y-68399594D01*
X184496611Y-68399500D01*
X184323389Y-68399500D01*
X184322796Y-68399594D01*
X184152302Y-68426597D01*
X183987552Y-68480128D01*
X183833211Y-68558768D01*
X183753256Y-68616859D01*
X183693072Y-68660586D01*
X183693070Y-68660588D01*
X183693069Y-68660588D01*
X183570588Y-68783069D01*
X183570588Y-68783070D01*
X183570586Y-68783072D01*
X183532822Y-68835050D01*
X183468768Y-68923211D01*
X183390128Y-69077552D01*
X183336597Y-69242302D01*
X183326349Y-69307007D01*
X183309500Y-69413389D01*
X182970500Y-69413389D01*
X182943402Y-69242299D01*
X182889873Y-69077555D01*
X182811232Y-68923212D01*
X182709414Y-68783072D01*
X182586928Y-68660586D01*
X182446788Y-68558768D01*
X182292445Y-68480127D01*
X182127701Y-68426598D01*
X182127699Y-68426597D01*
X182127698Y-68426597D01*
X181957204Y-68399594D01*
X181956611Y-68399500D01*
X181783389Y-68399500D01*
X181782796Y-68399594D01*
X181612302Y-68426597D01*
X181447552Y-68480128D01*
X181293211Y-68558768D01*
X181213256Y-68616859D01*
X181153072Y-68660586D01*
X181153070Y-68660588D01*
X181153069Y-68660588D01*
X181030588Y-68783069D01*
X181030588Y-68783070D01*
X181030586Y-68783072D01*
X180992822Y-68835050D01*
X180928768Y-68923211D01*
X180850128Y-69077552D01*
X180796597Y-69242302D01*
X180786349Y-69307007D01*
X180769500Y-69413389D01*
X180430499Y-69413389D01*
X180403401Y-69242299D01*
X180349872Y-69077555D01*
X180271231Y-68923212D01*
X180169413Y-68783072D01*
X180046927Y-68660586D01*
X179906787Y-68558768D01*
X179752444Y-68480127D01*
X179587700Y-68426598D01*
X179587698Y-68426597D01*
X179587697Y-68426597D01*
X179417203Y-68399594D01*
X179416610Y-68399500D01*
X179243388Y-68399500D01*
X179242795Y-68399594D01*
X179072301Y-68426597D01*
X178907551Y-68480128D01*
X178753210Y-68558768D01*
X178673255Y-68616859D01*
X178613071Y-68660586D01*
X178613069Y-68660588D01*
X178613068Y-68660588D01*
X178490587Y-68783069D01*
X178490587Y-68783070D01*
X178490585Y-68783072D01*
X178452821Y-68835050D01*
X178388767Y-68923211D01*
X178310126Y-69077553D01*
X178309095Y-69080727D01*
X178308377Y-69081775D01*
X178308265Y-69082048D01*
X178308207Y-69082024D01*
X178269649Y-69138397D01*
X178205287Y-69165586D01*
X178136442Y-69153662D01*
X178084973Y-69106410D01*
X178073238Y-69080709D01*
X178041096Y-68981784D01*
X177944620Y-68792442D01*
X177819727Y-68620540D01*
X177819723Y-68620535D01*
X177669464Y-68470276D01*
X177669459Y-68470272D01*
X177497557Y-68345379D01*
X177308215Y-68248903D01*
X177106124Y-68183241D01*
X177040000Y-68172768D01*
X177040000Y-69066988D01*
X176982993Y-69034075D01*
X176855826Y-69000000D01*
X176724174Y-69000000D01*
X176597007Y-69034075D01*
X176540000Y-69066988D01*
X176540000Y-68172768D01*
X176539999Y-68172768D01*
X176473875Y-68183241D01*
X176271784Y-68248903D01*
X176082442Y-68345379D01*
X175910540Y-68470272D01*
X175910535Y-68470276D01*
X175760276Y-68620535D01*
X175760272Y-68620540D01*
X175635379Y-68792442D01*
X175584985Y-68891345D01*
X175537010Y-68942141D01*
X175469189Y-68958936D01*
X175403054Y-68936398D01*
X175359603Y-68881683D01*
X175350500Y-68835050D01*
X175350500Y-68625323D01*
X175350499Y-68625321D01*
X175335967Y-68552264D01*
X175335966Y-68552260D01*
X175280601Y-68469399D01*
X175256365Y-68453205D01*
X175211561Y-68399594D01*
X175202854Y-68330269D01*
X175233008Y-68267242D01*
X175237557Y-68262442D01*
X175963681Y-67536319D01*
X176025004Y-67502834D01*
X176051362Y-67500000D01*
X192348866Y-67500000D01*
X192415905Y-67519685D01*
G37*
%TD.AperFunction*%
%TD*%
M02*
